<?xml version="1.0" encoding="UTF-8"?>
<svg width="1000px" height="229px" viewBox="0 0 1000 229" version="1.1" xmlns="http://www.w3.org/2000/svg" xmlns:xlink="http://www.w3.org/1999/xlink">
    <!-- Generator: Sketch 48.2 (47327) - http://www.bohemiancoding.com/sketch -->
    <title>KG_Corp_wTag_201_4C</title>
    <desc>Created with Sketch.</desc>
    <defs></defs>
    <g id="Page-1" stroke="none" stroke-width="1" fill="none" fill-rule="evenodd">
        <g id="KG_Corp_wTag_201_4C">
            <path d="M137.826569,112.495212 C137.826569,127.846327 125.361632,140.532095 109.985062,140.532095 C94.608492,140.532095 82.1383087,127.846327 82.1383087,112.174729 C82.1383087,96.5191557 94.608492,83.8227046 109.985062,83.8227046 L219.28934,83.8227046 L219.28934,45.6852792 L109.985062,45.6852792 C73.9175358,45.6852792 44.6700508,75.4527683 44.6700508,112.174729 C44.6700508,148.907373 73.9175358,178.680203 109.985062,178.680203 C145.837495,178.680203 175.079734,148.592231 175.431228,112.48987 L137.826569,112.495212 Z" id="Fill-1" fill="#9D1535"></path>
            <path d="M110.147033,39.3784097 L220.199542,39.3784097 L220.199542,0 L110.147033,0 C49.3154129,0 0,50.2298009 0,112.182741 C0,174.146378 49.3154129,224.365482 110.147033,224.365482 C170.978653,224.365482 220.304569,174.146378 220.304569,112.508978 L181.644142,112.508978 C181.644142,152.384766 149.631922,184.997769 110.147033,184.997769 C70.6673956,184.997769 38.6656783,152.384766 38.6656783,112.182741 C38.6656783,71.9700204 70.6673956,39.3784097 110.147033,39.3784097" id="Fill-3" fill="#9D1535"></path>
            <path d="M209.060681,212.359755 L210.174327,212.359755 C211.456868,212.359755 212.549403,211.901601 212.549403,210.704152 C212.549403,209.865938 211.921328,209.022517 210.174327,209.022517 C209.667645,209.022517 209.329856,209.053755 209.060681,209.105818 L209.060681,212.359755 Z M209.060681,217.675387 L207.498409,217.675387 L207.498409,208.069764 C208.31649,207.944813 209.092349,207.845894 210.258775,207.845894 C211.736599,207.845894 212.697186,208.147859 213.27776,208.574775 C213.863612,208.996486 214.169733,209.647273 214.169733,210.568788 C214.169733,211.8183 213.319983,212.594039 212.27495,212.90121 L212.27495,212.95848 C213.124699,213.119875 213.705273,213.895614 213.900557,215.306521 C214.132787,216.805935 214.370294,217.363009 214.518077,217.675387 L212.89247,217.675387 C212.665518,217.363009 212.42801,216.488351 212.232726,215.218014 C211.995219,214.004946 211.372421,213.541585 210.137382,213.541585 L209.060681,213.541585 L209.060681,217.675387 Z M210.68101,205.393726 C206.838666,205.393726 203.698288,208.637251 203.698288,212.666927 C203.698288,216.74346 206.838666,219.966159 210.712678,219.966159 C214.597246,220.007809 217.705956,216.74346 217.705956,212.692958 C217.705956,208.637251 214.597246,205.393726 210.712678,205.393726 L210.68101,205.393726 Z M210.712678,204.060914 C215.494497,204.060914 219.28934,207.887544 219.28934,212.666927 C219.28934,217.524405 215.494497,221.319797 210.68101,221.319797 C205.909747,221.319797 202.030457,217.524405 202.030457,212.666927 C202.030457,207.887544 205.909747,204.060914 210.68101,204.060914 L210.712678,204.060914 Z" id="Fill-5" fill="#636463"></path>
            <path d="M665.245361,67.9041786 L720.812183,67.9041786 L720.812183,140.633146 L702.284662,140.633146 L699.514191,123.647771 C692.472579,131.921877 682.293199,144.162437 658.130289,144.162437 C626.028513,144.162437 596.954315,120.827538 596.954315,73.5499767 C596.954315,36.6576986 617.13992,1.84460968 662.034134,2.03120357 C702.830361,2.03120357 718.944214,28.9380428 720.439638,47.5707757 L692.650981,47.5707757 C692.650981,42.3034967 683.185207,25.3607713 663.387887,25.3607713 C643.616802,25.3607713 625.293918,39.2966694 625.293918,73.9178332 C625.293918,110.708817 645.085991,120.251762 663.949327,120.251762 C670.062202,120.251762 690.426209,117.826042 696.187528,90.6473084 L665.245361,90.6473084 L665.245361,67.9041786 Z" id="Fill-7" fill="#1A1919"></path>
            <path d="M819.61646,66.7093534 C819.61646,41.948322 794.129638,37.9007943 780.229169,37.5906799 C759.139165,37.1148147 740.74721,42.7075676 737.044625,67.7412858 L762.257961,67.7412858 C762.079143,66.8911446 765.161124,58.6089512 777.073558,58.7907424 C783.752935,58.8869848 794.129638,59.3521564 794.129638,70.4735007 C794.129638,76.135762 789.117475,77.8360445 785.046736,78.4081521 L761.689951,81.9851614 C745.20714,84.428649 732.994924,94.4325121 732.994924,114.044575 C732.994924,134.667183 748.178675,143.147208 762.989011,143.147208 C780.607842,143.147208 788.933398,134.854321 794.871207,128.625299 C795.433957,134.410537 795.802112,135.912988 797.285249,140.602131 L825.380711,140.602131 L825.380711,136.66154 C822.235618,135.528018 819.61646,132.892045 819.61646,121.016802 L819.61646,66.7093534 Z M794.129638,104.607473 C794.129638,116.755403 782.453875,124.283697 770.96219,124.283697 C765.950027,124.283697 758.923532,121.465934 758.923532,112.237357 C758.923532,101.313844 766.886192,98.875703 776.526585,97.1807674 C787.276701,95.4858317 791.531518,93.7962429 794.129638,91.7216844 L794.129638,104.607473 Z" id="Fill-9" fill="#1A1919"></path>
            <path d="M888.702641,38.9769874 C872.969287,38.9769874 866.997847,46.9919799 861.634561,57.1482195 L861.267572,57.1482195 L861.267572,39.7672731 L836.548223,39.7672731 L836.548223,140.101523 L862.363297,140.101523 L862.363297,87.8679076 C862.363297,76.7451698 866.069888,62.0875054 886.23857,62.0875054 C888.655457,62.0875054 889.520503,62.0234281 892.010787,62.0074088 L897.95077,61.98071 L897.95077,140.101523 L923.776329,140.101523 L923.776329,61.9326521 L957.324391,61.9326521 L957.324391,140.101523 L983.165678,140.101523 L983.165678,61.9326521 L1000,61.9326521 L1000,38.8915511 L983.165678,38.8915511 L983.165678,35.7998251 C983.165678,27.4804658 983.354415,24.6450488 992.219828,24.6450488 L999.449516,24.6450488 L999.449516,3.41946907 C997.221367,3.23791694 993.708755,3.04568528 986.122563,3.04568528 C968.386496,3.04568528 957.324391,10.9378631 957.324391,31.6401455 L957.324391,38.8915511 L923.776329,38.8915511 L923.776329,35.7998251 C923.776329,27.4804658 923.965067,24.6450488 932.856692,24.6450488 L940.06541,24.6450488 L940.06541,3.41946907 C937.842504,3.23791694 934.335135,3.04568528 926.754185,3.04568528 C909.012875,3.04568528 897.95077,10.9378631 897.95077,31.6401455 L897.95077,38.9769874 L888.702641,38.9769874 Z" id="Fill-11" fill="#1A1919"></path>
            <polygon id="Fill-13" fill="#1A1919" points="279.30349 140.101523 250.761421 140.101523 250.761421 1.01522843 279.30349 1.01522843 279.30349 57.5878148 331.432224 1.01522843 368.343416 1.01522843 312.591208 57.9724442 371.573604 140.101523 334.856433 140.101523 292.628016 79.0843292 279.30349 93.03249"></polygon>
            <path d="M430.07458,111.074035 C428.051623,118.234607 420.670705,122.00698 413.472743,122.00698 C392.626355,122.00698 391.15749,105.049976 390.415216,97.4998948 L457.86802,97.4998948 L457.86802,92.8044377 C457.86802,46.997052 430.999808,37.5634518 411.622286,37.5634518 C368.544282,37.5634518 364.467005,76.2582871 364.467005,88.3010675 C364.467005,129.567733 385.77862,143.147208 413.472743,143.147208 C430.262762,143.147208 449.901648,135.202281 456.75461,111.074035 L430.07458,111.074035 Z M391.15749,80.409498 C392.626355,67.1821819 399.082044,59.2479265 411.251149,59.2479265 C419.557295,59.2479265 429.703443,64.1568135 431.177535,80.409498 L391.15749,80.409498 Z" id="Fill-15" fill="#1A1919"></path>
            <path d="M557.360406,140.101523 L531.586747,140.101523 L531.586747,79.3799349 C531.586747,72.0538715 531.214355,59.6489048 514.939291,59.6489048 C503.58923,59.6489048 494.803948,67.5434621 494.803948,82.7694459 L494.803948,140.101523 L469.035533,140.101523 L469.035533,40.105585 L493.692019,40.105585 L493.692019,54.7845275 L494.06441,54.7845275 C497.552299,48.7992517 504.868997,37.5634518 523.352183,37.5634518 C542.443783,37.5634518 557.360406,48.9815988 557.360406,70.9329731 L557.360406,140.101523 Z" id="Fill-17" fill="#1A1919"></path>
            <polygon id="Fill-19" fill="#9D1535" points="537.397404 223.350254 530.459495 195.029573 530.348531 195.029573 523.511017 223.350254 514.396095 223.350254 503.553299 181.725888 512.557258 181.725888 519.046026 210.041199 519.146422 210.041199 526.263988 181.725888 534.713125 181.725888 541.688023 210.406419 541.814839 210.406419 548.525536 181.725888 557.360406 181.725888 546.337955 223.350254"></polygon>
            <polygon id="Fill-21" fill="#9D1535" points="596.514336 181.725888 596.514336 189.427739 575.32291 189.427739 575.32291 198.343409 594.754423 198.343409 594.754423 205.44372 575.32291 205.44372 575.32291 215.643033 596.954315 215.643033 596.954315 223.350254 566.497462 223.350254 566.497462 181.725888"></polygon>
            <polygon id="Fill-23" fill="#9D1535" points="638.416455 181.725888 638.416455 197.704274 654.974014 197.704274 654.974014 181.725888 663.959391 181.725888 663.959391 223.350254 654.974014 223.350254 654.974014 205.395382 638.416455 205.395382 638.416455 223.350254 629.441624 223.350254 629.441624 181.725888"></polygon>
            <polygon id="Fill-25" fill="#9D1535" points="707.174085 181.725888 707.174085 189.427739 685.975453 189.427739 685.975453 198.343409 705.418752 198.343409 705.418752 205.44372 685.975453 205.44372 685.975453 215.643033 707.614213 215.643033 707.614213 223.350254 677.15736 223.350254 677.15736 181.725888"></polygon>
            <path d="M739.687073,207.253709 L734.588293,191.98428 L734.478585,191.98428 L729.19696,207.253709 L739.687073,207.253709 Z M739.175105,181.725888 L754.314721,223.350254 L745.067958,223.350254 L741.996152,214.080105 L726.872208,214.080105 L723.690695,223.350254 L714.720812,223.350254 L730.053722,181.725888 L739.175105,181.725888 Z" id="Fill-27" fill="#9D1535"></path>
            <path d="M781.900571,200.545472 C783.933767,200.545472 785.44961,200.083576 786.453274,199.143671 C787.472459,198.22525 787.979464,196.699918 787.979464,194.605273 C787.979464,192.580449 787.472459,191.119568 786.453274,190.195775 C785.44961,189.298837 783.933767,188.826199 781.900571,188.826199 L772.251945,188.826199 L772.251945,200.545472 L781.900571,200.545472 Z M785.061595,181.725888 C786.851635,181.725888 788.470949,182.015916 789.904016,182.617455 C791.352603,183.240478 792.589076,184.067595 793.628955,185.098805 C794.648139,186.151498 795.429342,187.359948 795.99843,188.740265 C796.520956,190.136696 796.8055,191.613689 796.8055,193.203471 C796.8055,195.668708 796.303668,197.768724 795.300004,199.557229 C794.31186,201.356476 792.692546,202.709939 790.442063,203.633732 L790.442063,203.762633 C791.518156,204.079515 792.444217,204.541411 793.142643,205.180547 C793.851416,205.830424 794.436025,206.571606 794.891295,207.468544 C795.336218,208.333257 795.66215,209.289275 795.858744,210.347339 C796.081206,211.400033 796.205371,212.436614 796.2778,213.489307 C796.324362,214.155297 796.370924,214.928705 796.401965,215.831014 C796.438179,216.71721 796.500262,217.635631 796.588212,218.559424 C796.691682,219.5047 796.836541,220.374783 797.048655,221.223383 C797.245249,222.05587 797.550488,222.764827 797.969543,223.350254 L789.148681,223.350254 C788.667543,222.018274 788.372652,220.444605 788.264008,218.629245 C788.13467,216.78166 787.979464,215.041493 787.746655,213.376519 C787.446591,211.190568 786.815421,209.616899 785.863492,208.59643 C784.875348,207.597446 783.287076,207.087211 781.072807,207.087211 L772.251945,207.087211 L772.251945,223.350254 L763.451777,223.350254 L763.451777,181.725888 L785.061595,181.725888 Z" id="Fill-29" fill="#9D1535"></path>
            <polygon id="Fill-31" fill="#9D1535" points="822.335025 180.71066 832.248577 180.71066 841.684117 197.1467 851.052112 180.71066 860.913706 180.71066 845.970637 206.355393 845.970637 222.335025 837.101437 222.335025 837.101437 206.103026"></polygon>
            <path d="M874.427477,207.863604 C874.817232,209.52295 875.461626,211.00451 876.319087,212.329832 C877.181745,213.665929 878.304239,214.721877 879.691767,215.519226 C881.089688,216.311186 882.768233,216.715248 884.779369,216.715248 C886.774914,216.715248 888.469049,216.311186 889.846183,215.519226 C891.233711,214.721877 892.361402,213.665929 893.23965,212.329832 C894.097111,211.00451 894.725916,209.52295 895.126064,207.863604 C895.510622,206.193482 895.728885,204.512586 895.728885,202.750877 C895.728885,200.908356 895.510622,199.141259 895.126064,197.42265 C894.725916,195.704041 894.097111,194.173995 893.23965,192.837897 C892.361402,191.491025 891.233711,190.413527 889.846183,189.616179 C888.469049,188.813443 886.774914,188.430931 884.779369,188.430931 C882.768233,188.430931 881.089688,188.813443 879.691767,189.616179 C878.304239,190.413527 877.181745,191.491025 876.319087,192.837897 C875.461626,194.173995 874.817232,195.704041 874.427477,197.42265 C874.032525,199.141259 873.829852,200.908356 873.829852,202.750877 C873.829852,204.512586 874.032525,206.193482 874.427477,207.863604 M866.32577,194.05547 C867.245592,191.410213 868.518791,189.045105 870.218123,187.084059 C871.922651,185.079913 874.006541,183.539092 876.454202,182.386169 C878.917454,181.265571 881.692509,180.71066 884.779369,180.71066 C887.897408,180.71066 890.672464,181.265571 893.130519,182.386169 C895.56259,183.539092 897.636086,185.079913 899.335418,187.084059 C901.024356,189.045105 902.313146,191.410213 903.222574,194.05547 C904.121609,196.733052 904.568528,199.620746 904.568528,202.750877 C904.568528,205.789421 904.121609,208.62324 903.222574,211.246947 C902.313146,213.881429 901.024356,216.176499 899.335418,218.115995 C897.636086,220.077041 895.56259,221.607088 893.130519,222.711523 C890.672464,223.832121 887.897408,224.365482 884.779369,224.365482 C881.692509,224.365482 878.917454,223.832121 876.454202,222.711523 C874.006541,221.607088 871.922651,220.077041 870.218123,218.115995 C868.518791,216.176499 867.245592,213.881429 866.32577,211.246947 C865.437129,208.62324 864.974619,205.789421 864.974619,202.750877 C864.974619,199.620746 865.437129,196.733052 866.32577,194.05547" id="Fill-33" fill="#9D1535"></path>
            <path d="M945.652483,220.257653 C942.607566,223.008768 938.366617,224.365482 932.960975,224.365482 C927.492659,224.365482 923.246488,223.030303 920.232908,220.289955 C917.234996,217.549608 915.736041,213.371789 915.736041,207.664975 L915.736041,181.725888 L924.630541,181.725888 L924.630541,207.664975 C924.630541,208.784802 924.729776,209.90463 924.923021,210.986771 C925.111043,212.07968 925.502756,213.043378 926.103383,213.883249 C926.709233,214.728503 927.55011,215.417628 928.636462,215.939855 C929.707144,216.451315 931.148649,216.715121 932.960975,216.715121 C936.141687,216.715121 938.345726,215.999077 939.536534,214.529303 C940.753456,213.064913 941.348861,210.766036 941.348861,207.664975 L941.348861,181.725888 L950.253807,181.725888 L950.253807,207.664975 C950.253807,213.339486 948.728737,217.511921 945.652483,220.257653" id="Fill-35" fill="#9D1535"></path>
            <path d="M983.597298,215.800969 C984.926863,211.054366 985.32302,206.565206 985.32302,201.974141 C985.32302,197.324079 984.704365,193.017275 983.619005,188.592475 C982.653036,184.607474 981.30719,182.097406 979.695431,178.643381 C981.56225,177.919323 985.32302,175.634518 985.32302,175.634518 C987.792212,179.635609 989.512507,183.781512 990.852925,188.200948 C992.209625,192.63111 992.893401,197.130997 992.893401,201.700608 C992.893401,203.867419 992.719744,206.168315 992.404989,208.544298 C992.068528,210.941734 991.569263,213.323081 990.91262,215.677611 C990.266831,218.037504 989.463666,220.338399 988.508549,222.553481 C987.553433,224.757835 986.71228,226.576025 985.426129,228.426396 C985.426129,228.426396 981.768468,226.275675 979.988478,225.497983 C981.56225,222.183406 982.620475,219.265721 983.597298,215.800969" id="Fill-37" fill="#636463"></path>
            <path d="M966.573111,214.349323 C967.861333,210.035993 968.162831,205.991917 968.162831,201.477967 C968.162831,196.905943 967.674951,192.539819 966.474438,188.606611 C966.178421,187.635188 965.83855,187.001652 965.482234,185.81905 C967.620134,184.805391 969.396235,183.686142 971.556062,182.741117 C972.487967,184.763155 972.926511,185.871844 973.573363,187.988913 C974.943812,192.339199 975.634518,196.773957 975.634518,201.272068 C975.634518,203.410254 975.4591,205.664589 975.135674,208.008675 C974.801285,210.3686 974.285996,212.702127 973.661072,215.025095 C972.997774,217.348064 972.827839,218.139985 971.863043,220.304569 C969.988269,219.322587 965.569942,217.052413 965.569942,217.052413 C965.986559,216.1813 966.178421,215.695588 966.573111,214.349323" id="Fill-39" fill="#636463"></path>
            <path d="M474.828552,225.492918 C473.054719,226.275894 469.398562,228.426396 469.398562,228.426396 C468.10209,226.57085 467.272132,224.752845 466.306559,222.548714 C465.351835,220.333858 464.543575,218.033196 463.908901,215.673543 C463.257953,213.319252 462.764317,210.938148 462.417145,208.546317 C462.097096,206.165213 461.928934,203.869914 461.928934,201.69796 C461.928934,197.128814 462.607005,192.629384 463.968571,188.205034 C465.313863,183.786047 467.022602,179.635203 469.501628,175.634518 C469.501628,175.634518 473.255428,177.919091 475.126904,178.648438 C473.510383,182.09675 472.16509,184.606563 471.194093,188.591159 C470.114604,193.015509 469.496204,197.321876 469.496204,201.971466 C469.496204,206.567426 469.892197,211.05613 471.22664,215.796888 C472.203062,219.261288 473.255428,222.184041 474.828552,225.492918" id="Fill-41" fill="#636463"></path>
            <path d="M488.226254,217.052413 C488.226254,217.052413 483.815791,219.327866 481.942028,220.304569 C480.977753,218.139985 480.807909,217.353343 480.14497,215.025095 C479.514904,212.707407 479.005372,210.3686 478.660205,208.008675 C478.342433,205.669869 478.172589,203.410254 478.172589,201.277347 C478.172589,196.773957 478.851965,192.339199 480.221674,187.988913 C480.873655,185.877124 481.311962,184.763155 482.237886,182.741117 C484.407505,183.691422 486.188127,184.81067 488.324873,185.81905 C487.957791,187.006931 487.623582,187.640468 487.327725,188.606611 C486.133338,192.539819 485.634764,196.911223 485.634764,201.483247 C485.634764,205.991917 485.941579,210.035993 487.229106,214.349323 C487.629061,215.695588 487.826299,216.1813 488.226254,217.052413" id="Fill-43" fill="#636463"></path>
        </g>
    </g>
</svg>