<?xml version="1.0" encoding="UTF-8"?>
<svg width="1000px" height="232px" viewBox="0 0 1000 232" version="1.1" xmlns="http://www.w3.org/2000/svg" xmlns:xlink="http://www.w3.org/1999/xlink">
    <!-- Generator: Sketch 48.2 (47327) - http://www.bohemiancoding.com/sketch -->
    <title>KG_Corp_wTag_201_4C_RV</title>
    <desc>Created with Sketch.</desc>
    <defs></defs>
    <g id="Page-1" stroke="none" stroke-width="1" fill="none" fill-rule="evenodd">
        <g id="KG_Corp_wTag_201_4C_RV">
            <path d="M138.190376,114.817181 C138.190376,130.399735 125.775853,143.276758 110.461473,143.276758 C95.1470937,143.276758 82.727346,130.399735 82.727346,114.491867 C82.727346,98.6002651 95.1470937,85.7123981 110.461473,85.7123981 L219.323671,85.7123981 L219.323671,47 L110.461473,47 C74.5398219,47 45.410628,77.2162737 45.410628,114.491867 C45.410628,151.778304 74.5398219,182 110.461473,182 C146.168901,182 175.29287,151.458412 175.642943,114.81176 L138.190376,114.817181 Z" id="Fill-1" fill="#9D1535"></path>
            <path d="M110.139677,40.0163043 L220.184835,40.0163043 L220.184835,0 L110.139677,0 C49.3121193,0 0,51.0434783 0,114 C0,176.967391 49.3121193,228 110.139677,228 C170.967234,228 220.289855,176.967391 220.289855,114.331522 L181.63201,114.331522 C181.63201,154.853261 149.621928,187.994565 110.139677,187.994565 C70.6626759,187.994565 38.663096,154.853261 38.663096,114 C38.663096,73.1358696 70.6626759,40.0163043 110.139677,40.0163043" id="Fill-3" fill="#9D1535"></path>
            <path d="M208.622967,216.174359 L209.682814,216.174359 C210.903396,216.174359 211.943152,215.723077 211.943152,214.54359 C211.943152,213.717949 211.345418,212.887179 209.682814,212.887179 C209.200609,212.887179 208.879138,212.917949 208.622967,212.969231 L208.622967,216.174359 Z M208.622967,221.410256 L207.136167,221.410256 L207.136167,211.948718 C207.914728,211.825641 208.653105,211.728205 209.763182,211.728205 C211.169614,211.728205 212.083795,212.025641 212.636322,212.446154 C213.193872,212.861538 213.485204,213.502564 213.485204,214.410256 C213.485204,215.641026 212.676506,216.405128 211.681957,216.707692 L211.681957,216.764103 C212.490656,216.923077 213.043183,217.687179 213.229033,219.076923 C213.450044,220.553846 213.676077,221.102564 213.816721,221.410256 L212.269645,221.410256 C212.053657,221.102564 211.827623,220.241026 211.641773,218.989744 C211.41574,217.794872 210.823029,217.338462 209.647653,217.338462 L208.622967,217.338462 L208.622967,221.410256 Z M210.165019,209.312821 C206.508295,209.312821 203.519627,212.507692 203.519627,216.476923 C203.519627,220.492308 206.508295,223.666667 210.195157,223.666667 C213.892065,223.707692 216.850596,220.492308 216.850596,216.502564 C216.850596,212.507692 213.892065,209.312821 210.195157,209.312821 L210.165019,209.312821 Z M210.195157,208 C214.745971,208 218.357488,211.769231 218.357488,216.476923 C218.357488,221.261538 214.745971,225 210.165019,225 C205.624252,225 201.932367,221.261538 201.932367,216.476923 C201.932367,211.769231 205.624252,208 210.165019,208 L210.195157,208 Z" id="Fill-5" fill="#FFFFFE"></path>
            <path d="M665.289737,69.2029594 L720.772947,69.2029594 L720.772947,143.399494 L702.273304,143.399494 L699.507003,126.071378 C692.475986,134.512444 682.311923,147 658.185372,147 C626.131899,147 597.101449,123.194236 597.101449,74.9626815 C597.101449,37.32597 617.256681,1.81040269 662.083342,2.00076178 C702.818182,2.00076178 718.907789,29.4505426 720.400963,48.4592574 L692.654119,48.4592574 C692.654119,43.0856922 683.202588,25.8010869 663.435058,25.8010869 C643.693723,25.8010869 625.39841,40.0181915 625.39841,75.3379609 C625.39841,112.871335 645.160701,122.606842 663.995653,122.606842 C670.09933,122.606842 690.432695,120.132174 696.185345,92.405013 L665.289737,92.405013 L665.289737,69.2029594 Z" id="Fill-7" fill="#FFFFFE"></path>
            <path d="M820.299756,67.5368491 C820.299756,42.4436865 794.711457,38.3418674 780.755643,38.0275933 C759.581669,37.5453451 741.116485,43.2131162 737.399159,68.5826233 L762.712882,68.5826233 C762.533352,67.7210787 765.627604,59.3277924 777.587467,59.5120221 C784.293439,59.6095554 794.711457,60.0809666 794.711457,71.3514866 C794.711457,77.0896985 789.679338,78.8127876 785.592391,79.3925691 L762.142611,83.0175585 C745.594173,85.4938218 733.333333,95.6318713 733.333333,115.507 C733.333333,136.406228 748.577539,145 763.446843,145 C781.135824,145 789.494527,136.595877 795.455978,130.283302 C796.020969,136.14614 796.39059,137.668743 797.879632,142.420785 L826.086957,142.420785 L826.086957,138.427336 C822.929341,137.27861 820.299756,134.60728 820.299756,122.572749 L820.299756,67.5368491 Z M794.711457,105.943313 C794.711457,118.254189 782.989207,125.883464 771.451767,125.883464 C766.419648,125.883464 759.365177,123.027905 759.365177,113.67554 C759.365177,102.605506 767.35954,100.134661 777.038317,98.4169902 C787.831235,96.6993196 792.102992,94.9870675 794.711457,92.884682 L794.711457,105.943313 Z" id="Fill-9" fill="#FFFFFE"></path>
            <path d="M888.158293,40.7031597 C872.347988,40.7031597 866.347343,48.8903261 860.957825,59.2647368 L860.589041,59.2647368 L860.589041,41.5104219 L835.748792,41.5104219 L835.748792,144 L861.690126,144 L861.690126,90.6443293 C861.690126,79.2826587 865.414846,64.3101258 885.682171,64.3101258 C888.110878,64.3101258 888.980155,64.2446721 891.482619,64.2283087 L897.451655,64.2010364 L897.451655,144 L923.403525,144 L923.403525,64.1519461 L957.115668,64.1519461 L957.115668,144 L983.083343,144 L983.083343,64.1519461 L1000,64.1519461 L1000,40.6158881 L983.083343,40.6158881 L983.083343,37.4577473 C983.083343,28.9596758 983.273003,26.0633498 992.181775,26.0633498 L999.446824,26.0633498 L999.446824,4.38181322 C997.207777,4.19636109 993.677985,4 986.054689,4 C968.231877,4 957.115668,12.0617135 957.115668,33.2087116 L957.115668,40.6158881 L923.403525,40.6158881 L923.403525,37.4577473 C923.403525,28.9596758 923.593185,26.0633498 932.528299,26.0633498 L939.772274,26.0633498 L939.772274,4.38181322 C937.538496,4.19636109 934.013973,4 926.395945,4 C908.567864,4 897.451655,12.0617135 897.451655,33.2087116 L897.451655,40.7031597 L888.158293,40.7031597 Z" id="Fill-11" fill="#FFFFFE"></path>
            <polygon id="Fill-13" fill="#FFFFFE" points="279.968791 143 251.207729 143 251.207729 2 279.968791 2 279.968791 59.3509756 332.49749 2 369.691888 2 313.511913 59.7408972 372.94686 143 335.947971 143 293.395551 81.1432632 279.968791 95.2833385"></polygon>
            <path d="M429.404035,112.496614 C427.3951,119.753234 420.065342,123.576208 412.917271,123.576208 C392.215377,123.576208 390.756692,106.391753 390.019564,98.7403982 L457.004831,98.7403982 L457.004831,93.9819588 C457.004831,47.5601375 430.322851,38 411.07964,38 C368.300224,38 364.251208,77.213867 364.251208,89.4181827 C364.251208,131.238377 385.415105,145 412.917271,145 C429.590913,145 449.093676,136.948504 455.899138,112.496614 L429.404035,112.496614 Z M390.756692,81.4207601 C392.215377,68.0160198 398.626319,59.9753386 410.711076,59.9753386 C418.959649,59.9753386 429.035471,64.9500707 430.499346,81.4207601 L390.756692,81.4207601 Z" id="Fill-15" fill="#FFFFFE"></path>
            <path d="M557.487923,142 L531.831618,142 L531.831618,80.4126785 C531.831618,72.9821643 531.460922,60.4003347 515.259963,60.4003347 C503.961582,60.4003347 495.216301,68.4074481 495.216301,83.8505152 L495.216301,142 L469.565217,142 L469.565217,40.5783775 L494.109436,40.5783775 L494.109436,55.4666039 L494.480131,55.4666039 C497.952138,49.3959935 505.235522,38 523.634549,38 C542.639219,38 557.487923,49.5809404 557.487923,71.8452848 L557.487923,142 Z" id="Fill-17" fill="#FFFFFE"></path>
            <polygon id="Fill-19" fill="#FFFFFE" points="537.413924 227 530.437439 198.423742 530.325858 198.423742 523.450328 227 514.284725 227 503.381643 185 512.435664 185 518.960511 213.570839 519.061465 213.570839 526.218605 185 534.714721 185 541.728399 213.939355 541.855921 213.939355 548.60393 185 557.487923 185 546.404185 227"></polygon>
            <polygon id="Fill-21" fill="#FFFFFE" points="596.654811 185 596.654811 192.771355 575.142612 192.771355 575.142612 201.767484 594.868258 201.767484 594.868258 208.931871 575.142612 208.931871 575.142612 219.223226 597.101449 219.223226 597.101449 227 566.183575 227 566.183575 185"></polygon>
            <polygon id="Fill-23" fill="#FFFFFE" points="638.995382 185 638.995382 201.122581 655.679982 201.122581 655.679982 185 664.7343 185 664.7343 227 655.679982 227 655.679982 208.883097 638.995382 208.883097 638.995382 227 629.951691 227 629.951691 185"></polygon>
            <polygon id="Fill-25" fill="#FFFFFE" points="707.76577 185 707.76577 192.771355 686.246257 192.771355 686.246257 201.767484 705.983866 201.767484 705.983866 208.931871 686.246257 208.931871 686.246257 219.223226 708.21256 219.223226 708.21256 227 677.294686 227 677.294686 185"></polygon>
            <path d="M739.954476,210.758194 L734.85317,195.350968 L734.743408,195.350968 L729.459165,210.758194 L739.954476,210.758194 Z M739.442255,185 L754.589372,227 L745.338027,227 L742.264699,217.646194 L727.133262,217.646194 L723.950173,227 L714.975845,227 L730.316352,185 L739.442255,185 Z" id="Fill-27" fill="#FFFFFE"></path>
            <path d="M783.357951,203.989419 C785.463658,203.989419 787.033562,203.523355 788.07302,202.574968 C789.128552,201.648258 789.653639,200.109161 789.653639,197.995613 C789.653639,195.952516 789.128552,194.478452 788.07302,193.546323 C787.033562,192.64129 785.463658,192.164387 783.357951,192.164387 L773.365221,192.164387 L773.365221,203.989419 L783.357951,203.989419 Z M786.631709,185 C788.485588,185 790.162652,185.292645 791.646827,185.899613 C793.147077,186.528258 794.427646,187.362839 795.504611,188.403355 C796.560143,189.465548 797.369206,190.684903 797.95859,192.077677 C798.499751,193.48671 798.794443,194.977032 798.794443,196.581161 C798.794443,199.068645 798.274714,201.187613 797.235255,202.992258 C796.211871,204.807742 794.534807,206.173419 792.204063,207.105548 L792.204063,207.235613 C793.318534,207.555355 794.277621,208.021419 795.000956,208.666323 C795.735006,209.322065 796.340464,210.069935 796.811971,210.974968 C797.272762,211.847484 797.610318,212.812129 797.813923,213.879742 C798.044318,214.941935 798.172911,215.987871 798.247923,217.050065 C798.296146,217.722065 798.344368,218.502452 798.376516,219.412903 C798.414022,220.307097 798.478319,221.233806 798.569405,222.165935 C798.676566,223.119742 798.826591,223.997677 799.04627,224.853935 C799.249875,225.693935 799.565999,226.40929 800,227 L790.864555,227 C790.366258,225.656 790.06085,224.068129 789.948331,222.236387 C789.81438,220.372129 789.653639,218.616258 789.412528,216.936258 C789.101762,214.730581 788.448082,213.14271 787.462204,212.113032 C786.43882,211.105032 784.793904,210.590194 782.500666,210.590194 L773.365221,210.590194 L773.365221,227 L764.251208,227 L764.251208,185 L786.631709,185 Z" id="Fill-29" fill="#FFFFFE"></path>
            <polygon id="Fill-31" fill="#FFFFFE" points="823.188406 185 833.119602 185 842.571935 201.584365 851.956603 185 861.835749 185 846.866084 210.876161 846.866084 227 837.981099 227 837.981099 210.621517"></polygon>
            <path d="M874.422512,211.367642 C874.821971,213.040109 875.48241,214.533383 876.36122,215.869184 C877.245356,217.215846 878.395798,218.280143 879.817872,219.083796 C881.250598,219.882019 882.970935,220.289276 885.032144,220.289276 C887.077374,220.289276 888.813689,219.882019 890.225111,219.083796 C891.647185,218.280143 892.802953,217.215846 893.703068,215.869184 C894.581877,214.533383 895.226338,213.040109 895.636449,211.367642 C896.030582,209.684314 896.254279,207.990127 896.254279,206.214488 C896.254279,204.357398 896.030582,202.57633 895.636449,200.844132 C895.226338,199.111934 894.581877,197.569789 893.703068,196.223127 C892.802953,194.865605 891.647185,193.779588 890.225111,192.975935 C888.813689,192.166852 887.077374,191.781316 885.032144,191.781316 C882.970935,191.781316 881.250598,192.166852 879.817872,192.975935 C878.395798,193.779588 877.245356,194.865605 876.36122,196.223127 C875.48241,197.569789 874.821971,199.111934 874.422512,200.844132 C874.017727,202.57633 873.810008,204.357398 873.810008,206.214488 C873.810008,207.990127 874.017727,209.684314 874.422512,211.367642 M866.119091,197.450327 C867.061814,194.784154 868.366714,192.400346 870.108355,190.423794 C871.855322,188.403801 873.991097,186.850796 876.499699,185.688757 C879.02428,184.559299 881.868428,184 885.032144,184 C888.227816,184 891.071964,184.559299 893.591219,185.688757 C896.083843,186.850796 898.208965,188.403801 899.950607,190.423794 C901.681596,192.400346 903.002473,194.784154 903.934545,197.450327 C904.855963,200.149081 905.31401,203.059608 905.31401,206.214488 C905.31401,209.277058 904.855963,212.133284 903.934545,214.777737 C903.002473,217.433049 901.681596,219.746267 899.950607,221.701098 C898.208965,223.67765 896.083843,225.219795 893.591219,226.332963 C891.071964,227.462421 888.227816,228 885.032144,228 C881.868428,228 879.02428,227.462421 876.499699,226.332963 C873.991097,225.219795 871.855322,223.67765 870.108355,221.701098 C868.366714,219.746267 867.061814,217.433049 866.119091,214.777737 C865.208324,212.133284 864.7343,209.277058 864.7343,206.214488 C864.7343,203.059608 865.208324,200.149081 866.119091,197.450327" id="Fill-33" fill="#FFFFFE"></path>
            <path d="M946.088009,223.857449 C943.019729,226.631818 938.746242,228 933.299124,228 C927.788852,228 923.510102,226.653535 920.473399,223.890025 C917.452486,221.126515 915.942029,216.913384 915.942029,211.158333 L915.942029,185 L924.904774,185 L924.904774,211.158333 C924.904774,212.287626 925.00477,213.416919 925.199497,214.508207 C925.388962,215.610354 925.783681,216.582197 926.388916,217.429167 C926.999415,218.281566 927.846744,218.976515 928.94143,219.503157 C930.020328,220.018939 931.472893,220.284975 933.299124,220.284975 C936.50424,220.284975 938.72519,219.562879 939.925135,218.080682 C941.151394,216.603914 941.751367,214.285606 941.751367,211.158333 L941.751367,185 L950.724638,185 L950.724638,211.158333 C950.724638,216.880808 949.187866,221.08851 946.088009,223.857449" id="Fill-35" fill="#FFFFFE"></path>
            <path d="M983.423516,219.324799 C984.688851,214.559484 985.065869,210.052626 985.065869,205.443462 C985.065869,200.775069 984.477101,196.451285 983.444174,192.009042 C982.52487,188.008331 981.244041,185.488367 979.710145,182.020725 C981.486779,181.293813 985.065869,179 985.065869,179 C987.415777,183.016865 989.052965,187.179112 990.32863,191.615971 C991.619788,196.063598 992.270531,200.581225 992.270531,205.168851 C992.270531,207.344204 992.105263,209.65417 991.805714,212.03952 C991.485507,214.446409 991.010361,216.837143 990.385441,219.200955 C989.770849,221.570151 989.006484,223.880118 988.097508,226.103932 C987.188533,228.316977 986.388015,230.142335 985.163997,232 C985.163997,232 981.683035,229.840801 979.989035,229.060043 C981.486779,225.732399 982.493882,222.80321 983.423516,219.324799" id="Fill-37" fill="#FFFFFE"></path>
            <path d="M967.221753,218.817006 C968.447742,214.338721 968.734675,210.139986 968.734675,205.453408 C968.734675,200.706535 968.270364,196.173436 967.127847,192.08981 C966.846131,191.081237 966.522678,190.423472 966.183575,189.195643 C968.218195,188.143219 969.908494,186.981167 971.963982,186 C972.850868,188.099368 973.268225,189.250457 973.883828,191.448489 C975.188072,195.965144 975.845411,200.569501 975.845411,205.239635 C975.845411,207.459592 975.678467,209.800141 975.370666,212.233872 C975.052431,214.684048 974.562035,217.106817 973.9673,219.518623 C973.336046,221.930429 973.17432,222.752635 972.256133,225 C970.471927,223.980464 966.267046,221.623472 966.267046,221.623472 C966.663536,220.719044 966.846131,220.214758 967.221753,218.817006" id="Fill-39" fill="#FFFFFE"></path>
            <path d="M474.112197,229.054957 C472.424057,229.84102 468.944525,232 468.944525,232 C467.710685,230.137139 466.920821,228.311967 466.001894,226.099147 C465.093293,223.875559 464.324079,221.565827 463.720065,219.196871 C463.100564,216.833299 462.630775,214.442808 462.300375,212.041548 C461.995787,209.651056 461.835749,207.346709 461.835749,205.166193 C461.835749,200.579033 462.481063,196.061865 463.776852,191.620073 C465.057155,187.183665 466.683346,183.016457 469.042613,179 C469.042613,179 472.615069,181.29358 474.396135,182.025803 C472.857707,185.487708 471.577405,188.007416 470.653316,192.00772 C469.625976,196.449512 469.03745,200.772857 469.03745,205.440776 C469.03745,210.054856 469.414313,214.561256 470.684291,219.320703 C471.613542,222.798761 472.615069,225.733035 474.112197,229.054957" id="Fill-41" fill="#FFFFFE"></path>
            <path d="M487.82885,221.623472 C487.82885,221.623472 483.631453,223.985945 481.848211,225 C480.930519,222.752635 480.76888,221.93591 480.137967,219.518623 C479.538338,217.112298 479.053422,214.684048 478.72493,212.233872 C478.422508,209.805622 478.26087,207.459592 478.26087,205.245116 C478.26087,200.569501 478.907425,195.965144 480.210965,191.448489 C480.83145,189.255938 481.248582,188.099368 482.129775,186 C484.194582,186.986648 485.889183,188.1487 487.922705,189.195643 C487.573357,190.428953 487.255293,191.086718 486.973728,192.08981 C485.837042,196.173436 485.362553,200.712017 485.362553,205.45889 C485.362553,210.139986 485.654546,214.338721 486.879874,218.817006 C487.260507,220.214758 487.448217,220.719044 487.82885,221.623472" id="Fill-43" fill="#FFFFFE"></path>
        </g>
    </g>
</svg>