<svg id="Layer_1" data-name="Layer 1" xmlns="http://www.w3.org/2000/svg" viewBox="0 0 324 216"><defs><style>.cls-1{fill:#fff;}</style></defs><title>kts-white</title><path class="cls-1" d="M166.92,74.55V52q0-.57.54-.57h3.37c.36,0,.53.19.53.57v9.23a.18.18,0,0,0,.08.17c.06,0,.1,0,.15-.07l7.18-9.56a.71.71,0,0,1,.66-.34h3.81a.7.7,0,0,1,.35.08.3.3,0,0,1,.12.26.78.78,0,0,1-.15.37l-6.87,9.39a.22.22,0,0,0,0,.27L184,74.45a.47.47,0,0,1,.1.3c0,.25-.15.37-.44.37h-3.81a.67.67,0,0,1-.63-.37l-5.52-9.6a.13.13,0,0,0-.12-.1.2.2,0,0,0-.16.1l-1.92,2.64a.47.47,0,0,0-.1.24v6.52c0,.38-.17.57-.53.57h-3.37Q166.92,75.12,166.92,74.55Z"/><path class="cls-1" d="M204.75,55.56H194.61c-.12,0-.19.06-.19.2v5.17c0,.14.07.2.19.2h6.59c.35,0,.53.19.53.58v2.94c0,.38-.18.57-.53.57h-6.59a.18.18,0,0,0-.19.2v5.41c0,.14.07.2.19.2h10.14c.36,0,.54.19.54.58v2.94q0,.57-.54.57H190.52q-.54,0-.54-.57V52q0-.57.54-.57h14.23q.54,0,.54.57V55C205.29,55.37,205.11,55.56,204.75,55.56Z"/><path class="cls-1" d="M217.29,74.51V66.17l-.06-.27-6.36-13.76a.56.56,0,0,1-.1-.3.32.32,0,0,1,.13-.27.51.51,0,0,1,.34-.1h3.66a.66.66,0,0,1,.63.44l3.84,8.78a.17.17,0,0,0,.14.1c.05,0,.09,0,.11-.1l3.85-8.78a.68.68,0,0,1,.63-.44h3.68c.32,0,.47.13.47.4a.49.49,0,0,1-.06.27L221.76,65.9l-.06.27v8.34c0,.39-.18.58-.53.58h-3.34C217.47,75.09,217.29,74.9,217.29,74.51Z"/><path class="cls-1" d="M236.73,74.51a6.61,6.61,0,0,1-2.87-2.46,6.82,6.82,0,0,1-1-3.72v-.57c0-.39.18-.58.54-.58h3.31c.35,0,.53.15.53.44v.47a2.81,2.81,0,0,0,1.15,2.28,4.65,4.65,0,0,0,3,.93,3.46,3.46,0,0,0,2.47-.76,2.44,2.44,0,0,0,.8-1.87,2,2,0,0,0-.5-1.37,4.61,4.61,0,0,0-1.35-1c-.57-.28-1.48-.67-2.74-1.17a24.16,24.16,0,0,1-3.6-1.58A7.62,7.62,0,0,1,234,61.35a5.78,5.78,0,0,1-1-3.46,6.43,6.43,0,0,1,1-3.55A6.34,6.34,0,0,1,236.71,52a9.39,9.39,0,0,1,4-.81,9.71,9.71,0,0,1,4.28.91,7.05,7.05,0,0,1,2.94,2.55,6.81,6.81,0,0,1,1.06,3.8v.34c0,.38-.18.58-.54.58h-3.3c-.36,0-.54-.12-.54-.34V58.7a3.18,3.18,0,0,0-1.08-2.42,4.27,4.27,0,0,0-3-1,3.56,3.56,0,0,0-2.33.67,2.27,2.27,0,0,0-.82,1.86,2.19,2.19,0,0,0,.47,1.42,4.42,4.42,0,0,0,1.43,1c.64.31,1.64.72,3,1.21s2.64,1.1,3.5,1.54a6.8,6.8,0,0,1,2.31,2,5.62,5.62,0,0,1,1,3.48,6.37,6.37,0,0,1-3.8,6,10.07,10.07,0,0,1-4.27.84A9.9,9.9,0,0,1,236.73,74.51Z"/><path class="cls-1" d="M182.52,87.66v3q0,.57-.54.57h-5.45c-.13,0-.19.07-.19.21v18.75c0,.38-.18.58-.53.58h-3.37c-.36,0-.54-.2-.54-.58V91.41c0-.14-.06-.21-.19-.21h-5.29q-.54,0-.54-.57v-3c0-.39.18-.58.54-.58H182C182.34,87.08,182.52,87.27,182.52,87.66Z"/><path class="cls-1" d="M191.32,110a7.52,7.52,0,0,1-2.91-3,9.26,9.26,0,0,1-1-4.48V95.29a9.08,9.08,0,0,1,1-4.42,7.35,7.35,0,0,1,2.91-3,9.36,9.36,0,0,1,8.69,0,7.44,7.44,0,0,1,2.92,3,9.19,9.19,0,0,1,1,4.42v7.23a9.51,9.51,0,0,1-1,4.5,7.45,7.45,0,0,1-2.92,3,8.67,8.67,0,0,1-4.36,1.07A8.51,8.51,0,0,1,191.32,110Zm7.13-4.19a4.5,4.5,0,0,0,1.08-3.15V95.26a4.62,4.62,0,0,0-1.06-3.16,3.88,3.88,0,0,0-5.61,0,4.62,4.62,0,0,0-1.05,3.16v7.43a4.58,4.58,0,0,0,1.05,3.15,3.9,3.9,0,0,0,5.59,0Z"/><path class="cls-1" d="M170.07,144a6.53,6.53,0,0,1-3.87-6.19v-.57c0-.38.18-.58.53-.58H170c.36,0,.54.15.54.44v.48a2.82,2.82,0,0,0,1.15,2.28,4.63,4.63,0,0,0,3,.93,3.53,3.53,0,0,0,2.47-.76,2.52,2.52,0,0,0,.8-1.88,2,2,0,0,0-.5-1.37,4.54,4.54,0,0,0-1.36-1c-.56-.28-1.48-.67-2.74-1.16a25,25,0,0,1-3.59-1.59,7.73,7.73,0,0,1-2.46-2.21,5.81,5.81,0,0,1-1-3.47,6.45,6.45,0,0,1,1-3.55,6.31,6.31,0,0,1,2.73-2.33,9.34,9.34,0,0,1,4-.81,9.86,9.86,0,0,1,4.29.91,7.05,7.05,0,0,1,2.94,2.55,6.87,6.87,0,0,1,1.06,3.81v.33c0,.39-.18.58-.54.58h-3.31c-.35,0-.53-.11-.53-.34v-.34a3.13,3.13,0,0,0-1.09-2.41,4.21,4.21,0,0,0-3-1,3.59,3.59,0,0,0-2.33.68,2.28,2.28,0,0,0-.81,1.85,2.12,2.12,0,0,0,.47,1.42,4.05,4.05,0,0,0,1.43,1.05c.64.32,1.63.72,3,1.22s2.63,1.1,3.49,1.53a6.75,6.75,0,0,1,2.32,2,5.62,5.62,0,0,1,1,3.48,6.56,6.56,0,0,1-1,3.61,6.46,6.46,0,0,1-2.8,2.4,11.1,11.1,0,0,1-8.59,0Z"/><path class="cls-1" d="M192.64,143.86a7.13,7.13,0,0,1-2.86-2.85,8.51,8.51,0,0,1-1-4.24V121.53c0-.39.18-.58.54-.58h3.37c.36,0,.53.19.53.58V136.8a4.09,4.09,0,0,0,1,2.89,3.84,3.84,0,0,0,5.38,0,4,4,0,0,0,1-2.89V121.53c0-.39.18-.58.53-.58h3.37c.36,0,.54.19.54.58v15.24a8.61,8.61,0,0,1-1,4.24,7.22,7.22,0,0,1-2.87,2.85,9.45,9.45,0,0,1-8.54,0Z"/><path class="cls-1" d="M215.31,143.84a7.11,7.11,0,0,1-2.87-2.88,8.9,8.9,0,0,1-1-4.3v-7.8a8.89,8.89,0,0,1,1-4.29,7,7,0,0,1,2.87-2.87,8.8,8.8,0,0,1,4.31-1,9.11,9.11,0,0,1,4.27,1,7.08,7.08,0,0,1,2.87,2.74,8.08,8.08,0,0,1,1,4.11c0,.2-.17.32-.5.37l-3.37.24h-.13c-.29,0-.44-.06-.44-.17v-.21a4,4,0,0,0-1-2.87,3.94,3.94,0,0,0-5.42,0,4,4,0,0,0-1,2.87v8.15a4,4,0,0,0,1,2.84,3.94,3.94,0,0,0,5.42,0,4,4,0,0,0,1-2.84.37.37,0,0,1,.14-.29.48.48,0,0,1,.4-.08l3.37.16c.35.05.53.11.53.17V137a8.15,8.15,0,0,1-1,4.12,7.11,7.11,0,0,1-2.87,2.78,9,9,0,0,1-4.27,1A8.7,8.7,0,0,1,215.31,143.84Z"/><path class="cls-1" d="M237.8,143.84a7.11,7.11,0,0,1-2.87-2.88,8.9,8.9,0,0,1-1-4.3v-7.8a8.89,8.89,0,0,1,1-4.29,7,7,0,0,1,2.87-2.87,8.83,8.83,0,0,1,4.31-1,9.11,9.11,0,0,1,4.27,1,7,7,0,0,1,2.87,2.74,8.08,8.08,0,0,1,1,4.11c0,.2-.17.32-.5.37l-3.37.24h-.13c-.29,0-.44-.06-.44-.17v-.21a4,4,0,0,0-1-2.87,3.94,3.94,0,0,0-5.42,0,4,4,0,0,0-1,2.87v8.15a4,4,0,0,0,1,2.84,3.94,3.94,0,0,0,5.42,0,4,4,0,0,0,1-2.84.37.37,0,0,1,.14-.29.48.48,0,0,1,.4-.08l3.37.16c.35.05.53.11.53.17V137a8.15,8.15,0,0,1-1,4.12,7.05,7.05,0,0,1-2.87,2.78,9,9,0,0,1-4.27,1A8.73,8.73,0,0,1,237.8,143.84Z"/><path class="cls-1" d="M271.63,125H261.49c-.13,0-.19.07-.19.2v5.17c0,.14.06.21.19.21h6.58c.36,0,.53.19.53.57v2.94c0,.38-.17.57-.53.57h-6.58c-.13,0-.19.07-.19.21v5.4c0,.14.06.21.19.21h10.14c.35,0,.53.19.53.57V144c0,.38-.18.57-.53.57H257.39q-.54,0-.54-.57v-22.5c0-.39.18-.58.54-.58h14.24c.35,0,.53.19.53.58v2.94C272.16,124.85,272,125,271.63,125Z"/><path class="cls-1" d="M281.74,144a6.7,6.7,0,0,1-2.87-2.47,6.82,6.82,0,0,1-1-3.72v-.57c0-.38.18-.58.54-.58h3.31c.35,0,.53.15.53.44v.48a2.85,2.85,0,0,0,1.15,2.28,4.65,4.65,0,0,0,3,.93,3.51,3.51,0,0,0,2.47-.76,2.49,2.49,0,0,0,.81-1.88,2,2,0,0,0-.51-1.37,4.36,4.36,0,0,0-1.35-1c-.57-.28-1.48-.67-2.74-1.16a24.51,24.51,0,0,1-3.59-1.59,7.52,7.52,0,0,1-2.46-2.21,5.81,5.81,0,0,1-1-3.47,6.46,6.46,0,0,1,1-3.55,6.34,6.34,0,0,1,2.72-2.33,9.42,9.42,0,0,1,4-.81,9.85,9.85,0,0,1,4.28.91,7.14,7.14,0,0,1,2.95,2.55A6.94,6.94,0,0,1,294,128v.33c0,.39-.18.58-.53.58h-3.31c-.36,0-.54-.11-.54-.34v-.34a3.16,3.16,0,0,0-1.08-2.41,4.23,4.23,0,0,0-3-1,3.58,3.58,0,0,0-2.33.68,2.26,2.26,0,0,0-.82,1.85,2.17,2.17,0,0,0,.47,1.42,4.2,4.2,0,0,0,1.44,1.05c.64.32,1.63.72,3,1.22s2.64,1.1,3.5,1.53a6.84,6.84,0,0,1,2.32,2,5.62,5.62,0,0,1,1,3.48,6.56,6.56,0,0,1-1,3.61,6.44,6.44,0,0,1-2.81,2.4,11.07,11.07,0,0,1-8.58,0Z"/><path class="cls-1" d="M303.73,144a6.7,6.7,0,0,1-2.87-2.47,6.82,6.82,0,0,1-1-3.72v-.57c0-.38.18-.58.54-.58h3.3c.36,0,.54.15.54.44v.48a2.82,2.82,0,0,0,1.15,2.28,4.65,4.65,0,0,0,3,.93,3.51,3.51,0,0,0,2.47-.76,2.48,2.48,0,0,0,.8-1.88,2,2,0,0,0-.5-1.37,4.61,4.61,0,0,0-1.35-1c-.57-.28-1.48-.67-2.74-1.16a25.17,25.17,0,0,1-3.6-1.59,7.59,7.59,0,0,1-2.45-2.21,5.81,5.81,0,0,1-1-3.47,6.37,6.37,0,0,1,1-3.55,6.28,6.28,0,0,1,2.72-2.33,9.39,9.39,0,0,1,4-.81,9.85,9.85,0,0,1,4.28.91,7.05,7.05,0,0,1,2.94,2.55A6.87,6.87,0,0,1,316,128v.33c0,.39-.18.58-.54.58h-3.3c-.36,0-.54-.11-.54-.34v-.34a3.13,3.13,0,0,0-1.09-2.41,4.19,4.19,0,0,0-3-1,3.56,3.56,0,0,0-2.33.68,2.26,2.26,0,0,0-.82,1.85,2.17,2.17,0,0,0,.47,1.42,4.15,4.15,0,0,0,1.43,1.05c.64.32,1.64.72,3,1.22s2.64,1.1,3.5,1.53a6.72,6.72,0,0,1,2.31,2,5.62,5.62,0,0,1,1,3.48,6.57,6.57,0,0,1-1,3.61,6.41,6.41,0,0,1-2.8,2.4,11.07,11.07,0,0,1-8.58,0Z"/><path class="cls-1" d="M97.5,130.54H86.38a1.68,1.68,0,0,1-1.56-1.08l-6-15.92-8.33,8.68v6.65a1.67,1.67,0,0,1-1.67,1.67H57.09a1.66,1.66,0,0,1-1.66-1.67v-8.45a1.65,1.65,0,0,1,.48-1.17L93.49,81.46H84.86L69.29,97.16A1.66,1.66,0,0,1,66.44,96V68.43H58.76V109.5a1.67,1.67,0,1,1-3.33,0V66.76a1.66,1.66,0,0,1,1.66-1.66h11a1.66,1.66,0,0,1,1.67,1.66V91.94L83,78.62a1.63,1.63,0,0,1,1.18-.5H97.5A1.67,1.67,0,0,1,98.68,81L58.76,121.11v6.1h8.39v-5.66a1.64,1.64,0,0,1,.46-1.15l10.62-11.07a1.7,1.7,0,0,1,1.54-.48,1.67,1.67,0,0,1,1.22,1l6.54,17.32H95.1l-9.64-26a1.66,1.66,0,1,1,3.12-1.16l10.48,28.2a1.64,1.64,0,0,1-.2,1.53A1.66,1.66,0,0,1,97.5,130.54Z"/><path class="cls-1" d="M136.17,162.38H11a2,2,0,0,1-2-2V35.22a2,2,0,0,1,2-2H136.17a2,2,0,0,1,2,2v125.2A2,2,0,0,1,136.17,162.38ZM12.33,159.05H134.8V36.59H12.33Z"/></svg>