<?xml version="1.0" encoding="UTF-8"?>
<svg width="1000px" height="169px" viewBox="0 0 1000 169" version="1.1" xmlns="http://www.w3.org/2000/svg" xmlns:xlink="http://www.w3.org/1999/xlink">
    <!-- Generator: Sketch 48.2 (47327) - http://www.bohemiancoding.com/sketch -->
    <title>macu-white</title>
    <desc>Created with Sketch.</desc>
    <defs>
        <polygon id="path-1" points="0.151273707 0.56114496 335.288086 0.56114496 335.288086 168.847966 0.151273707 168.847966"></polygon>
    </defs>
    <g id="Page-1" stroke="none" stroke-width="1" fill="none" fill-rule="evenodd">
        <g id="macu-white">
            <g id="Group-3">
                <mask id="mask-2" fill="white">
                    <use xlink:href="#path-1"></use>
                </mask>
                <g id="Clip-2"></g>
                <path d="M315.746044,155.494282 L324.837594,164.629012 L306.619197,164.629012 L315.746044,155.494282 Z M286.893106,164.629012 L305.862829,145.566439 L314.225743,153.963803 L303.593723,164.629012 L286.893106,164.629012 Z M267.139281,164.629012 L295.992219,135.656333 L304.342528,144.051163 L283.844941,164.629012 L267.139281,164.629012 Z M247.415711,164.629012 L286.129174,125.74116 L294.471919,134.141058 L264.113807,164.629012 L247.415711,164.629012 Z M227.674492,164.629012 L276.258564,115.823453 L284.606352,124.210681 L244.377631,164.629012 L227.674492,164.629012 Z M207.933273,164.629012 L266.387955,105.898144 L274.725657,114.298041 L224.623806,164.629012 L207.933273,164.629012 Z M188.199618,164.629012 L227.782905,124.859361 L241.241222,111.323236 L256.514824,95.9779023 L264.88026,104.385402 L234.461639,134.949374 C236.907231,129.66618 237.991359,126.136449 240.073894,118.433376 C240.540321,116.728057 241.13281,114.475415 241.13281,114.475415 L229.736857,125.974279 C232.048824,128.791983 232.580803,131.883348 233.584252,135.815969 L204.890151,164.629012 L188.199618,164.629012 Z M168.448315,164.629012 L246.656821,86.0652627 L254.999566,94.4600927 L241.619407,107.894861 C242.000112,102.766236 242.100961,99.1098099 240.51763,95.2532052 L218.472008,117.407144 C221.961389,118.821063 223.643048,120.779772 226.307986,123.313678 L185.14389,164.629012 L168.448315,164.629012 Z M148.712139,164.629012 L236.776127,76.1500893 L245.131478,84.524648 L238.251046,91.4422109 C236.455931,88.4851428 235.05917,86.3186533 231.937889,84.040672 L201.496577,114.64772 C206.163371,114.409533 209.319949,114.918848 213.628729,116.185801 L165.407713,164.629012 L148.712139,164.629012 Z M144.806756,164.629012 C146.258983,159.796854 151.187985,152.111518 154.125216,147.674649 C160.879587,137.460474 172.875592,125.989483 181.735189,120.318602 C186.495268,117.275381 189.293832,116.092047 194.898522,115.174773 L145.684143,164.629012 L144.806756,164.629012 Z M128.963356,164.629012 L226.900475,66.2349158 L235.258347,74.6145424 L228.128313,81.7728263 C226.176883,80.5666871 223.985935,79.4593703 221.588247,78.4280706 C220.665477,78.0353152 220.478906,77.880747 218.703961,77.5209323 L131.993873,164.629012 L128.963356,164.629012 Z M109.237265,164.629012 L217.044993,56.3070729 L225.395302,64.6993689 L213.517794,76.6188619 C209.254397,76.0284618 205.573404,75.6534437 200.752815,75.7041219 L112.250133,164.629012 L109.237265,164.629012 Z M89.506131,164.629012 L207.169341,46.3741621 L215.514607,54.7816616 L194.500168,75.9195039 C191.275517,76.2007674 188.519814,76.7658284 186.671754,77.6552293 C182.110852,79.9661514 181.099839,81.9603353 178.301276,84.524648 C177.030576,83.8151544 176.160753,83.1107285 174.61524,82.1453104 L92.518999,164.629012 L89.506131,164.629012 Z M69.7523061,164.629012 L197.303774,36.4665903 L205.641477,44.8512847 L186.159945,64.4383766 C182.274732,62.9281687 179.531635,62.1527936 175.878375,61.0302733 L163.325179,73.6516581 C168.165937,73.1246057 171.995683,73.4464118 176.957461,73.7023363 L170.694729,80.0016261 C168.153331,78.3520534 166.741443,76.5200395 162.621756,74.3687535 L72.7777803,164.629012 L69.7523061,164.629012 Z M50.0186511,164.629012 L187.425601,26.5463491 L195.773389,34.9462468 L171.365376,59.4744551 C167.245689,58.3570027 164.416871,57.7007211 160.123218,57.0368377 L53.0466465,164.629012 L50.0186511,164.629012 Z M30.2723899,164.629012 L177.560034,16.6362434 L185.912864,25.0234717 L154.858894,56.2513269 C150.421531,55.7141389 147.25739,55.3948668 142.141817,55.2681715 L33.2877791,164.629012 L30.2723899,164.629012 Z M10.5336924,164.629012 L167.684383,6.72106999 L176.039734,15.0930948 L136.176591,55.1870865 C131.429118,55.1617474 127.80107,55.2681715 122.148476,55.5164942 L13.5616878,164.629012 L10.5336924,164.629012 Z M167.684383,0.56114496 L0,168.870771 L335.288086,169 L167.684383,0.56114496 Z M194.255609,67.7577932 C193.542102,67.3954447 191.991546,66.5491202 190.698156,65.9663218 L182.801668,73.9075826 C190.435948,74.1761767 194.674133,73.4970899 194.255609,67.7577932 Z" id="Fill-1" fill="#FFFFFE" mask="url(#mask-2)"></path>
            </g>
            <path d="M515.714231,148.210918 L514.401206,148.210918 C513.702626,145.332506 512.244276,142.508685 507.652513,142.508685 C502.119962,142.416873 499.44547,147.019851 499.44547,152.82134 C499.44547,156.833747 500.715152,163.498759 507.792739,163.498759 C512.766936,163.498759 513.932087,160.575682 515.107435,157.377171 L516.41791,157.377171 L515.859556,163.498759 C513.33039,164.588089 510.421338,165 507.369512,165 C503.101543,165 499.965581,164.039702 497.808651,161.990074 C495.65172,159.935484 494.527363,156.970223 494.527363,153.17866 C494.527363,149.215881 495.746054,146.337469 498.091652,144.151365 C500.291925,142.052109 503.713438,141 507.887073,141 C510.556465,141.091811 513.608292,141.411911 515.714231,142.372208 L515.714231,148.210918" id="Fill-4" fill="#FFFFFE"></path>
            <path d="M534.653798,152.861804 C537.806269,152.861804 539.659922,151.435834 539.659922,148.232387 C539.659922,144.288532 536.830264,143.503252 534.512568,143.503252 C532.33358,143.503252 531.408014,143.692716 531.408014,144.931715 L531.408014,152.861804 L534.653798,152.861804 Z M531.408014,154.367548 L531.408014,161.110991 C531.408014,163.496748 531.687954,163.541622 534.974089,163.7261 L534.974089,165 L523.383085,165 L523.383085,163.7261 C526.71966,163.541622 526.951682,163.496748 526.951682,161.110991 L526.951682,145.889009 C526.951682,143.503252 526.674264,143.465857 523.383085,143.276393 L523.383085,142 L535.904699,142 C542.20964,142 544.436546,144.517884 544.436546,147.953176 C544.436546,151.164101 542.023014,153.178409 538.731835,153.549859 L538.731835,153.637113 C542.441662,154.464773 543.041893,156.616193 543.51098,159.503035 C543.780832,161.153371 544.343233,162.210384 544.85015,162.853566 C545.362111,163.496748 546.383512,163.7261 547.263682,163.7261 L547.263682,165 L543.649689,165 C541.516097,165 540.265196,164.134945 539.609482,162.297637 C538.870543,160.288316 538.638521,157.443854 537.987851,156.06525 C537.480934,154.970843 536.368742,154.367548 534.373859,154.367548 L531.408014,154.367548 Z" id="Fill-5" fill="#FFFFFE"></path>
            <path d="M571.825187,142 L571.825187,147.768697 L570.528731,147.768697 C570.008626,143.966941 568.237733,143.503252 564.739078,143.503252 L561.331758,143.503252 C560.537647,143.503252 560.304234,143.829829 560.304234,144.652504 L560.304234,152.308368 L564.92936,152.308368 C567.96119,152.308368 568.559944,151.757425 568.892304,149.279428 L570.201445,149.279428 L570.201445,156.845545 L568.892304,156.845545 C568.559944,154.367548 567.96119,153.821591 564.92936,153.821591 L560.304234,153.821591 L560.304234,160.375569 C560.304234,161.704314 560.537647,162.484609 561.052677,162.898439 C561.567708,163.262411 563.05952,163.496748 565.205903,163.496748 C567.816575,163.496748 569.453002,163.22003 570.295318,162.484609 C570.993019,161.796553 571.548643,160.19109 571.825187,158.767613 L573.134328,158.767613 L572.723319,165 L552.238806,165 L552.238806,163.7261 C555.597921,163.541622 555.831334,163.496748 555.831334,161.110991 L555.831334,145.889009 C555.831334,143.503252 555.547179,143.465857 552.238806,143.276393 L552.238806,142 L571.825187,142" id="Fill-6" fill="#FFFFFE"></path>
            <path d="M587.875887,160.604921 C587.875887,163.033059 588.773915,163.496748 591.565877,163.496748 C595.66206,163.496748 600.250078,162.070778 600.250078,153.592239 C600.250078,147.855951 598.314546,143.64535 591.886427,143.503252 C588.196437,143.503252 587.875887,143.874702 587.875887,145.340559 L587.875887,160.604921 Z M592.965528,142 C597.007878,142.04238 600.161988,143.002168 602.097519,144.931715 C604.033051,146.853783 604.975124,149.561132 604.975124,153.178409 C604.975124,158.266529 603.179068,161.198244 600.697868,162.898439 C598.275395,164.591155 594.940211,165 591.565877,165 L580.099502,165 L580.099502,163.7261 C583.331914,163.541622 583.55948,163.496748 583.55948,161.110991 L583.55948,145.889009 C583.55948,143.503252 583.297657,143.465857 580.099502,143.276393 L580.099502,142 L592.965528,142 Z" id="Fill-7" fill="#FFFFFE"></path>
            <path d="M619.522925,161.110991 C619.522925,163.496748 619.777743,163.541622 622.885572,163.7261 L622.885572,165 L611.940299,165 L611.940299,163.7261 C615.10052,163.541622 615.312472,163.496748 615.312472,161.110991 L615.312472,145.889009 C615.312472,143.503252 615.05289,143.465857 611.940299,143.276393 L611.940299,142 L622.885572,142 L622.885572,143.276393 C619.737258,143.465857 619.522925,143.503252 619.522925,145.889009 L619.522925,161.110991" id="Fill-8" fill="#FFFFFE"></path>
            <path d="M642.020825,161.110991 C642.020825,163.496748 642.300826,163.541622 646.286429,163.7261 L646.286429,165 L633.305471,165 L633.305471,163.7261 C637.333957,163.541622 637.56603,163.496748 637.56603,161.110991 L637.56603,143.503252 L635.207461,143.503252 C631.544742,143.503252 630.565999,144.517884 630.152304,148.090288 L628.855721,148.090288 L628.855721,142 L650.746269,142 L650.746269,148.090288 L649.444641,148.090288 C649.020856,144.517884 648.054725,143.503252 644.389484,143.503252 L642.020825,143.503252 L642.020825,161.110991" id="Fill-9" fill="#FFFFFE"></path>
            <path d="M700.497512,142 L700.497512,143.246269 C697.191018,143.431263 696.909776,143.467774 696.909776,145.797227 L696.909776,156.047307 C696.909776,159.362578 695.979904,161.5971 694.25698,162.989417 C692.579663,164.281935 689.921799,165 686.567164,165 C683.21253,165 680.554666,164.281935 678.882416,162.989417 C677.154424,161.5971 676.224552,159.362578 676.224552,156.047307 L676.224552,145.797227 C676.224552,143.467774 675.948377,143.431263 672.636816,143.246269 L672.636816,142 L684.286823,142 L684.286823,143.246269 C680.929655,143.431263 680.701621,143.467774 680.701621,145.797227 L680.701621,156.271246 C680.701621,160.840089 682.27759,163.527357 686.567164,163.527357 C690.851671,163.527357 692.440308,160.840089 692.440308,156.271246 L692.440308,145.797227 C692.440308,143.467774 692.204673,143.431263 688.847505,143.246269 L688.847505,142 L700.497512,142" id="Fill-10" fill="#FFFFFE"></path>
            <path d="M713.691301,142 C717.816681,147.90581 721.902559,153.821591 726.082252,159.645133 L726.16866,159.552894 L726.16866,148.962822 C726.16866,147.220247 726.082252,146.026122 725.946468,144.931715 C725.808214,143.922068 725.176199,143.558097 724.038079,143.465857 L722.267943,143.276393 L722.267943,142 L731.343284,142 L731.343284,143.276393 L729.891624,143.465857 C729.121356,143.558097 728.435027,144.014307 728.306649,144.794602 C728.165927,146.026122 728.030142,147.220247 728.030142,148.962822 L728.030142,165 L724.810816,165 C720.176862,158.408628 715.547845,151.804791 710.918829,145.203447 L710.829952,145.203447 L710.829952,158.037178 C710.829952,159.782246 710.918829,161.018751 711.047207,162.070778 C711.192867,163.125298 711.824882,163.446889 713.004972,163.541622 L714.683762,163.7261 L714.683762,165 L705.65286,165 L705.65286,163.7261 L707.104519,163.541622 C707.874788,163.446889 708.558648,163.125298 708.738871,162.070778 C708.872186,161.018751 708.961064,159.782246 708.961064,158.037178 L708.961064,145.889009 C708.961064,143.503252 708.694432,143.465857 705.472637,143.276393 L705.472637,142 L713.691301,142" id="Fill-11" fill="#FFFFFE"></path>
            <path d="M745.883025,161.110991 C745.883025,163.496748 746.147254,163.541622 749.253731,163.7261 L749.253731,165 L738.308458,165 L738.308458,163.7261 C741.460163,163.541622 741.679164,163.496748 741.679164,161.110991 L741.679164,145.889009 C741.679164,143.503252 741.419696,143.465857 738.308458,143.276393 L738.308458,142 L749.253731,142 L749.253731,143.276393 C746.102026,143.465857 745.883025,143.503252 745.883025,145.889009 L745.883025,161.110991" id="Fill-12" fill="#FFFFFE"></path>
            <path d="M761.020901,153 C761.063198,158.059553 762.575951,163.498759 768.154228,163.498759 C773.737481,163.498759 775.245257,158.059553 775.292531,153 C775.245257,147.935484 773.737481,142.508685 768.154228,142.508685 C762.575951,142.508685 761.063198,147.935484 761.020901,153 Z M759.19465,161.806452 C757.221602,159.756824 756.218905,156.741935 756.218905,153 C756.218905,149.258065 757.221602,146.248139 759.19465,144.193548 C761.152769,142.138958 764.131002,141 768.154228,141 C772.18243,141 775.153198,142.138958 777.126246,144.193548 C779.131639,146.248139 780.099502,149.258065 780.099502,153 C780.099502,156.741935 779.131639,159.756824 777.126246,161.806452 C775.153198,163.861042 772.18243,165 768.154228,165 C764.131002,165 761.152769,163.861042 759.19465,161.806452 Z" id="Fill-13" fill="#FFFFFE"></path>
            <path d="M796.276797,142 C800.406326,147.90581 804.491425,153.821591 808.665384,159.645133 L808.761649,159.552894 L808.761649,148.962822 C808.761649,147.220247 808.665384,146.026122 808.529626,144.931715 C808.396335,143.922068 807.759504,143.558097 806.626537,143.465857 L804.846866,143.276393 L804.846866,142 L813.930348,142 L813.930348,143.276393 L812.478966,143.465857 C811.703908,143.558097 811.027583,144.014307 810.891825,144.794602 C810.753598,146.026122 810.617839,147.220247 810.617839,148.962822 L810.617839,165 L807.396659,165 C802.763589,158.408628 798.135456,151.804791 793.507323,145.203447 L793.411057,145.203447 L793.411057,158.037178 C793.411057,159.782246 793.507323,161.018751 793.648018,162.070778 C793.77884,163.125298 794.420608,163.446889 795.5906,163.541622 L797.274006,163.7261 L797.274006,165 L788.244827,165 L788.244827,163.7261 L789.696209,163.541622 C790.466331,163.446889 791.145124,163.125298 791.330249,162.070778 C791.458602,161.018751 791.554868,159.782246 791.554868,158.037178 L791.554868,145.889009 C791.554868,143.503252 791.285819,143.465857 788.059701,143.276393 L788.059701,142 L796.276797,142" id="Fill-14" fill="#FFFFFE"></path>
            <path d="M350.153818,115 L350.153818,112.032571 C355.648212,111.796 356.267478,111.407714 356.267478,107.427143 L356.267478,68.722 L356.033023,68.722 L339.865847,113.596 L335.227722,113.596 L318.60183,68.722 L318.369924,68.722 L318.369924,95.3337143 C318.369924,101.651714 318.448925,104.696286 318.757284,107.504286 C318.991739,110.240286 319.842911,111.484857 322.001423,111.641714 L326.18338,112.032571 L326.18338,115 L307.697141,115 L307.697141,112.032571 L310.406112,111.641714 C312.18236,111.407714 312.959628,110.240286 313.191535,107.504286 C313.494797,104.776 313.576346,101.731429 313.576346,95.3337143 L313.576346,68.5651429 C313.576346,64.5871429 312.959628,64.1962857 307.462687,63.9648571 L307.462687,61 L327.885724,61 C328.889802,64.3531429 330.668599,68.9585714 331.981035,72.466 L341.185928,96.4265714 L341.420383,96.4265714 L347.99021,78.1642857 C350.079914,72.3914286 352.707335,64.744 354.02232,61 L374.129353,61 L374.129353,63.9648571 C368.640057,64.1962857 368.023339,64.5871429 368.023339,68.5651429 L368.023339,107.427143 C368.023339,111.407714 368.640057,111.796 374.129353,112.032571 L374.129353,115 L350.153818,115" id="Fill-15" fill="#FFFFFE"></path>
            <path d="M410.301703,91.5 C410.169463,83.1676531 408.992014,70.9966104 399.498673,70.9966104 C390.007875,70.9966104 388.830426,83.1676531 388.695643,91.5 C388.830426,100.353277 390.007875,112.005918 399.498673,112.005918 C408.992014,112.005918 410.169463,100.353277 410.301703,91.5 Z M421.890547,91.5 C421.890547,106.215001 414.553743,115 399.498673,115 C384.441059,115 377.114428,106.215001 377.114428,91.5 C377.114428,76.7875282 384.441059,68 399.498673,68 C414.553743,68 421.890547,76.7875282 421.890547,91.5 Z" id="Fill-16" fill="#FFFFFE"></path>
            <path d="M466.663799,99.3869443 C466.526159,110.642398 459.899032,115 447.766292,115 C434.64458,115 428.868784,110.642398 428.868784,99.3869443 L428.868784,75.3114457 C428.868784,71.9926919 428.341163,71.6691576 423.880597,71.4745316 L423.880597,69 L444.350773,69 L444.350773,71.4745316 C439.890206,71.6691576 439.362585,71.9926919 439.362585,75.3114457 L439.362585,100.294357 C439.362585,107.715424 441.857953,112.007308 447.766292,112.007308 C453.796977,112.007308 456.159803,107.715424 456.159803,100.294357 L456.159803,75.3114457 C456.159803,71.9926919 455.63728,71.6691576 451.171616,71.4745316 L451.171616,69 L471.641791,69 L471.641791,71.4745316 C467.186323,71.6691576 466.663799,71.9926919 466.663799,75.3114457 L466.663799,99.3869443" id="Fill-17" fill="#FFFFFE"></path>
            <path d="M489.914866,69 C496.564983,79.3393398 503.403099,89.613001 510.248734,99.9523409 L510.501905,99.9523409 L510.501905,85.3893567 C510.501905,80.0517009 510.434225,77.5836982 510.178548,75.2420007 C509.988043,72.9659818 509.273651,71.9252273 507.47639,71.7963961 L503.859307,71.4730549 L503.859307,69 L519.402985,69 L519.402985,71.4730549 L517.152022,71.7963961 C515.668091,71.990906 515.021377,72.9659818 514.82586,75.2420007 C514.565169,77.5154934 514.502503,80.0517009 514.502503,85.3893567 L514.502503,114 L507.40871,114 C499.725857,101.905019 491.917672,89.810037 483.981648,77.7125295 L483.723464,77.7125295 L483.723464,97.6106433 C483.723464,102.940721 483.791143,105.413776 484.046821,107.755473 C484.242339,110.031492 484.951718,111.072247 486.753992,111.201078 L490.371075,111.524419 L490.371075,114 L474.822384,114 L474.822384,111.524419 L477.07836,111.201078 C478.562291,111.006568 479.209005,110.031492 479.399509,107.755473 C479.665213,105.479454 479.722866,102.940721 479.722866,97.6106433 L479.722866,75.3076794 C479.722866,71.990906 479.209005,71.6675648 474.626866,71.4730549 L474.626866,69 L489.914866,69" id="Fill-18" fill="#FFFFFE"></path>
            <path d="M547.012632,107.818626 C547.012632,110.160323 547.469441,111.137925 549.565689,111.266756 L553.288687,111.524419 L553.288687,114 L530.293403,114 L530.293403,111.524419 L534.0164,111.266756 C536.102497,111.137925 536.559307,110.160323 536.559307,107.818626 L536.559307,71.990906 L533.952954,71.990906 C527.938296,71.990906 527.09066,74.7216234 524.870058,81.2263388 L522.38806,81.2263388 L522.38806,69 L561.19403,69 L561.19403,81.2263388 L558.709494,81.2263388 C556.488892,74.7216234 555.63618,71.990906 549.629135,71.990906 L547.012632,71.990906 L547.012632,107.818626" id="Fill-19" fill="#FFFFFE"></path>
            <path d="M582.967367,94.882452 L577.901888,78.0383968 L577.715583,78.0383968 L572.463799,94.882452 L582.967367,94.882452 Z M558.208955,114 L558.208955,111.524419 C561.700913,111.332435 562.423474,110.875211 563.450669,108.144493 C565.004049,104.181037 567.144038,97.6106433 569.477885,90.9164702 L576.993022,69 L585.165262,69 L597.934701,108.404682 C598.770555,111.072247 599.61648,111.461266 602.985075,111.524419 L602.985075,114 L582.509158,114 L582.509158,111.524419 L586.265468,111.137925 C587.627508,111.006568 587.821365,110.160323 587.363156,108.796228 L583.994562,98.0021893 L571.426533,98.0021893 C570.255834,101.834288 569.090169,105.353149 568.314738,108.85938 C567.994998,110.291681 568.052904,111.072247 569.477885,111.201078 L573.367629,111.524419 L573.367629,114 L558.208955,114 Z" id="Fill-20" fill="#FFFFFE"></path>
            <path d="M620.681226,107.692321 C620.681226,111.006568 621.204508,111.332435 625.870647,111.524419 L625.870647,114 L604.975124,114 L604.975124,111.524419 C609.643816,111.332435 610.161992,111.006568 610.161992,107.692321 L610.161992,75.3076794 C610.161992,71.990906 609.643816,71.6675648 604.975124,71.4730549 L604.975124,69 L625.870647,69 L625.870647,71.4730549 C621.204508,71.6675648 620.681226,71.990906 620.681226,75.3076794 L620.681226,107.692321" id="Fill-21" fill="#FFFFFE"></path>
            <path d="M645.139542,69 C651.781395,79.3393398 658.626264,89.613001 665.463614,99.9523409 L665.724275,99.9523409 L665.724275,85.3893567 C665.724275,80.0517009 665.654097,77.5836982 665.400955,75.2420007 C665.205459,72.9659818 664.498665,71.9252273 662.694086,71.7963961 L659.074903,71.4730549 L659.074903,69 L674.626866,69 L674.626866,71.4730549 L672.366129,71.7963961 C670.887377,71.990906 670.235723,72.9659818 670.04524,75.2420007 C669.787085,77.5154934 669.721919,80.0517009 669.721919,85.3893567 L669.721919,114 L662.623908,114 C654.944421,101.905019 647.142123,89.810037 639.206988,77.7125295 L638.951339,77.7125295 L638.951339,97.6106433 C638.951339,102.940721 639.008985,105.413776 639.269647,107.755473 C639.465143,110.031492 640.16943,111.072247 641.976515,111.201078 L645.58818,111.524419 L645.58818,114 L630.04123,114 L630.04123,111.524419 L632.304473,111.201078 C633.785731,111.006568 634.427359,110.031492 634.627868,107.755473 C634.878504,105.479454 634.946176,102.940721 634.946176,97.6106433 L634.946176,75.3076794 C634.946176,71.990906 634.427359,71.6675648 629.850746,71.4730549 L629.850746,69 L645.139542,69" id="Fill-22" fill="#FFFFFE"></path>
            <path d="M720.258229,92.0551429 L714.193564,71.8437143 L713.957844,71.8437143 L707.657459,92.0551429 L720.258229,92.0551429 Z M690.547264,115 L690.547264,112.032571 C694.751791,111.796 695.607557,111.250857 696.847649,107.974857 C698.720598,103.215143 701.282771,95.3337143 704.085789,87.2928571 L713.102078,61 L722.89983,61 L738.213942,108.286 C739.228563,111.484857 740.240621,111.952857 744.278607,112.032571 L744.278607,115 L719.707362,115 L719.707362,112.032571 L724.211663,111.564571 C725.854016,111.407714 726.089736,110.392 725.538869,108.756571 L721.500883,95.8017143 L706.417367,95.8017143 C705.015858,100.407143 703.619474,104.619143 702.68428,108.833714 C702.297392,110.546286 702.369133,111.484857 704.085789,111.641714 L708.748945,112.032571 L708.748945,115 L690.547264,115 Z" id="Fill-23" fill="#FFFFFE"></path>
            <path d="M779.963705,114 L779.963705,111.524419 C784.549601,111.332435 785.064447,111.006568 785.064447,107.692321 L785.064447,75.4365106 L784.8786,75.4365106 L771.364523,112.827888 L767.484343,112.827888 L753.583504,75.4365106 L753.392635,75.4365106 L753.392635,97.6106433 C753.392635,102.880094 753.455421,105.413776 753.709077,107.755473 C753.912504,110.031492 754.618219,111.072247 756.431481,111.201078 L759.919876,111.524419 L759.919876,114 L744.469477,114 L744.469477,111.524419 L746.729776,111.201078 C748.21655,111.006568 748.864502,110.031492 749.055372,107.755473 C749.314051,105.479454 749.379348,102.940721 749.379348,97.6106433 L749.379348,75.3076794 C749.379348,71.990906 748.864502,71.6675648 744.278607,71.4730549 L744.278607,69 L761.343864,69 C762.185198,71.7963961 763.666949,75.6310205 764.771984,78.5562479 L772.462024,98.5225665 L772.652894,98.5225665 L778.147932,83.3078478 C779.893385,78.4956214 782.090898,72.1197373 783.19091,69 L800,69 L800,71.4730549 C795.414104,71.6675648 794.899259,71.990906 794.899259,75.3076794 L794.899259,107.692321 C794.899259,111.006568 795.414104,111.332435 800,111.524419 L800,114 L779.963705,114" id="Fill-24" fill="#FFFFFE"></path>
            <path d="M810.069246,75.3076794 C810.069246,71.990906 809.555826,71.6675648 804.975124,71.4730549 L804.975124,69 L839.722341,69 L839.722341,81.0293028 L837.280468,81.0293028 C835.274376,74.5927922 834.1148,71.990906 827.482926,71.990906 L822.639253,71.990906 C820.833519,71.990906 820.385217,72.4430785 820.385217,74.3326036 L820.385217,88.70613 L826.503672,88.70613 C830.573459,88.70613 831.404948,87.5946447 832.441805,82.8506231 L834.893695,82.8506231 L834.893695,97.9365106 L832.441805,97.9365106 C831.404948,93.189963 830.573459,92.0860559 826.503672,92.0860559 L820.385217,92.0860559 L820.385217,106.26002 C820.385217,110.420512 822.3863,111.006568 828.314414,111.006568 C835.925542,111.006568 837.020002,107.429606 839.339155,100.470192 L841.791045,100.470192 L841.017159,114 L804.975124,114 L804.975124,111.524419 C809.555826,111.332435 810.069246,111.006568 810.069246,107.692321 L810.069246,75.3076794" id="Fill-25" fill="#FFFFFE"></path>
            <path d="M861.072071,90.3278882 L864.266497,90.3278882 C870.727441,90.3278882 872.783308,86.4225328 872.783308,81.0293028 C872.783308,74.3982822 869.514305,71.990906 865.163919,71.990906 C861.643836,71.990906 861.072071,72.7714719 861.072071,74.5296396 L861.072071,90.3278882 Z M861.072071,107.692321 C861.072071,111.006568 861.581688,111.332435 866.121004,111.524419 L866.121004,114 L845.771144,114 L845.771144,111.524419 C850.320404,111.332435 850.834993,111.006568 850.834993,107.692321 L850.834993,75.3076794 C850.834993,71.990906 850.320404,71.6675648 845.771144,71.4730549 L845.771144,69 L867.980483,69 C874.252496,69 877.904334,70.2352644 880.333092,72.3799259 C882.637553,74.5296396 883.532489,77.3235096 883.532489,80.6377568 C883.532489,86.2987538 879.050349,90.5249242 872.713702,91.3711687 L872.713702,91.4974739 C879.308887,93.189963 880.522023,97.479286 881.414473,102.683058 C881.993696,106.062984 882.958238,108.47036 884.551722,110.094645 C885.322362,110.875211 886.40623,111.461266 887.562189,111.524419 L887.562189,114 L882.823998,114 C876.107003,114 873.360045,112.307511 871.821252,107.492759 C870.797047,104.181037 870.282458,100.669754 869.772842,98.3937353 C869.004688,94.882452 867.207357,93.3187942 864.012932,93.3187942 L861.072071,93.3187942 L861.072071,107.692321 Z" id="Fill-26" fill="#FFFFFE"></path>
            <path d="M907.243285,107.692321 C907.243285,111.006568 907.771672,111.332435 912.437811,111.524419 L912.437811,114 L891.542289,114 L891.542289,111.524419 C896.208428,111.332435 896.739367,111.006568 896.739367,107.692321 L896.739367,75.3076794 C896.739367,71.990906 896.208428,71.6675648 891.542289,71.4730549 L891.542289,69 L912.437811,69 L912.437811,71.4730549 C907.771672,71.6675648 907.243285,71.990906 907.243285,75.3076794 L907.243285,107.692321" id="Fill-27" fill="#FFFFFE"></path>
            <path d="M954.228856,99.1799204 L953.440667,111.874422 C949.542671,114.218605 942.777386,115 938.222565,115 C921.516505,115 914.427861,105.888787 914.427861,91.9551813 C914.427861,85.4460885 916.04971,79.2606801 920.020968,74.8353061 C923.860861,70.541429 930.027426,68 939.200222,68 C942.456553,68 949.279941,68.5209297 953.18299,70.8651135 L953.18299,82.5177553 L950.712322,82.5177553 C949.216785,77.8319165 946.943164,70.9966104 938.619186,70.9966104 C926.846883,70.9966104 925.932382,86.1642634 925.932382,90.9183794 C925.932382,98.2720865 927.566863,112.005918 939.142119,112.005918 C946.48844,112.005918 949.279941,106.343969 951.753135,99.1799204 L954.228856,99.1799204" id="Fill-28" fill="#FFFFFE"></path>
            <path d="M979.978117,94.882452 L974.926078,78.0383968 L974.724701,78.0383968 L969.478837,94.882452 L979.978117,94.882452 Z M955.223881,114 L955.223881,111.524419 C958.720284,111.332435 959.437689,110.875211 960.474779,108.144493 C962.030415,104.181037 964.167525,97.6106433 966.498461,90.9164702 L974.014848,69 L982.180675,69 L994.950478,108.404682 C995.786192,111.072247 996.62694,111.461266 1000,111.524419 L1000,114 L979.527537,114 L979.527537,111.524419 L983.283213,111.137925 C984.645023,111.006568 984.831297,110.160323 984.378199,108.796228 L981.017725,98.0021893 L968.43923,98.0021893 C967.276279,101.834288 966.105776,105.353149 965.327959,108.85938 C965.008273,110.291681 965.078755,111.072247 966.498461,111.201078 L970.382515,111.524419 L970.382515,114 L955.223881,114 Z" id="Fill-29" fill="#FFFFFE"></path>
        </g>
    </g>
</svg>