<?xml version="1.0" encoding="UTF-8"?>
<svg width="1000px" height="163px" viewBox="0 0 1000 163" version="1.1" xmlns="http://www.w3.org/2000/svg" xmlns:xlink="http://www.w3.org/1999/xlink">
    <!-- Generator: Sketch 48.2 (47327) - http://www.bohemiancoding.com/sketch -->
    <title>MACU_Logo6.20.12</title>
    <desc>Created with Sketch.</desc>
    <defs></defs>
    <g id="Page-1" stroke="none" stroke-width="1" fill="none" fill-rule="evenodd">
        <g id="MACU_Logo6.20.12">
            <path d="M510.289813,144.721104 L508.970606,144.721104 C508.262907,141.712369 506.804909,138.751037 502.189059,138.751037 C496.633274,138.656229 493.948139,143.478851 493.948139,149.547908 C493.948139,153.752888 495.220624,160.728192 502.330599,160.728192 C507.322972,160.728192 508.499265,157.672052 509.678306,154.325914 L510.994764,154.325914 L510.431353,160.728192 C507.887757,161.874244 504.967638,162.303665 501.905979,162.303665 C497.621305,162.303665 494.466202,161.301218 492.300504,159.152718 C490.133432,157.001431 489.005236,153.896493 489.005236,149.929926 C489.005236,145.775138 490.226876,142.763614 492.58221,140.471509 C494.797378,138.271423 498.234187,137.172775 502.424043,137.172775 C505.107804,137.268976 508.169463,137.60359 510.289813,138.608826 L510.289813,144.721104 Z" id="Fill-1" fill="#0B0B09"></path>
            <path d="M528.641773,148.541233 C531.823008,148.541233 533.692718,147.054373 533.692718,143.695637 C533.692718,139.571071 530.839023,138.754839 528.499838,138.754839 C526.303953,138.754839 525.369099,138.946646 525.369099,140.241698 L525.369099,148.541233 L528.641773,148.541233 Z M525.369099,150.123296 L525.369099,157.17958 C525.369099,159.673081 525.650237,159.720683 528.967948,159.91249 L528.967948,161.256545 L517.277487,161.256545 L517.277487,159.91249 C520.644329,159.720683 520.879066,159.673081 520.879066,157.17958 L520.879066,141.249739 C520.879066,138.754839 520.596563,138.707237 517.277487,138.515429 L517.277487,137.172775 L529.904168,137.172775 C536.265274,137.172775 538.508926,139.810481 538.508926,143.407226 C538.508926,146.767361 536.078304,148.877246 532.757863,149.260862 L532.757863,149.357465 C536.498647,150.2199 537.105961,152.476791 537.575436,155.498113 C537.85521,157.224382 538.416123,158.330427 538.930634,159.002454 C539.445145,159.673081 540.474168,159.91249 541.361257,159.91249 L541.361257,161.256545 L537.714641,161.256545 C535.562427,161.256545 534.300032,160.345108 533.646316,158.427031 C532.897068,156.315746 532.663695,153.340626 532.009979,151.901368 C531.494103,150.750522 530.373642,150.123296 528.360634,150.123296 L525.369099,150.123296 Z" id="Fill-3" fill="#0B0B09"></path>
            <path d="M567.278169,137.172775 L567.278169,143.215418 L565.969951,143.215418 C565.454302,139.235058 563.678181,138.754839 560.173683,138.754839 L556.75922,138.754839 C555.965285,138.754839 555.730652,139.090852 555.730652,139.954687 L555.730652,147.965809 L560.360572,147.965809 C563.397166,147.965809 564.005577,147.390386 564.334336,144.800282 L565.643919,144.800282 L565.643919,152.717601 L564.334336,152.717601 C564.005577,150.123296 563.397166,149.547873 560.360572,149.547873 L555.730652,149.547873 L555.730652,156.409549 C555.730652,157.802605 555.965285,158.617438 556.479569,159.050056 C556.993853,159.433671 558.490324,159.673081 560.640222,159.673081 C563.259387,159.673081 564.893637,159.386069 565.736681,158.617438 C566.437853,157.896409 566.998519,156.217742 567.278169,154.730882 L568.586387,154.730882 L568.16623,161.256545 L547.643979,161.256545 L547.643979,159.91249 C551.009334,159.720683 551.243967,159.673081 551.243967,157.17958 L551.243967,141.249739 C551.243967,138.754839 550.962952,138.707237 547.643979,138.515429 L547.643979,137.172775 L567.278169,137.172775 Z" id="Fill-5" fill="#0B0B09"></path>
            <path d="M583.059581,156.648959 C583.059581,159.192861 584.007239,159.673081 586.942768,159.673081 C591.24867,159.673081 596.076752,158.186221 596.076752,149.308463 C596.076752,143.312022 594.041912,138.899044 587.272928,138.754839 C583.389742,138.754839 583.059581,139.138454 583.059581,140.672916 L583.059581,156.648959 Z M588.40846,137.172775 C592.670157,137.220377 595.981434,138.228417 598.020417,140.241698 C600.055257,142.25638 601.04712,145.088694 601.04712,148.877246 C601.04712,154.203061 599.154568,157.271984 596.550581,159.050056 C593.994944,160.823927 590.490268,161.256545 586.942768,161.256545 L574.86911,161.256545 L574.86911,159.91249 C578.278468,159.720683 578.514691,159.673081 578.514691,157.17958 L578.514691,141.248339 C578.514691,138.754839 578.231499,138.707237 574.86911,138.515429 L574.86911,137.172775 L588.40846,137.172775 Z" id="Fill-7" fill="#0B0B09"></path>
            <path d="M615.303137,157.17958 C615.303137,159.673081 615.578727,159.720683 618.848168,159.91249 L618.848168,161.256545 L607.329843,161.256545 L607.329843,159.91249 C610.649024,159.720683 610.878907,159.673081 610.878907,157.17958 L610.878907,141.249739 C610.878907,138.754839 610.603316,138.707237 607.329843,138.515429 L607.329843,137.172775 L618.848168,137.172775 L618.848168,138.515429 C615.533019,138.707237 615.303137,138.754839 615.303137,141.249739 L615.303137,157.17958 Z" id="Fill-9" fill="#0B0B09"></path>
            <path d="M638.361313,157.17958 C638.361313,159.673081 638.640006,159.720683 642.647742,159.91249 L642.647742,161.256545 L629.603567,161.256545 L629.603567,159.91249 C633.657525,159.720683 633.887277,159.673081 633.887277,157.17958 L633.887277,138.754839 L631.512272,138.754839 C627.834888,138.754839 626.856065,139.810481 626.437347,143.551432 L625.13089,143.551432 L625.13089,137.172775 L647.120419,137.172775 L647.120419,143.551432 L645.813962,143.551432 C645.395243,139.810481 644.41778,138.754839 640.739037,138.754839 L638.361313,138.754839 L638.361313,157.17958 Z" id="Fill-11" fill="#0B0B09"></path>
            <path d="M697.382199,137.172775 L697.382199,138.484173 C694.023024,138.671515 693.740219,138.718009 693.740219,141.154829 L693.740219,151.886684 C693.740219,155.351837 692.796615,157.697037 691.047361,159.149283 C689.343631,160.507174 686.650773,161.256545 683.244694,161.256545 C679.842753,161.256545 677.145756,160.507174 675.446166,159.149283 C673.696911,157.697037 672.751928,155.351837 672.751928,151.886684 L672.751928,141.154829 C672.751928,138.718009 672.467743,138.671515 669.109948,138.484173 L669.109948,137.172775 L680.928449,137.172775 L680.928449,138.484173 C677.526509,138.671515 677.291987,138.718009 677.291987,141.154829 L677.291987,152.12052 C677.291987,156.901173 678.89777,159.711311 683.244694,159.711311 C687.594377,159.711311 689.201539,156.901173 689.201539,152.12052 L689.201539,141.154829 C689.201539,138.718009 688.964258,138.671515 685.563697,138.484173 L685.563697,137.172775 L697.382199,137.172775 Z" id="Fill-13" fill="#0B0B09"></path>
            <path d="M710.930599,137.172775 C715.11045,143.359624 719.242057,149.547873 723.467473,155.642318 L723.559941,155.545715 L723.559941,144.464268 C723.559941,142.639995 723.467473,141.393945 723.33078,140.241698 C723.192747,139.187456 722.550827,138.803841 721.402339,138.707237 L719.610592,138.515429 L719.610592,137.172775 L728.795812,137.172775 L728.795812,138.515429 L727.324354,138.707237 C726.543061,138.803841 725.855576,139.28266 725.717543,140.098893 C725.580851,141.393945 725.441478,142.639995 725.441478,144.464268 L725.441478,161.256545 L722.182292,161.256545 C717.497214,154.347266 712.812135,147.439388 708.128397,140.53011 L708.037268,140.53011 L708.037268,153.963651 C708.037268,155.785124 708.128397,157.080176 708.26643,158.186221 C708.405803,159.289465 709.046383,159.625479 710.241775,159.720683 L711.941054,159.91249 L711.941054,161.256545 L702.801398,161.256545 L702.801398,159.91249 L704.271516,159.720683 C705.052809,159.625479 705.741633,159.289465 705.925231,158.186221 C706.061923,157.080176 706.154392,155.785124 706.154392,153.963651 L706.154392,141.249739 C706.154392,138.754839 705.878326,138.707237 702.617801,138.515429 L702.617801,137.172775 L710.930599,137.172775 Z" id="Fill-15" fill="#0B0B09"></path>
            <path d="M743.047795,157.17958 C743.047795,159.673081 743.32473,159.720683 746.596859,159.91249 L746.596859,161.256545 L735.078534,161.256545 L735.078534,159.91249 C738.395026,159.720683 738.624909,159.673081 738.624909,157.17958 L738.624909,141.249739 C738.624909,138.754839 738.347974,138.707237 735.078534,138.515429 L735.078534,137.172775 L746.596859,137.172775 L746.596859,138.515429 C743.279022,138.707237 743.047795,138.754839 743.047795,141.249739 L743.047795,157.17958 Z" id="Fill-17" fill="#0B0B09"></path>
            <path d="M758.771997,149.73822 C758.815078,155.041554 760.340424,160.728279 765.96926,160.728279 C771.596749,160.728279 773.119402,155.041554 773.165176,149.73822 C773.119402,144.434886 771.596749,138.752343 765.96926,138.752343 C760.340424,138.752343 758.815078,144.434886 758.771997,149.73822 M756.924888,158.960501 C754.941804,156.812121 753.926702,153.657167 753.926702,149.73822 C753.926702,145.822062 754.941804,142.668502 756.924888,140.518727 C758.910665,138.370347 761.907505,137.172775 765.96926,137.172775 C770.026976,137.172775 773.027854,138.370347 775.010939,140.518727 C777.041143,142.668502 778.010471,145.822062 778.010471,149.73822 C778.010471,153.657167 777.041143,156.812121 775.010939,158.960501 C773.027854,161.110275 770.026976,162.303665 765.96926,162.303665 C761.907505,162.303665 758.910665,161.110275 756.924888,158.960501" id="Fill-19" fill="#0B0B09"></path>
            <path d="M793.652198,137.172775 C797.832263,143.359624 801.966762,149.547873 806.192393,155.642318 L806.282186,155.545715 L806.282186,144.464268 C806.282186,142.639995 806.192393,141.393945 806.053013,140.241698 C805.913633,139.187456 805.27168,138.803841 804.123134,138.707237 L802.331294,138.515429 L802.331294,137.172775 L811.518325,137.172775 L811.518325,138.515429 L810.048132,138.707237 C809.265458,138.803841 808.580619,139.28266 808.442579,140.098893 C808.304539,141.393945 808.163819,142.639995 808.163819,144.464268 L808.163819,161.256545 L804.904467,161.256545 C800.219149,154.347266 795.536511,147.439388 790.851192,140.53011 L790.757379,140.53011 L790.757379,153.963651 C790.757379,155.785124 790.851192,157.080176 790.990572,158.186221 C791.127272,159.289465 791.770565,159.625479 792.963338,159.720683 L794.662704,159.91249 L794.662704,161.256545 L785.523921,161.256545 L785.523921,159.91249 L786.992773,159.720683 C787.772766,159.625479 788.461626,159.289465 788.646573,158.186221 C788.783273,157.080176 788.875746,155.785124 788.875746,153.963651 L788.875746,141.249739 C788.875746,138.754839 788.599666,138.707237 785.340314,138.515429 L785.340314,137.172775 L793.652198,137.172775 Z" id="Fill-21" fill="#0B0B09"></path>
            <path d="M343.437585,108.900524 L343.437585,105.966885 C348.957852,105.736287 349.579157,105.350138 349.579157,101.413605 L349.579157,63.1343944 L349.346855,63.1343944 L333.098082,107.51148 L328.432797,107.51148 L311.718045,63.1343944 L311.484368,63.1343944 L311.484368,89.4525453 C311.484368,95.7032426 311.562719,98.7146569 311.873371,101.49138 C312.107048,104.193057 312.962029,105.427914 315.139346,105.582101 L319.335903,105.966885 L319.335903,108.900524 L300.755862,108.900524 L300.755862,105.966885 L303.477508,105.582101 C305.264447,105.350138 306.042452,104.193057 306.276129,101.49138 C306.586781,98.7910679 306.665132,95.7810181 306.665132,89.4525453 L306.665132,62.9815723 C306.665132,59.0464029 306.042452,58.6588896 300.52356,58.428292 L300.52356,55.4973822 L321.047241,55.4973822 C322.058923,58.8158052 323.845862,63.3690855 325.166822,66.8416951 L334.419042,90.5345804 L334.651344,90.5345804 L341.260269,72.4742815 C343.359235,66.7639195 346.003904,59.2005895 347.324864,55.4973822 L367.539267,55.4973822 L367.539267,58.428292 C362.019,58.6588896 361.396321,59.0464029 361.396321,62.9815723 L361.396321,101.413605 C361.396321,105.350138 362.019,105.736287 367.539267,105.966885 L367.539267,108.900524 L343.437585,108.900524 Z" id="Fill-23" fill="#0B0B09"></path>
            <path d="M403.007982,86.3887949 C402.876263,78.0334161 401.692158,65.8281964 392.146597,65.8281964 C382.601036,65.8281964 381.416931,78.0334161 381.285211,86.3887949 C381.416931,95.2638343 382.601036,106.946673 392.146597,106.946673 C401.692158,106.946673 402.876263,95.2638343 403.007982,86.3887949 M414.659686,86.3887949 C414.659686,101.137902 407.2875,109.947644 392.146597,109.947644 C377.005694,109.947644 369.633508,101.137902 369.633508,86.3887949 C369.633508,71.6369668 377.005694,62.8272251 392.146597,62.8272251 C407.2875,62.8272251 414.659686,71.6369668 414.659686,86.3887949" id="Fill-25" fill="#0B0B09"></path>
            <path d="M459.893153,94.3091557 C459.760757,105.581962 453.078866,109.947644 440.837696,109.947644 C427.604932,109.947644 421.782239,105.581962 421.782239,94.3091557 L421.782239,70.1973859 C421.782239,66.8708282 421.252653,66.547545 416.753927,66.3505867 L416.753927,63.8743455 L437.396764,63.8743455 L437.396764,66.3505867 C432.898038,66.547545 432.368451,66.8708282 432.368451,70.1973859 L432.368451,95.2205971 C432.368451,102.650679 434.882607,106.951161 440.837696,106.951161 C446.923803,106.951161 449.306942,102.650679 449.306942,95.2205971 L449.306942,70.1973859 C449.306942,66.8708282 448.777355,66.547545 444.278629,66.3505867 L444.278629,63.8743455 L464.921466,63.8743455 L464.921466,66.3505867 C460.42274,66.547545 459.893153,66.8708282 459.893153,70.1973859 L459.893153,94.3091557 Z" id="Fill-27" fill="#0B0B09"></path>
            <path d="M483.43983,63.8743455 C490.122896,74.4601022 496.997989,84.9792468 503.875786,95.5663912 L504.135427,95.5663912 L504.135427,80.6536302 C504.135427,75.1928342 504.070517,72.662966 503.810876,70.2663218 C503.617497,67.9362897 502.903482,66.8718854 501.087343,66.7372737 L497.452361,66.4042137 L497.452361,63.8743455 L513.089005,63.8743455 L513.089005,66.4042137 L510.817141,66.7372737 C509.326907,66.9357219 508.676451,67.9362897 508.483072,70.2663218 C508.22343,72.5949663 508.157167,75.1928342 508.157167,80.6536302 L508.157167,109.947644 L501.021081,109.947644 C493.300801,97.5647512 485.4507,85.1818583 477.470778,72.79619 L477.211136,72.79619 L477.211136,93.1697471 C477.211136,98.6277676 477.276047,101.159024 477.535688,103.55428 C477.729067,105.887088 478.443081,106.95288 480.260572,107.083328 L483.89285,107.416388 L483.89285,109.947644 L468.257558,109.947644 L468.257558,107.416388 L470.529422,107.083328 C472.021009,106.88488 472.670113,105.887088 472.863492,103.55428 C473.124486,101.225636 473.188044,98.6277676 473.188044,93.1697471 L473.188044,70.3329338 C473.188044,66.9357219 472.670113,66.6054375 468.062827,66.4042137 L468.062827,63.8743455 L483.43983,63.8743455 Z" id="Fill-29" fill="#0B0B09"></path>
            <path d="M541.867033,103.62228 C541.867033,106.018924 542.32247,107.019492 544.410685,107.151328 L548.127599,107.416388 L548.127599,109.947644 L525.169471,109.947644 L525.169471,107.416388 L528.886385,107.151328 C530.97324,107.019492 531.431396,106.018924 531.431396,103.62228 L531.431396,66.9357219 L528.821128,66.9357219 C522.821589,66.9357219 521.971892,69.7334258 519.755883,76.3932379 L517.277487,76.3932379 L517.277487,63.8743455 L556.020942,63.8743455 L556.020942,76.3932379 L553.543906,76.3932379 C551.323818,69.7334258 550.476841,66.9357219 544.475942,66.9357219 L541.867033,66.9357219 L541.867033,103.62228 Z" id="Fill-31" fill="#0B0B09"></path>
            <path d="M577.772942,90.3742291 L572.689144,73.1295288 L572.493561,73.1295288 L567.216896,90.3742291 L577.772942,90.3742291 Z M552.879581,109.947644 L552.879581,107.4177 C556.398716,107.219245 557.115853,106.75156 558.158962,103.956547 C559.720909,99.8958683 561.872321,93.1706295 564.217958,86.3135504 L571.776423,63.8743455 L579.986832,63.8743455 L592.824678,104.221615 C593.669487,106.952789 594.518372,107.349698 597.905759,107.4177 L597.905759,109.947644 L577.315223,109.947644 L577.315223,107.4177 L581.093777,107.020791 C582.462857,106.886175 582.659798,106.018806 582.203438,104.621299 L578.81605,93.5703135 L566.175146,93.5703135 C565.00029,97.4963764 563.825434,101.09492 563.044461,104.687913 C562.721205,106.153421 562.785042,106.952789 564.217958,107.08463 L568.128258,107.4177 L568.128258,109.947644 L552.879581,109.947644 Z" id="Fill-33" fill="#0B0B09"></path>
            <path d="M616.789277,103.490443 C616.789277,106.88488 617.315068,107.21794 621.989529,107.416388 L621.989529,109.947644 L601.04712,109.947644 L601.04712,107.416388 C605.721581,107.21794 606.250118,106.88488 606.250118,103.490443 L606.250118,70.3329338 C606.250118,66.9357219 605.721581,66.6054375 601.04712,66.4042137 L601.04712,63.8743455 L621.989529,63.8743455 L621.989529,66.4042137 C617.315068,66.6054375 616.789277,66.9357219 616.789277,70.3329338 L616.789277,103.490443 Z" id="Fill-35" fill="#0B0B09"></path>
            <path d="M641.554122,63.8743455 C648.234685,74.4601022 655.115393,84.9792468 661.990692,95.5663912 L662.253047,95.5663912 L662.253047,80.6536302 C662.253047,75.1928342 662.186782,72.662966 661.927132,70.2663218 C661.732395,67.9362897 661.01836,66.8718854 659.203519,66.7372737 L655.568427,66.4042137 L655.568427,63.8743455 L671.204188,63.8743455 L671.204188,66.4042137 L668.933609,66.7372737 C667.444682,66.9357219 666.791501,67.9362897 666.599469,70.2663218 C666.33982,72.5949663 666.273555,75.1928342 666.273555,80.6536302 L666.273555,109.947644 L659.138606,109.947644 C651.415389,97.5647512 643.565053,85.1818583 635.584891,72.79619 L635.326594,72.79619 L635.326594,93.1697471 C635.326594,98.6277676 635.390154,101.159024 635.649804,103.55428 C635.843188,105.887088 636.557224,106.95288 638.373417,107.083328 L642.007156,107.416388 L642.007156,109.947644 L626.371395,109.947644 L626.371395,107.416388 L628.643327,107.083328 C630.134959,106.88488 630.78273,105.887088 630.980172,103.55428 C631.238469,101.225636 631.303381,98.6277676 631.303381,93.1697471 L631.303381,70.3329338 C631.303381,66.9357219 630.78273,66.6054375 626.17801,66.4042137 L626.17801,63.8743455 L641.554122,63.8743455 Z" id="Fill-37" fill="#0B0B09"></path>
            <path d="M716.435016,86.2105333 L710.404769,66.2235842 L710.173835,66.2235842 L703.912655,86.2105333 L716.435016,86.2105333 Z M686.910995,108.900524 L686.910995,105.966885 C691.084204,105.736287 691.931418,105.197316 693.169442,101.956669 C695.025113,97.246473 697.573586,89.4525453 700.357092,81.504431 L709.322523,55.4973822 L719.061378,55.4973822 L734.286623,102.263678 C735.292347,105.427914 736.296705,105.890474 740.314136,105.966885 L740.314136,108.900524 L715.892526,108.900524 L715.892526,105.966885 L720.374558,105.505689 C721.997929,105.351503 722.230229,104.347243 721.687739,102.728966 L717.670308,89.9164696 L702.675997,89.9164696 C701.284927,94.4697498 699.895224,98.6368813 698.967388,102.805377 C698.57931,104.50143 698.658565,105.427914 700.357092,105.582101 L704.994902,105.966885 L704.994902,108.900524 L686.910995,108.900524 Z" id="Fill-39" fill="#0B0B09"></path>
            <path d="M778.618954,109.947644 L778.618954,107.416388 C783.274482,107.21794 783.800878,106.88488 783.800878,103.490443 L783.800878,70.4647701 L783.603992,70.4647701 L769.894452,108.74724 L765.956737,108.74724 L751.854793,70.4647701 L751.65654,70.4647701 L751.65654,93.1697471 C751.65654,98.5639311 751.722168,101.159024 751.98605,103.555668 C752.182936,105.887088 752.903483,106.95288 754.742451,107.084716 L758.282293,107.416388 L758.282293,109.947644 L742.60663,109.947644 L742.60663,107.416388 L744.902264,107.084716 C746.410354,106.88488 747.06664,105.887088 747.262158,103.555668 C747.524673,101.225636 747.590301,98.6277676 747.590301,93.1697471 L747.590301,70.3343216 C747.590301,66.9357219 747.06664,66.6068252 742.408377,66.4056015 L742.408377,63.8743455 L759.726122,63.8743455 C760.580661,66.7372737 762.086017,70.6659938 763.20307,73.6607582 L771.010139,94.102315 L771.205657,94.102315 L776.781353,78.5234341 C778.553325,73.5969217 780.784697,67.0703337 781.896282,63.8743455 L798.95288,63.8743455 L798.95288,66.4056015 C794.294617,66.6068252 793.770955,66.9357219 793.770955,70.3343216 L793.770955,103.490443 C793.770955,106.88488 794.294617,107.21794 798.95288,107.416388 L798.95288,109.947644 L778.618954,109.947644 Z" id="Fill-41" fill="#0B0B09"></path>
            <path d="M808.356704,70.3331284 C808.356704,66.9358142 807.829666,66.6055197 803.141361,66.4042899 L803.141361,63.8743455 L838.725414,63.8743455 L838.725414,76.1909974 L836.21682,76.1909974 C834.170589,69.6003743 832.981656,66.9358142 826.182445,66.9358142 L821.229933,66.9358142 C819.380481,66.9358142 818.92087,67.4021122 818.92087,69.3353061 L818.92087,84.0486743 L825.188915,84.0486743 C829.351557,84.0486743 830.208855,82.9162362 831.264308,78.0561895 L833.774278,78.0561895 L833.774278,93.5023117 L831.264308,93.5023117 C830.208855,88.642265 829.351557,87.5098269 825.188915,87.5098269 L818.92087,87.5098269 L818.92087,102.026129 C818.92087,106.288037 820.967101,106.886175 827.038366,106.886175 C834.829731,106.886175 835.953988,103.222405 838.329103,96.0974823 L840.837696,96.0974823 L840.045074,109.947644 L803.141361,109.947644 L803.141361,107.4177 C807.829666,107.219245 808.356704,106.886175 808.356704,103.491637 L808.356704,70.3331284 Z" id="Fill-43" fill="#0B0B09"></path>
            <path d="M859.693451,85.7126366 L862.981044,85.7126366 C869.619269,85.7126366 871.726947,81.7171841 871.726947,76.1909974 C871.726947,69.4019201 868.369463,66.9358142 863.900584,66.9358142 C860.284094,66.9358142 859.693451,67.7351822 859.693451,69.5337603 L859.693451,85.7126366 Z M859.693451,103.491637 C859.693451,106.886175 860.218315,107.219245 864.887273,107.4177 L864.887273,109.947644 L843.979058,109.947644 L843.979058,107.4177 C848.645275,107.219245 849.172879,106.886175 849.172879,103.491637 L849.172879,70.3331284 C849.172879,66.9358142 848.645275,66.6055197 843.979058,66.4042899 L843.979058,63.8743455 L866.794872,63.8743455 C873.237129,63.8743455 876.983807,65.1400116 879.482048,67.3354982 C881.850102,69.5337603 882.769642,72.3967747 882.769642,75.7913133 C882.769642,81.5853439 878.167833,85.9138664 871.657056,86.7784607 L871.657056,86.9116887 C878.43095,88.642265 879.679386,93.0360137 880.598926,98.3623584 C881.192309,101.824899 882.177628,104.288229 883.820739,105.952192 C884.611461,106.75156 885.728338,107.349698 886.910995,107.4177 L886.910995,109.947644 L882.04607,109.947644 C875.141987,109.947644 872.31759,108.217068 870.738887,103.290407 C869.686419,99.8958683 869.158814,96.2987121 868.63395,93.9699975 C867.844599,90.3742291 866.00278,88.7741052 862.716557,88.7741052 L859.693451,88.7741052 L859.693451,103.491637 Z" id="Fill-45" fill="#0B0B09"></path>
            <path d="M905.792449,103.490443 C905.792449,106.88488 906.320916,107.21794 910.994764,107.416388 L910.994764,109.947644 L890.052356,109.947644 L890.052356,107.416388 C894.728949,107.21794 895.254672,106.88488 895.254672,103.490443 L895.254672,70.3329338 C895.254672,66.9357219 894.728949,66.6054375 890.052356,66.4042137 L890.052356,63.8743455 L910.994764,63.8743455 L910.994764,66.4042137 C906.320916,66.6054375 905.792449,66.9357219 905.792449,70.3329338 L905.792449,103.490443 Z" id="Fill-47" fill="#0B0B09"></path>
            <path d="M952.879581,94.0884765 L952.098975,106.814717 C948.197301,109.164072 941.436115,109.947644 936.88258,109.947644 C920.174089,109.947644 913.089005,100.811414 913.089005,86.8431578 C913.089005,80.3174736 914.713912,74.1169173 918.679282,69.6793976 C922.517262,65.3738336 928.691638,62.8272251 937.858337,62.8272251 C941.109507,62.8272251 947.938454,63.3468856 951.838773,65.6989615 L951.838773,77.3817999 L949.36821,77.3817999 C947.872048,72.6830896 945.596636,65.8281964 937.272883,65.8281964 C925.505519,65.8281964 924.596167,81.0357477 924.596167,85.8024764 C924.596167,93.1756697 926.22243,106.946673 937.794642,106.946673 C945.141282,106.946673 947.938454,101.269858 950.409017,94.0884765 L952.879581,94.0884765 Z" id="Fill-49" fill="#0B0B09"></path>
            <path d="M979.867182,90.3742291 L974.784743,73.1295288 L974.586443,73.1295288 L969.311137,90.3742291 L979.867182,90.3742291 Z M954.973822,109.947644 L954.973822,107.4177 C958.49024,107.219245 959.210094,106.75156 960.253203,103.956547 C961.817866,99.8958683 963.966562,93.1706295 966.312199,86.3135504 L973.870664,63.8743455 L982.081072,63.8743455 L994.918919,104.221615 C995.766445,106.952789 996.612612,107.349698 1000,107.4177 L1000,109.947644 L979.41218,109.947644 L979.41218,107.4177 L983.188018,107.020791 C984.559814,106.886175 984.754039,106.018806 984.297679,104.621299 L980.910291,93.5703135 L968.265312,93.5703135 C967.094531,97.4963764 965.919675,101.09492 965.137343,104.687913 C964.814088,106.153421 964.877924,106.952789 966.312199,107.08463 L970.221141,107.4177 L970.221141,109.947644 L954.973822,109.947644 Z" id="Fill-51" fill="#0B0B09"></path>
            <polygon id="Fill-53" fill="#FFFFFE" points="161.259962 0 0 162.089008 0 162.164689 322.513089 162.303665"></polygon>
            <polygon id="Fill-55" fill="#A41B36" points="261.648197 101.570681 202.094241 162.303665 219.111984 162.303665 270.157068 110.250578"></polygon>
            <polygon id="Fill-57" fill="#A41B36" points="273.075574 110.994764 223.036649 161.256545 240.23903 161.256545 281.675393 119.633357"></polygon>
            <polygon id="Fill-59" fill="#A41B36" points="282.557053 121.465969 242.931937 161.256545 260.023601 161.256545 291.099476 130.051981"></polygon>
            <polygon id="Fill-61" fill="#A41B36" points="292.059299 131.937173 262.827225 161.256545 279.753047 161.256545 300.52356 140.422649"></polygon>
            <polygon id="Fill-63" fill="#A41B36" points="303.407085 141.361257 283.769634 161.256545 301.048882 161.256545 312.041885 150.112055"></polygon>
            <path d="M145.841358,141.879263 C142.834503,146.371974 138.67211,156.331293 137.172775,161.256545 L138.069101,161.256545 L188.481675,110.994764 C182.733998,111.934656 177.139119,113.970862 172.270033,117.080259 C163.175797,122.813465 152.759581,131.491484 145.841358,141.879263" id="Fill-65" fill="#A41B36"></path>
            <polygon id="Fill-67" fill="#A41B36" points="313.09245 151.832461 303.664921 161.256545 322.513089 161.256545 317.801392 156.543813"></polygon>
            <path d="M179.057592,18.0316682 L170.515833,9.42408377 L19.895288,161.256545 L21.4472202,161.256545 L132.761231,49.0475406 C137.981119,49.1903823 142.764995,49.5186434 147.276362,50.069408 L179.057592,18.0316682 Z" id="Fill-69" fill="#A41B36"></path>
            <path d="M169.633508,8.62333679 L161.852568,0.782938988 L161.074201,0 L0,162.303665 L1.55673425,162.303665 L112.863233,50.1479989 C118.64773,49.9003205 123.906488,49.7792333 128.763772,49.8122571 L169.633508,8.62333679 Z" id="Fill-71" fill="#A41B36"></path>
            <path d="M190.575916,28.4888024 L181.994655,19.895288 L40.8376963,161.256545 L42.3979257,161.256545 L152.617179,50.8771689 C157.035091,51.5610866 161.262766,52.4574436 165.489071,53.6087278 L190.575916,28.4888024 Z" id="Fill-73" fill="#A41B36"></path>
            <path d="M180.031372,58.9331469 L200,38.9366253 L191.443187,30.3664921 L60.7329843,161.256545 L62.292244,161.256545 L154.348644,69.0715543 C158.593599,71.2510043 161.574215,73.1282846 164.175257,74.8100433 L170.589795,68.3920144 C165.514691,68.1130886 160.036802,67.7890424 155.085947,68.3263848 L168.477558,54.9188025 C172.230977,56.059117 176.034915,57.385382 180.031372,58.9331469" id="Fill-75" fill="#A41B36"></path>
            <path d="M174.454659,68.0619499 L182.758927,59.6732263 C184.368313,60.3305721 186.003569,61.0099212 187.697373,61.7374024 C188.116739,67.6315122 182.251058,68.3204877 174.454659,68.0619499 Z M200.889709,39.7905759 L80.6282723,161.256545 L82.1818335,161.256545 L166.452661,76.1398783 C168.018476,77.1341483 169.592461,78.0706599 171.404722,78.9796675 C175.28386,75.8400846 175.28386,74.2737311 179.940459,71.9235132 C181.822161,70.9815008 184.655606,70.4107926 187.926118,70.1275012 L209.424084,48.4130837 L200.889709,39.7905759 Z" id="Fill-77" fill="#A41B36"></path>
            <path d="M212.358937,50.2617801 L101.570681,161.256545 L103.13293,161.256545 L194.077471,70.1369966 C199.025735,70.0780115 204.354634,70.4662154 208.747006,71.0766421 L220.942408,58.8598791 L212.358937,50.2617801 Z" id="Fill-79" fill="#A41B36"></path>
            <path d="M229.574534,130.911328 L260.732984,99.6755364 L252.180273,91.0994764 L236.537598,106.779617 L236.537598,106.783721 L222.761565,120.59379 L222.761565,120.589686 L182.198953,161.256545 L199.311198,161.256545 L228.690335,131.800535 C227.656041,127.777215 225.849438,124.331196 223.472472,121.439221 L236.196472,108.68936 C235.894917,110.303613 235.546968,111.960274 235.073485,113.704488 C232.935307,121.569182 232.098867,125.506317 229.574534,130.911328" id="Fill-81" fill="#A41B36"></path>
            <path d="M251.308901,89.2375782 L243.50176,81.4113111 L242.719402,80.6282723 L199.945919,123.512699 L162.303665,161.256545 L179.481292,161.256545 L221.790292,118.836446 C219.056834,116.235933 215.791756,114.245366 212.212912,112.782319 L235.646665,89.2870332 C237.286739,93.2338237 237.941673,97.7699539 237.55666,103.02593 L251.308901,89.2375782 Z" id="Fill-83" fill="#A41B36"></path>
            <path d="M232.040493,71.9938771 L232.040493,71.9911208 L231.266573,71.2041885 L192.053709,110.942204 L141.361257,162.303665 L158.417424,162.303665 L207.640925,112.420975 C203.238148,111.11034 198.484456,110.594906 193.706281,110.836085 L225.241148,78.8819468 C228.425238,81.2330967 230.937419,83.9026027 232.762728,86.9662639 L239.790576,79.8494188 L232.040493,71.9938771 Z" id="Fill-85" fill="#A41B36"></path>
            <path d="M221.809964,60.7329843 L121.465969,161.256545 L123.020832,161.256545 L212.09855,72.0230646 C213.927802,72.3922896 215.41714,72.7943346 216.365893,73.2018496 C218.819001,74.2520897 221.048231,75.3857472 223.072693,76.6164972 L230.366492,69.3072095 L221.809964,60.7329843 Z" id="Fill-87" fill="#A41B36"></path>
        </g>
    </g>
</svg>