<?xml version="1.0" encoding="UTF-8"?>
<svg width="179px" height="148px" viewBox="0 0 179 148" version="1.1" xmlns="http://www.w3.org/2000/svg" xmlns:xlink="http://www.w3.org/1999/xlink">
    <!-- Generator: Sketch 48.2 (47327) - http://www.bohemiancoding.com/sketch -->
    <title>Page 1</title>
    <desc>Created with Sketch.</desc>
    <defs></defs>
    <g id="My-Careers---Empty" stroke="none" stroke-width="1" fill="none" fill-rule="evenodd" transform="translate(-822.000000, -135.000000)">
        <g id="Group-5" transform="translate(547.000000, 76.000000)">
            <g id="Page-1" transform="translate(277.000000, 61.000000)">
                <path d="M148.5847,73.7862 L26.4147,73.7862 L1.3407,98.0572 C0.4837,98.8872 -0.0003,100.0282 -0.0003,101.2212 L-0.0003,130.2842 C-0.0003,131.9052 1.3137,133.2202 2.9357,133.2202 L172.0647,133.2202 C173.6867,133.2202 174.9997,131.9052 174.9997,130.2842 L174.9997,101.2212 C174.9997,100.0282 174.5167,98.8872 173.6597,98.0572 L148.5847,73.7862 Z" id="Stroke-1" stroke="#D9E3F0" stroke-width="4"></path>
                <path d="M-0.0002,99.3546 L174.9998,99.3546" id="Stroke-3" stroke="#D9E3F0" stroke-width="4"></path>
                <path d="M47.1433,122.3966 L13.9413,122.3966 C13.1303,122.3966 12.4733,121.7396 12.4733,120.9296 L12.4733,110.4686 C12.4733,109.6586 13.1303,109.0016 13.9413,109.0016 L47.1433,109.0016 C47.9543,109.0016 48.6113,109.6586 48.6113,110.4686 L48.6113,120.9296 C48.6113,121.7396 47.9543,122.3966 47.1433,122.3966 Z" id="Stroke-5" stroke="#D9E3F0" stroke-width="4"></path>
                <path d="M161.0584,122.3966 L127.8564,122.3966 C127.0454,122.3966 126.3884,121.7396 126.3884,120.9296 L126.3884,110.4686 C126.3884,109.6586 127.0454,109.0016 127.8564,109.0016 L161.0584,109.0016 C161.8694,109.0016 162.5264,109.6586 162.5264,110.4686 L162.5264,120.9296 C162.5264,121.7396 161.8694,122.3966 161.0584,122.3966 Z" id="Stroke-7" stroke="#D9E3F0" stroke-width="4"></path>
                <path d="M105.1697,112.6749 L105.1697,129.6999 C105.1697,131.7479 103.5097,133.4069 101.4627,133.4069 L73.6597,133.4069 C71.6127,133.4069 69.9527,131.7479 69.9527,129.6999 L69.9527,112.6749 L62.6127,112.6749 L62.6127,134.8409 C62.6127,139.7229 66.5707,143.6799 71.4527,143.6799 L103.6697,143.6799 C108.5517,143.6799 112.5087,139.7229 112.5087,134.8409 L112.5087,112.6749 L105.1697,112.6749 Z" id="Fill-9" fill="#FEFEFE"></path>
                <path d="M105.1697,112.6749 L105.1697,129.6999 C105.1697,131.7479 103.5097,133.4069 101.4627,133.4069 L73.6597,133.4069 C71.6127,133.4069 69.9527,131.7479 69.9527,129.6999 L69.9527,112.6749 L62.6127,112.6749 L62.6127,134.8409 C62.6127,139.7229 66.5707,143.6799 71.4527,143.6799 L103.6697,143.6799 C108.5517,143.6799 112.5087,139.7229 112.5087,134.8409 L112.5087,112.6749 L105.1697,112.6749 Z" id="Stroke-11" stroke="#D9E3F0" stroke-width="4"></path>
                <path d="M60.3513,122.0441 L62.6133,122.0441 L62.6133,112.6751 L60.3513,112.6751 C59.5403,112.6751 58.8833,113.3321 58.8833,114.1421 L58.8833,120.5761 C58.8833,121.3871 59.5403,122.0441 60.3513,122.0441 Z" id="Stroke-13" stroke="#D9E3F0" stroke-width="4"></path>
                <path d="M112.5086,122.0441 L114.7716,122.0441 C115.5816,122.0441 116.2386,121.3871 116.2386,120.5761 L116.2386,114.1421 C116.2386,113.3321 115.5816,112.6751 114.7716,112.6751 L112.5086,112.6751 L112.5086,122.0441 Z" id="Stroke-15" stroke="#D9E3F0" stroke-width="4"></path>
                <path d="M69.951,122.0441 L72.214,122.0441 C73.024,122.0441 73.681,121.3871 73.681,120.5761 L73.681,114.1421 C73.681,113.3321 73.024,112.6751 72.214,112.6751 L69.951,112.6751 L69.951,122.0441 Z" id="Stroke-17" stroke="#D9E3F0" stroke-width="4"></path>
                <path d="M102.909,122.0441 L105.172,122.0441 L105.172,112.6751 L102.909,112.6751 C102.098,112.6751 101.441,113.3321 101.441,114.1421 L101.441,120.5761 C101.441,121.3871 102.098,122.0441 102.909,122.0441 Z" id="Stroke-19" stroke="#D9E3F0" stroke-width="4"></path>
                <path d="M145.6502,91.3956 L29.4722,91.3956 C27.8512,91.3956 26.5382,90.0826 26.5382,88.4606 L26.5382,75.0376 L148.5852,75.0376 L148.5852,88.4606 C148.5852,90.0826 147.2712,91.3956 145.6502,91.3956 Z" id="Stroke-21" stroke="#D9E3F0" stroke-width="4"></path>
                <path d="M147.1971,90.9454 L153.6121,99.3544" id="Stroke-23" stroke="#D9E3F0" stroke-width="4"></path>
                <path d="M27.659,90.7687 L21.487,99.3547" id="Stroke-25" stroke="#D9E3F0" stroke-width="4"></path>
                <path d="M152.9744,4.173 L21.5104,4.173 C20.8934,4.173 20.3044,4.446 19.8874,4.926 L14.4924,11.131 L26.5364,73.786 L148.5844,73.786 L160.2634,11.131 L155.1484,5.189 C154.5924,4.542 153.8024,4.173 152.9744,4.173 Z" id="Stroke-27" stroke="#D9E3F0" stroke-width="4"></path>
                <path d="M14.492,12.8556 L160.263,12.8556" id="Stroke-29" stroke="#D9E3F0" stroke-width="4"></path>
                <path d="M54.2351,7.3019 L52.3731,7.3019 C52.0281,7.3019 51.7651,6.9789 51.8191,6.6209 L52.7421,0.4959 C52.7851,0.2099 53.0191,-0.0001 53.2961,-0.0001 L54.9211,-0.0001 C55.2561,-0.0001 55.5161,0.3079 55.4771,0.6569 L54.7921,6.7819 C54.7581,7.0779 54.5191,7.3019 54.2351,7.3019" id="Fill-31" fill="#FEFEFE"></path>
                <path d="M54.2351,7.3019 L52.3731,7.3019 C52.0281,7.3019 51.7651,6.9789 51.8191,6.6209 L52.7421,0.4959 C52.7851,0.2099 53.0191,-0.0001 53.2961,-0.0001 L54.9211,-0.0001 C55.2561,-0.0001 55.5161,0.3079 55.4771,0.6569 L54.7921,6.7819 C54.7581,7.0779 54.5191,7.3019 54.2351,7.3019 Z" id="Stroke-33" stroke="#D9E3F0" stroke-width="4"></path>
                <path d="M121.032,7.3019 L122.903,7.3019 C123.245,7.3019 123.506,6.9809 123.452,6.6249 L122.528,0.4929 C122.486,0.2089 122.253,-0.0001 121.98,-0.0001 L120.345,-0.0001 C120.013,-0.0001 119.755,0.3059 119.794,0.6539 L120.48,6.7849 C120.512,7.0799 120.75,7.3019 121.032,7.3019" id="Fill-35" fill="#FEFEFE"></path>
                <path d="M121.032,7.3019 L122.903,7.3019 C123.245,7.3019 123.506,6.9809 123.452,6.6249 L122.528,0.4929 C122.486,0.2089 122.253,-0.0001 121.98,-0.0001 L120.345,-0.0001 C120.013,-0.0001 119.755,0.3059 119.794,0.6539 L120.48,6.7849 C120.512,7.0799 120.75,7.3019 121.032,7.3019 Z" id="Stroke-37" stroke="#D9E3F0" stroke-width="4"></path>
                <polyline id="Stroke-39" stroke="#D9E3F0" stroke-width="4" points="149.7742 13.9952 140.9712 66.2762 148.2432 74.4192"></polyline>
                <path d="M33.6912,65.8087 L141.0042,66.4337" id="Stroke-41" stroke="#D9E3F0" stroke-width="4"></path>
                <polyline id="Stroke-43" stroke="#D9E3F0" stroke-width="4" points="24.6072 13.0187 34.0122 66.1747 26.5002 74.4117"></polyline>
            </g>
        </g>
    </g>
</svg>