<svg xmlns="http://www.w3.org/2000/svg" viewBox="0 0 21.74 19.04"><defs><style>.careers-svg-internal-class{fill:none;stroke:#3e403f;stroke-miterlimit:10;}</style></defs><title>Careers</title><path class="careers-svg-internal-class" d="M11.11,12.11h-.47L1.54,9.54a.27.27,0,0,0-.34.27V17.5a1,1,0,0,0,1,1H19.55a1,1,0,0,0,1-1V9.81a.27.27,0,0,0-.34-.27Z"/><path class="careers-svg-internal-class" d="M11.15,12.08,20.5,9.43a1,1,0,0,0,.74-1V3.88a1,1,0,0,0-1-1H1.52a1,1,0,0,0-1,1V8.46a1,1,0,0,0,.74,1l9.36,2.65A1,1,0,0,0,11.15,12.08Z"/><path class="careers-svg-internal-class" d="M13.72,2.84H8a.31.31,0,0,1-.29-.41L8.28.72A.31.31,0,0,1,8.57.5h4.61a.3.3,0,0,1,.28.22L14,2.43A.31.31,0,0,1,13.72,2.84Z"/></svg>