<?xml version="1.0" encoding="UTF-8"?>
<svg width="50px" height="50px" viewBox="0 0 50 50" version="1.1" xmlns="http://www.w3.org/2000/svg" xmlns:xlink="http://www.w3.org/1999/xlink">
    <!-- Generator: Sketch 48.2 (47327) - http://www.bohemiancoding.com/sketch -->
    <title>if_1_Media_social_website_facebook_2657542</title>
    <desc>Created with Sketch.</desc>
    <defs>
        <linearGradient x1="21.3397686%" y1="10.2689303%" x2="84.6792368%" y2="85.561899%" id="linearGradient-1">
            <stop stop-color="#EE2F5C" offset="0%"></stop>
            <stop stop-color="#BE64A5" offset="100%"></stop>
        </linearGradient>
    </defs>
    <g id="Desktop-HD" stroke="none" stroke-width="1" fill="none" fill-rule="evenodd" transform="translate(-253.000000, -580.000000)">
        <g id="if_1_Media_social_website_facebook_2657542" transform="translate(253.000000, 580.000000)">
            <path d="M42.6774414,7.32275391 C38.1508789,2.79580078 31.9074219,0 25,0 C18.0925781,0 11.8494141,2.79580078 7.32285156,7.32275391 C2.79628906,11.849707 0,18.0925781 0,25 C0,31.9074219 2.79628906,38.1504883 7.32285156,42.6771484 C11.8494141,47.2039063 18.0925781,50 25,50 C31.9074219,50 38.1508789,47.2039063 42.6774414,42.6771484 C47.2039063,38.1504883 50,31.9074219 50,25 C50,18.0925781 47.2039063,11.849707 42.6774414,7.32275391 Z" id="Shape" fill="url(#linearGradient-1)" fill-rule="nonzero"></path>
            <path d="M27.4040073,19.8997488 L27.4040073,17.8570582 C27.4040073,16.8770964 28.0737504,16.6425249 28.558872,16.6425249 C29.0287173,16.6425249 31.5073902,16.6425249 31.5073902,16.6425249 L31.5073902,12.2807018 L27.4471225,12.2807018 C22.9312807,12.2807018 21.9200328,15.5103691 21.9200328,17.6085623 L21.9200328,19.8996514 L19.2982456,19.8996514 L19.2982456,22.9776117 L19.2982456,24.9931352 L21.9479723,24.9931352 C21.9479723,30.7764093 21.9479723,37.7192982 21.9479723,37.7192982 L27.2051144,37.7192982 C27.2051144,37.7192982 27.2051144,30.6797179 27.2051144,24.9931352 L31.0938258,24.9931352 L31.2653821,22.9917307 L31.5789474,19.8997488 L27.4040073,19.8997488 Z" id="Shape" fill="#FFFFFF"></path>
        </g>
    </g>
</svg>