<?xml version="1.0" encoding="UTF-8"?>
<svg width="50px" height="50px" viewBox="0 0 50 50" version="1.1" xmlns="http://www.w3.org/2000/svg" xmlns:xlink="http://www.w3.org/1999/xlink">
    <!-- Generator: Sketch 48.2 (47327) - http://www.bohemiancoding.com/sketch -->
    <title>Group 4</title>
    <desc>Created with Sketch.</desc>
    <defs>
        <linearGradient x1="22.921875%" y1="6.9296875%" x2="82.140625%" y2="86.3007812%" id="linearGradient-1">
            <stop stop-color="#ED2F5B" offset="0%"></stop>
            <stop stop-color="#BE65A5" offset="100%"></stop>
        </linearGradient>
    </defs>
    <g id="Desktop-HD" stroke="none" stroke-width="1" fill="none" fill-rule="evenodd" transform="translate(-322.000000, -580.000000)">
        <g id="Group-4" transform="translate(322.000000, 580.000000)" fill-rule="nonzero">
            <g id="if_7_Media_social_website_Snapchat_2657575" fill="url(#linearGradient-1)">
                <path d="M42.6769531,7.32060547 C38.1503906,2.80908203 31.9071289,0 24.999707,0 C18.0922852,0 11.8493164,2.80908203 7.32275391,7.32060547 C2.79619141,11.8461914 0,18.1010742 0,25.0071289 C0,31.8983398 2.79619141,38.1541016 7.32275391,42.6789062 C11.8493164,47.190625 18.0923828,50 24.999707,50 C31.9070313,50 38.1503906,47.190625 42.6769531,42.6789062 C47.203418,38.1541016 50,31.8984375 50,25.0071289 C50,18.1010742 47.203418,11.8461914 42.6769531,7.32060547 Z" id="Shape"></path>
            </g>
            <g id="if_38-instagram_1161953" transform="translate(11.000000, 11.000000)" fill="#FFFFFF">
                <path d="M14.2207062,7.16678448 C10.27051,7.16678448 6.99749036,10.3833728 6.99749036,14.3900003 C6.99749036,18.3966279 10.2140787,21.6132162 14.2207062,21.6132162 C18.2273338,21.6132162 21.4439221,18.3401965 21.4439221,14.3900003 C21.4439221,10.4398042 18.1709024,7.16678448 14.2207062,7.16678448 Z M14.2207062,19.017373 C11.6812944,19.017373 9.59333356,16.9294122 9.59333356,14.3900003 C9.59333356,11.8505885 11.6812944,9.76262768 14.2207062,9.76262768 C16.760118,9.76262768 18.8480789,11.8505885 18.8480789,14.3900003 C18.8480789,16.9294122 16.760118,19.017373 14.2207062,19.017373 Z" id="Shape"></path>
                <circle id="Oval" cx="21.7260789" cy="6.99749036" r="1.63650984"></circle>
                <path d="M25.958432,2.76513732 C24.4912163,1.24149023 22.4032554,0.451450991 20.0331377,0.451450991 L8.40827471,0.451450991 C3.49874518,0.451450991 0.225725496,3.72447068 0.225725496,8.63400021 L0.225725496,20.2024319 C0.225725496,22.6289809 1.01576473,24.7169418 2.5958432,26.2405889 C4.11949029,27.7078046 6.15101975,28.4414124 8.46470608,28.4414124 L19.9767064,28.4414124 C22.4032554,28.4414124 24.4347849,27.6513732 25.9020006,26.2405889 C27.4256477,24.7733731 28.2156869,22.6854123 28.2156869,20.2588632 L28.2156869,8.63400021 C28.2156869,6.2638825 27.4256477,4.23235304 25.958432,2.76513732 Z M25.7327065,20.2588632 C25.7327065,22.0082358 25.1119614,23.4190202 24.0961967,24.3783535 C23.0804319,25.3376869 21.6696476,25.8455692 19.9767064,25.8455692 L8.46470608,25.8455692 C6.77176487,25.8455692 5.36098052,25.3376869 4.34521579,24.3783535 C3.32945106,23.3625888 2.82156869,21.9518044 2.82156869,20.2024319 L2.82156869,8.63400021 C2.82156869,6.94105899 3.32945106,5.53027464 4.34521579,4.51450991 C5.30454915,3.55517656 6.77176487,3.04729419 8.46470608,3.04729419 L20.0895691,3.04729419 C21.7825103,3.04729419 23.1932947,3.55517656 24.2090594,4.57094129 C25.1683928,5.58670602 25.7327065,6.99749036 25.7327065,8.63400021 L25.7327065,20.2588632 Z" id="Shape"></path>
            </g>
        </g>
    </g>
</svg>