<svg xmlns="http://www.w3.org/2000/svg" viewBox="0 0 21 21"><defs><style>.more-selected-svg-internal-class{fill:#e31e3e;stroke:#e21f3f;}.more-selected-svg-internal-class,.more-selected-svg-internal-class-b{stroke-miterlimit:10;}.more-selected-svg-internal-class-b{fill:#fff;stroke:#fff;}</style></defs><title>Asset 2</title><path class="more-selected-svg-internal-class" d="M20.29,12.49a10.27,10.27,0,0,0,.21-2.05,9.34,9.34,0,0,0-.23-2L18,8.19a8.35,8.35,0,0,0-.57-1.38L18.83,5a9.13,9.13,0,0,0-1.3-1.6,9.79,9.79,0,0,0-1.6-1.28L14.15,3.58A7.28,7.28,0,0,0,12.77,3c-.09-.77-.18-1.53-.28-2.3A10.27,10.27,0,0,0,10.44.5a9.34,9.34,0,0,0-2,.23c-.09,1-.15,1.59-.21,2.29a8.35,8.35,0,0,0-1.38.57L5,2.17a9.13,9.13,0,0,0-1.6,1.3,9.79,9.79,0,0,0-1.28,1.6L3.58,6.85A7.28,7.28,0,0,0,3,8.23l-2.3.28A10.27,10.27,0,0,0,.5,10.56a9.34,9.34,0,0,0,.23,2L3,12.81a8.35,8.35,0,0,0,.57,1.38L2.17,16a9.13,9.13,0,0,0,1.3,1.6,9.79,9.79,0,0,0,1.6,1.28l1.78-1.47A7.28,7.28,0,0,0,8.23,18l.28,2.3a10.27,10.27,0,0,0,2.05.21,9.34,9.34,0,0,0,2-.23c.09-1,.15-1.59.21-2.29a8.35,8.35,0,0,0,1.38-.57L16,18.83a9.13,9.13,0,0,0,1.6-1.3,9.79,9.79,0,0,0,1.28-1.6l-1.47-1.78A7.28,7.28,0,0,0,18,12.77Z"/><circle class="more-selected-svg-internal-class-b" cx="10.5" cy="10.5" r="3.64"/></svg>