<svg xmlns="http://www.w3.org/2000/svg" viewBox="0 0 21 21"><defs><style>.more-svg-internal-class{fill:none;stroke:#3e403f;stroke-miterlimit:10;}</style></defs><title>Asset 1</title><path class="more-svg-internal-class" d="M230.29-479.51a10.27,10.27,0,0,0,.21-2.05,9.34,9.34,0,0,0-.23-2l-2.29-.21a8.35,8.35,0,0,0-.57-1.38l1.42-1.82a9.13,9.13,0,0,0-1.3-1.6,9.79,9.79,0,0,0-1.6-1.28l-1.78,1.47a7.28,7.28,0,0,0-1.38-.57c-.09-.77-.18-1.53-.28-2.3a10.27,10.27,0,0,0-2.05-.21,9.34,9.34,0,0,0-2,.23c-.09,1-.15,1.59-.21,2.29a8.35,8.35,0,0,0-1.38.57L215-489.83a9.13,9.13,0,0,0-1.6,1.3,9.79,9.79,0,0,0-1.28,1.6l1.47,1.78a7.28,7.28,0,0,0-.57,1.38l-2.3.28a10.27,10.27,0,0,0-.21,2.05,9.34,9.34,0,0,0,.23,2l2.29.21a8.35,8.35,0,0,0,.57,1.38L212.17-476a9.13,9.13,0,0,0,1.3,1.6,9.79,9.79,0,0,0,1.6,1.28l1.78-1.47a7.28,7.28,0,0,0,1.38.57l.28,2.3a10.27,10.27,0,0,0,2.05.21,9.34,9.34,0,0,0,2-.23c.09-1,.15-1.59.21-2.29a8.35,8.35,0,0,0,1.38-.57l1.82,1.42a9.13,9.13,0,0,0,1.6-1.3,9.79,9.79,0,0,0,1.28-1.6l-1.47-1.78a7.28,7.28,0,0,0,.57-1.38Z" transform="translate(-210 492)"/><circle class="more-svg-internal-class" cx="10.5" cy="10.5" r="3.64"/></svg>