<svg xmlns="http://www.w3.org/2000/svg" viewBox="0 0 12.7 19"><defs><style>.my-kts-selected-svg-internal-class{fill:#e51e44;}</style></defs><title>My KTS-Selected</title><path class="my-kts-selected-svg-internal-class" d="M12.21,19H9a.5.5,0,0,1-.46-.31L6.79,14.06,4.37,16.58v1.94a.49.49,0,0,1-.48.48H.48A.49.49,0,0,1,0,18.52V16.06a.49.49,0,0,1,.14-.34l10.91-11H8.55L4,9.31a.48.48,0,0,1-.52.11A.49.49,0,0,1,3.2,9V1H1V12.89a.49.49,0,0,1-.49.49A.49.49,0,0,1,0,12.89V.48A.49.49,0,0,1,.48,0h3.2a.48.48,0,0,1,.48.48V7.79L8,3.93a.46.46,0,0,1,.34-.15h3.87a.48.48,0,0,1,.45.3.49.49,0,0,1-.1.53L1,16.26V18H3.4V16.39a.47.47,0,0,1,.14-.33l3.08-3.22a.48.48,0,0,1,.8.17l1.9,5h2.2L8.72,10.5A.48.48,0,0,1,9,9.88a.49.49,0,0,1,.63.28l3,8.19a.49.49,0,0,1-.46.65Z"/></svg>