<svg xmlns="http://www.w3.org/2000/svg" viewBox="0 0 12.7 19"><defs><style>.my-kts-svg-internal-class{fill:#414340;}</style></defs><title>My KTS</title><path class="my-kts-svg-internal-class" d="M222.21-473H219a.5.5,0,0,1-.46-.31l-1.74-4.63-2.42,2.52v1.94a.49.49,0,0,1-.48.48h-3.41a.49.49,0,0,1-.48-.48v-2.46a.49.49,0,0,1,.14-.34l10.91-11h-2.5L214-482.69a.48.48,0,0,1-.52.11.49.49,0,0,1-.3-.45v-8H211v11.92a.49.49,0,0,1-.49.49.49.49,0,0,1-.48-.49v-12.41a.49.49,0,0,1,.48-.48h3.2a.48.48,0,0,1,.48.48v7.31l3.84-3.86a.46.46,0,0,1,.34-.15h3.87a.48.48,0,0,1,.45.3.49.49,0,0,1-.1.53L211-475.74V-474h2.43v-1.64a.47.47,0,0,1,.14-.33l3.08-3.22a.5.5,0,0,1,.45-.14.5.5,0,0,1,.35.31l1.9,5h2.2l-2.8-7.53a.48.48,0,0,1,.28-.62.49.49,0,0,1,.63.28l3,8.19a.49.49,0,0,1-.06.44A.49.49,0,0,1,222.21-473Z" transform="translate(-210 492)"/></svg>