<svg xmlns="http://www.w3.org/2000/svg" viewBox="0 0 179 147.68"><defs><style>.no-careers-svg-internal-class{fill:none;}.no-careers-svg-internal-class,.no-careers-svg-internal-class-b{stroke:#dae4f1;stroke-miterlimit:10;stroke-width:4px;}.no-careers-svg-internal-class-b{fill:#fff;}</style></defs><title>Asset 13</title><path class="no-careers-svg-internal-class" d="M150.58,75.79H28.42L3.34,100.06A4.39,4.39,0,0,0,2,103.22v29.06a2.93,2.93,0,0,0,2.94,2.94H174.06a2.93,2.93,0,0,0,2.94-2.94V103.22a4.39,4.39,0,0,0-1.34-3.16Z"/><line class="no-careers-svg-internal-class" x1="2" y1="101.35" x2="177" y2="101.35"/><rect class="no-careers-svg-internal-class" x="14.47" y="111" width="36.14" height="13.4" rx="1.47" ry="1.47"/><rect class="no-careers-svg-internal-class" x="128.39" y="111" width="36.14" height="13.4" rx="1.47" ry="1.47"/><path class="no-careers-svg-internal-class-b" d="M107.17,114.67v17a3.71,3.71,0,0,1-3.71,3.71H75.66A3.71,3.71,0,0,1,72,131.7v-17H64.61v22.17a8.84,8.84,0,0,0,8.84,8.84h32.22a8.84,8.84,0,0,0,8.84-8.84V114.67Z"/><path class="no-careers-svg-internal-class" d="M62.35,114.67h2.26a0,0,0,0,1,0,0V124a0,0,0,0,1,0,0H62.35a1.47,1.47,0,0,1-1.47-1.47v-6.43A1.47,1.47,0,0,1,62.35,114.67Z"/><path class="no-careers-svg-internal-class" d="M114.51,114.67h2.26a1.47,1.47,0,0,1,1.47,1.47v6.43a1.47,1.47,0,0,1-1.47,1.47h-2.26a0,0,0,0,1,0,0v-9.37A0,0,0,0,1,114.51,114.67Z"/><path class="no-careers-svg-internal-class" d="M72,114.67h2.26a1.47,1.47,0,0,1,1.47,1.47v6.43A1.47,1.47,0,0,1,74.21,124H72a0,0,0,0,1,0,0v-9.37A0,0,0,0,1,72,114.67Z"/><path class="no-careers-svg-internal-class" d="M104.91,114.67h2.26a0,0,0,0,1,0,0V124a0,0,0,0,1,0,0h-2.26a1.47,1.47,0,0,1-1.47-1.47v-6.43A1.47,1.47,0,0,1,104.91,114.67Z"/><path class="no-careers-svg-internal-class" d="M28.54,77h122a0,0,0,0,1,0,0V90.46a2.94,2.94,0,0,1-2.94,2.94H31.47a2.94,2.94,0,0,1-2.94-2.94V77A0,0,0,0,1,28.54,77Z"/><line class="no-careers-svg-internal-class" x1="149.2" y1="92.95" x2="155.61" y2="101.35"/><line class="no-careers-svg-internal-class" x1="29.66" y1="92.77" x2="23.49" y2="101.35"/><path class="no-careers-svg-internal-class" d="M155,6.17H23.51a2.14,2.14,0,0,0-1.62.76l-5.4,6.2L28.54,75.79h122l11.68-62.66-5.11-5.94A2.88,2.88,0,0,0,155,6.17Z"/><line class="no-careers-svg-internal-class" x1="16.49" y1="14.86" x2="162.26" y2="14.86"/><path class="no-careers-svg-internal-class-b" d="M56.24,9.3H54.37a.58.58,0,0,1-.55-.68l.92-6.12A.58.58,0,0,1,55.3,2h1.62a.58.58,0,0,1,.56.66l-.69,6.12A.56.56,0,0,1,56.24,9.3Z"/><path class="no-careers-svg-internal-class-b" d="M123,9.3h1.87a.57.57,0,0,0,.55-.67l-.92-6.14A.57.57,0,0,0,124,2h-1.63a.58.58,0,0,0-.56.65l.69,6.14A.56.56,0,0,0,123,9.3Z"/><polyline class="no-careers-svg-internal-class" points="151.77 16 142.97 68.28 150.24 76.42"/><line class="no-careers-svg-internal-class" x1="35.69" y1="67.81" x2="143" y2="68.43"/><polyline class="no-careers-svg-internal-class" points="26.61 15.02 36.01 68.17 28.5 76.41"/></svg>