<svg xmlns="http://www.w3.org/2000/svg" viewBox="0 0 55.13 47"><defs><style>.a{fill:none;}.a,.b{stroke:#d1dae7;stroke-miterlimit:10;stroke-width:2px;}.b{fill:#fff;}</style></defs><title>opportunity_placeholder</title><path class="a" d="M241-457.07a.76.76,0,0,1-.76.76h-5.29a.75.75,0,0,1-.75-.76v-5.37L212.8-468.2v20.35a1.85,1.85,0,0,0,1.85,1.85h45.84a1.85,1.85,0,0,0,1.85-1.85V-468.2L241-462.44Z" transform="translate(-210 492)"/><path class="a" d="M6.24,20.91H48.89a0,0,0,0,1,0,0V39.56a2.08,2.08,0,0,1-2.08,2.08H8.32a2.08,2.08,0,0,1-2.08-2.08V20.91A0,0,0,0,1,6.24,20.91Z"/><path class="b" d="M262.52-484.21H212.61A1.61,1.61,0,0,0,211-482.6v12.68a1.62,1.62,0,0,0,1.19,1.56l22,5.92V-457a.75.75,0,0,0,.75.75h5.29A.76.76,0,0,0,241-457v-5.42l22-5.92a1.62,1.62,0,0,0,1.19-1.56V-482.6A1.61,1.61,0,0,0,262.52-484.21Z" transform="translate(-210 492)"/><rect class="a" x="24.18" y="29.8" width="6.78" height="3.56" rx="0.41" ry="0.41"/><path class="a" d="M21.7,3.64H33.43a.7.7,0,0,1,.7.7V7.23a0,0,0,0,1,0,0H21a0,0,0,0,1,0,0V4.35A.7.7,0,0,1,21.7,3.64Z"/><path class="a" d="M20.36,1H34.77a1.76,1.76,0,0,1,1.76,1.76V7.57a0,0,0,0,1,0,0H18.61a0,0,0,0,1,0,0V2.76A1.76,1.76,0,0,1,20.36,1Z"/><path class="a" d="M17.53,5.71h.6a.48.48,0,0,1,.48.48V7.1a.48.48,0,0,1-.48.48H17.06a0,0,0,0,1,0,0V6.18A.48.48,0,0,1,17.53,5.71Z"/><path class="a" d="M246.53-486.29h1.07a.48.48,0,0,1,.48.48v.91a.48.48,0,0,1-.48.48H247a.48.48,0,0,1-.48-.48v-1.39A0,0,0,0,1,246.53-486.29Z" transform="translate(284.6 -478.72) rotate(-180)"/></svg>