<svg xmlns="http://www.w3.org/2000/svg" viewBox="0 0 19 19.27"><defs><style>.prizes-svg-internal-class{fill:none;stroke:#404240;stroke-miterlimit:10;}</style></defs><title>Prizes</title><path class="prizes-svg-internal-class" d="M1.5,8.61h16a0,0,0,0,1,0,0V17.7a1.07,1.07,0,0,1-1.07,1.07H2.57A1.07,1.07,0,0,1,1.5,17.7V8.61A0,0,0,0,1,1.5,8.61Z"/><path class="prizes-svg-internal-class" d="M2.25,4h14.5A1.75,1.75,0,0,1,18.5,5.72V7.59a1,1,0,0,1-1,1H1.5a1,1,0,0,1-1-1V5.72A1.75,1.75,0,0,1,2.25,4Z"/><path class="prizes-svg-internal-class" d="M14.23.5h-.11A6.12,6.12,0,0,0,9.5,3.07,6.13,6.13,0,0,0,4.87.5h-.1A1.43,1.43,0,0,0,3.34,1.92,1.63,1.63,0,0,0,5,3.55H14a1.63,1.63,0,0,0,1.63-1.63A1.43,1.43,0,0,0,14.23.5Z"/></svg>