<svg xmlns="http://www.w3.org/2000/svg" viewBox="0 0 114.11 103"><defs><style>.a{fill:#fff;stroke:#d0d9e5;stroke-miterlimit:10;stroke-width:3px;}</style></defs><title>prize_placeholder</title><path class="a" d="M58,20.59s27.5.87,34.43-5.27c3.45-3.05,4.42-10.83-3.21-13.24-7.34-2.33-15.32,3-17.14,4.57C64,13.43,56.72,21.53,58,20.59Z"/><path class="a" d="M63.58,17.16s18.32.38,22.94-2.27c2.3-1.31,3-4.66-2.13-5.7-4.9-1-10.21,1.31-11.43,2C67.58,14.08,62.72,17.57,63.58,17.16Z"/><path class="a" d="M57.53,20.59S30,21.46,23.1,15.32c-3.45-3.05-4.42-10.83,3.21-13.24,7.34-2.33,15.31,3,17.14,4.57C51.52,13.43,58.81,21.53,57.53,20.59Z"/><path class="a" d="M6.68,39.64H107.49a0,0,0,0,1,0,0V99A2.51,2.51,0,0,1,105,101.5H9.19A2.51,2.51,0,0,1,6.68,99V39.64A0,0,0,0,1,6.68,39.64Z"/><rect class="a" x="1.5" y="21.15" width="111.11" height="18.49" rx="2.74" ry="2.74"/><rect class="a" x="44.99" y="21.15" width="25.55" height="18.49"/><rect class="a" x="46.78" y="39.64" width="21.97" height="61.86"/><path class="a" d="M54.43,17.17s-18.33.28-22.95-1.68c-2.3-1-2.94-3.45,2.14-4.22a25.12,25.12,0,0,1,11.43,1.46C50.43,14.89,55.28,17.47,54.43,17.17Z"/><path class="a" d="M59.29,48c-.1-1.05-2.74-14.34-2.74-14.34L48.17,43c2.74-6.06,5.6-25,5.6-25l6.72.09,2.07.81Z"/><path class="a" d="M62.07,20.24c-2.41,0-6.75-.51-8.87-.09s-3.18-9.31.08-8.86a44.37,44.37,0,0,0,8.88.09C65.46,11.14,63.78,20.26,62.07,20.24Z"/></svg>