<svg xmlns="http://www.w3.org/2000/svg" viewBox="0 0 19 19.43"><defs><style>.prizes-selected-svg-internal-class{fill:none;stroke:#e42240;}.prizes-selected-svg-internal-class,.prizes-selected-svg-internal-class-b{stroke-miterlimit:10;}.prizes-selected-svg-internal-class-b,.prizes-selected-svg-internal-class-c{fill:#e31e3e;}.prizes-selected-svg-internal-class-b{stroke:#e31e3e;}</style></defs><title>Prizes-Selected</title><path class="prizes-selected-svg-internal-class" d="M1.5,8.77h16a0,0,0,0,1,0,0v9.09a1.07,1.07,0,0,1-1.07,1.07H2.57A1.07,1.07,0,0,1,1.5,17.86V8.77A0,0,0,0,1,1.5,8.77Z"/><path class="prizes-selected-svg-internal-class-b" d="M2.25,4.13h14.5A1.75,1.75,0,0,1,18.5,5.88V7.75a1,1,0,0,1-1,1H1.5a1,1,0,0,1-1-1V5.88A1.75,1.75,0,0,1,2.25,4.13Z"/><path class="prizes-selected-svg-internal-class-c" d="M14.23,0h-.11A6.12,6.12,0,0,0,9.5,2.57,6.13,6.13,0,0,0,4.87,0h-.1A1.43,1.43,0,0,0,3.34,1.42,1.63,1.63,0,0,0,5,3.05H14a1.63,1.63,0,0,0,1.63-1.63A1.43,1.43,0,0,0,14.23,0Z"/></svg>