<svg xmlns="http://www.w3.org/2000/svg" viewBox="0 0 56.08 51.74"><defs><style>.a{fill:#fff;stroke-width:2px;}.a,.b{stroke:#d0d9e5;stroke-miterlimit:10;}.b,.c{fill:#d1d9e5;}</style></defs><title>Asset 14</title><path class="a" d="M16.21,26.11a23.36,23.36,0,0,1,5.88,7.31,2.31,2.31,0,0,0,3.7.45,23.16,23.16,0,0,1,15.73-7,15.48,15.48,0,0,1,4.42.64,1.65,1.65,0,0,0,1.78-2s-.8-9.24-5.57-14c-1.38-1.37-6.46-.74-6.22-.78l-15.51-.23s-4.17-3-9.77,1.11c-2.81,2.06-3.56,11-3.56,11,0,2,1.44,2.49,2,2.42C11.61,24.77,14.4,24.72,16.21,26.11Z"/><path class="a" d="M21,20.87,1.45,9.52a.9.9,0,0,1,.24-1.65l28.5-6.82a1.81,1.81,0,0,1,1.15.11L54.55,11.6a.9.9,0,0,1-.16,1.69L22.33,21.06A1.79,1.79,0,0,1,21,20.87Z"/><ellipse class="b" cx="27.98" cy="10.74" rx="1.23" ry="0.7" transform="translate(-1.72 6.69) rotate(-13.22)"/><rect class="c" x="27.78" y="13.52" width="12.61" height="1.54" transform="translate(11.71 -15.13) rotate(30)"/><rect class="c" x="31.71" y="22.54" width="13.4" height="1.54" transform="translate(61.73 -15.1) rotate(90)"/><path class="c" d="M40,34.26a3.37,3.37,0,0,1-2.7.2c-1.08-.75,0-4.36,0-4.36l2.1-.16S40.76,33.29,40,34.26Z"/><ellipse class="b" cx="38.41" cy="29.55" rx="1.1" ry="0.82"/><path class="a" d="M17.16,46c.06-.39.34-5.45.34-5.45l-3.95,3c1.57-2.09,4.4-8.94,4.4-8.94l4.81.8h0Z"/><path class="a" d="M18.69,34.32S7.11,32.23,3,32c-1.82-.11-.12-8.12,1.59-7.15,5.28,3,15.18,4.51,15.18,4.51Z"/><path class="a" d="M24,30.24s11.37,2.16,15.66,2.34c1.83.08.23,7.91-1.59,7.15-5.17-2.16-15.18-4.5-15.18-4.5Z"/><path class="a" d="M22.42,36.07c-1.12-.25-3.08-1-4.14-.92s-.08-6.85,1.38-6.21a14.6,14.6,0,0,0,4.14.92C25.39,30,23.22,36.25,22.42,36.07Z"/></svg>