<svg xmlns="http://www.w3.org/2000/svg" viewBox="0 0 26 18.55"><defs><style>.scholarships-svg-internal-class{fill:none;stroke:#3e403f;stroke-miterlimit:10;}</style></defs><title>Scholarships</title><path class="scholarships-svg-internal-class" d="M222.64-480.22l-11.85-5.1a.51.51,0,0,1,0-.92l11.85-5.18a.83.83,0,0,1,.72,0l11.85,5.18a.51.51,0,0,1,0,.92l-11.85,5.1A.9.9,0,0,1,222.64-480.22Z" transform="translate(-210 492)"/><path class="scholarships-svg-internal-class" d="M223.36-480.1a.9.9,0,0,1-.72,0l-7.89-3.4v6.57a.72.72,0,0,0,.8.74,9,9,0,0,1,1.48-.13,8.32,8.32,0,0,1,5.7,2.19.67.67,0,0,0,.91,0,8.29,8.29,0,0,1,5.69-2.19,9.07,9.07,0,0,1,1.49.13.72.72,0,0,0,.8-.74v-6.72Z" transform="translate(-210 492)"/></svg>