<svg xmlns="http://www.w3.org/2000/svg" viewBox="0 0 26 18.43"><defs><style>.scholarships-selected-svg-internal-class{fill:none;}.scholarships-selected-svg-internal-class,.scholarships-selected-svg-internal-class-b{stroke:#e21f3f;stroke-miterlimit:10;}.scholarships-selected-svg-internal-class-b{fill:#e31e3e;}</style></defs><title>Scholarships-Selected</title><path class="scholarships-selected-svg-internal-class" d="M7,15.56a8.32,8.32,0,0,1,5.7,2.19.67.67,0,0,0,.91,0,8.29,8.29,0,0,1,5.69-2.19,8.1,8.1,0,0,1,1.49.13.72.72,0,0,0,.8-.74V6L4.75,6.07V15a.72.72,0,0,0,.8.74A8.07,8.07,0,0,1,7,15.56Z"/><path class="scholarships-selected-svg-internal-class-b" d="M12.64,11.78.79,6.68a.51.51,0,0,1,0-.92L12.64.58a.83.83,0,0,1,.72,0L25.21,5.76a.51.51,0,0,1,0,.92l-11.85,5.1A.9.9,0,0,1,12.64,11.78Z"/></svg>