<?xml version="1.0" encoding="UTF-8"?>
<svg width="50px" height="50px" viewBox="0 0 50 50" version="1.1" xmlns="http://www.w3.org/2000/svg" xmlns:xlink="http://www.w3.org/1999/xlink">
    <!-- Generator: Sketch 48.2 (47327) - http://www.bohemiancoding.com/sketch -->
    <title>if_12_Media_social_website_Twitter_2657545</title>
    <desc>Created with Sketch.</desc>
    <defs>
        <linearGradient x1="24.046875%" y1="9.203125%" x2="83.609375%" y2="82.0546875%" id="linearGradient-1">
            <stop stop-color="#ED2F5B" offset="0%"></stop>
            <stop stop-color="#BF65A6" offset="100%"></stop>
        </linearGradient>
    </defs>
    <g id="Desktop-HD" stroke="none" stroke-width="1" fill="none" fill-rule="evenodd" transform="translate(-391.000000, -580.000000)">
        <g id="if_12_Media_social_website_Twitter_2657545" transform="translate(391.000000, 580.000000)">
            <path d="M42.6775391,7.32060547 C38.1504883,2.80908203 31.9076172,0 25.000293,0 C18.0923828,0 11.8496094,2.80908203 7.32353516,7.32060547 C2.79599609,11.8461914 0,18.1010742 0,25.0071289 C0,31.8983398 2.79599609,38.1541016 7.32353516,42.6789062 C11.8496094,47.190625 18.0923828,50 25.000293,50 C31.9076172,50 38.1504883,47.190625 42.6775391,42.6789062 C47.2040039,38.1541016 50,31.8984375 50,25.0071289 C50,18.1010742 47.2040039,11.8461914 42.6775391,7.32060547 Z" id="Shape" fill="url(#linearGradient-1)" fill-rule="nonzero"></path>
            <path d="M37.9699248,17.1145778 C37.0406855,17.5215355 36.0293884,17.8018753 34.9618537,17.9416495 C36.0564802,17.2831378 36.8880129,16.2735585 37.2771765,15.0400238 C36.2649013,15.6426456 35.1282189,16.0773008 33.9362771,16.3155006 C32.9921716,15.2927649 31.6209543,14.6616541 30.0955974,14.6616541 C27.2119335,14.6616541 24.8545548,17.002798 24.8545548,19.8761325 C24.8545548,20.2967411 24.9247784,20.6894542 25.0076187,21.0681207 C20.6406537,20.8577175 16.7722954,18.7828667 14.193292,15.6147501 C13.7499448,16.3998795 13.4729629,17.2831378 13.4729629,18.2362338 C13.4729629,20.0586402 14.4156014,21.6565968 15.8016848,22.5819951 C14.9424735,22.5680474 14.1380326,22.329353 13.4314938,21.9369366 C13.4314938,21.9651289 13.4314938,21.9791755 13.4314938,22.007071 C13.4314938,22.6798272 13.55639,23.2969902 13.7915117,23.8853674 C14.4299786,25.5259586 15.885601,26.7591965 17.6464708,27.1097696 C17.1881596,27.2359918 16.7448124,27.3056316 16.2598983,27.3056316 C15.9271678,27.3056316 15.5942418,27.2636894 15.2748127,27.1937528 C15.9547487,29.2686036 17.8814947,30.7820824 20.1697257,30.8385658 C18.3668978,32.2402647 16.1211139,33.0673364 13.6671045,33.0673364 C13.2370587,33.0673364 12.8355718,33.0389463 12.406015,32.997202 C14.734737,34.4693321 17.493407,35.3383459 20.4467076,35.3383459 C28.639975,35.3383459 33.700373,29.6045365 35.0168198,23.6468709 C35.2533107,22.5818962 35.3634384,21.5303747 35.3634384,20.4931966 C35.3634384,20.2687467 35.3634384,20.0308437 35.3634384,19.8201437 C36.3756158,19.0772531 37.2771765,18.1518549 37.9699248,17.1145778 Z" id="Shape" fill="#FFFFFF"></path>
        </g>
    </g>
</svg>