<svg xmlns="http://www.w3.org/2000/svg" xmlns:xlink="http://www.w3.org/1999/xlink" viewBox="0 0 867.24 1240.46"><defs><style>.a{font-size:68px;font-family:Barlow-Thin, Barlow;}.b{letter-spacing:0em;}.c{letter-spacing:0.05em;}.d,.e{font-size:71px;}.d,.e,.h,.i{font-family:Barlow-Regular, Barlow;}.e{letter-spacing:0.04em;}.f{letter-spacing:-0.02em;}.g{letter-spacing:0.08em;}.i{letter-spacing:0em;}.j,.k{fill:#333;}.j{opacity:0.3;}.l{font-size:67px;fill:#231f20;font-family:Barlow-Black, Barlow;}.m{letter-spacing:-0.01em;}.n{letter-spacing:-0.03em;}.o{letter-spacing:-0.1em;}.p{fill:none;stroke:#231f20;stroke-miterlimit:10;stroke-width:2px;}</style></defs><title>Screen3_Contents</title><text class="a" transform="translate(119.4 261.26)"><tspan class="b">F</tspan><tspan x="38.63" y="0">OR</tspan><tspan class="c" x="122.47" y="0"> </tspan><tspan class="d" x="139.78" y="0">SCHO</tspan><tspan class="e" x="315.08" y="0">L</tspan><tspan class="d" x="358.39" y="0">ARSHIPS </tspan><tspan x="0" y="81.6">A</tspan><tspan class="f" x="38.69" y="81.6">N</tspan><tspan x="83.77" y="81.6">D</tspan><tspan class="g" x="125.8" y="81.6"> </tspan><tspan class="h" x="144.93" y="81.6">OPPO</tspan><tspan class="i" x="310.03" y="81.6">R</tspan><tspan class="h" x="351.58" y="81.6">TUNITIES </tspan></text><circle class="j" cx="358.4" cy="1233.96" r="6.5"/><circle class="j" cx="396.03" cy="1233.96" r="6.5"/><circle class="k" cx="433.65" cy="1233.96" r="6.5"/><circle class="j" cx="471.28" cy="1233.96" r="6.5"/><circle class="j" cx="508.9" cy="1233.96" r="6.5"/><text class="l" transform="translate(92.4 56.95)">GET PERSONALIZED <tspan x="0" y="80.4">N</tspan><tspan class="m" x="44.09" y="80.4">O</tspan><tspan x="85.02" y="80.4">TIFI</tspan><tspan class="n" x="197.65" y="80.4">C</tspan><tspan class="o" x="236.71" y="80.4">A</tspan><tspan x="277.84" y="80.4">TIONS</tspan></text><line class="p" x1="61.4" y1="170.56" x2="530.4" y2="170.56"/><image width="1328" height="1003" transform="translate(0 387.56) scale(0.65)" xlink:href="../../Library/Mobile Documents/com~apple~CloudDocs/Slate/Design/Keys To Success/High Fed/PSD Exports/MyKTS-InPhone-Message.png"/></svg>