<svg xmlns="http://www.w3.org/2000/svg" xmlns:xlink="http://www.w3.org/1999/xlink" viewBox="0 0 2526.57 6560.38"><defs><style>.a,.b,.e,.f,.i,.j{fill:none;stroke:#f2f2f2;stroke-miterlimit:10;}.a{clip-rule:evenodd;}.c{clip-path:url(#a);}.d{clip-path:url(#b);}.e{stroke-width:25px;}.f{fill-rule:evenodd;}.g{clip-path:url(#c);}.h{clip-path:url(#d);}.i{stroke-width:12px;}.j{stroke-width:13px;}.k{font-size:49px;font-family:Barlow-SemiBold, Barlow;font-weight:700;}.k,.n,.o{fill:#f2f2f2;}.l{letter-spacing:0em;}.m{letter-spacing:0.03em;}.o{opacity:0.3;}.p{font-size:50px;fill:#fff;font-family:Barlow-Light, Barlow;}.q{letter-spacing:-0.05em;}.r{letter-spacing:0em;}.s{letter-spacing:-0.02em;}.t{letter-spacing:-0.01em;}.u{letter-spacing:-0.03em;}.v{letter-spacing:0em;}</style><clipPath id="a"><path class="a" d="M636.08,6274.93H768.94v71a15.78,15.78,0,0,1-15.78,15.79H651.86A15.78,15.78,0,0,1,636.08,6346Z"/></clipPath><clipPath id="b"><rect class="b" x="0.51" y="0.5" width="2525.56" height="6511.2"/></clipPath><clipPath id="c"><path class="a" d="M642.8,6245.22H762.22A15.79,15.79,0,0,1,778,6261v18.6a7.9,7.9,0,0,1-7.89,7.9H634.91a7.9,7.9,0,0,1-7.89-7.9V6261A15.78,15.78,0,0,1,642.8,6245.22Z"/></clipPath><clipPath id="d"><rect class="b" x="0.51" y="5.59" width="2525.56" height="6511.2"/></clipPath></defs><title>Asset 2</title><g class="c"><g class="d"><path class="e" d="M636.08,6274.93H768.94v71a15.78,15.78,0,0,1-15.78,15.79H651.86A15.78,15.78,0,0,1,636.08,6346Z"/></g><rect class="b" x="0.51" y="0.5" width="2525.56" height="6511.2"/></g><path class="f" d="M636.08,6274.93H768.94v71a15.78,15.78,0,0,1-15.78,15.79H651.86A15.78,15.78,0,0,1,636.08,6346Z"/><g class="g"><g class="h"><path class="e" d="M642.8,6245.22H762.22A15.79,15.79,0,0,1,778,6261v18.6a7.9,7.9,0,0,1-7.89,7.9H634.91a7.9,7.9,0,0,1-7.89-7.9V6261A15.78,15.78,0,0,1,642.8,6245.22Z"/></g><rect class="b" x="0.51" y="5.59" width="2525.56" height="6511.2"/></g><path class="f" d="M642.8,6245.22H762.22A15.79,15.79,0,0,1,778,6261v18.6a7.9,7.9,0,0,1-7.89,7.9H634.91a7.9,7.9,0,0,1-7.89-7.9V6261A15.78,15.78,0,0,1,642.8,6245.22Z"/><path class="i" d="M699,6245H674.33c-8.75,0-18.61.66-22.13-8.46s9.61-17.47,22.13-15.36q11.28,1.89,28.63,19.69,17.34-17.79,28.62-19.69c12.53-2.11,25.65,6.25,22.13,15.36s-13.38,8.46-22.13,8.46Z"/><path class="j" d="M766.26,5968.27V6018c0,3.33-2.81,6-5.91,5.48a66.23,66.23,0,0,0-11-1,61.48,61.48,0,0,0-42.09,16.2,4.91,4.91,0,0,1-6.73,0,61.53,61.53,0,0,0-42.16-16.2,66,66,0,0,0-10.94,1,5.32,5.32,0,0,1-5.92-5.48v-48.52"/><path class="j" d="M699.86,5994.57l-87.62-37.73a3.78,3.78,0,0,1,0-6.84l87.6-38.31a6.69,6.69,0,0,1,5.37,0l87.6,38.31a3.78,3.78,0,0,1,0,6.84l-87.62,37.73A6.69,6.69,0,0,1,699.86,5994.57Z"/><path class="j" d="M704.18,5678.47h-3.33L636,5660.11a2,2,0,0,0-2.42,2v54.84a7.25,7.25,0,0,0,7.07,7.42H764.41a7.25,7.25,0,0,0,7.07-7.42v-54.84a2,2,0,0,0-2.43-2Z"/><path class="j" d="M704.48,5678.25l66.72-18.87a7.25,7.25,0,0,0,5.27-7v-32.66a7.24,7.24,0,0,0-7.25-7.25H635.8a7.24,7.24,0,0,0-7.25,7.25v32.66a7.25,7.25,0,0,0,5.28,7l66.71,18.87A7.13,7.13,0,0,0,704.48,5678.25Z"/><path class="j" d="M722.82,5612.09H682.21a2.24,2.24,0,0,1-2-3l3.87-12.21a2.14,2.14,0,0,1,2-1.53H719a2.14,2.14,0,0,1,2,1.53l3.86,12.21A2.24,2.24,0,0,1,722.82,5612.09Z"/><text class="k" transform="translate(881.59 5671.08)">OPPO<tspan class="l" x="119.17" y="0">R</tspan><tspan x="149.15" y="0">TUNITIES</tspan></text><text class="k" transform="translate(881.59 5987.08)">SCHO<tspan class="m" x="120.34" y="0">L</tspan><tspan x="149.59" y="0">ARSHIPS</tspan></text><text class="k" transform="translate(881.59 6303.08)">PRIZES</text><line class="b" x1="841.59" y1="5579.48" x2="841.59" y2="6394.48"/><circle class="n" cx="862.59" cy="6553.88" r="6.5"/><circle class="o" cx="900.22" cy="6553.88" r="6.5"/><circle class="o" cx="937.84" cy="6553.88" r="6.5"/><circle class="o" cx="975.47" cy="6553.88" r="6.5"/><circle class="o" cx="1013.09" cy="6553.88" r="6.5"/><text class="p" transform="translate(628.83 5424.93)"><tspan class="q">W</tspan><tspan x="41.45" y="0">el</tspan><tspan class="r" x="79.35" y="0">c</tspan><tspan x="105.05" y="0">ome </tspan><tspan class="s" x="209.9" y="0">t</tspan><tspan x="227" y="0">o </tspan><tspan class="t" x="263.95" y="0">Ke</tspan><tspan class="u" x="319.95" y="0">y</tspan><tspan x="340.95" y="0">s </tspan><tspan class="s" x="374.85" y="0">t</tspan><tspan x="391.95" y="0">o Su</tspan><tspan class="v" x="484.84" y="0">cc</tspan><tspan x="536.24" y="0">e</tspan><tspan class="s" x="562.79" y="0">s</tspan><tspan x="585.84" y="0">s</tspan></text></svg>