<?xml version="1.0" encoding="UTF-8"?>
<svg width="331px" height="171px" viewBox="0 0 331 171" version="1.1" xmlns="http://www.w3.org/2000/svg" xmlns:xlink="http://www.w3.org/1999/xlink">
    <!-- Generator: Sketch 48.2 (47327) - http://www.bohemiancoding.com/sketch -->
    <title>a-core</title>
    <desc>Created with Sketch.</desc>
    <defs></defs>
    <g id="Welcome" stroke="none" stroke-width="1" fill="none" fill-rule="evenodd">
        <g id="a-core">
            <path d="M117.932123,87.2691923 C117.623606,90.1797797 114.794333,93.0461224 111.559683,93.6751154 C108.293941,94.3196538 105.835368,92.4482203 106.119969,89.4646888 C106.403375,86.4907238 109.337878,83.5693741 112.628731,82.9929965 C115.877731,82.4261853 118.238249,84.3562133 117.932123,87.2691923 Z M185.755745,77.1335559 L183.510025,77.6082902 L178.771053,78.6031993 C178.132494,78.7443042 177.534592,78.7275629 177.113669,78.5637378 C176.695137,78.3999126 176.49185,78.0949825 176.540878,77.7326538 L176.854179,75.7237028 C176.95941,75.044486 177.923228,74.3030874 179.102291,74.0053322 L184.317193,72.6540734 L186.589221,72.0633462 L188.141375,71.6639476 C189.031053,64.937549 189.005941,58.5017308 188.15692,52.4473741 L186.589221,53.2892203 L184.292081,54.506549 L179.47299,57.0763322 C178.828452,57.4207238 178.173151,57.6216189 177.655368,57.6311853 C177.13878,57.6347727 176.79678,57.4434441 176.733403,57.1038357 L176.344766,55.2288147 C176.22399,54.591451 177.000067,53.6013252 178.181522,52.9101503 L183.427515,49.8321503 L185.723459,48.4916538 L187.273221,47.5768636 C185.93392,41.5990385 183.750382,35.9955 180.768046,30.8894161 L179.287641,32.1761014 L177.147151,34.0559056 L172.676039,37.9757517 C172.079333,38.5019056 171.414466,38.9025 170.84885,39.0758916 C170.280843,39.2421084 169.845571,39.1691643 169.653046,38.8797797 L168.610305,37.2582692 C168.255151,36.7093951 168.795655,35.5339196 169.870683,34.5138986 L174.519969,30.0810524 L176.636543,28.0661224 L178.06792,26.7041014 C174.414738,21.5717098 169.861116,17.008521 164.477606,13.1807517 L163.312892,14.9457587 L161.616046,17.5263042 L158.133864,22.8308916 C157.663913,23.5447867 157.080361,24.1582343 156.517137,24.5241503 C155.941955,24.8936538 155.442109,24.9869266 155.11685,24.7896189 L153.339885,23.6727378 C152.724046,23.2936678 152.868738,22.0010035 153.686669,20.6449615 L157.186787,14.7400804 L158.771228,12.0590874 L159.871368,10.2091783 C153.856473,6.6982972 146.968641,4.01371678 139.272445,2.35752797 L138.723571,4.50877972 L137.923578,7.64537413 L136.207599,14.3538357 C135.991158,15.1992692 135.601326,16.0064371 135.132571,16.5756399 C134.649466,17.1460385 134.137662,17.4318357 133.694018,17.3696538 L131.254578,17.0563531 C130.428277,16.9487308 130.032466,15.6943322 130.345766,14.113479 L131.803452,6.64448601 L132.42527,3.46484266 L132.854564,1.25140909 C129.031578,0.744388112 125.029221,0.475332168 120.864235,0.475332168 C116.621522,0.475332168 112.345326,0.752758741 108.042822,1.29684965 L108.052389,3.62508042 L108.052389,6.96615734 L108.059564,14.7783462 C108.070326,16.4285559 107.365997,17.7881853 106.41892,17.9651643 L103.574102,18.5020804 C103.063494,18.6049196 102.521794,18.3418427 102.100871,17.7570944 C101.673969,17.1831084 101.408501,16.336479 101.341536,15.4336469 L100.84169,8.2361014 L100.598941,4.84838811 L100.436312,2.52494056 C90.5912559,4.46453497 80.8095776,7.76017133 71.384249,12.2348706 L72.483193,14.406451 L74.0760042,17.5119545 L77.5019832,24.2156329 C78.2804517,25.7271294 78.1489133,27.2362343 77.2114028,27.7743462 L74.4060462,29.3683531 C73.8978294,29.6457797 73.1863259,29.6146888 72.4664517,29.2511643 C71.7394028,28.8924231 71.0530112,28.2287517 70.5495776,27.4287587 L66.7995357,21.3540734 L64.9233189,18.3310804 L63.6378294,16.226465 C53.9374657,21.6279126 44.8373958,28.2407098 36.6939692,35.8352622 L38.8763119,37.3945909 L42.0296476,39.6546608 L48.757242,44.4594021 C50.2687385,45.5344301 50.8176126,46.9383042 50.0654517,47.751451 L47.810165,50.1681713 C47.4047874,50.6046399 46.6466476,50.8222762 45.7079413,50.7588986 C44.7799972,50.689542 43.7528014,50.3415629 42.8631231,49.8046469 L36.0386685,45.7066259 L32.6676965,43.6665839 L30.2844587,42.2256399 C22.7580671,50.2734021 16.3796476,59.1080035 11.4900042,68.430493 L14.4400531,69.1300385 L18.6911371,70.1225559 L28.0136266,72.3037028 C30.0417105,72.7748497 31.199249,73.8247657 30.7448434,74.7670594 L29.4115217,77.5760035 C29.1687734,78.0806329 28.4728154,78.5063392 27.4779063,78.7443042 C26.4853888,78.9750944 25.281214,78.9894441 24.1236755,78.8040944 L15.2950531,77.3416259 L10.923193,76.6169685 L7.8439972,76.1051643 C3.77826294,85.7002972 1.35915105,95.5501364 0.860500699,105.319857 L4.15733287,104.915675 L8.84608112,104.327339 L19.1670671,103.033479 C21.415179,102.744094 23.0665846,103.220024 23.0486476,104.12764 L22.9936406,106.827766 C22.9840741,107.318045 22.4818364,107.883661 21.5945497,108.393073 C20.7048713,108.906073 19.5078713,109.316234 18.270214,109.537458 L8.8114028,111.234304 L4.13222098,112.074955 L0.850934266,112.659703 C1.32686434,122.004913 3.64074545,130.426962 7.46253566,137.769199 L10.3898643,136.257703 L14.5692,134.094493 L23.0713678,129.695129 C24.1894448,129.122339 25.354158,128.718157 26.301235,128.583031 C27.2447245,128.452689 27.901221,128.600969 28.1092909,128.978843 L29.2572629,131.08585 C29.6375287,131.787787 28.4823818,133.142633 26.5248503,134.261906 L17.6005636,139.403864 L13.5754867,141.728507 L10.7856755,143.324906 C15.1515566,149.751157 20.7622699,155.113143 27.3152769,159.327157 L29.5478434,157.386367 L32.7334657,154.610906 L39.2494028,148.941598 C40.1139692,148.196612 41.0837664,147.559248 41.9578993,147.201703 C42.8308364,146.84057 43.5267944,146.771213 43.8735776,147.010374 L45.7904517,148.329346 C46.4194448,148.765815 45.8048014,150.130227 44.3267874,151.525731 L37.8586825,157.669773 L34.8679762,160.514591 L32.8135846,162.467339 C39.6858713,165.971045 47.3485846,168.345913 55.5302769,169.563241 L56.8647944,167.536353 L58.8127594,164.585108 L62.7828294,158.559451 C63.3233329,157.748696 64.0109203,156.998927 64.7068783,156.46799 C65.4088154,155.943031 66.0557455,155.689521 66.486235,155.766052 L68.8778434,156.169038 C69.6694657,156.301773 69.6216336,157.49399 68.7475007,158.954066 L64.9484308,165.349227 L63.2192979,168.271773 L62.0246895,170.284311 C69.9110182,170.859493 78.1740252,170.412262 86.6462979,168.92229 L87.0983119,167.077164 L87.7775287,164.371059 L89.241193,158.522381 C89.4265427,157.777395 89.7900671,157.019255 90.2683888,156.420157 C90.7299692,155.825843 91.2609063,155.430031 91.7141161,155.351108 L94.2300881,154.893115 C95.0623678,154.740052 95.4988364,155.610598 95.2393469,156.946311 L94.0602839,163.14536 L93.5664168,165.753409 L93.2256126,167.551899 C96.9601091,166.664612 100.729284,165.580017 104.518787,164.280178 C108.246109,163.009038 111.892116,161.56929 115.432892,159.996808 L115.441263,158.383668 L115.458004,156.043479 L115.505836,150.457878 C115.505836,149.262073 116.104934,148.094969 116.889382,147.750577 L119.217613,146.700661 C119.634948,146.51292 120.058263,146.590647 120.388305,146.908731 C120.713564,147.229206 120.914459,147.766122 120.952724,148.399899 L121.230151,153.327808 L121.350927,155.595052 L121.440613,157.136444 C128.772088,153.419885 135.658724,149.071941 142.004857,144.274374 L141.405759,143.084549 L140.531627,141.347045 L138.593228,137.478619 C138.132843,136.585353 138.285906,135.522283 138.949578,134.993738 L140.898738,133.448759 C141.252697,133.164157 141.713081,133.075668 142.165095,133.207206 C142.620697,133.339941 143.022487,133.680745 143.308284,134.144717 L145.351913,137.552759 L146.330081,139.198185 L147.000927,140.307892 C153.014627,135.304647 158.521305,129.861346 163.402578,124.101157 L162.384948,123.366934 L160.873452,122.277556 L157.534766,119.851269 C156.749123,119.290437 156.538662,118.400759 157.02655,117.778941 L158.496193,115.92664 C158.755683,115.590619 159.199326,115.377766 159.718305,115.334717 C160.227717,115.296451 160.768221,115.435164 161.221431,115.722157 L164.527829,117.775353 L166.103899,118.752325 L167.180123,119.426759 C171.575899,113.716794 175.409648,107.71864 178.579724,101.531549 L177.284669,101.19792 L175.377361,100.718402 L170.986368,99.6063042 C169.991459,99.3587727 169.490417,98.6699895 169.813284,98.0099056 L170.76634,96.0117168 C170.938536,95.6553671 171.334347,95.3408706 171.86648,95.1567168 C172.4022,94.9737587 173.008473,94.9366888 173.563326,95.0419196 L177.696025,95.8299545 L179.65834,96.2042413 L180.994053,96.4613392 C183.823326,90.0948776 185.967403,83.5059965 187.292354,76.8047098 L185.755745,77.1335559 Z" id="Fill-1" fill="#757675"></path>
            <path d="M123.841668,88.6764147 C123.558262,91.3621909 120.946626,93.9977434 117.96429,94.586079 C114.956843,95.1780021 112.68601,93.450065 112.941913,90.7056944 C113.209773,87.9469741 115.909899,85.2671769 118.949633,84.7314566 C121.94871,84.2064986 124.122682,85.9846594 123.841668,88.6764147 Z M188.801339,76.9336175 L187.433339,70.2275476 L181.979276,71.4867294 C181.388549,71.6146804 175.920136,71.9507014 175.523129,71.8024217 C175.144059,71.6445755 177.850164,80.2125126 177.897997,79.8788832 L178.190969,78.0170161 C178.286633,77.3951979 179.176311,76.7088063 180.266885,76.4373587 L185.076409,75.1925266 L187.169066,74.6508273 L188.594465,74.2777364 C189.411199,68.0751 191.745409,54.0877783 190.953787,48.4985895 L184.946066,52.0871979 L181.506934,50.5458063 L174.37157,58.1032888 C173.774864,58.4165895 179.402318,61.3259811 178.923997,61.3355476 C178.446871,61.3403308 178.139549,61.1621559 178.076171,60.8464636 L177.719822,59.1173308 C177.60622,58.5337783 178.32729,57.6165965 179.417864,56.9840161 L184.251304,54.1451769 L186.361899,52.9015406 L187.790885,52.0644776 C186.562794,46.5494287 184.553843,41.3787713 181.793927,36.6625196 L180.436689,37.8643028 L178.455241,39.5934357 L174.341675,43.2095476 C173.783234,43.6938483 173.176962,44.0585685 172.642437,44.2200021 C172.127045,44.3754566 171.722864,44.3108832 171.544689,44.0382399 L170.580871,42.5458762 C170.258003,42.0448343 170.751871,40.9542608 171.745584,40.0119671 L176.032542,35.9223168 L177.978115,34.0700161 L179.303066,32.8120301 C175.942857,28.0754497 171.739605,23.8674147 166.775822,20.3397923 L165.698402,21.972065 L164.131899,24.3433448 L160.921164,29.2425545 C160.4835,29.8954636 159.951367,30.4682538 159.425213,30.8042748 C158.901451,31.1474706 158.430304,31.2275895 158.139724,31.0458273 L156.49071,30.0126524 C155.933465,29.667065 156.069787,28.4760441 156.813577,27.2252329 L160.039857,21.777149 L161.504717,19.3006385 L162.522346,17.5990091 C156.978598,14.3607713 150.622899,11.8794776 143.525801,10.3536315 L143.016388,12.3362748 L142.279773,15.2289252 L140.696528,21.4231909 C140.493241,22.2052469 140.139283,22.9418622 139.702815,23.4668203 C139.26515,23.9905825 138.788024,24.2584427 138.382647,24.2034357 L136.12736,23.9104636 C135.36085,23.8147993 135.0045,22.656065 135.29508,21.1935965 L136.637969,14.3057643 L137.211955,11.3736524 L137.600591,9.3360021 C134.074164,8.86246364 130.380325,8.61493217 126.539402,8.61493217 C122.626731,8.61493217 118.681773,8.87561748 114.721269,9.37426783 L114.730836,11.5183448 L114.730836,14.607107 L114.736815,21.8142189 C114.746381,23.3328902 114.089885,24.592072 113.218143,24.7523098 L110.599332,25.2473727 C110.122206,25.3382538 109.628339,25.1002888 109.232528,24.5597853 C108.845087,24.0252608 108.601143,23.2479881 108.537766,22.4097294 L108.071402,15.7789951 L107.857353,12.6543587 L107.698311,10.5043028 C98.6257448,12.2992049 89.5962273,15.3341559 80.8979476,19.4656594 L81.9251434,21.4662399 L83.3888077,24.3361699 L86.5493182,30.516086 C87.2608217,31.9068063 87.1460245,33.3058972 86.2730874,33.7949811 L83.6865629,35.2658203 C83.2201993,35.524114 82.5696818,35.4966105 81.9000315,35.1605895 C81.2375559,34.8269601 80.5989965,34.2182958 80.1398077,33.4804846 L76.6791503,27.8721629 L74.9476259,25.087135 L73.7613881,23.1475406 C64.8203601,28.1304566 56.4210315,34.2254706 48.9101853,41.2352748 L50.9227238,42.6714357 L53.8321154,44.7569182 L60.0335559,49.1897643 C61.431451,50.1822818 61.9408636,51.4749462 61.2461014,52.2199322 L59.1606189,54.4536944 C58.7899196,54.8566804 58.0927657,55.0599671 57.2281993,54.9977853 C56.3636329,54.9320161 55.4261224,54.6139322 54.5926469,54.1296315 L48.3051084,50.3305615 L45.1912343,48.4507573 L43.000521,47.1293937 C36.0481154,54.5493587 30.1719336,62.7035476 25.6601643,71.3097503 L28.3842063,71.9435266 L32.3064441,72.857121 L40.8982972,74.8672678 C42.774514,75.3049322 43.8423671,76.2759252 43.4214441,77.1428832 L42.1933531,79.7341909 C41.9673462,80.1969671 41.3263951,80.5915825 40.4068217,80.8140021 C39.4920315,81.022072 38.3763462,81.0388133 37.3168636,80.8666175 L29.1686538,79.5177503 L25.1340105,78.8516874 L22.2987587,78.378149 C18.5451294,87.2294916 16.3149545,96.3080371 15.8533741,105.324401 L18.8931084,104.946527 L23.2267028,104.40961 L32.740521,103.215002 C34.8200245,102.945946 36.3386958,103.384806 36.3219545,104.221869 L36.2741224,106.717513 C36.2681434,107.169527 35.7969965,107.690897 34.981458,108.164436 C34.1563531,108.630799 33.0562133,109.006282 31.9178077,109.214352 L23.1944161,110.776072 L18.8775629,111.554541 L15.8461993,112.09624 C16.2826678,120.713205 18.4171783,128.484736 21.9412133,135.251792 L24.6401434,133.857485 L28.4990035,131.867666 L36.3482622,127.807911 C37.3742622,127.276974 38.4492902,126.909862 39.3234231,126.780715 C40.1939685,126.659939 40.7930664,126.792673 40.9879825,127.14424 L42.0438776,129.088617 C42.4014231,129.735548 41.3347657,130.993534 39.5243182,132.019534 L31.2947937,136.76568 L27.5830175,138.90617 L25.0060594,140.377009 C29.0407028,146.307002 34.2137517,151.249261 40.2597378,155.134429 L42.3141294,153.34431 L45.2558077,150.788876 L51.2707028,145.563212 C52.0623252,144.866058 52.9603741,144.290876 53.767542,143.94768 C54.5687308,143.62003 55.2060944,143.559044 55.5313531,143.782659 L57.2939685,144.990422 C57.8835,145.392212 57.3166888,146.653785 55.9522762,147.940471 L49.9852133,153.613366 L47.220514,156.233373 L45.3287517,158.033058 C51.666514,161.266513 58.7301294,163.452443 66.2816329,164.581282 L67.5133112,162.711044 L69.3141923,159.983415 L72.9697657,154.422925 C73.4684161,153.685114 74.0998007,152.98796 74.7467308,152.501268 C75.3936608,152.02175 75.9903671,151.783785 76.3861783,151.851946 L78.5960245,152.225037 C79.3290524,152.350597 79.2812203,153.444757 78.4740524,154.796016 L74.9727378,160.693722 L73.3715559,163.383086 L72.2726119,165.242562 C79.5490804,165.774694 87.1627657,165.35975 94.9797378,163.98338 L95.4006608,162.285338 L96.022479,159.792086 L97.3737378,154.399009 C97.549521,153.70903 97.8831503,153.008289 98.3184231,152.455827 C98.746521,151.896191 99.2403881,151.547016 99.6613112,151.470485 L101.972801,151.048366 C102.741703,150.909652 103.143493,151.71682 102.911507,152.938932 L101.819738,158.659659 L101.367724,161.063226 L101.050836,162.72659 C104.503122,161.903876 107.97215,160.902988 111.471073,159.707184 C114.907815,158.531708 118.270416,157.207953 121.536157,155.757443 L121.543332,154.266275 L121.560073,152.107848 L121.599535,146.956324 C121.599535,145.850205 122.149605,144.782352 122.879045,144.457093 L125.029101,143.490883 C125.408171,143.321079 125.796808,143.384457 126.104129,143.684603 C126.40308,143.979967 126.590822,144.472638 126.629087,145.058583 L126.87901,149.600247 L126.993808,151.700079 L127.075122,153.118303 C133.839787,149.685149 140.193094,145.680401 146.039381,141.255925 L145.497682,140.159373 L144.690514,138.559387 L142.895612,134.985128 C142.474689,134.160023 142.620577,133.180659 143.22685,132.697555 L145.028927,131.264981 C145.351794,131.005492 145.771521,130.925373 146.192444,131.049736 C146.610976,131.165729 138.47592,129.621946 138.736605,130.05124 L138.651703,136.098422 L143.523409,140.045771 L146.039381,141.255925 C151.585521,136.637729 161.275122,127.951408 165.780913,122.645624 L165.91843,120.17868 L161.021612,114.166177 L155.653647,117.089918 C154.924206,116.575722 159.450325,117.388869 159.903535,116.818471 L161.253598,115.103687 C161.49515,114.798757 161.908899,114.60145 162.384829,114.563184 C162.853584,114.52731 163.346255,114.656457 163.765983,114.913555 L162.927724,113.369771 L158.596521,115.180219 L165.780913,122.645624 C169.839472,117.373324 176.855255,107.534247 179.773017,101.825478 L178.583192,101.527722 L176.822969,101.0781 L172.771584,100.049708 C171.859185,99.8284846 171.397605,99.1935126 171.690577,98.574086 L172.570689,96.7409182 C172.733318,96.4096804 173.094451,96.1214916 173.581143,95.9469042 C174.073815,95.7771 174.640626,95.7460091 175.148843,95.8392818 L178.964654,96.5699182 L180.775101,96.9155056 L182.004388,97.1486874 C184.616024,91.2772888 186.59508,85.2014077 187.808822,79.0238832 L188.801339,76.9336175 Z" id="Fill-3" fill="#FFFFFE"></path>
            <path d="M183.41173,49.8798629 C183.41173,49.8798629 168.837269,59.528807 165.350303,67.4282895 C161.860947,75.3182056 161.860947,84.1276951 162.053471,83.9351706 C167.915303,83.7534084 174.890429,83.0155972 174.890429,83.0155972 C168.837269,92.006849 161.489052,92.928814 161.489052,92.928814 C161.489052,92.928814 159.266052,106.984297 149.136394,116.272108 C140.71315,124.1118 127.914457,126.314471 127.914457,126.314471 L137.091059,117.147436 L124.422709,127.603548 L127.730303,94.5766322 L118.012003,103.942171 L97.4633035,115.494835 L76.5486881,118.43173 C76.5486881,118.43173 63.5574713,113.404569 65.910814,97.8890098 C68.2402406,82.6006531 86.0493524,75.3002685 103.784324,76.4159538 C114.421003,77.0999538 117.703485,78.9713874 117.703485,78.9713874 C117.703485,78.9713874 127.730303,65.0342895 143.880835,56.7784573 C160.024192,48.523821 174.341555,49.1085692 183.41173,49.8798629" id="Fill-5" fill="#FFFFFE"></path>
            <path d="M148.035657,94.533942 C148.035657,94.533942 134.334132,94.9608441 125.934803,92.7701308 C126.096237,92.9291727 112.516685,106.269564 102.595097,111.828858 C92.9664818,117.225522 85.9184119,117.738522 78.3764748,115.351697 C69.8479993,112.653963 65.6925797,105.701557 66.4758315,95.4212287 C66.4758315,95.4212287 54.5608385,106.824417 49.1689573,112.55232 C43.7758804,118.271851 40.9968315,129.371306 49.4906287,135.420879 C57.9963839,141.460886 76.6126636,138.680641 88.0541182,128.878634 C99.4848105,119.080215 102.095251,114.513438 102.095251,114.513438 C102.095251,114.513438 117.121727,114.844676 117.622769,115.334956 C118.108265,115.814473 119.571929,116.637187 113.20188,124.96955 C106.839006,133.297131 102.750552,137.210998 102.750552,137.210998 C102.750552,137.210998 117.900195,134.913858 132.361055,122.848194 C142.764552,114.158285 148.230573,103.797837 148.035657,94.533942" id="Fill-7" fill="#FFDB1A"></path>
            <path d="M153.046555,68.2034098 C150.517429,73.7854238 150.806813,86.664235 150.670492,86.5267175 C137.600352,86.0806825 128.778904,84.447214 128.778904,84.447214 C128.778904,84.447214 131.697862,77.9970462 140.82424,68.7618503 C151.358079,58.0964727 160.307478,57.4913958 160.307478,57.4913958 C160.307478,57.4913958 156.442638,60.745179 153.046555,68.2034098 M90.9867084,106.122361 C77.7037154,110.258648 70.3483238,105.361829 71.8215545,96.3203538 C73.3474007,86.9500322 87.7137923,82.1608364 97.5277573,83.2514098 C107.324981,84.3467664 113.856464,87.6172909 113.856464,87.6172909 C113.856464,87.6172909 104.268506,101.983683 90.9867084,106.122361 M159.16668,86.5267175 C159.16668,86.5267175 159.160701,81.7937245 159.288652,79.6113818 C159.402254,77.4314308 159.935583,72.4234028 162.359478,67.0877245 C166.700247,57.5798853 176.264289,52.0863608 176.264289,52.0863608 C159.489548,52.0863608 145.465156,57.4913958 135.633254,65.1708503 C127.363072,71.6545007 118.866883,81.9515706 118.866883,81.9515706 C118.866883,81.9515706 106.670876,76.288242 92.5137503,78.6798503 C78.7966804,80.8586056 67.1459601,89.4205636 69.2099182,101.555585 C71.1722329,113.095095 84.8916944,119.196088 101.229967,109.605738 C117.565848,100.027347 124.745457,89.5736266 124.963093,89.7876755 C136.07331,92.1840671 150.833121,91.8516336 151.053149,91.6328014 C151.608002,110.532487 138.03682,120.939571 138.03682,120.939571 C138.03682,120.939571 147.372464,115.351578 152.635198,107.676906 C158.059366,99.7547035 159.020792,90.6319133 159.020792,90.847158 C167.299345,88.4483748 169.183932,85.8666336 169.40396,85.6489972 C164.171121,86.7359832 159.16668,86.5267175 159.16668,86.5267175" id="Fill-9" fill="#1A1919"></path>
            <path d="M168.099816,89.9048643 C168.099816,89.9048643 164.8269,95.4545916 160.260124,97.2554727 C160.089124,97.2554727 161.084033,94.8411441 161.536047,92.655214 C161.536047,92.655214 165.482201,91.8576126 168.099816,89.9048643" id="Fill-11" fill="#FFDB1A"></path>
            <path d="M109.241497,88.962451 C109.241497,88.962451 96.670007,84.0225839 86.6862378,87.081451 C78.2546224,89.6584091 73.1042937,94.2383392 74.6983007,100.119304 C76.2265385,105.739584 85.2716014,106.575451 94.0189091,102.26099 C102.16114,98.2227587 105.367091,93.2123392 109.241497,88.962451" id="Fill-13" fill="#FFDB1A"></path>
            <path d="M153.064731,62.639572 C153.064731,62.639572 146.483024,66.401572 140.848395,72.8625021 C135.798514,78.6442154 133.330374,82.3834951 133.330374,82.3834951 C133.330374,82.3834951 143.364367,84.2788448 147.786451,83.7873692 C147.786451,83.7873692 147.786451,67.6918448 153.064731,62.639572" id="Fill-15" fill="#FFDB1A"></path>
            <path d="M117.703246,78.9709091 C117.703246,78.9709091 115.342729,78.0644895 115.019862,78.0094825 C114.963659,78.0644895 122.531903,70.4998322 129.346792,66.6302098 C124.412903,71.3368951 121.340883,74.3873916 117.703246,78.9709091" id="Fill-17" fill="#FFDB1A"></path>
            <path d="M196.32797,84.626465 C196.32797,84.626465 184.429718,84.4638357 181.649473,84.4638357 C178.866837,84.4638357 178.893145,84.9529196 176.361627,87.9197098 C174.252229,90.4033951 173.09469,92.8691434 176.670145,93.5698846 C180.234837,94.2754091 192.472697,93.6201084 192.472697,93.6201084 L197.196124,84.8644301 L196.32797,84.626465 Z" id="Fill-19" fill="#FFFFFE"></path>
            <polygon id="Fill-21" fill="#1A1919" points="180.145989 86.6923364 176.813283 90.8561266 190.590143 90.8561266 193.078611 86.6923364"></polygon>
            <path d="M200.789994,96.5541336 C200.789994,96.5541336 197.485987,93.3290497 197.953546,86.7186441 C198.423497,80.1237839 201.259945,72.5698888 209.513385,63.9266161 C217.770413,55.2773643 232.771777,51.1315112 238.130176,59.9960077 C240.33763,63.6408189 238.625238,69.2670776 233.556224,73.2192105 C229.159252,76.6487769 222.538085,78.0119937 222.538085,78.0119937 C222.538085,78.0119937 229.949679,69.3723084 230.735322,66.6984902 C231.528141,64.0270636 228.29349,64.885651 228.29349,64.885651 C228.29349,64.885651 219.255602,70.9412035 217.508532,72.6703364 C215.796141,74.4042524 216.417959,73.6975322 215.399134,75.0260706 C214.373134,76.3641755 212.328308,79.2771545 211.069127,84.2230007 C209.812336,89.1867839 210.992595,91.9359378 213.977322,93.9891336 C216.966833,96.0208049 220.824497,96.1762594 225.455847,94.450714 C230.105134,92.7179937 238.358574,85.7213434 238.358574,85.7213434 C238.358574,85.7213434 241.025217,78.883735 248.019476,75.5020007 C254.840343,72.2039727 260.919812,74.0060497 263.596022,76.2888399 C263.596022,76.2888399 265.166113,71.8834972 270.823462,72.5172734 C276.490378,73.1390916 276.879015,78.1746231 276.879015,78.1746231 C276.879015,78.1746231 279.231162,77.6078119 281.517539,76.6033364 C284.192553,75.4194902 288.205672,76.9166371 288.205672,79.9061476 C288.205672,79.9061476 289.544973,75.9731476 294.338952,75.5020007 C299.141301,75.0260706 301.016322,76.3641755 304.486546,76.3641755 C307.937637,76.3641755 310.76691,75.5020007 310.76691,75.5020007 C310.76691,75.5020007 312.181546,84.703714 304.241406,84.3832385 C301.341581,84.2230007 300.783141,84.3090986 300.783141,84.3090986 L300.467448,84.6212035 C300.467448,84.6212035 301.970574,85.9892035 302.674903,86.1697699 C303.379231,86.346749 305.810301,87.616693 305.810301,87.616693 C305.810301,87.616693 302.55891,88.7778189 300.234266,90.1984343 C298.033987,91.5473014 296.854924,94.218728 300.551155,95.1562385 C304.241406,96.0985322 309.416847,95.867742 309.416847,95.867742 C309.416847,95.867742 307.856322,100.903273 300.85728,101.845567 C293.863022,102.783078 293.863022,103.888001 293.863022,103.888001 L258.407427,103.579483 L239.852134,102.860805 L218.931539,105.300245 L202.967553,102.319106 L200.789994,96.5541336 Z" id="Fill-23" fill="#FFFFFE"></path>
            <path d="M228.641469,74.5503797 C228.641469,74.5503797 237.406714,66.4021699 233.651889,62.7884497 C228.262399,57.6034427 211.260455,69.6607364 208.49456,85.0172538 C206.27156,97.3878483 219.651413,100.139394 227.558071,95.6706734 C232.561315,92.8402049 236.2707,90.0097364 236.2707,90.0097364 C236.2707,90.0097364 225.70577,105.211995 211.220994,100.026988 C199.185224,95.7256804 199.6767,86.5263587 202.068308,79.3335965 C204.31642,72.570128 212.109476,60.4243448 225.1557,57.3355825 C235.89163,54.7944986 243.242238,64.7340231 228.641469,74.5503797" id="Fill-25" fill="#1A1919"></path>
            <path d="M267.193359,87.8261979 C266.918324,86.2465406 271.445639,84.3308622 267.629828,82.1616734 C263.864241,80.0343378 266.271394,74.1557643 271.334429,75.4101629 C275.286562,76.3895266 273.515576,80.4193867 273.515576,80.4193867 C273.515576,80.4193867 278.301185,81.0746874 280.693989,79.5500371 C283.096359,78.0289741 286.408737,79.1374846 284.234765,81.9583867 C282.052422,84.7960301 279.77322,85.5206874 278.94931,90.0169112 C278.172038,94.3457224 282.439863,94.5824916 286.369276,94.1496105 C286.369276,94.1496105 283.532828,99.5905196 277.865912,97.6282049 C272.204975,95.6706734 274.162506,87.3897294 275.470716,85.6498343 C275.689548,85.8662748 272.853101,85.8662748 272.853101,85.8662748 C272.853101,85.8662748 267.46959,89.4034636 267.193359,87.8261979" id="Fill-27" fill="#1A1919"></path>
            <path d="M308.366811,78.2411098 C308.366811,78.2411098 308.794909,83.1761937 303.127993,82.514914 C297.469448,81.8608091 296.49128,81.5116343 296.384853,83.4691657 C296.258098,85.7077112 301.60693,87.3890119 301.60693,87.3890119 C301.60693,87.3890119 295.940014,89.1384734 295.503545,92.6242427 C295.075448,96.1064245 300.767476,98.4992287 305.527972,97.1922147 C305.755175,97.1922147 299.497531,101.969452 294.240776,97.6645573 C287.671028,92.2918091 293.126287,87.3866203 293.126287,87.3866203 C293.126287,87.3866203 289.18372,84.0921797 292.011797,79.7394524 C294.84107,75.381942 302.479867,80.4186692 308.366811,78.2411098" id="Fill-29" fill="#1A1919"></path>
            <path d="M255.722249,92.2649035 C252.182669,96.0209245 246.273004,96.6188266 244.54985,93.037393 C243.217724,90.2738895 244.543871,86.0802042 248.089431,83.0117706 C251.332452,80.2076098 256.918053,78.4868476 259.045389,81.5648476 C261.45613,85.0817077 259.25585,88.5040993 255.722249,92.2649035 M262.625627,79.5499175 C258.528801,74.5861343 250.580291,75.3000294 245.414417,80.2076098 C238.835102,86.4305748 239.319403,92.7874699 241.058102,95.6705538 C244.543871,101.435526 253.36771,100.77305 258.917438,95.8786238 C264.316494,91.1492182 267.137396,85.0171343 262.625627,79.5499175" id="Fill-31" fill="#1A1919"></path>
            <path d="M283.87148,86.0967063 C284.945312,84.8805734 286.129158,84.0913427 287.872641,82.5595175 C287.872641,82.5595175 288.32585,87.0688951 289.959319,87.882042 C289.959319,87.882042 287.826004,89.5202937 288.415536,91.9513636 C288.415536,91.9513636 284.671473,92.3388042 283.028438,92.0147413 C281.947431,91.7994965 281.599452,91.1932238 281.664025,90.1337413 C281.762081,88.7884615 283.012892,87.0688951 283.87148,86.0967063" id="Fill-33" fill="#FFDB1A"></path>
            <path d="M304.646306,84.3929245 L302.67562,86.1698895 C302.67562,86.1698895 299.262795,84.8461343 299.571313,84.1657217 C299.852327,83.5427077 302.843033,84.4120573 304.646306,84.3929245" id="Fill-35" fill="#FFDB1A"></path>
            <path d="M254.024327,90.3369084 C251.662613,92.8779923 248.131403,94.0594469 246.992998,91.6427266 C246.110494,89.7617266 247.241725,87.5183979 249.609417,85.4317196 C251.766648,83.5268035 255.385152,81.3791392 256.796201,83.4694049 C258.397383,85.8526427 256.380061,87.7922371 254.024327,90.3369084" id="Fill-37" fill="#FFDB1A"></path>
            <path d="M218.80299,82.1613147 C218.80299,82.1613147 216.449648,77.5897552 214.324703,76.4453706 C214.324703,76.2887203 220.532123,67.4612937 225.9252,65.0063077 C231.30871,62.5608881 233.135899,64.4048182 230.839955,68.1512727 C228.479438,72.0113287 227.687815,72.730007 226.273179,74.3838042 C224.850172,76.045972 223.581424,77.3876643 218.80299,82.1613147" id="Fill-39" fill="#FFDB1A"></path>
            <path d="M148.035657,94.533942 C148.035657,94.533942 134.334132,94.9608441 125.934803,92.7701308 C126.096237,92.9291727 112.516685,106.269564 102.595097,111.828858 C92.9664818,117.225522 85.9184119,117.738522 78.3764748,115.351697 C69.8479993,112.653963 65.6925797,105.701557 66.4758315,95.4212287 C66.4758315,95.4212287 54.5608385,106.824417 49.1689573,112.55232 C43.7758804,118.271851 40.9968315,129.371306 49.4906287,135.420879 C57.9963839,141.460886 76.6126636,138.680641 88.0541182,128.878634 C99.4848105,119.080215 102.095251,114.513438 102.095251,114.513438 C102.095251,114.513438 117.121727,114.844676 117.622769,115.334956 C118.108265,115.814473 119.571929,116.637187 113.20188,124.96955 C106.839006,133.297131 102.750552,137.210998 102.750552,137.210998 C102.750552,137.210998 117.900195,134.913858 132.361055,122.848194 C142.764552,114.158285 148.230573,103.797837 148.035657,94.533942" id="Fill-41" fill="#FFDB1A"></path>
            <path d="M168.099816,89.9048643 C168.099816,89.9048643 164.8269,95.4545916 160.260124,97.2554727 C160.089124,97.2554727 161.084033,94.8411441 161.536047,92.655214 C161.536047,92.655214 165.482201,91.8576126 168.099816,89.9048643" id="Fill-43" fill="#FFDB1A"></path>
            <polygon id="Fill-45" fill="#1A1919" points="180.145989 86.6923364 176.813283 90.8561266 190.590143 90.8561266 193.078611 86.6923364"></polygon>
            <path d="M200.789994,96.5541336 C200.789994,96.5541336 197.485987,93.3290497 197.953546,86.7186441 C198.423497,80.1237839 201.259945,72.5698888 209.513385,63.9266161 C217.770413,55.2773643 232.771777,51.1315112 238.130176,59.9960077 C240.33763,63.6408189 238.625238,69.2670776 233.556224,73.2192105 C229.159252,76.6487769 222.538085,78.0119937 222.538085,78.0119937 C222.538085,78.0119937 229.949679,69.3723084 230.735322,66.6984902 C231.528141,64.0270636 228.29349,64.885651 228.29349,64.885651 C228.29349,64.885651 219.255602,70.9412035 217.508532,72.6703364 C215.796141,74.4042524 216.417959,73.6975322 215.399134,75.0260706 C214.373134,76.3641755 212.328308,79.2771545 211.069127,84.2230007 C209.812336,89.1867839 210.992595,91.9359378 213.977322,93.9891336 C216.966833,96.0208049 220.824497,96.1762594 225.455847,94.450714 C230.105134,92.7179937 238.358574,85.7213434 238.358574,85.7213434 C238.358574,85.7213434 241.025217,78.883735 248.019476,75.5020007 C254.840343,72.2039727 260.919812,74.0060497 263.596022,76.2888399 C263.596022,76.2888399 265.166113,71.8834972 270.823462,72.5172734 C276.490378,73.1390916 276.879015,78.1746231 276.879015,78.1746231 C276.879015,78.1746231 279.231162,77.6078119 281.517539,76.6033364 C284.192553,75.4194902 288.205672,76.9166371 288.205672,79.9061476 C288.205672,79.9061476 289.544973,75.9731476 294.338952,75.5020007 C299.141301,75.0260706 301.016322,76.3641755 304.486546,76.3641755 C307.937637,76.3641755 310.76691,75.5020007 310.76691,75.5020007 C310.76691,75.5020007 312.181546,84.703714 304.241406,84.3832385 C301.341581,84.2230007 300.783141,84.3090986 300.783141,84.3090986 L300.467448,84.6212035 C300.467448,84.6212035 301.970574,85.9892035 302.674903,86.1697699 C303.379231,86.346749 305.810301,87.616693 305.810301,87.616693 C305.810301,87.616693 302.55891,88.7778189 300.234266,90.1984343 C298.033987,91.5473014 296.854924,94.218728 300.551155,95.1562385 C304.241406,96.0985322 309.416847,95.867742 309.416847,95.867742 C309.416847,95.867742 307.856322,100.903273 300.85728,101.845567 C293.863022,102.783078 293.863022,103.888001 293.863022,103.888001 L258.407427,103.579483 L239.852134,102.860805 L218.931539,105.300245 L202.967553,102.319106 L200.789994,96.5541336 Z" id="Fill-47" fill="#FFFFFE"></path>
            <path d="M228.641469,74.5503797 C228.641469,74.5503797 237.406714,66.4021699 233.651889,62.7884497 C228.262399,57.6034427 211.260455,69.6607364 208.49456,85.0172538 C206.27156,97.3878483 219.651413,100.139394 227.558071,95.6706734 C232.561315,92.8402049 236.2707,90.0097364 236.2707,90.0097364 C236.2707,90.0097364 225.70577,105.211995 211.220994,100.026988 C199.185224,95.7256804 199.6767,86.5263587 202.068308,79.3335965 C204.31642,72.570128 212.109476,60.4243448 225.1557,57.3355825 C235.89163,54.7944986 243.242238,64.7340231 228.641469,74.5503797" id="Fill-49" fill="#1A1919"></path>
            <path d="M301.220087,101.771786 L287.339192,118.918422 C287.339192,118.918422 274.356346,123.799695 270.676857,114.345667 C270.676857,114.345667 258.025248,127.240024 247.184087,113.03387 C247.184087,113.03387 231.308591,127.967073 220.225878,111.415947 C220.225878,111.415947 212.399339,124.273234 195.803969,119.718415 C180.244164,115.462548 182.31171,102.755933 182.31171,102.755933 L172.805066,113.319667 L156.249157,111.237772 L174.957514,92.8152126 C174.957514,92.8152126 175.141668,93.5159538 177.750913,93.5159538 C180.372115,93.5159538 189.030934,93.3294084 190.663206,93.3294084 C192.498766,93.3294084 192.108934,93.6343385 193.411164,91.4794993 C194.664367,89.4095622 195.868542,87.2726601 196.312185,86.3375413 C196.878997,85.1441287 196.507101,84.8140867 195.499038,84.7040727 C194.679913,84.6119958 194.177675,84.6119958 194.177675,84.6119958 L200.435318,76.9337371 C200.435318,76.9337371 192.003703,94.2549608 207.940185,101.42022 C224.145724,108.703863 236.54143,94.5826112 237.194339,92.2914503 C237.194339,92.2914503 237.96085,102.643527 250.654311,102.057583 C259.635997,101.894954 265.852983,90.9593245 265.852983,90.9593245 C265.852983,90.9593245 267.250878,91.1494573 268.720521,90.8241986 C270.192556,90.4989399 271.729164,89.4394573 271.729164,89.4394573 C271.729164,89.4394573 270.380297,96.9694364 276.077108,99.6432545 C281.84208,102.355338 287.178955,97.6809399 288.971465,95.2355203 C288.801661,95.2355203 292.23601,103.236646 301.220087,101.771786" id="Fill-51" fill="#FFDB1A"></path>
            <path d="M267.193359,87.8261979 C266.918324,86.2465406 271.445639,84.3308622 267.629828,82.1616734 C263.864241,80.0343378 266.271394,74.1557643 271.334429,75.4101629 C275.286562,76.3895266 273.515576,80.4193867 273.515576,80.4193867 C273.515576,80.4193867 278.301185,81.0746874 280.693989,79.5500371 C283.096359,78.0289741 286.408737,79.1374846 284.234765,81.9583867 C282.052422,84.7960301 279.77322,85.5206874 278.94931,90.0169112 C278.172038,94.3457224 282.439863,94.5824916 286.369276,94.1496105 C286.369276,94.1496105 283.532828,99.5905196 277.865912,97.6282049 C272.204975,95.6706734 274.162506,87.3897294 275.470716,85.6498343 C275.689548,85.8662748 272.853101,85.8662748 272.853101,85.8662748 C272.853101,85.8662748 267.46959,89.4034636 267.193359,87.8261979" id="Fill-53" fill="#1A1919"></path>
            <path d="M308.366811,78.2411098 C308.366811,78.2411098 308.794909,83.1761937 303.127993,82.514914 C297.469448,81.8608091 296.49128,81.5116343 296.384853,83.4691657 C296.258098,85.7077112 301.60693,87.3890119 301.60693,87.3890119 C301.60693,87.3890119 295.940014,89.1384734 295.503545,92.6242427 C295.075448,96.1064245 300.767476,98.4992287 305.527972,97.1922147 C305.755175,97.1922147 299.497531,101.969452 294.240776,97.6645573 C287.671028,92.2918091 293.126287,87.3866203 293.126287,87.3866203 C293.126287,87.3866203 289.18372,84.0921797 292.011797,79.7394524 C294.84107,75.381942 302.479867,80.4186692 308.366811,78.2411098" id="Fill-55" fill="#1A1919"></path>
            <path d="M255.722249,92.2649035 C252.182669,96.0209245 246.273004,96.6188266 244.54985,93.037393 C243.217724,90.2738895 244.543871,86.0802042 248.089431,83.0117706 C251.332452,80.2076098 256.918053,78.4868476 259.045389,81.5648476 C261.45613,85.0817077 259.25585,88.5040993 255.722249,92.2649035 M262.625627,79.5499175 C258.528801,74.5861343 250.580291,75.3000294 245.414417,80.2076098 C238.835102,86.4305748 239.319403,92.7874699 241.058102,95.6705538 C244.543871,101.435526 253.36771,100.77305 258.917438,95.8786238 C264.316494,91.1492182 267.137396,85.0171343 262.625627,79.5499175" id="Fill-57" fill="#1A1919"></path>
            <path d="M283.87148,86.0967063 C284.945312,84.8805734 286.129158,84.0913427 287.872641,82.5595175 C287.872641,82.5595175 288.32585,87.0688951 289.959319,87.882042 C289.959319,87.882042 287.826004,89.5202937 288.415536,91.9513636 C288.415536,91.9513636 284.671473,92.3388042 283.028438,92.0147413 C281.947431,91.7994965 281.599452,91.1932238 281.664025,90.1337413 C281.762081,88.7884615 283.012892,87.0688951 283.87148,86.0967063" id="Fill-59" fill="#FFDB1A"></path>
            <path d="M304.646306,84.3929245 L302.67562,86.1698895 C302.67562,86.1698895 299.262795,84.8461343 299.571313,84.1657217 C299.852327,83.5427077 302.843033,84.4120573 304.646306,84.3929245" id="Fill-61" fill="#FFDB1A"></path>
            <path d="M254.024327,90.3369084 C251.662613,92.8779923 248.131403,94.0594469 246.992998,91.6427266 C246.110494,89.7617266 247.241725,87.5183979 249.609417,85.4317196 C251.766648,83.5268035 255.385152,81.3791392 256.796201,83.4694049 C258.397383,85.8526427 256.380061,87.7922371 254.024327,90.3369084" id="Fill-63" fill="#FFDB1A"></path>
            <path d="M154.937241,134.166002 C154.937241,134.38603 154.962352,134.577359 154.962352,134.800974 C154.962352,138.60124 153.387478,140.4081 150.096625,140.4081 C148.561213,140.4081 147.44194,140.044576 146.621618,139.168051 C145.215352,137.716345 145.112513,135.365394 145.112513,131.599806 C145.112513,128.463212 145.333737,126.394471 145.94838,125.348142 C146.830884,123.80675 148.104415,123.187324 150.096625,123.187324 C153.438898,123.187324 154.845164,124.851883 154.870276,128.684436 L151.907073,128.684436 L151.907073,128.282645 C151.907073,126.517638 151.343849,125.655464 150.148045,125.655464 C148.247912,125.655464 148.247912,127.369051 148.247912,131.573499 C148.247912,136.159408 148.247912,137.93159 150.133695,137.93159 C151.60573,137.93159 151.97045,136.887652 151.97045,134.38603 L151.97045,134.166002 L154.937241,134.166002 Z" id="Fill-65" fill="#1A1919"></path>
            <path d="M163.093582,137.963517 C165.187435,137.963517 165.280708,136.094476 165.280708,131.809909 C165.280708,127.520559 165.187435,125.621622 163.06847,125.621622 C160.948309,125.621622 160.855036,127.520559 160.855036,131.809909 C160.855036,136.094476 160.974617,137.963517 163.093582,137.963517 M158.746834,125.28321 C159.747722,123.737035 160.984183,123.188161 163.06847,123.188161 C165.136015,123.188161 166.374869,123.737035 167.375757,125.28321 C168.129113,126.42879 168.39219,128.559713 168.39219,131.809909 C168.39219,135.014664 168.129113,137.169503 167.375757,138.342587 C166.374869,139.881587 165.136015,140.407741 163.06847,140.407741 C160.984183,140.407741 159.747722,139.881587 158.746834,138.342587 C157.995869,137.200594 157.735183,135.042168 157.735183,131.809909 C157.735183,128.559713 157.995869,126.402483 158.746834,125.28321" id="Fill-67" fill="#1A1919"></path>
            <polygon id="Fill-69" fill="#1A1919" points="171.537753 123.599876 174.674348 123.599876 178.955327 135.073617 178.866837 123.599876 181.752313 123.599876 181.752313 140.020659 178.616914 140.020659 174.335935 128.507457 174.412466 140.020659 171.537753 140.020659"></polygon>
            <path d="M194.708851,134.166002 C194.708851,134.38603 194.725592,134.577359 194.725592,134.800974 C194.725592,138.60124 193.150718,140.4081 189.858669,140.4081 C188.323257,140.4081 187.214746,140.044576 186.383662,139.168051 C184.977397,137.716345 184.888907,135.365394 184.888907,131.599806 C184.888907,128.463212 185.095781,126.394471 185.696075,125.348142 C186.60369,123.80675 187.867655,123.187324 189.858669,123.187324 C193.205725,123.187324 194.608403,124.851883 194.643082,128.684436 L191.665529,128.684436 L191.665529,128.282645 C191.665529,126.517638 191.10948,125.655464 189.910089,125.655464 C188.025501,125.655464 188.025501,127.369051 188.025501,131.573499 C188.025501,136.159408 188.025501,137.93159 189.895739,137.93159 C191.367774,137.93159 191.732494,136.887652 191.732494,134.38603 L191.732494,134.166002 L194.708851,134.166002 Z" id="Fill-71" fill="#1A1919"></path>
            <path d="M202.543401,130.536497 C204.328737,130.536497 204.899136,129.921854 204.899136,128.094665 C204.899136,126.342812 204.149366,125.88721 202.270758,125.88721 L200.774807,125.88721 L200.774807,130.536497 L202.543401,130.536497 Z M197.834324,123.599637 L203.301541,123.599637 C206.603157,123.599637 207.972352,124.840882 207.972352,127.896162 C207.972352,130.037847 207.177143,131.281483 205.652492,131.503903 C207.917345,132.085064 207.881471,133.273693 207.942457,135.386679 L208.024968,137.58098 C208.060842,138.640462 208.22945,139.414148 208.854856,140.021616 L205.226786,140.021616 C205.01752,139.317287 204.976863,138.488595 204.938597,137.457812 L204.899136,135.743029 L204.899136,135.310148 C204.899136,133.155308 204.015436,132.810917 201.829506,132.810917 L200.774807,132.810917 L200.774807,140.021616 L197.834324,140.021616 L197.834324,123.599637 Z" id="Fill-73" fill="#1A1919"></path>
            <polygon id="Fill-75" fill="#1A1919" points="211.094478 123.599876 219.511743 123.599876 219.511743 126.323918 214.112687 126.323918 214.112687 130.131359 219.138652 130.131359 219.138652 132.717883 214.112687 132.717883 214.112687 137.245198 219.64089 137.245198 219.64089 140.020659 211.094478 140.020659"></polygon>
            <polygon id="Fill-77" fill="#1A1919" points="224.88772 126.313873 221.37086 126.313873 221.37086 123.599398 231.457469 123.599398 231.457469 126.313873 227.941804 126.313873 227.941804 140.021377 224.88772 140.021377"></polygon>
            <polygon id="Fill-79" fill="#1A1919" points="233.731888 123.599876 242.151545 123.599876 242.151545 126.323918 236.765643 126.323918 236.765643 130.131359 241.776063 130.131359 241.776063 132.717883 236.765643 132.717883 236.765643 137.245198 242.281888 137.245198 242.281888 140.020659 233.731888 140.020659"></polygon>
            <path d="M260.810276,134.166002 C260.810276,134.38603 260.821038,134.577359 260.821038,134.800974 C260.821038,138.60124 259.259318,140.4081 255.957703,140.4081 C254.42229,140.4081 253.314976,140.044576 252.493458,139.168051 C251.088388,137.716345 250.974787,135.365394 250.974787,131.599806 C250.974787,128.463212 251.205577,126.394471 251.805871,125.348142 C252.705115,123.80675 253.965493,123.187324 255.957703,123.187324 C259.314325,123.187324 260.732549,124.851883 260.744507,128.684436 L257.765759,128.684436 L257.765759,128.282645 C257.765759,126.517638 257.206122,125.655464 256.02108,125.655464 C254.119752,125.655464 254.119752,127.369051 254.119752,131.573499 C254.119752,136.159408 254.119752,137.93159 255.995969,137.93159 C257.464416,137.93159 257.831528,136.887652 257.831528,134.38603 L257.831528,134.166002 L260.810276,134.166002 Z" id="Fill-81" fill="#1A1919"></path>
            <path d="M266.990192,123.599876 L266.990192,134.662261 C266.990192,136.93668 267.353717,137.93159 269.099591,137.93159 C270.813178,137.93159 271.179094,136.922331 271.179094,134.626387 L271.179094,123.599876 L274.197304,123.599876 L274.197304,134.927729 C274.197304,136.501408 274.144689,137.669708 273.391332,138.692121 C272.507633,139.830527 271.076255,140.4081 269.057738,140.4081 C265.142675,140.4081 263.919367,138.815289 263.919367,134.927729 L263.919367,123.599876 L266.990192,123.599876 Z" id="Fill-83" fill="#1A1919"></path>
            <polygon id="Fill-85" fill="#1A1919" points="279.947807 126.313873 276.448884 126.313873 276.448884 123.599398 286.531905 123.599398 286.531905 126.313873 283.021024 126.313873 283.021024 140.021377 279.947807 140.021377"></polygon>
            <polygon id="Fill-87" fill="#1A1919" points="291.63488 126.313873 288.121607 126.313873 288.121607 123.599398 298.21539 123.599398 298.21539 126.313873 294.690159 126.313873 294.690159 140.021377 291.63488 140.021377"></polygon>
            <polygon id="Fill-89" fill="#1A1919" points="300.479287 140.020301 303.538154 140.020301 303.538154 123.599517 300.479287 123.599517"></polygon>
            <polygon id="Fill-91" fill="#1A1919" points="306.998213 123.599876 310.124045 123.599876 314.415787 135.073617 314.328493 123.599876 317.212773 123.599876 317.212773 140.020659 314.076178 140.020659 309.784437 128.507457 309.86336 140.020659 306.998213 140.020659"></polygon>
            <path d="M328.533212,138.201841 C327.910198,139.797044 326.879415,140.4081 324.994827,140.4081 C321.236415,140.4081 320.339562,137.580023 320.339562,131.304443 C320.339562,128.316128 320.584701,126.279673 321.351212,125.143659 C322.213387,123.80675 323.628023,123.226785 325.68361,123.226785 C329.208841,123.226785 330.837527,124.841121 330.837527,128.361569 L330.837527,128.778904 L327.973576,128.778904 L327.973576,128.588771 C327.973576,126.630044 327.232177,125.620785 325.801995,125.620785 C323.49768,125.620785 323.484527,127.590275 323.484527,132.067366 C323.484527,136.159408 323.809785,137.904086 325.645345,137.904086 C327.324254,137.904086 327.880303,136.786009 327.880303,134.249708 L327.880303,133.686485 L325.774492,133.686485 L325.774492,131.053324 L330.837527,131.053324 L330.837527,140.020659 L328.76759,140.020659 L328.533212,138.201841 Z" id="Fill-92" fill="#1A1919"></path>
            <path d="M183.005396,155.334248 L183.005396,156.394926 C183.005396,158.149171 183.267277,159.016129 184.669955,159.016129 C185.998494,159.016129 186.662165,158.329737 186.662165,157.064576 C186.662165,155.885513 186.051109,155.334248 184.80269,154.443373 L183.217053,153.332471 C181.120808,151.866415 180.105571,151.006632 180.105571,148.697534 C180.105571,145.937618 181.834703,144.271863 184.69985,144.271863 C187.743172,144.271863 189.407731,145.98545 189.407731,149.113674 C189.407731,149.30859 189.407731,149.504702 189.38262,149.698422 L186.494752,149.698422 L186.494752,149.257171 C186.494752,147.512492 185.959032,146.775877 184.606578,146.775877 C183.633193,146.775877 183.030508,147.397695 183.030508,148.410541 C183.030508,149.455674 183.787452,149.941171 184.956948,150.733989 L186.651403,151.866415 C188.797871,153.302576 189.721032,154.412283 189.721032,156.827807 C189.721032,159.787422 187.976354,161.491443 184.80269,161.491443 C181.497487,161.491443 179.910655,159.801772 179.910655,156.326765 C179.910655,156.012269 179.910655,155.683422 179.946529,155.334248 L183.005396,155.334248 Z" id="Fill-93" fill="#1A1919"></path>
            <path d="M197.096872,151.865937 C198.959935,151.865937 199.67383,151.251294 199.67383,149.400189 C199.67383,147.428308 198.959935,146.97151 197.137529,146.97151 L195.807795,146.97151 L195.807795,151.865937 L197.096872,151.865937 Z M192.872096,144.683937 L198.177879,144.683937 C201.393397,144.683937 202.732697,145.984972 202.732697,149.327245 C202.732697,152.588203 201.220005,154.140357 198.127655,154.140357 L195.901068,154.140357 L195.901068,161.105916 L192.872096,161.105916 L192.872096,144.683937 Z" id="Fill-94" fill="#1A1919"></path>
            <polygon id="Fill-95" fill="#1A1919" points="205.423735 144.684176 213.856546 144.684176 213.856546 147.409414 208.45749 147.409414 208.45749 151.215659 213.477476 151.215659 213.477476 153.803379 208.45749 153.803379 208.45749 158.329498 213.985693 158.329498 213.985693 161.104959 205.423735 161.104959"></polygon>
            <path d="M226.386541,155.250183 C226.386541,155.47021 226.411653,155.662735 226.411653,155.885155 C226.411653,159.686616 224.823625,161.49228 221.533968,161.49228 C219.997359,161.49228 218.881674,161.128756 218.072115,160.252231 C216.665849,158.801721 216.561814,156.449574 216.561814,152.683987 C216.561814,149.548588 216.784234,147.478651 217.383331,146.433518 C218.28138,144.890931 219.54415,144.271504 221.533968,144.271504 C224.878632,144.271504 226.311206,145.937259 226.311206,149.768616 L223.34322,149.768616 L223.34322,149.366826 C223.34322,147.603015 222.79315,146.739644 221.598541,146.739644 C219.698408,146.739644 219.698408,148.454427 219.698408,152.657679 C219.698408,157.244784 219.698408,159.01577 221.572234,159.01577 C223.040681,159.01577 223.420947,157.973029 223.420947,155.47021 L223.420947,155.250183 L226.386541,155.250183 Z" id="Fill-96" fill="#1A1919"></path>
            <polygon id="Fill-97" fill="#1A1919" points="229.508308 161.10472 232.551629 161.10472 232.551629 144.683937 229.508308 144.683937"></polygon>
            <path d="M241.791848,154.506273 L240.488421,147.630399 L239.20054,154.506273 L241.791848,154.506273 Z M238.500994,144.683937 L242.624127,144.683937 L246.346666,161.105916 L243.043855,161.105916 L242.233099,156.972021 L238.722218,156.972021 L237.941358,161.105916 L234.820309,161.105916 L238.500994,144.683937 Z" id="Fill-98" fill="#1A1919"></path>
            <polygon id="Fill-99" fill="#1A1919" points="248.623357 144.684176 251.669071 144.684176 251.669071 158.312757 257.186511 158.312757 257.186511 161.104959 248.623357 161.104959"></polygon>
            <polygon id="Fill-100" fill="#1A1919" points="259.916413 161.10472 262.971692 161.10472 262.971692 144.683937 259.916413 144.683937"></polygon>
            <path d="M269.178514,155.334248 L269.178514,156.394926 C269.178514,158.149171 269.479857,159.016129 270.856227,159.016129 C272.185962,159.016129 272.863983,158.329737 272.863983,157.064576 C272.863983,155.885513 272.240969,155.334248 270.975808,154.443373 L269.38778,153.332471 C267.309472,151.866415 266.277493,151.006632 266.277493,148.697534 C266.277493,145.937618 268.022171,144.271863 270.882535,144.271863 C273.93064,144.271863 275.595199,145.98545 275.595199,149.113674 L275.595199,149.698422 L272.68222,149.698422 L272.68222,149.257171 C272.68222,147.512492 272.150087,146.775877 270.803612,146.775877 C269.818269,146.775877 269.222759,147.397695 269.222759,148.410541 C269.222759,149.455674 269.973724,149.941171 271.158766,150.733989 L272.836479,151.866415 C274.982948,153.302576 275.907304,154.412283 275.907304,156.827807 C275.907304,159.787422 274.162626,161.491443 270.975808,161.491443 C267.671801,161.491443 266.070619,159.801772 266.070619,156.326765 C266.070619,156.012269 266.108885,155.683422 266.123234,155.334248 L269.178514,155.334248 Z" id="Fill-101" fill="#1A1919"></path>
            <polygon id="Fill-102" fill="#1A1919" points="281.40047 147.398054 277.88361 147.398054 277.88361 144.683578 287.95826 144.683578 287.95826 147.398054 284.443792 147.398054 284.443792 161.105557 281.40047 161.105557"></polygon>
            <path d="M292.990683,155.334248 L292.990683,156.394926 C292.990683,158.149171 293.277676,159.016129 294.669592,159.016129 C295.98378,159.016129 296.660606,158.329737 296.660606,157.064576 C296.660606,155.885513 296.04955,155.334248 294.774822,154.443373 L293.201144,153.332471 C291.116857,151.866415 290.075312,151.006632 290.075312,148.697534 C290.075312,145.937618 291.829557,144.271863 294.683941,144.271863 C297.712913,144.271863 299.41813,145.98545 299.41813,149.113674 C299.41813,149.30859 299.41813,149.504702 299.379864,149.698422 L296.493193,149.698422 L296.493193,149.257171 C296.493193,147.512492 295.973018,146.775877 294.606214,146.775877 C293.628046,146.775877 293.030144,147.397695 293.030144,148.410541 C293.030144,149.455674 293.773934,149.941171 294.95778,150.733989 L296.634298,151.866415 C298.795116,153.302576 299.715885,154.412283 299.715885,156.827807 C299.715885,159.787422 297.962836,161.491443 294.774822,161.491443 C291.46962,161.491443 289.895941,159.801772 289.895941,156.326765 C289.895941,156.012269 289.906703,155.683422 289.935403,155.334248 L292.990683,155.334248 Z" id="Fill-103" fill="#1A1919"></path>
        </g>
    </g>
</svg>