<svg xmlns="http://www.w3.org/2000/svg" viewBox="0 0 733 137" width="733px" height="137px" version="1.1">
    <!-- Generator: Sketch 48.2 (47327) - http://www.bohemiancoding.com/sketch -->
    <title>Dtech</title>
    <desc>Created with Sketch.</desc>
    <defs />
    <g id="Page-1" fill="none" fill-rule="evenodd" stroke="none" stroke-width="1">
        <g id="Dtech" fill-rule="nonzero">
            <path id="Shape" fill="#a73439" d="M 217.408 73.2653 C 211.873 78.6097 203.979 81 195.268 81 L 165 81 L 165 0 L 195.361 0 C 204.072 0 211.966 2.39031 217.501 7.73469 C 226.843 16.7547 225.979 28.0298 225.979 40.1617 C 225.979 52.2937 226.843 64.1551 217.408 73.2653 Z M 205.987 19.145 C 202.977 15.6608 198.413 13.7891 193.726 14.1164 L 181.348 14.1164 L 181.348 66.9738 L 193.726 66.9738 C 198.404 67.3045 202.963 65.4516 205.987 61.9903 C 209.047 58.3371 209.514 52.5418 209.514 40.2519 C 209.514 27.9621 209.047 22.7531 205.987 19.1225 L 205.987 19.145 Z" />
            <path id="Shape" fill="#a73439" d="M 282.871 81 L 277.924 66.6581 L 248.146 66.6581 L 243.082 81 L 226 81 L 256.501 0 L 269.336 0 L 300 81 L 282.871 81 Z M 263.338 23.9031 L 252.744 53.4438 L 273.56 53.4438 L 263.338 23.9031 Z" />
            <polygon id="Shape" fill="#a73439" points="334.083,81 321.894,81 294,0 311.041,0 327.941,52.7898 344.842,0 362,0" />
            <polygon id="Shape" fill="#a73439" points="368,81 368,0 386,0 386,81" />
            <path id="Shape" fill="#a73439" d="M 428.258 84 C 415.679 84 406.147 81.3319 398 73.0975 L 408.478 62.655 C 413.717 67.8762 420.803 69.5553 428.488 69.5553 C 438.044 69.5553 443.167 65.9441 443.167 59.3428 C 443.313 56.7877 442.385 54.2874 440.605 52.4425 C 438.54 50.7065 435.964 49.689 433.266 49.5444 L 423.249 48.1413 C 417.264 47.6166 411.603 45.1988 407.093 41.241 C 403.009 36.873 400.892 31.0322 401.231 25.0712 C 401.231 10.3275 412.194 0 430.127 0 C 441.529 0 449.814 2.78313 456.9 9.63746 L 446.652 19.7349 C 441.413 14.7437 435.112 14.0307 429.666 14.0307 C 421.057 14.0307 416.856 18.7919 416.856 24.4732 C 416.803 26.7052 417.69 28.8574 419.303 30.4074 C 421.486 32.222 424.161 33.3506 426.988 33.6506 L 436.774 35.0307 C 444.344 36.0887 449.099 38.1818 452.607 41.425 C 457.015 45.6112 459 51.6375 459 58.9518 C 458.931 74.9606 445.614 84 428.258 84 Z" />
            <polygon id="Shape" fill="#1c1b1a" points="502.255,11.0557 502.255,81 489.722,81 489.722,11.0557 467,11.0557 467,0 525,0 525,11.0557" />
            <polygon id="Shape" fill="#1c1b1a" points="538,81 538,0 591,0 591,11.0496 550.674,11.0496 550.674,34.7046 585.078,34.7046 585.078,45.6189 550.559,45.6189 550.559,69.973 590.885,69.973 590.885,81" />
            <path id="Shape" fill="#1c1b1a" d="M 631.583 83.9956 C 623.211 84.1354 615.142 80.9546 609.238 75.1871 C 600.882 67.0686 601 57.8921 601 42 C 601 26.1079 600.882 16.9314 609.238 8.81291 C 615.142 3.04535 623.211 -0.135359 631.583 0.00441995 C 647.206 0.00441995 658.923 8.92791 661.905 25.418 L 648.768 25.418 C 646.732 17.0694 641.004 11.2508 631.583 11.2508 C 626.87 11.1546 622.327 12.9617 619.037 16.2415 C 614.848 20.6572 613.901 25.441 613.901 42 C 613.901 58.559 614.848 63.3428 619.037 67.7585 C 622.327 71.0383 626.87 72.8455 631.583 72.7492 C 641.051 72.7492 646.851 66.9536 648.886 58.582 L 662 58.582 C 659.041 75.0721 646.969 83.9956 631.583 83.9956 Z" />
            <polygon id="Shape" fill="#1c1b1a" points="717.589,81 717.589,45.6189 684.411,45.6189 684.411,81 672,81 672,0 684.411,0 684.411,34.5919 717.589,34.5919 717.589,0 730,0 730,81" />
            <rect id="Rectangle-path" fill="#a73439" x="0" y="0" width="137" height="137" />
            <path id="Shape" fill="#ffffff" d="M 68.0486 76 C 67.2608 76.0957 66.5295 76.4186 65.9657 76.9197 L 54.6 85.1974 C 52.6252 86.6729 51.3407 88.7568 51 91.0377 L 51 127.827 C 51 128.77 51.36 128.977 51.9257 129 C 52.7239 128.93 53.4696 128.612 54.0343 128.103 L 65.4 119.826 C 67.3527 118.373 68.635 116.325 69 114.077 L 69 77.2876 C 69 76.3449 68.6657 76.115 68.0743 76.092" />
            <path id="Shape" fill="#ffffff" d="M 74.9244 76 C 74.3595 76 74.0514 76.2525 74 77.1936 L 74 113.919 C 74.3468 116.2 75.639 118.281 77.6205 119.75 L 88.9957 128.105 C 89.5542 128.607 90.2883 128.923 91.0756 129 C 91.6662 129 91.9486 128.77 92 127.829 L 92 91.1035 C 91.6598 88.8265 90.3771 86.7462 88.4051 85.2733 L 77.0556 77.01 C 76.4837 76.508 75.7447 76.1858 74.9501 76.0918 L 74.9244 76 Z" />
            <path id="Shape" fill="#ffffff" d="M 44.8469 69.004 C 43.5339 68.9586 42.2374 69.3049 41.1258 69.9981 L 23.4566 83.5544 C 23.0913 83.8482 23 84.0741 23 84.2322 C 23 84.3904 23.4337 85.023 24.6208 85.2716 L 40.6008 88.8188 C 42.4063 89.2286 44.3018 88.9374 45.897 88.0054 L 63.5434 74.4491 C 63.9087 74.1554 64 73.9294 64 73.7713 C 64 73.6131 63.5891 72.9805 62.402 72.7094 L 46.4221 69.1621 C 45.9049 69.0493 45.3764 68.9962 44.8469 69.004" />
            <path id="Shape" fill="#ffffff" d="M 93.0778 69.0075 C 92.558 69.0015 92.0392 69.0546 91.5316 69.1657 L 75.6152 72.7123 C 74.4328 72.9833 73.9781 73.4803 74.0008 73.7514 C 74.0235 74.0225 74.1145 74.158 74.4783 74.4517 L 92.0773 88.0056 C 93.6661 88.9375 95.5541 89.2285 97.3524 88.8188 L 113.405 85.2722 C 114.588 85.0238 115.042 84.5042 114.997 84.2331 C 114.951 83.962 114.997 83.8491 114.542 83.5554 L 96.9432 70.0015 C 95.8019 69.2903 94.4688 68.9434 93.1232 69.0075" />
            <path id="Shape" fill="#ffffff" d="M 23 36.963 C 23.0401 37.532 23.2142 38.0853 23.5094 38.5826 L 32.5864 55.8729 C 33.6413 57.8139 35.425 59.3125 37.588 60.0751 L 64.6338 65.9845 C 64.7952 66.0052 64.9587 66.0052 65.1201 65.9845 C 65.7684 65.9845 65.9537 65.7656 66 65.109 C 65.9854 64.5777 65.8512 64.0554 65.6064 63.577 L 56.3441 46.2866 C 55.2983 44.3292 53.5135 42.814 51.3425 42.0407 L 24.3893 36.1313 L 23.9262 36 C 23.2779 36 23.0926 36.2407 23.0463 36.8973" />
            <path id="Shape" fill="#ffffff" d="M 115.677 36.0656 L 88.6427 41.9708 C 86.4671 42.7436 84.6784 44.2577 83.6303 46.2138 L 74.5105 63.4919 C 74.2146 63.9889 74.0402 64.5418 74 65.1104 C 74 65.7665 74.2321 65.9634 74.8818 65.9852 C 75.0513 66.0049 75.2228 66.0049 75.3923 65.9852 L 102.427 59.9926 C 104.611 59.2245 106.409 57.7098 107.462 55.7496 L 116.489 38.5152 C 116.785 38.0182 116.96 37.4653 117 36.8967 C 117 36.2406 116.745 36.0437 116.095 36 L 115.584 36" />
            <path id="Shape" fill="#ffffff" d="M 63.7065 11.4545 C 60.8811 15.3656 58.64 19.6339 57.0479 24.1364 C 56.3554 26.2708 56.0027 28.4926 56.0015 30.7273 C 55.9634 33.4358 56.6424 36.1095 57.9753 38.5 C 61.9467 43.9545 65.1095 46.4318 66.4888 49.5909 C 68.2645 54.2452 69.4695 59.0805 70.0797 64 C 71.6968 60.7955 76.0249 51.9773 77.856 46.7273 C 78.5378 44.8845 78.9227 42.9533 78.9975 41 C 79.056 38.2507 78.0957 35.5701 76.2865 33.4318 C 73.7182 30.3182 67.3449 27.6364 65.6565 22.7727 C 65.172 21.2172 64.9394 19.6 64.9669 17.9773 C 65.0541 14.6021 65.5813 11.2505 66.5364 8 C 65.7992 8.90909 64.8004 10.2727 63.7065 11.75" />
            <path id="Shape" fill="#1c1b1a" d="M 180.482 134.795 C 178.71 136.309 176.356 137.099 173.949 136.99 L 165 136.99 L 165 114.01 L 173.949 114.01 C 176.356 113.901 178.71 114.691 180.482 116.205 C 183.276 118.795 182.992 121.955 182.992 125.401 C 182.992 128.847 183.276 132.161 180.482 134.795 Z M 177.097 119.431 C 176.208 118.442 174.86 117.911 173.475 118.005 L 169.829 118.005 L 169.829 132.995 L 173.499 132.995 C 174.875 133.081 176.213 132.551 177.097 131.569 C 177.997 130.537 178.139 128.891 178.139 125.401 C 178.139 121.911 178.02 120.463 177.097 119.431 Z" />
            <path id="Shape" fill="#1c1b1a" d="M 205.692 137 L 204.147 132.936 L 194.803 132.936 L 193.308 137 L 188 137 L 197.494 114 L 201.481 114 L 211 137 L 205.692 137 Z M 199.612 120.788 L 196.298 129.158 L 202.802 129.158 L 199.612 120.788 Z" />
            <polygon id="Shape" fill="#1c1b1a" points="224.834,137 221.166,137 213,114 218.018,114 222.988,128.982 227.959,114 233,114" />
            <polygon id="Shape" fill="#1c1b1a" points="241,137 241,114 246,114 246,137" />
            <path id="Shape" fill="#1c1b1a" d="M 262.866 136.967 C 259.589 137.208 256.359 136.125 254 133.994 L 257.079 131.128 C 258.666 132.487 260.783 133.181 262.935 133.046 C 265.713 133.046 267.218 132.055 267.218 130.245 C 267.271 129.544 267.002 128.855 266.477 128.349 C 265.865 127.882 265.113 127.604 264.324 127.552 L 261.384 127.164 C 259.673 127.003 258.057 126.357 256.755 125.312 C 255.545 124.117 254.917 122.512 255.019 120.873 C 255.019 116.845 258.236 114.022 263.468 114.022 C 266.356 113.839 269.195 114.792 271.292 116.651 L 268.306 119.408 C 266.938 118.291 265.144 117.732 263.329 117.857 C 260.806 117.857 259.602 119.15 259.602 120.701 C 259.579 121.307 259.831 121.893 260.296 122.317 C 260.948 122.835 261.757 123.152 262.611 123.222 L 265.482 123.588 C 267.183 123.703 268.803 124.313 270.111 125.333 C 271.427 126.613 272.107 128.348 271.986 130.116 C 271.847 134.489 267.935 136.967 262.866 136.967 Z" />
            <polygon id="Shape" fill="#1c1b1a" points="305.457,117.998 305.457,137 300.543,137 300.543,117.998 294,117.998 294,114 312,114 312,117.998" />
            <polygon id="Shape" fill="#1c1b1a" points="322,137 322,114 340,114 340,117.998 327.348,117.998 327.348,123.38 338.122,123.38 338.122,127.378 327.348,127.378 327.348,132.98 340,132.98 340,137" />
            <path id="Shape" fill="#1c1b1a" d="M 358.954 136.989 C 356.473 137.037 354.08 136.139 352.338 134.508 C 349.884 132.221 350.001 129.394 350.001 125.51 C 350.001 121.627 350.001 118.779 352.338 116.491 C 354.08 114.86 356.473 113.962 358.954 114.01 C 363.588 113.796 367.579 116.995 368 121.26 L 363.161 121.26 C 362.918 119.309 361.079 117.866 358.954 117.959 C 357.797 117.914 356.678 118.34 355.892 119.124 C 354.98 120.073 354.699 121.152 354.699 125.597 C 354.699 130.041 354.98 131.012 355.892 132.07 C 356.676 132.859 357.794 133.292 358.954 133.256 C 361.099 133.335 362.941 131.862 363.161 129.89 L 368 129.89 C 367.498 134.095 363.53 137.209 358.954 136.989 Z" />
            <polygon id="Shape" fill="#1c1b1a" points="388.138,137 388.138,127.378 379.743,127.378 379.743,137 375,137 375,114 379.743,114 379.743,123.38 388.138,123.38 388.138,114 393,114 393,137" />
            <polygon id="Shape" fill="#1c1b1a" points="421.539,137 411.138,122.875 411.138,137 406,137 406,114 410.586,114 420.987,128.081 420.987,114 426,114 426,137" />
            <polygon id="Shape" fill="#1c1b1a" points="436,137 436,114 441,114 441,137" />
            <path id="Shape" fill="#1c1b1a" d="M 462.977 136.991 C 460.49 137.039 458.091 136.141 456.345 134.509 C 453.884 132.222 454.001 129.395 454.001 125.51 C 454.001 121.626 454.001 118.777 456.345 116.49 C 458.091 114.858 460.49 113.96 462.977 114.008 C 467.605 113.817 471.579 117.011 472 121.259 L 467.149 121.259 C 466.851 119.377 465.065 118.001 463 118.065 C 461.841 118.021 460.719 118.447 459.93 119.231 C 459.016 120.18 458.735 121.259 458.735 125.705 C 458.735 130.15 459.016 131.121 459.93 132.179 C 460.716 132.968 461.838 133.402 463 133.366 C 465.166 133.406 466.987 131.88 467.149 129.891 L 472 129.891 C 471.498 134.079 467.548 137.187 462.977 136.991 Z" />
            <path id="Shape" fill="#1c1b1a" d="M 496.692 137 L 495.147 132.936 L 485.878 132.936 L 484.308 137 L 479 137 L 488.494 114 L 492.481 114 L 502 137 L 496.692 137 Z M 490.612 120.788 L 487.273 129.158 L 493.752 129.158 L 490.612 120.788 Z" />
            <polygon id="Shape" fill="#1c1b1a" points="510,137 510,114 515.255,114 515.255,133.002 528,133.002 528,137" />
            <path id="Shape" fill="#1c1b1a" d="M 558.954 136.991 C 556.473 137.043 554.079 136.144 552.345 134.509 C 549.861 132.222 550.001 129.395 550.001 125.511 C 550.001 121.627 550.001 118.778 552.345 116.491 C 554.079 114.856 556.473 113.957 558.954 114.009 C 563.591 113.807 567.579 117.003 568 121.26 L 563.125 121.26 C 562.839 119.381 561.06 118.003 559.001 118.066 C 557.841 118.019 556.717 118.445 555.931 119.231 C 554.993 120.181 554.712 121.26 554.712 125.705 C 554.712 130.15 554.993 131.122 555.931 132.179 C 556.713 132.973 557.837 133.408 559.001 133.366 C 561.161 133.405 562.976 131.877 563.125 129.892 L 568 129.892 C 567.486 134.083 563.529 137.188 558.954 136.991 Z" />
            <path id="Shape" fill="#1c1b1a" d="M 593.653 134.517 C 589.947 137.828 584.053 137.828 580.348 134.517 C 577.861 132.228 578.001 129.398 578.001 125.511 C 578.001 121.623 578.001 118.772 580.348 116.483 C 584.053 113.172 589.947 113.172 593.653 116.483 C 596.116 118.772 595.999 121.602 595.999 125.511 C 595.999 129.42 596.116 132.228 593.653 134.517 Z M 590.086 119.096 C 589.295 118.311 588.175 117.878 587.012 117.909 C 585.842 117.878 584.714 118.31 583.915 119.096 C 582.976 120.068 582.741 121.105 582.741 125.468 C 582.741 129.83 582.976 130.867 583.915 131.817 C 584.705 132.618 585.837 133.061 587.012 133.027 C 588.18 133.06 589.305 132.618 590.086 131.817 C 591.025 130.867 591.283 129.809 591.283 125.468 C 591.283 121.127 591.025 120.112 590.086 119.096 Z" />
            <polygon id="Shape" fill="#1c1b1a" points="609,137 609,114 614.426,114 614.426,133.002 627,133.002 627,137" />
            <polygon id="Shape" fill="#1c1b1a" points="634,137 634,114 638.444,114 638.444,133.002 649,133.002 649,137" />
            <polygon id="Shape" fill="#1c1b1a" points="659,137 659,114 677,114 677,117.998 664.322,117.998 664.322,123.38 675.122,123.38 675.122,127.378 664.322,127.378 664.322,132.98 677,132.98 677,137" />
            <path id="Shape" fill="#1c1b1a" d="M 702.66 134.422 C 700.868 136.175 698.355 137.111 695.772 136.989 C 693.341 137.042 690.996 136.143 689.297 134.508 C 686.864 132.221 687.001 129.395 687.001 125.512 C 687.001 121.628 687.001 118.78 689.297 116.493 C 691.741 114.223 695.329 113.425 698.596 114.424 C 701.864 115.423 704.264 118.053 704.818 121.24 L 700.088 121.24 C 699.803 119.244 697.909 117.805 695.772 117.96 C 694.635 117.933 693.54 118.365 692.764 119.147 C 691.869 120.118 691.616 121.153 691.616 125.512 C 691.616 129.87 691.869 130.927 692.764 131.984 C 693.534 132.773 694.633 133.207 695.772 133.171 C 697.032 133.216 698.252 132.753 699.124 131.898 C 699.881 131.057 700.267 129.977 700.203 128.877 L 700.203 128.014 L 695.772 128.014 L 695.772 124.347 L 704.956 124.347 L 704.956 127.647 C 705.207 130.106 704.378 132.553 702.66 134.422 Z" />
            <polygon id="Shape" fill="#1c1b1a" points="715,137 715,114 733,114 733,117.998 720.322,117.998 720.322,123.38 731.096,123.38 731.096,127.378 720.322,127.378 720.322,132.98 733,132.98 733,137" />
        </g>
    </g>
</svg>