<svg xmlns="http://www.w3.org/2000/svg" viewBox="0 0 663.43 112.74"><defs><style>.a{fill:#2d2d2d;}</style></defs><title>Dental Select_1</title><path class="a" d="M-212-10V-94.31h24.33c13.25,0,24,3.73,32.16,11.08s12.29,17.7,12.29,31.07-4.1,23.85-12.29,31.2-18.91,11-32.16,11Zm24.57-11.8c18.91,0,31-10.48,31-30.36s-12.05-30.35-31-30.35H-199V-21.8Z" transform="translate(212 96)"/><path class="a" d="M-76-37.22h-47.34C-122.87-26.5-115.64-19-105.16-19c9.15,0,14-4.34,17.83-12.41l9.51,5.66c-5.66,11.69-14.93,17.47-27.7,17.47a29.12,29.12,0,0,1-21.32-8.91c-5.9-5.91-8.8-13.49-8.8-22.65s3-16.74,8.92-22.64a29.78,29.78,0,0,1,21.8-8.92c8.55,0,15.54,2.77,20.84,8.43S-76-50.35-76-41.56Zm-47.34-9.39H-87.7c-1-9.16-8.43-14.94-17.46-14.94C-113.95-61.55-121.3-55.29-123.35-46.61Z" transform="translate(212 96)"/><path class="a" d="M-13.14-10H-25.42V-47c0-8.19-4.94-13.13-13.25-13.13a14.18,14.18,0,0,0-11.21,5.18c-3,3.5-4.45,8-4.45,13.37V-10H-66.62V-69.74h12.29v10A23.76,23.76,0,0,1-34-71.43c12,0,20.84,7.83,20.84,20.84Z" transform="translate(212 96)"/><path class="a" d="M-7.36-59.86v-9.88H2.28V-85.88H14.57v16.14H27.94v9.88H14.57v31.67c0,5.91,2.77,8.8,8.19,8.8a14.68,14.68,0,0,0,4.45-.73L28.3-9.76a25,25,0,0,1-8.91,1.45C7.94-8.31,2.28-14.21,2.28-26V-59.86Z" transform="translate(212 96)"/><path class="a" d="M77.32-10c-2-2.41-3.25-5.9-3.37-10.48C70-12.41,63.35-8.31,54.08-8.31c-12,0-20.36-7.47-20.36-18.43,0-11.2,8.67-17.71,21.08-19.63l18.91-3v-2.54c0-6.86-4.22-10.35-12.53-10.35-8.07,0-12.41,3.37-12.41,7.83a9.28,9.28,0,0,0,.25,1.8l-11,3.74a13.31,13.31,0,0,1-1-4.82c0-4.94,2.17-9,6.63-12.53S54-71.43,61.18-71.43C77.44-71.43,86-64.32,86-51.19v26.26c0,6,1.2,11,3.61,14.93ZM73.71-38.67v-1.68L57.57-37.58Q46-35.6,46-27.46c0,5.42,4.1,8.91,10,8.91C66.6-18.55,73.71-27.1,73.71-38.67Z" transform="translate(212 96)"/><path class="a" d="M98.4-10V-94.31h12.29V-10Z" transform="translate(212 96)"/><path class="a" d="M160.67-58.9c18.43,3.49,27.23,11.2,27.23,25.17,0,7.11-2.9,13.13-8.56,18.07s-13,7.35-22.28,7.35c-19.27,0-31.68-10.72-34.57-26.62l11.44-5.9c2.41,14.09,10.12,21.2,23,21.2,10.72,0,17.95-6,17.95-13.61,0-8.56-6.39-12.53-21.44-15.42C136.58-52,126.34-60,126.34-73.48a19.66,19.66,0,0,1,8.07-16.26C139.83-93.95,146.7-96,155.25-96c15.3,0,26.5,7.59,31.2,21l-10.36,6c-3.49-10.48-10.48-15.66-21-15.66-9.27,0-16.5,4.1-16.5,11C138.63-66.13,145.38-61.91,160.67-58.9Z" transform="translate(212 96)"/><path class="a" d="M255-37.22H207.65C208.13-26.5,215.36-19,225.83-19c9.16,0,14-4.34,17.83-12.41l9.52,5.66c-5.66,11.69-14.94,17.47-27.71,17.47a29.14,29.14,0,0,1-21.32-8.91c-5.9-5.91-8.79-13.49-8.79-22.65s3-16.74,8.91-22.64a29.8,29.8,0,0,1,21.81-8.92c8.55,0,15.53,2.77,20.84,8.43S255-50.35,255-41.56Zm-47.34-9.39H243.3c-1-9.16-8.43-14.94-17.47-14.94C217-61.55,209.69-55.29,207.65-46.61Z" transform="translate(212 96)"/><path class="a" d="M264-10V-94.31H276.3V-10Z" transform="translate(212 96)"/><path class="a" d="M346.53-37.22H299.19C299.67-26.5,306.9-19,317.38-19c9.15,0,14-4.34,17.82-12.41l9.52,5.66C339.06-14.09,329.78-8.31,317-8.31a29.14,29.14,0,0,1-21.32-8.91c-5.9-5.91-8.79-13.49-8.79-22.65s3-16.74,8.92-22.64a29.78,29.78,0,0,1,21.8-8.92c8.55,0,15.54,2.77,20.84,8.43s8.07,12.65,8.07,21.44Zm-47.34-9.39h35.65c-1-9.16-8.43-14.94-17.46-14.94C308.58-61.55,301.24-55.29,299.19-46.61Z" transform="translate(212 96)"/><path class="a" d="M412.65-25.54c-5.78,11.45-14.93,17.23-27.46,17.23-8.79,0-16.14-2.89-22-8.79s-8.92-13.49-8.92-22.77,3-16.74,9-22.64a30.25,30.25,0,0,1,21.92-8.92c13,0,22.64,6.14,27,16.26l-9.76,6.51c-3.73-7.59-9.39-11.45-17.1-11.45-10.6,0-18.55,7.83-18.55,20.24s7.59,20.24,18.55,20.24c8.67,0,13.49-4,17.83-12Z" transform="translate(212 96)"/><path class="a" d="M415.78-59.86v-9.88h9.64V-85.88H437.7v16.14h13.37v9.88H437.7v31.67c0,5.91,2.77,8.8,8.19,8.8a14.74,14.74,0,0,0,4.46-.73l1.08,10.36a25,25,0,0,1-8.91,1.45c-11.44,0-17.1-5.9-17.1-17.71V-59.86Z" transform="translate(212 96)"/><path class="a" d="M451.43,16.74H122.49V6.45H451.43Z" transform="translate(212 96)"/></svg>