<svg xmlns="http://www.w3.org/2000/svg" xmlns:xlink="http://www.w3.org/1999/xlink" viewBox="0 0 22 17"><defs><style>.a,.b,.e{fill:none;}.a{clip-rule:evenodd;}.c{clip-path:url(#a);}.d{clip-path:url(#b);}.e{stroke:#3f4141;stroke-miterlimit:10;stroke-width:2px;}.f{clip-path:url(#c);}.g{clip-path:url(#e);}</style><clipPath id="a" transform="translate(-489 -38)"><path class="a" d="M490.5,39h19a.5.5,0,0,1,0,1h-19a.5.5,0,0,1,0-1Z"/></clipPath><clipPath id="b" transform="translate(-489 -38)"><rect class="b" x="210" y="-492" width="320" height="567"/></clipPath><clipPath id="c" transform="translate(-489 -38)"><path class="a" d="M490.5,46h19a.5.5,0,0,1,0,1h-19a.5.5,0,0,1,0-1Z"/></clipPath><clipPath id="e" transform="translate(-489 -38)"><path class="a" d="M490.5,53h19a.5.5,0,0,1,0,1h-19a.5.5,0,0,1,0-1Z"/></clipPath></defs><title>More</title><g class="c"><g class="d"><path class="e" d="M490.5,39h19a.5.5,0,0,1,0,1h-19a.5.5,0,0,1,0-1Z" transform="translate(-489 -38)"/></g></g><g class="f"><g class="d"><path class="e" d="M490.5,46h19a.5.5,0,0,1,0,1h-19a.5.5,0,0,1,0-1Z" transform="translate(-489 -38)"/></g></g><g class="g"><g class="d"><path class="e" d="M490.5,53h19a.5.5,0,0,1,0,1h-19a.5.5,0,0,1,0-1Z" transform="translate(-489 -38)"/></g></g></svg>