<svg xmlns="http://www.w3.org/2000/svg" viewBox="0 0 454 74" width="454px" height="74px" version="1.1">
    <!-- Generator: Sketch 48.2 (47327) - http://www.bohemiancoding.com/sketch -->
    <title>MACU_Logo6.20.12</title>
    <desc>Created with Sketch.</desc>
    <defs />
    <g id="Page-1" fill="none" fill-rule="evenodd" stroke="none" stroke-width="1">
        <g id="MACU_Logo6.20.12">
            <path id="Fill-1" fill="#0b0b09" d="M 231.428 65.7654 L 230.834 65.7654 C 230.515 64.4234 229.857 63.1026 227.777 63.1026 C 225.273 63.0603 224.063 65.2113 224.063 67.9182 C 224.063 69.7937 224.636 72.9048 227.841 72.9048 C 230.091 72.9048 230.621 71.5417 231.153 70.0493 L 231.746 70.0493 L 231.492 72.9048 C 230.345 73.416 229.029 73.6075 227.649 73.6075 C 225.718 73.6075 224.296 73.1604 223.32 72.2021 C 222.343 71.2426 221.835 69.8577 221.835 68.0886 C 221.835 66.2355 222.385 64.8923 223.447 63.87 C 224.445 62.8887 225.994 62.3987 227.883 62.3987 C 229.092 62.4416 230.472 62.5908 231.428 63.0392 L 231.428 65.7654 Z" />
            <path id="Fill-3" fill="#0b0b09" d="M 239.941 67.705 C 241.385 67.705 242.234 67.0446 242.234 65.5528 C 242.234 63.7208 240.939 63.3583 239.877 63.3583 C 238.88 63.3583 238.456 63.4435 238.456 64.0187 L 238.456 67.705 L 239.941 67.705 Z M 238.456 68.4077 L 238.456 71.5418 C 238.456 72.6493 238.584 72.6705 240.09 72.7557 L 240.09 73.3527 L 234.784 73.3527 L 234.784 72.7557 C 236.312 72.6705 236.418 72.6493 236.418 71.5418 L 236.418 64.4664 C 236.418 63.3583 236.29 63.3372 234.784 63.252 L 234.784 62.6556 L 240.514 62.6556 C 243.401 62.6556 244.42 63.8272 244.42 65.4247 C 244.42 66.9171 243.316 67.8543 241.81 68.0247 L 241.81 68.0676 C 243.507 68.4506 243.783 69.453 243.996 70.795 C 244.123 71.5617 244.377 72.053 244.611 72.3515 C 244.844 72.6493 245.311 72.7557 245.714 72.7557 L 245.714 73.3527 L 244.059 73.3527 C 243.082 73.3527 242.509 72.9478 242.213 72.0959 C 241.873 71.1581 241.767 69.8367 241.47 69.1975 C 241.236 68.6863 240.727 68.4077 239.814 68.4077 L 238.456 68.4077 Z" />
            <path id="Fill-5" fill="#0b0b09" d="M 257.157 62.6555 L 257.157 65.3394 L 256.563 65.3394 C 256.329 63.5715 255.522 63.3582 253.931 63.3582 L 252.381 63.3582 C 252.02 63.3582 251.914 63.5074 251.914 63.8911 L 251.914 67.4493 L 254.016 67.4493 C 255.395 67.4493 255.671 67.1937 255.82 66.0433 L 256.415 66.0433 L 256.415 69.5599 L 255.82 69.5599 C 255.671 68.4076 255.395 68.152 254.016 68.152 L 251.914 68.152 L 251.914 71.1997 C 251.914 71.8184 252.02 72.1803 252.254 72.3725 C 252.487 72.5429 253.167 72.6492 254.143 72.6492 C 255.332 72.6492 256.074 72.5217 256.457 72.1803 C 256.775 71.8601 257.03 71.1145 257.157 70.4541 L 257.751 70.4541 L 257.56 73.3525 L 248.242 73.3525 L 248.242 72.7556 C 249.77 72.6704 249.877 72.6492 249.877 71.5417 L 249.877 64.4663 C 249.877 63.3582 249.749 63.337 248.242 63.2518 L 248.242 62.6555 L 257.157 62.6555 Z" />
            <path id="Fill-7" fill="#0b0b09" d="M 264.439 71.3062 C 264.439 72.4361 264.864 72.6493 266.18 72.6493 C 268.111 72.6493 270.276 71.9889 270.276 68.0458 C 270.276 65.3824 269.363 63.4224 266.328 63.3583 C 264.587 63.3583 264.439 63.5287 264.439 64.2102 L 264.439 71.3062 Z M 266.838 62.6556 C 268.748 62.6768 270.233 63.1245 271.147 64.0187 C 272.06 64.9135 272.504 66.1715 272.504 67.8543 C 272.504 70.2198 271.656 71.5829 270.488 72.3726 C 269.342 73.1605 267.771 73.3527 266.18 73.3527 L 260.767 73.3527 L 260.767 72.7557 C 262.296 72.6705 262.402 72.6493 262.402 71.5418 L 262.402 64.4658 C 262.402 63.3583 262.275 63.3372 260.767 63.252 L 260.767 62.6556 L 266.838 62.6556 Z" />
            <path id="Fill-9" fill="#0b0b09" d="M 279.152 71.5418 C 279.152 72.6493 279.279 72.6704 280.785 72.7556 L 280.785 73.3526 L 275.478 73.3526 L 275.478 72.7556 C 277.008 72.6704 277.114 72.6493 277.114 71.5418 L 277.114 64.4664 C 277.114 63.3582 276.987 63.3371 275.478 63.2519 L 275.478 62.6556 L 280.785 62.6556 L 280.785 63.2519 C 279.258 63.3371 279.152 63.3582 279.152 64.4664 L 279.152 71.5418 Z" />
            <path id="Fill-11" fill="#0b0b09" d="M 289.51 71.5418 C 289.51 72.6493 289.637 72.6704 291.463 72.7556 L 291.463 73.3526 L 285.52 73.3526 L 285.52 72.7556 C 287.367 72.6704 287.472 72.6493 287.472 71.5418 L 287.472 63.3582 L 286.39 63.3582 C 284.714 63.3582 284.268 63.8271 284.078 65.4887 L 283.482 65.4887 L 283.482 62.6556 L 293.501 62.6556 L 293.501 65.4887 L 292.905 65.4887 C 292.715 63.8271 292.269 63.3582 290.593 63.3582 L 289.51 63.3582 L 289.51 71.5418 Z" />
            <path id="Fill-13" fill="#0b0b09" d="M 316.238 62.6555 L 316.238 63.2518 C 314.73 63.337 314.603 63.3582 314.603 64.4663 L 314.603 69.3466 C 314.603 70.9223 314.179 71.9888 313.394 72.6492 C 312.629 73.2667 311.42 73.6075 309.891 73.6075 C 308.363 73.6075 307.152 73.2667 306.389 72.6492 C 305.604 71.9888 305.18 70.9223 305.18 69.3466 L 305.18 64.4663 C 305.18 63.3582 305.052 63.337 303.545 63.2518 L 303.545 62.6555 L 308.851 62.6555 L 308.851 63.2518 C 307.323 63.337 307.218 63.3582 307.218 64.4663 L 307.218 69.4529 C 307.218 71.6269 307.939 72.9048 309.891 72.9048 C 311.844 72.9048 312.565 71.6269 312.565 69.4529 L 312.565 64.4663 C 312.565 63.3582 312.459 63.337 310.932 63.2518 L 310.932 62.6555 L 316.238 62.6555 Z" />
            <path id="Fill-15" fill="#0b0b09" d="M 322.459 62.6555 C 324.391 65.4034 326.3 68.152 328.253 70.8589 L 328.296 70.816 L 328.296 65.8941 C 328.296 65.0838 328.253 64.5304 328.19 64.0186 C 328.126 63.5503 327.83 63.3799 327.299 63.337 L 326.471 63.2518 L 326.471 62.6555 L 330.716 62.6555 L 330.716 63.2518 L 330.036 63.337 C 329.675 63.3799 329.357 63.5926 329.293 63.9552 C 329.23 64.5304 329.166 65.0838 329.166 65.8941 L 329.166 73.3525 L 327.659 73.3525 C 325.494 70.2837 323.329 67.2155 321.164 64.1467 L 321.122 64.1467 L 321.122 70.1133 C 321.122 70.9223 321.164 71.4976 321.228 71.9888 C 321.292 72.4788 321.588 72.6281 322.141 72.6704 L 322.926 72.7556 L 322.926 73.3525 L 318.702 73.3525 L 318.702 72.7556 L 319.381 72.6704 C 319.742 72.6281 320.061 72.4788 320.146 71.9888 C 320.209 71.4976 320.252 70.9223 320.252 70.1133 L 320.252 64.4663 C 320.252 63.3582 320.124 63.337 318.617 63.2518 L 318.617 62.6555 L 322.459 62.6555 Z" />
            <path id="Fill-17" fill="#0b0b09" d="M 337.17 71.5418 C 337.17 72.6493 337.298 72.6704 338.805 72.7556 L 338.805 73.3526 L 333.499 73.3526 L 333.499 72.7556 C 335.027 72.6704 335.133 72.6493 335.133 71.5418 L 335.133 64.4664 C 335.133 63.3582 335.005 63.3371 333.499 63.2519 L 333.499 62.6556 L 338.805 62.6556 L 338.805 63.2519 C 337.277 63.3371 337.17 63.3582 337.17 64.4664 L 337.17 71.5418 Z" />
            <path id="Fill-19" fill="#0b0b09" d="M 344.092 68.0031 C 344.111 70.3687 344.813 72.9052 347.403 72.9052 C 349.992 72.9052 350.692 70.3687 350.713 68.0031 C 350.692 65.6376 349.992 63.103 347.403 63.103 C 344.813 63.103 344.111 65.6376 344.092 68.0031 M 343.242 72.1167 C 342.329 71.1584 341.862 69.7512 341.862 68.0031 C 341.862 66.2564 342.329 64.8497 343.242 63.8909 C 344.155 62.9326 345.534 62.3984 347.403 62.3984 C 349.27 62.3984 350.65 62.9326 351.563 63.8909 C 352.496 64.8497 352.942 66.2564 352.942 68.0031 C 352.942 69.7512 352.496 71.1584 351.563 72.1167 C 350.65 73.0756 349.27 73.6079 347.403 73.6079 C 345.534 73.6079 344.155 73.0756 343.242 72.1167" />
            <path id="Fill-21" fill="#0b0b09" d="M 359.885 62.6555 C 361.817 65.4034 363.728 68.152 365.681 70.8589 L 365.722 70.816 L 365.722 65.8941 C 365.722 65.0838 365.681 64.5304 365.616 64.0186 C 365.552 63.5503 365.255 63.3799 364.724 63.337 L 363.896 63.2518 L 363.896 62.6555 L 368.142 62.6555 L 368.142 63.2518 L 367.462 63.337 C 367.101 63.3799 366.784 63.5926 366.72 63.9552 C 366.657 64.5304 366.592 65.0838 366.592 65.8941 L 366.592 73.3525 L 365.085 73.3525 C 362.92 70.2837 360.756 67.2155 358.591 64.1467 L 358.547 64.1467 L 358.547 70.1133 C 358.547 70.9223 358.591 71.4976 358.655 71.9888 C 358.718 72.4788 359.015 72.6281 359.567 72.6704 L 360.352 72.7556 L 360.352 73.3525 L 356.129 73.3525 L 356.129 72.7556 L 356.807 72.6704 C 357.168 72.6281 357.486 72.4788 357.572 71.9888 C 357.635 71.4976 357.678 70.9223 357.678 70.1133 L 357.678 64.4663 C 357.678 63.3582 357.55 63.337 356.044 63.2518 L 356.044 62.6555 L 359.885 62.6555 Z" />
            <path id="Fill-23" fill="#0b0b09" d="M 155.528 49.849 L 155.528 48.512 C 158.015 48.4069 158.295 48.231 158.295 46.4369 L 158.295 28.9916 L 158.19 28.9916 L 150.869 49.216 L 148.766 49.216 L 141.235 28.9916 L 141.13 28.9916 L 141.13 40.9858 C 141.13 43.8345 141.165 45.2069 141.305 46.4724 C 141.41 47.7036 141.795 48.2664 142.777 48.3367 L 144.667 48.512 L 144.667 49.849 L 136.295 49.849 L 136.295 48.512 L 137.522 48.3367 C 138.327 48.231 138.677 47.7036 138.783 46.4724 C 138.923 45.2417 138.958 43.8699 138.958 40.9858 L 138.958 28.9219 C 138.958 27.1285 138.677 26.9519 136.191 26.8468 L 136.191 25.5111 L 145.439 25.5111 C 145.894 27.0234 146.7 29.0985 147.295 30.6811 L 151.464 41.4789 L 151.568 41.4789 L 154.546 33.2481 C 155.492 30.6457 156.684 27.1988 157.279 25.5111 L 166.388 25.5111 L 166.388 26.8468 C 163.9 26.9519 163.62 27.1285 163.62 28.9219 L 163.62 46.4369 C 163.62 48.231 163.9 48.4069 166.388 48.512 L 166.388 49.849 L 155.528 49.849 Z" />
            <path id="Fill-25" fill="#0b0b09" d="M 182.74 39.5269 C 182.68 35.7075 182.146 30.1283 177.837 30.1283 C 173.528 30.1283 172.993 35.7075 172.934 39.5269 C 172.993 43.5838 173.528 48.9243 177.837 48.9243 C 182.146 48.9243 182.68 43.5838 182.74 39.5269 M 187.999 39.5269 C 187.999 46.269 184.671 50.2961 177.837 50.2961 C 171.002 50.2961 167.674 46.269 167.674 39.5269 C 167.674 32.7836 171.002 28.7565 177.837 28.7565 C 184.671 28.7565 187.999 32.7836 187.999 39.5269" />
            <path id="Fill-27" fill="#0b0b09" d="M 208.477 43.1368 C 208.417 48.2976 205.417 50.2962 199.919 50.2962 C 193.976 50.2962 191.361 48.2976 191.361 43.1368 L 191.361 32.0984 C 191.361 30.5755 191.123 30.4275 189.103 30.3373 L 189.103 29.2037 L 198.374 29.2037 L 198.374 30.3373 C 196.353 30.4275 196.115 30.5755 196.115 32.0984 L 196.115 43.5541 C 196.115 46.9556 197.245 48.9244 199.919 48.9244 C 202.652 48.9244 203.723 46.9556 203.723 43.5541 L 203.723 32.0984 C 203.723 30.5755 203.485 30.4275 201.464 30.3373 L 201.464 29.2037 L 210.735 29.2037 L 210.735 30.3373 C 208.715 30.4275 208.477 30.5755 208.477 32.0984 L 208.477 43.1368 Z" />
            <path id="Fill-29" fill="#0b0b09" d="M 219.446 29.2038 C 222.507 33.9473 225.656 38.6609 228.806 43.405 L 228.925 43.405 L 228.925 36.7226 C 228.925 34.2756 228.895 33.142 228.776 32.0681 C 228.688 31.024 228.361 30.547 227.529 30.4867 L 225.864 30.3375 L 225.864 29.2038 L 233.026 29.2038 L 233.026 30.3375 L 231.985 30.4867 C 231.303 30.5756 231.005 31.024 230.916 32.0681 C 230.797 33.1115 230.767 34.2756 230.767 36.7226 L 230.767 49.8492 L 227.498 49.8492 C 223.962 44.3004 220.367 38.7517 216.712 33.2017 L 216.593 33.2017 L 216.593 42.331 C 216.593 44.7768 216.623 45.911 216.742 46.9843 C 216.83 48.0297 217.157 48.5072 217.99 48.5657 L 219.653 48.7149 L 219.653 49.8492 L 212.492 49.8492 L 212.492 48.7149 L 213.533 48.5657 C 214.216 48.4768 214.513 48.0297 214.602 46.9843 C 214.721 45.9409 214.75 44.7768 214.75 42.331 L 214.75 32.0979 C 214.75 30.5756 214.513 30.4276 212.403 30.3375 L 212.403 29.2038 L 219.446 29.2038 Z" />
            <path id="Fill-31" fill="#0b0b09" d="M 245.629 47.0146 C 245.629 48.0885 245.836 48.5368 246.788 48.5959 L 248.481 48.7147 L 248.481 49.8489 L 238.022 49.8489 L 238.022 48.7147 L 239.715 48.5959 C 240.666 48.5368 240.875 48.0885 240.875 47.0146 L 240.875 30.5754 L 239.685 30.5754 C 236.952 30.5754 236.565 31.829 235.555 34.8133 L 234.426 34.8133 L 234.426 29.2036 L 252.077 29.2036 L 252.077 34.8133 L 250.949 34.8133 C 249.937 31.829 249.551 30.5754 246.818 30.5754 L 245.629 30.5754 L 245.629 47.0146 Z" />
            <path id="Fill-33" fill="#0b0b09" d="M 262.273 41.0781 L 259.954 33.3511 L 259.865 33.3511 L 257.459 41.0781 L 262.273 41.0781 Z M 250.921 49.8487 L 250.921 48.7151 C 252.526 48.6261 252.853 48.4166 253.328 47.1642 C 254.041 45.3447 255.022 42.3312 256.091 39.2586 L 259.538 29.2039 L 263.282 29.2039 L 269.137 47.283 C 269.522 48.5068 269.909 48.6846 271.454 48.7151 L 271.454 49.8487 L 262.064 49.8487 L 262.064 48.7151 L 263.787 48.5372 C 264.411 48.4769 264.501 48.0882 264.293 47.462 L 262.748 42.5103 L 256.984 42.5103 C 256.448 44.2695 255.912 45.8819 255.556 47.4919 C 255.409 48.1486 255.438 48.5068 256.091 48.5658 L 257.875 48.7151 L 257.875 49.8487 L 250.921 49.8487 Z" />
            <path id="Fill-35" fill="#0b0b09" d="M 279.69 46.9557 C 279.69 48.4767 279.927 48.626 282.036 48.7149 L 282.036 49.8491 L 272.587 49.8491 L 272.587 48.7149 C 274.696 48.626 274.935 48.4767 274.935 46.9557 L 274.935 32.0978 C 274.935 30.5756 274.696 30.4276 272.587 30.3374 L 272.587 29.2038 L 282.036 29.2038 L 282.036 30.3374 C 279.927 30.4276 279.69 30.5756 279.69 32.0978 L 279.69 46.9557 Z" />
            <path id="Fill-37" fill="#0b0b09" d="M 290.804 29.2038 C 293.864 33.9473 297.015 38.6609 300.164 43.405 L 300.284 43.405 L 300.284 36.7226 C 300.284 34.2756 300.254 33.142 300.135 32.0681 C 300.046 31.024 299.718 30.547 298.887 30.4867 L 297.222 30.3375 L 297.222 29.2038 L 304.384 29.2038 L 304.384 30.3375 L 303.344 30.4867 C 302.662 30.5756 302.363 31.024 302.275 32.0681 C 302.156 33.1115 302.125 34.2756 302.125 36.7226 L 302.125 49.8492 L 298.858 49.8492 C 295.32 44.3004 291.725 38.7517 288.07 33.2017 L 287.952 33.2017 L 287.952 42.331 C 287.952 44.7768 287.981 45.911 288.1 46.9843 C 288.188 48.0297 288.515 48.5072 289.347 48.5657 L 291.011 48.7149 L 291.011 49.8492 L 283.85 49.8492 L 283.85 48.7149 L 284.891 48.5657 C 285.574 48.4768 285.871 48.0297 285.961 46.9843 C 286.079 45.9409 286.109 44.7768 286.109 42.331 L 286.109 32.0979 C 286.109 30.5756 285.871 30.4276 283.762 30.3375 L 283.762 29.2038 L 290.804 29.2038 Z" />
            <path id="Fill-39" fill="#0b0b09" d="M 324.791 39.508 L 322.057 30.3992 L 321.953 30.3992 L 319.115 39.508 L 324.791 39.508 Z M 311.409 49.8488 L 311.409 48.5118 C 313.3 48.4067 313.684 48.1611 314.245 46.6842 C 315.086 44.5376 316.241 40.9856 317.503 37.3633 L 321.567 25.5108 L 325.981 25.5108 L 332.882 46.8241 C 333.338 48.2662 333.793 48.477 335.614 48.5118 L 335.614 49.8488 L 324.545 49.8488 L 324.545 48.5118 L 326.576 48.3016 C 327.312 48.2313 327.417 47.7737 327.172 47.0361 L 325.351 41.197 L 318.554 41.197 C 317.924 43.2721 317.294 45.1712 316.873 47.071 C 316.697 47.8439 316.733 48.2662 317.503 48.3364 L 319.605 48.5118 L 319.605 49.8488 L 311.409 49.8488 Z" />
            <path id="Fill-41" fill="#0b0b09" d="M 353.004 49.849 L 353.004 48.7148 C 355.113 48.6258 355.351 48.4766 355.351 46.9556 L 355.351 32.1568 L 355.262 32.1568 L 349.051 49.3111 L 347.268 49.3111 L 340.879 32.1568 L 340.79 32.1568 L 340.79 42.3309 C 340.79 44.748 340.819 45.9108 340.939 46.9848 C 341.028 48.0295 341.354 48.5071 342.187 48.5661 L 343.791 48.7148 L 343.791 49.849 L 336.69 49.849 L 336.69 48.7148 L 337.73 48.5661 C 338.413 48.4766 338.71 48.0295 338.799 46.9848 C 338.918 45.9407 338.948 44.7766 338.948 42.3309 L 338.948 32.0983 C 338.948 30.5754 338.71 30.4281 336.6 30.3379 L 336.6 29.2036 L 344.445 29.2036 C 344.832 30.4865 345.514 32.247 346.02 33.5889 L 349.557 42.7487 L 349.645 42.7487 L 352.171 35.7679 C 352.974 33.5603 353.985 30.6358 354.488 29.2036 L 362.215 29.2036 L 362.215 30.3379 C 360.105 30.4281 359.867 30.5754 359.867 32.0983 L 359.867 46.9556 C 359.867 48.4766 360.105 48.6258 362.215 48.7148 L 362.215 49.849 L 353.004 49.849 Z" />
            <path id="Fill-43" fill="#0b0b09" d="M 366.469 32.0981 C 366.469 30.5758 366.232 30.4278 364.122 30.3376 L 364.122 29.204 L 380.138 29.204 L 380.138 34.7229 L 379.009 34.7229 C 378.088 31.7698 377.553 30.5758 374.493 30.5758 L 372.264 30.5758 C 371.431 30.5758 371.224 30.7847 371.224 31.651 L 371.224 38.2438 L 374.046 38.2438 C 375.919 38.2438 376.305 37.7364 376.78 35.5587 L 377.91 35.5587 L 377.91 42.4799 L 376.78 42.4799 C 376.305 40.3021 375.919 39.7947 374.046 39.7947 L 371.224 39.7947 L 371.224 46.2993 C 371.224 48.2089 372.145 48.477 374.878 48.477 C 378.385 48.477 378.891 46.8353 379.96 43.6427 L 381.089 43.6427 L 380.732 49.8488 L 364.122 49.8488 L 364.122 48.7151 C 366.232 48.6262 366.469 48.477 366.469 46.9559 L 366.469 32.0981 Z" />
            <path id="Fill-45" fill="#0b0b09" d="M 389.799 38.9894 L 391.285 38.9894 C 394.285 38.9894 395.238 37.1991 395.238 34.7229 C 395.238 31.6808 393.721 30.5758 391.701 30.5758 C 390.066 30.5758 389.799 30.934 389.799 31.7399 L 389.799 38.9894 Z M 389.799 46.9559 C 389.799 48.477 390.037 48.6262 392.147 48.7151 L 392.147 49.8488 L 382.697 49.8488 L 382.697 48.7151 C 384.806 48.6262 385.044 48.477 385.044 46.9559 L 385.044 32.0981 C 385.044 30.5758 384.806 30.4278 382.697 30.3376 L 382.697 29.204 L 393.009 29.204 C 395.921 29.204 397.614 29.7711 398.743 30.7549 C 399.813 31.7399 400.229 33.0228 400.229 34.5438 C 400.229 37.14 398.149 39.0796 395.207 39.467 L 395.207 39.5267 C 398.268 40.3021 398.832 42.2709 399.248 44.6576 C 399.516 46.2091 399.961 47.3129 400.704 48.0585 C 401.061 48.4166 401.566 48.6847 402.101 48.7151 L 402.101 49.8488 L 399.902 49.8488 C 396.782 49.8488 395.505 49.0733 394.792 46.8658 C 394.316 45.3447 394.077 43.7329 393.84 42.6894 C 393.483 41.0782 392.651 40.3612 391.166 40.3612 L 389.799 40.3612 L 389.799 46.9559 Z" />
            <path id="Fill-47" fill="#0b0b09" d="M 410.573 46.9557 C 410.573 48.4767 410.812 48.626 412.921 48.7149 L 412.921 49.8491 L 403.471 49.8491 L 403.471 48.7149 C 405.581 48.626 405.818 48.4767 405.818 46.9557 L 405.818 32.0978 C 405.818 30.5756 405.581 30.4276 403.471 30.3374 L 403.471 29.2038 L 412.921 29.2038 L 412.921 30.3374 C 410.812 30.4276 410.573 30.5756 410.573 32.0978 L 410.573 46.9557 Z" />
            <path id="Fill-49" fill="#0b0b09" d="M 432.327 43.0466 L 431.97 48.864 C 430.187 49.9379 427.097 50.2961 425.016 50.2961 C 417.379 50.2961 414.141 46.1198 414.141 39.7346 C 414.141 36.7516 414.884 33.9172 416.696 31.8888 C 418.45 29.9206 421.272 28.7565 425.462 28.7565 C 426.948 28.7565 430.069 28.9941 431.851 30.0692 L 431.851 35.4097 L 430.722 35.4097 C 430.038 33.2618 428.998 30.1283 425.194 30.1283 C 419.816 30.1283 419.4 37.08 419.4 39.2589 C 419.4 42.6293 420.144 48.9243 425.433 48.9243 C 428.79 48.9243 430.069 46.3293 431.198 43.0466 L 432.327 43.0466 Z" />
            <path id="Fill-51" fill="#0b0b09" d="M 444.544 41.0781 L 442.226 33.3511 L 442.136 33.3511 L 439.73 41.0781 L 444.544 41.0781 Z M 433.192 49.8487 L 433.192 48.7151 C 434.795 48.6261 435.124 48.4166 435.599 47.1642 C 436.313 45.3447 437.293 42.3312 438.362 39.2586 L 441.809 29.2039 L 445.553 29.2039 L 451.408 47.283 C 451.794 48.5068 452.18 48.6846 453.725 48.7151 L 453.725 49.8487 L 444.336 49.8487 L 444.336 48.7151 L 446.058 48.5372 C 446.684 48.4769 446.772 48.0882 446.564 47.462 L 445.019 42.5103 L 439.253 42.5103 C 438.719 44.2695 438.183 45.8819 437.827 47.4919 C 437.679 48.1486 437.708 48.5068 438.362 48.5658 L 440.145 48.7151 L 440.145 49.8487 L 433.192 49.8487 Z" />
            <polygon id="Fill-53" fill="#fffffe" points="73.0609,0.259311 0.000309686,73.5112 0.000309686,73.5454 146.118,73.6082" />
            <polygon id="Fill-55" fill="#a41b36" points="118.942,46.3226 91.7657,73.608 99.5314,73.608 122.825,50.2222" />
            <polygon id="Fill-57" fill="#a41b36" points="123.531,50.9303 100.942,73.6085 108.708,73.6085 127.413,54.828" />
            <polygon id="Fill-59" fill="#a41b36" points="128.119,55.5361 110.119,73.6083 117.883,73.6083 131.999,59.4357" />
            <polygon id="Fill-61" fill="#a41b36" points="132.707,60.1426 119.295,73.6081 127.061,73.6081 136.591,64.0397" />
            <polygon id="Fill-63" fill="#a41b36" points="137.296,64.7494 128.471,73.6082 136.236,73.6082 141.176,68.6459" />
            <path id="Fill-65" fill="#a41b36" d="M 66.3554 64.7494 C 64.9903 66.8033 63.1006 71.3565 62.4199 73.6082 L 62.8268 73.6082 L 85.7139 50.6297 C 83.1045 51.0594 80.5644 51.9903 78.3539 53.4118 C 74.2252 56.0329 69.4963 60.0003 66.3554 64.7494" />
            <polygon id="Fill-67" fill="#a41b36" points="141.884,69.3565 137.647,73.608 146.118,73.608 144.001,71.4819" />
            <path id="Fill-69" fill="#a41b36" d="M 81.5318 8.76266 L 77.649 4.86553 L 9.18108 73.6084 L 9.88655 73.6084 L 60.4868 22.8052 C 62.8596 22.8699 65.0342 23.0185 67.085 23.2679 L 81.5318 8.76266 Z" />
            <path id="Fill-71" fill="#a41b36" d="M 76.9428 4.15619 L 73.4137 0.612894 L 73.0606 0.259062 L 0.00253943 73.6086 L 0.708624 73.6086 L 51.1937 22.9223 C 53.8173 22.8104 56.2025 22.7557 58.4056 22.7706 L 76.9428 4.15619 Z" />
            <path id="Fill-73" fill="#a41b36" d="M 86.1197 13.3697 L 82.2362 9.47076 L 18.3554 73.6082 L 19.0615 73.6082 L 68.9414 23.5276 C 70.9408 23.8379 72.854 24.2446 74.7666 24.767 L 86.1197 13.3697 Z" />
            <path id="Fill-75" fill="#a41b36" d="M 81.6489 27.0711 L 90.7072 17.9765 L 86.8256 14.0788 L 27.5318 73.6084 L 28.2392 73.6084 L 69.9985 31.6821 C 71.9241 32.6733 73.2762 33.5271 74.4561 34.292 L 77.3659 31.373 C 75.0637 31.2462 72.5788 31.0988 70.333 31.3432 L 76.4078 25.2453 C 78.1104 25.7639 79.836 26.3671 81.6489 27.0711" />
            <path id="Fill-77" fill="#a41b36" d="M 79.3889 31.4671 L 83.1664 27.6738 C 83.8985 27.9711 84.6424 28.2783 85.4129 28.6072 C 85.6037 31.2725 82.9354 31.584 79.3889 31.4671 Z M 91.414 18.6831 L 36.7079 73.6085 L 37.4146 73.6085 L 75.7488 35.1198 C 76.4611 35.5694 77.1771 35.9929 78.0015 36.404 C 79.7661 34.9843 79.7661 34.276 81.8843 33.2133 C 82.7403 32.7873 84.0292 32.5292 85.5169 32.4011 L 95.2962 22.5821 L 91.414 18.6831 Z" />
            <path id="Fill-79" fill="#a41b36" d="M 96.0018 23.2914 L 45.8853 73.6083 L 46.592 73.6083 L 87.7319 32.3014 C 89.9704 32.2746 92.381 32.4506 94.3679 32.7273 L 99.8846 27.1892 L 96.0018 23.2914 Z" />
            <path id="Fill-81" fill="#a41b36" d="M 104.093 59.8144 L 118.236 45.6157 L 114.354 41.7173 L 107.254 48.845 L 107.254 48.8468 L 101 55.1244 L 101 55.1225 L 82.5884 73.6082 L 90.3559 73.6082 L 103.692 60.2186 C 103.222 58.3897 102.402 56.8233 101.323 55.5087 L 107.099 49.7131 C 106.962 50.4469 106.804 51.1999 106.589 51.9928 C 105.618 55.5678 105.239 57.3575 104.093 59.8144" />
            <path id="Fill-83" fill="#a41b36" d="M 113.648 41.008 L 110.119 37.4653 L 109.766 37.1109 L 90.43 56.5231 L 73.414 73.6084 L 81.1791 73.6084 L 100.305 54.4064 C 99.0691 53.2292 97.5931 52.3281 95.9753 51.6659 L 106.568 41.0304 C 107.31 42.817 107.606 44.8703 107.432 47.2495 L 113.648 41.008 Z" />
            <path id="Fill-85" fill="#a41b36" d="M 105.53 32.8593 L 105.53 32.8581 L 105.178 32.503 L 87.3215 50.4334 L 64.2375 73.6084 L 72.0044 73.6084 L 94.4195 51.1006 C 92.4146 50.5092 90.2499 50.2767 88.074 50.3855 L 102.434 35.9673 C 103.884 37.0282 105.028 38.2327 105.859 39.6151 L 109.06 36.4038 L 105.53 32.8593 Z" />
            <path id="Fill-87" fill="#a41b36" d="M 100.589 27.8969 L 55.0618 73.6084 L 55.7672 73.6084 L 96.1832 33.0309 C 97.0131 33.1988 97.6888 33.3816 98.1193 33.567 C 99.2323 34.0445 100.244 34.5601 101.162 35.1197 L 104.472 31.7959 L 100.589 27.8969 Z" />
        </g>
    </g>
</svg>