<svg id="Layer_1" data-name="Layer 1" xmlns="http://www.w3.org/2000/svg" viewBox="0 0 432 431.95"><defs><style>.cls-1{fill:#160e0f;}</style></defs><title>VECTOR</title><path class="cls-1" d="M356.91,223.66H346.49l-22-110.23h10.42a2.32,2.32,0,0,0,2.32-2.32V71.66a2.32,2.32,0,0,0-2.32-2.32H264a7,7,0,0,0-5.42,2.59l-44.85,55.55L168.91,71.92a7,7,0,0,0-5.42-2.59H92.66a2.32,2.32,0,0,0-2.32,2.32V111.1a2.32,2.32,0,0,0,2.32,2.32h10.42L81,223.66H70.61A2.32,2.32,0,0,0,68.29,226v39.45a2.32,2.32,0,0,0,2.32,2.32h41.81l63.37-101.62a1.55,1.55,0,0,1,2.63,0l41.17,66L252,189.75a1.55,1.55,0,0,1,2.46,0l59.69,78h42.72a2.32,2.32,0,0,0,2.32-2.32V226A2.32,2.32,0,0,0,356.91,223.66Z"/><path class="cls-1" d="M178.42,186.28a1.55,1.55,0,0,0-2.63,0L152.89,223a.77.77,0,0,0,.14,1l29.3,26.47a.77.77,0,0,0,1.29-.63l-1-15.31a.77.77,0,0,1,1.22-.68l40.42,28.68a.77.77,0,0,0,1.1-1Z"/><path class="cls-1" d="M254.5,207.46a1.55,1.55,0,0,0-2.46,0l-20.8,27.18a.77.77,0,0,0,.15,1.09l29.1,22a.77.77,0,0,0,1.22-.81l-2.95-11.79a.77.77,0,0,1,1.1-.88l34.35,17.51a.77.77,0,0,0,1-1.16Z"/><path class="cls-1" d="M34.27,303H46.5a1.16,1.16,0,0,1,1,.55L62.54,327.8,77.6,303.58a1.16,1.16,0,0,1,1-.55H90.67a1.16,1.16,0,0,1,1.16,1.16v56.26a1.16,1.16,0,0,1-1.16,1.16H80.19A1.16,1.16,0,0,1,79,360.45V323.37l-16.49,25h-.33L45.89,323.62v36.83a1.16,1.16,0,0,1-1.16,1.16H34.27a1.16,1.16,0,0,1-1.16-1.16V304.19A1.16,1.16,0,0,1,34.27,303Z"/><path class="cls-1" d="M136.26,314.91H119.6a1.16,1.16,0,0,1-1.16-1.16v-9.56A1.16,1.16,0,0,1,119.6,303h46.21a1.16,1.16,0,0,1,1.16,1.16v9.56a1.16,1.16,0,0,1-1.16,1.16H149.15v45.54a1.16,1.16,0,0,1-1.16,1.16H137.42a1.16,1.16,0,0,1-1.16-1.16Z"/><path class="cls-1" d="M194.74,303H236.6a1.16,1.16,0,0,1,1.16,1.16v9.14a1.16,1.16,0,0,1-1.16,1.16H206.38v11.88h26.45a1.16,1.16,0,0,1,1.16,1.16v9.14a1.16,1.16,0,0,1-1.16,1.16H206.38v12.3H237a1.16,1.16,0,0,1,1.16,1.16v9.14a1.16,1.16,0,0,1-1.16,1.16H194.74a1.16,1.16,0,0,1-1.16-1.16V304.19A1.16,1.16,0,0,1,194.74,303Z"/><path class="cls-1" d="M263.79,332.49v-.17c0-16.65,12.55-30.3,30.55-30.3,10.51,0,17,3.33,22.3,8.27a1.16,1.16,0,0,1,.07,1.61L310,319.64a1.17,1.17,0,0,1-1.64.11c-4.24-3.64-8.62-5.84-14.1-5.84-9.87,0-17,8.2-17,18.24v1.18c0,9.37,7.66,17.41,17,17.4,6.27,0,10.26-2.37,14.54-6.13a1.17,1.17,0,0,1,1.6,0l6.63,6.7a1.16,1.16,0,0,1,0,1.63c-5.83,6-12.42,9.64-23.23,9.64C276.59,362.62,263.79,349.31,263.79,332.49Z"/><path class="cls-1" d="M346,303H356.6a1.16,1.16,0,0,1,1.16,1.16v22h23.77v-22a1.16,1.16,0,0,1,1.16-1.16h10.56a1.16,1.16,0,0,1,1.16,1.16v56.26a1.16,1.16,0,0,1-1.16,1.16H382.69a1.16,1.16,0,0,1-1.16-1.16V338.1H357.76v22.35a1.16,1.16,0,0,1-1.16,1.16H346a1.16,1.16,0,0,1-1.16-1.16V304.19A1.16,1.16,0,0,1,346,303Z"/></svg>