<svg xmlns="http://www.w3.org/2000/svg" viewBox="0 0 458 171" width="458px" height="171px" version="1.1">
    <!-- Generator: Sketch 48.2 (47327) - http://www.bohemiancoding.com/sketch -->
    <title>PermaPlate</title>
    <desc>Created with Sketch.</desc>
    <defs>
        <polygon id="path-1" points="0.102,0.1921 32.8831,0.1921 32.8831,32.4853 0.102,32.4853" />
        <polygon id="path-3" points="0.231255,0.098 74.3309,0.098 74.3309,111.11 0.231255,111.11" />
    </defs>
    <g id="Page-1" fill="none" fill-rule="evenodd" stroke="none" stroke-width="1">
        <g id="PermaPlate">
            <g id="Group-3" transform="translate(0 137)">
                <mask id="mask-2" fill="white">
                    <use xmlns:xlink="http://www.w3.org/1999/xlink" xlink:href="#path-1" />
                </mask>
                <g id="Clip-2" />
                <path id="Fill-1" fill="#1a1919" mask="url(&quot;#mask-2&quot;)" d="M 8.5629 14.0556 L 19.3273 14.0556 C 21.4727 14.0556 22.9789 13.8278 23.8459 13.3705 C 24.3984 13.0696 24.8438 12.5936 25.1821 11.9391 C 25.5221 11.2863 25.6904 10.5621 25.6904 9.775 C 25.6904 9.0015 25.5221 8.2875 25.1821 7.633 C 24.8438 6.9785 24.3984 6.5008 23.8459 6.2016 C 22.9942 5.7443 21.488 5.5148 19.3273 5.5148 L 8.5629 5.5148 L 8.5629 14.0556 Z M 8.5629 19.38 L 8.5629 30.0254 C 8.5629 30.4963 8.6768 30.8652 8.9063 31.1253 C 9.1358 31.3854 9.5251 31.586 10.0776 31.7288 L 10.0776 32.4853 L 0 32.4853 L 0 31.7288 C 0.5678 31.569 0.9605 31.365 1.1815 31.1134 C 1.4025 30.8601 1.5147 30.4963 1.5147 30.0254 L 1.5147 2.6758 C 1.5147 2.1879 1.4025 1.8173 1.1815 1.564 C 0.9605 1.3124 0.5678 1.1084 0 0.9503 L 0 0.1921 L 20.1552 0.1921 C 22.5046 0.1921 24.3695 0.3519 25.7499 0.6681 C 27.1303 0.9826 28.3492 1.5249 29.4049 2.2984 C 30.4929 3.1025 31.3446 4.1599 31.96 5.4689 C 32.5754 6.8255 32.8831 8.2603 32.8831 9.775 C 32.8831 11.9493 32.2983 13.8584 31.1321 15.4989 C 30.1223 16.9031 28.7861 17.8993 27.1235 18.4909 C 25.4592 19.0842 23.1353 19.38 20.1552 19.38 L 8.5629 19.38 Z" />
            </g>
            <path id="Fill-4" fill="#1a1919" d="M 52.1567 154.568 L 52.1567 163.839 L 74.3695 163.839 C 74.8749 163.839 75.2621 163.722 75.5311 163.49 C 75.802 163.259 76.0202 162.847 76.191 162.253 L 77 162.253 L 77 171 L 76.191 171 C 76.0202 170.405 75.802 169.992 75.5311 169.761 C 75.2621 169.529 74.8749 169.413 74.3695 169.413 L 43 169.413 L 43 168.621 C 43.6072 168.453 44.0271 168.24 44.2634 167.976 C 44.4998 167.711 44.6197 167.324 44.6197 166.813 L 44.6197 138.187 C 44.6197 137.676 44.4998 137.287 44.2634 137.022 C 44.0271 136.758 43.6072 136.545 43 136.379 L 43 135.585 L 73.7623 135.585 C 74.2677 135.585 74.6549 135.467 74.924 135.232 C 75.1948 134.997 75.413 134.586 75.5839 134 L 76.3928 134 L 76.3928 142.747 L 75.5839 142.747 C 75.413 142.16 75.1948 141.748 74.924 141.513 C 74.6549 141.28 74.2677 141.161 73.7623 141.161 L 52.1567 141.161 L 52.1567 149.192 L 66.1726 149.192 C 66.678 149.192 67.0652 149.075 67.3361 148.845 C 67.6051 148.613 67.8251 148.2 67.9942 147.605 L 68.8031 147.605 L 68.8031 156.155 L 67.9942 156.155 C 67.8251 155.578 67.6051 155.167 67.3361 154.928 C 67.0652 154.69 66.678 154.568 66.1726 154.568 L 52.1567 154.568" />
            <path id="Fill-5" fill="#1a1919" d="M 97.7338 151.523 L 108.833 151.523 C 110.473 151.523 111.631 151.473 112.308 151.372 C 112.984 151.274 113.603 151.066 114.166 150.75 C 115.389 150.069 115.999 148.842 115.999 147.064 C 115.999 145.287 115.389 144.059 114.166 143.377 C 113.587 143.044 112.972 142.833 112.32 142.742 C 111.668 142.652 110.506 142.604 108.833 142.604 L 97.7338 142.604 L 97.7338 151.523 Z M 97.7338 157.127 L 97.7338 168.41 C 97.7338 168.906 97.85 169.294 98.0841 169.568 C 98.3164 169.842 98.7152 170.053 99.277 170.204 L 99.277 171 L 89 171 L 89 170.204 C 89.5791 170.035 89.9797 169.82 90.2051 169.556 C 90.4305 169.289 90.5432 168.906 90.5432 168.41 L 90.5432 139.615 C 90.5432 139.101 90.4305 138.711 90.2051 138.444 C 89.9797 138.18 89.5791 137.965 89 137.798 L 89 137 L 109.604 137 C 112.115 137 114.106 137.15 115.578 137.447 C 117.05 137.748 118.333 138.271 119.425 139.017 C 120.696 139.882 121.647 141.052 122.273 142.531 C 122.869 143.959 123.167 145.486 123.167 147.114 C 123.167 152.659 120.181 155.906 114.215 156.853 L 120.608 166.243 C 121.733 167.886 122.559 168.945 123.082 169.418 C 123.604 169.892 124.244 170.153 125 170.204 L 125 171 L 113.1 171 L 113.1 170.204 C 113.918 170.071 114.328 169.77 114.328 169.305 C 114.328 169.008 113.951 168.285 113.197 167.137 L 106.525 157.127 L 97.7338 157.127 Z" />
            <path id="Fill-6" fill="#1a1919" d="M 152.875 171 L 140.969 147.512 L 140.969 168.387 C 140.969 168.9 141.079 169.289 141.3 169.556 C 141.519 169.82 141.914 170.035 142.481 170.204 L 142.481 171 L 133 171 L 133 170.204 C 133.568 170.035 133.962 169.82 134.183 169.556 C 134.402 169.289 134.514 168.9 134.514 168.387 L 134.514 139.592 C 134.514 139.094 134.402 138.711 134.183 138.444 C 133.962 138.18 133.568 137.965 133 137.798 L 133 137 L 145.441 137 L 145.441 137.798 C 144.7 137.997 144.33 138.455 144.33 139.168 C 144.33 139.5 144.44 139.882 144.661 140.315 L 153.466 157.888 L 162.388 140.612 C 162.782 139.849 162.979 139.295 162.979 138.944 C 162.979 138.262 162.585 137.881 161.797 137.798 L 161.797 137 L 174 137 L 174 137.798 C 173.432 137.965 173.038 138.18 172.819 138.444 C 172.598 138.711 172.488 139.094 172.488 139.592 L 172.488 168.387 C 172.488 168.9 172.598 169.289 172.819 169.556 C 173.038 169.82 173.432 170.035 174 170.204 L 174 171 L 163.928 171 L 163.928 170.204 C 164.48 170.053 164.871 169.842 165.098 169.568 C 165.326 169.294 165.441 168.9 165.441 168.387 L 165.441 147.512 L 152.875 171" />
            <path id="Fill-7" fill="#1a1919" d="M 208.352 157.675 L 202.905 145.563 L 197.369 157.675 L 208.352 157.675 Z M 210.464 162.332 L 195.194 162.332 L 192.934 167.114 C 192.621 167.778 192.465 168.303 192.465 168.682 C 192.465 169.414 193.015 169.921 194.112 170.204 L 194.112 171 L 183 171 L 183 170.204 C 183.656 170.071 184.157 169.837 184.501 169.504 C 184.845 169.173 185.239 168.526 185.683 167.562 L 198.036 141.433 C 198.43 140.605 198.627 139.941 198.627 139.441 C 198.627 138.679 198.151 138.129 197.2 137.798 L 197.2 137 L 209.112 137 L 209.112 137.798 C 208.143 138.081 207.659 138.57 207.659 139.268 C 207.659 139.747 207.816 140.297 208.127 140.913 L 220.926 167.114 C 221.464 168.228 221.941 168.986 222.352 169.393 C 222.764 169.803 223.312 170.071 224 170.204 L 224 171 L 211.634 171 L 211.634 170.204 C 212.719 170.021 213.265 169.504 213.265 168.659 C 213.265 168.308 213.099 167.794 212.77 167.114 L 210.464 162.332 Z" />
            <path id="Fill-8" fill="#1a1919" d="M 239.854 151.596 L 250.984 151.596 C 253.2 151.596 254.759 151.356 255.656 150.875 C 256.225 150.558 256.686 150.057 257.039 149.368 C 257.389 148.681 257.565 147.918 257.565 147.089 C 257.565 146.275 257.389 145.523 257.039 144.834 C 256.686 144.145 256.225 143.642 255.656 143.327 C 254.777 142.846 253.218 142.604 250.984 142.604 L 239.854 142.604 L 239.854 151.596 Z M 239.854 157.202 L 239.854 168.41 C 239.854 168.906 239.973 169.294 240.211 169.568 C 240.444 169.842 240.849 170.053 241.418 170.204 L 241.418 171 L 231 171 L 231 170.204 C 231.587 170.035 231.995 169.82 232.222 169.556 C 232.452 169.289 232.564 168.906 232.564 168.41 L 232.564 139.615 C 232.564 139.101 232.452 138.711 232.222 138.444 C 231.995 138.18 231.587 137.965 231 137.798 L 231 137 L 251.842 137 C 254.269 137 256.199 137.168 257.626 137.501 C 259.052 137.832 260.31 138.403 261.405 139.218 C 262.529 140.064 263.411 141.178 264.046 142.556 C 264.682 143.984 265 145.495 265 147.089 C 265 149.379 264.397 151.389 263.191 153.116 C 262.147 154.594 260.764 155.643 259.045 156.266 C 257.324 156.891 254.921 157.202 251.842 157.202 L 239.854 157.202 Z" />
            <path id="Fill-9" fill="#1a1919" d="M 284.423 164.125 L 306.267 164.125 C 306.804 164.125 307.213 164.013 307.49 163.79 C 307.769 163.568 307.992 163.173 308.167 162.602 L 309 162.602 L 309 171 L 308.167 171 C 307.992 170.429 307.769 170.032 307.49 169.81 C 307.213 169.588 306.804 169.477 306.267 169.477 L 275 169.477 L 275 168.716 C 275.625 168.555 276.057 168.35 276.3 168.097 C 276.542 167.842 276.667 167.471 276.667 166.981 L 276.667 139.498 C 276.667 139.007 276.542 138.634 276.3 138.38 C 276.057 138.127 275.625 137.922 275 137.763 L 275 137 L 286.09 137 L 286.09 137.763 C 285.465 137.906 285.029 138.108 284.788 138.369 C 284.545 138.629 284.423 139.007 284.423 139.498 L 284.423 164.125" />
            <path id="Fill-10" fill="#1a1919" d="M 341.354 157.675 L 335.907 145.563 L 330.369 157.675 L 341.354 157.675 Z M 343.464 162.332 L 328.196 162.332 L 325.934 167.114 C 325.623 167.778 325.467 168.303 325.467 168.682 C 325.467 169.414 326.013 169.921 327.112 170.204 L 327.112 171 L 316 171 L 316 170.204 C 316.656 170.071 317.157 169.837 317.501 169.504 C 317.845 169.173 318.237 168.526 318.683 167.562 L 331.036 141.433 C 331.429 140.605 331.627 139.941 331.627 139.441 C 331.627 138.679 331.153 138.129 330.2 137.798 L 330.2 137 L 342.112 137 L 342.112 137.798 C 341.142 138.081 340.659 138.57 340.659 139.268 C 340.659 139.747 340.814 140.297 341.129 140.913 L 353.926 167.114 C 354.466 168.228 354.941 168.986 355.353 169.393 C 355.764 169.803 356.314 170.071 357 170.204 L 357 171 L 344.634 171 L 344.634 170.204 C 345.719 170.021 346.265 169.504 346.265 168.659 C 346.265 168.308 346.099 167.794 345.772 167.114 L 343.464 162.332 Z" />
            <path id="Fill-11" fill="#1a1919" d="M 377.741 140.875 L 377.741 165.504 C 377.741 165.994 377.858 166.365 378.094 166.62 C 378.327 166.873 378.746 167.078 379.348 167.239 L 379.348 168 L 368.652 168 L 368.652 167.239 C 369.254 167.078 369.675 166.873 369.906 166.62 C 370.142 166.365 370.259 165.994 370.259 165.504 L 370.259 140.875 L 359.611 140.875 C 359.108 140.875 358.723 140.986 358.456 141.203 C 358.187 141.419 357.969 141.819 357.803 142.398 L 357 142.398 L 357 134 L 357.803 134 C 357.987 134.578 358.209 134.976 358.471 135.195 C 358.727 135.414 359.108 135.522 359.611 135.522 L 388.364 135.522 C 388.882 135.522 389.277 135.414 389.544 135.195 C 389.813 134.976 390.031 134.578 390.197 134 L 391 134 L 391 142.398 L 390.197 142.398 C 390.031 141.819 389.813 141.419 389.544 141.203 C 389.277 140.986 388.882 140.875 388.364 140.875 L 377.741 140.875" />
            <path id="Fill-12" fill="#1a1919" d="M 409.157 154.568 L 409.157 163.839 L 431.37 163.839 C 431.877 163.839 432.264 163.722 432.535 163.49 C 432.804 163.259 433.024 162.847 433.191 162.253 L 434 162.253 L 434 171 L 433.191 171 C 433.024 170.405 432.804 169.992 432.535 169.761 C 432.264 169.529 431.877 169.413 431.37 169.413 L 400 169.413 L 400 168.621 C 400.607 168.453 401.031 168.24 401.265 167.976 C 401.502 167.711 401.62 167.324 401.62 166.813 L 401.62 138.187 C 401.62 137.676 401.502 137.287 401.265 137.022 C 401.031 136.758 400.607 136.545 400 136.379 L 400 135.585 L 430.762 135.585 C 431.27 135.585 431.657 135.467 431.928 135.232 C 432.197 134.997 432.417 134.586 432.584 134 L 433.393 134 L 433.393 142.747 L 432.584 142.747 C 432.417 142.16 432.197 141.748 431.928 141.513 C 431.657 141.28 431.27 141.161 430.762 141.161 L 409.157 141.161 L 409.157 149.192 L 423.174 149.192 C 423.68 149.192 424.067 149.075 424.336 148.845 C 424.605 148.613 424.827 148.2 424.996 147.605 L 425.807 147.605 L 425.807 156.155 L 424.996 156.155 C 424.827 155.578 424.605 155.167 424.336 154.928 C 424.067 154.69 423.68 154.568 423.174 154.568 L 409.157 154.568" />
            <path id="Fill-13" fill="#1a1919" d="M 449.287 140.805 L 451.562 140.805 C 452.105 140.805 452.467 140.744 452.65 140.624 C 452.888 140.461 453.005 140.171 453.005 139.753 C 453.005 139.343 452.888 139.057 452.65 138.894 C 452.467 138.774 452.105 138.713 451.562 138.713 L 449.287 138.713 L 449.287 140.805 Z M 449.287 142.365 L 449.287 145.114 C 449.287 145.228 449.309 145.313 449.356 145.369 C 449.401 145.425 449.486 145.472 449.612 145.507 L 449.612 145.847 L 447.342 145.847 L 447.342 145.507 C 447.468 145.472 447.553 145.425 447.598 145.369 C 447.645 145.313 447.667 145.228 447.667 145.114 L 447.667 137.883 C 447.667 137.763 447.645 137.676 447.601 137.624 C 447.559 137.569 447.473 137.524 447.342 137.482 L 447.342 137.142 L 451.717 137.153 C 452.254 137.153 452.679 137.192 452.994 137.269 C 453.308 137.346 453.578 137.482 453.807 137.673 C 454.353 138.118 454.624 138.819 454.624 139.774 C 454.624 141.204 454.01 142.039 452.785 142.28 L 454.073 144.541 C 454.312 144.96 454.486 145.221 454.593 145.331 C 454.698 145.44 454.839 145.5 455.01 145.507 L 455.01 145.847 L 452.428 145.847 L 452.428 145.507 C 452.599 145.487 452.682 145.433 452.682 145.347 C 452.682 145.306 452.608 145.139 452.454 144.849 L 451.04 142.365 L 449.287 142.365 Z M 450.977 135.252 C 449.156 135.252 447.714 135.882 446.657 137.142 C 445.686 138.296 445.2 139.751 445.2 141.505 C 445.2 143.246 445.686 144.697 446.657 145.858 C 447.714 147.118 449.161 147.748 450.995 147.748 C 452.836 147.748 454.285 147.118 455.34 145.858 C 456.314 144.704 456.8 143.282 456.8 141.59 C 456.8 139.751 456.314 138.267 455.34 137.142 C 454.764 136.469 454.144 135.995 453.482 135.719 C 452.745 135.415 451.912 135.259 450.977 135.252 Z M 450.977 134 C 453.042 134 454.704 134.669 455.966 136.006 C 456.674 136.749 457.209 137.658 457.563 138.734 C 457.854 139.618 458 140.571 458 141.59 C 458 142.97 457.683 144.262 457.048 145.465 C 456.349 146.795 455.381 147.753 454.141 148.342 C 453.216 148.781 452.168 149 450.995 149 C 448.944 149 447.287 148.331 446.031 146.994 C 445.329 146.244 444.797 145.335 444.437 144.266 C 444.146 143.387 444 142.465 444 141.495 C 444 140.059 444.314 138.734 444.943 137.524 C 445.629 136.214 446.6 135.259 447.859 134.658 C 448.739 134.241 449.778 134.022 450.977 134 Z" />
            <g id="Group-18" transform="translate(181)">
                <mask id="mask-4" fill="white">
                    <use xmlns:xlink="http://www.w3.org/1999/xlink" xlink:href="#path-3" />
                </mask>
                <g id="Clip-15" />
                <path id="Fill-14" fill="#d02139" mask="url(&quot;#mask-4&quot;)" d="M 18.436 12.4303 C 12.3453 23.9242 18.9366 42.2537 42.6244 52.8885 C 79.411 69.4173 71.6407 110.184 39.5686 111.104 C 30.2703 111.368 -1.10756 102.422 0.275581 60.6375 C 1.26453 31.0643 18.436 12.4303 18.436 12.4303" />
                <path id="Fill-16" fill="#d02139" mask="url(&quot;#mask-4&quot;)" d="M 28.636 7.3535 C 33.2512 2.226 46.411 -1.49275 44.1907 1.60475 C 23.6564 30.2768 56.7227 57.8218 54.7587 56.777 C 5.36163 30.45 28.636 7.3535 28.636 7.3535" />
                <path id="Fill-17" fill="#d02139" mask="url(&quot;#mask-4&quot;)" d="M 47.318 9.667 C 58.1058 -5.0085 77.5517 1.1445 73.875 2.72825 C 37.493 18.4013 62.8308 64.8165 61.4547 63.0472 C 33.1029 26.7663 47.318 9.667 47.318 9.667" />
            </g>
            <path id="Fill-19" fill="#d02139" d="M 253.886 11.3906 C 268.323 6.39032 279.399 16.4724 276.551 16.6082 C 230.994 18.7772 245.159 70.9334 244.258 68.9445 C 221.145 17.4218 253.886 11.3906 253.886 11.3906" />
            <path id="Fill-20" fill="#d02139" d="M 273.067 24.0113 C 291.907 24.9386 295.908 42.1194 293.267 41.1866 C 248.27 25.2696 248.239 80.2338 247.818 77.9294 C 237.707 21.8313 273.067 24.0113 273.067 24.0113" />
            <path id="Fill-21" fill="#d02139" d="M 240.922 110.373 C 256.089 98.7952 238.121 67.6744 263.376 52.1132 C 275.999 44.3342 292.629 52.1284 295.19 64.5051 C 303.801 106.027 242.104 155.841 190.167 106.388 C 187.309 103.667 187.353 102.341 189.859 104.582 C 224.342 135.257 261.635 110.373 256.089 110.373 C 254.356 110.373 240.922 110.373 240.922 110.373" />
            <path id="Fill-22" fill="#d02139" d="M 171.682 66.5127 L 175.025 67.1737 C 173.083 63.6244 173.277 58.1733 173.277 58.1733 C 171.063 61.0477 170.23 64.5139 171.682 66.5127 Z M 167.574 42.7389 C 164.074 33.8077 170.606 24.5045 169.394 20 C 173.504 20.5832 186.751 34.538 182.627 43.4052 C 172.821 64.5139 179.894 85.7109 184 92.7956 C 184 92.7956 175.29 100.4 175.251 101 C 176.39 84.8232 160.643 71.7682 162.095 54.4752 C 162.628 48.1364 167.574 42.7389 167.574 42.7389 Z" />
            <path id="Fill-23" fill="#d02139" d="M 158.46 51 C 155.68 46.9346 151.97 34.6885 155.344 27 C 156.2 31.4792 166 42.2384 166 42.2384 C 166 42.2384 160.075 45.8649 158.46 51" />
        </g>
    </g>
</svg>