<svg xmlns="http://www.w3.org/2000/svg" viewBox="0 0 414 392" width="414px" height="392px" version="1.1">
    <!-- Generator: Sketch 48.2 (47327) - http://www.bohemiancoding.com/sketch -->
    <title>TTech</title>
    <desc>Created with Sketch.</desc>
    <defs />
    <g id="Page-1" fill="none" fill-rule="evenodd" stroke="none" stroke-width="1">
        <g id="TTech" fill-rule="nonzero">
            <g id="Group">
                <path id="Shape" fill="#007853" d="M 206.843 20.04 C 211.763 20.037 216.492 21.9507 220.034 25.3777 L 319.205 112.723 L 206.843 0 L 94.4801 112.723 L 193.651 25.3777 C 197.193 21.9507 201.922 20.037 206.843 20.04" />
                <path id="Shape" fill="#007853" d="M 120.989 45.2283 C 124.705 45.4259 128.25 46.8594 131.063 49.3026 L 206.843 112.723 L 120.989 26.5937 L 35.1192 112.723 L 110.898 49.3026 C 113.693 46.8183 117.258 45.379 120.989 45.2283" />
                <path id="Shape" fill="#007853" d="M 292.712 45.2283 C 296.429 45.4223 299.975 46.8563 302.787 49.3026 L 378.613 112.723 L 292.712 26.5937 L 206.843 112.723 L 282.59 49.3026 C 285.387 46.8205 288.95 45.3816 292.681 45.2283" />
                <path id="Shape" fill="#0055b8" d="M 206.843 242.881 C 211.763 242.884 216.492 240.97 220.034 237.543 L 319.205 150.198 L 206.827 262.905 L 94.4801 150.198 L 193.651 237.543 C 197.193 240.97 201.922 242.884 206.843 242.881" />
                <path id="Shape" fill="#0055b8" d="M 120.989 217.693 C 124.708 217.497 128.255 216.057 131.063 213.602 L 206.843 150.198 L 120.989 236.311 L 35.1192 150.198 L 110.898 213.602 C 113.688 216.098 117.254 217.544 120.989 217.693" />
                <path id="Shape" fill="#0055b8" d="M 292.712 217.693 C 296.432 217.5 299.98 216.06 302.787 213.602 L 378.613 150.198 L 292.744 236.311 L 206.874 150.198 L 282.59 213.602 C 285.381 216.096 288.947 217.541 292.681 217.693" />
                <path id="Shape" fill="#0055b8" d="M 6.11931e-015 131.453 C 6.11931e-015 131.453 136.368 138.733 206.213 138.733 C 276.058 138.733 413.732 131.453 413.732 131.453 C 413.732 131.453 275.995 124.188 206.213 124.188 C 136.431 124.188 -1.06581e-014 131.453 -1.06581e-014 131.453" />
            </g>
            <polygon id="Shape" fill="#007853" points="25.0703,296.175 18,296.175 18,289 40,289 40,296.175 32.8666,296.175 32.8666,329 25.0703,329" />
            <path id="Shape" fill="#007853" d="M 67 308.821 C 67 323.893 61.5626 330 53.8316 330 C 44.5768 330 41 320.379 41 309.414 C 41 298.45 45.3627 289 54.3448 289 C 64.2252 289 67 299.668 67 308.821 Z M 49.1801 309.523 C 49.1801 318.598 50.9284 323.237 54.1363 323.237 C 57.3442 323.237 58.7236 317.302 58.7236 309.18 C 58.7236 302.182 57.6329 295.826 54.0722 295.826 C 50.9284 295.81 49.1801 300.917 49.1801 309.523 Z" />
            <path id="Shape" fill="#007853" d="M 96 308.764 C 96 323.877 90.5626 330 82.8316 330 C 73.5928 330 70 320.353 70 309.359 C 70 298.366 74.4109 289.001 83.409 289.001 C 93.2412 288.891 96 299.587 96 308.764 Z M 78.1801 309.469 C 78.1801 318.568 79.9284 323.219 83.1363 323.219 C 86.3442 323.219 87.7236 317.268 87.7236 309.125 C 87.7236 302.109 86.6329 295.735 83.0722 295.735 C 79.9605 295.719 78.1962 300.84 78.1962 309.469 L 78.1801 309.469 Z" />
            <polygon id="Shape" fill="#007853" points="116.825,311.385 107.739,311.385 107.739,322.157 118,322.157 118,329 100,329 100,289 117.232,289 117.232,295.75 107.676,295.75 107.676,304.931 116.762,304.931" />
            <polygon id="Shape" fill="#007853" points="124,289 131.75,289 131.75,322.344 142,322.344 142,329 124,329" />
            <polygon id="Shape" fill="#007853" points="162.821,311.385 153.703,311.385 153.703,322.157 164,322.157 164,329 146,329 146,289 163.293,289 163.293,295.75 153.703,295.75 153.703,304.931 162.821,304.931" />
            <g id="Group" fill="#007853" transform="translate(121 350)">
                <path id="Shape" d="M 22.2024 40.6804 C 20.2508 41.3936 18.1799 41.7164 16.1058 41.6306 C 5.84521 41.6306 0.942776 33.095 0.942776 21.598 C 0.942776 6.31624 9.36491 0.361898 17.1899 0.361898 C 19.0591 0.239337 20.9277 0.610517 22.6109 1.43875 L 21.3067 8.0582 C 20.1688 7.51506 18.92 7.24925 17.6613 7.28224 C 13.246 7.28224 9.2392 11.1304 9.2392 21.1704 C 9.2392 30.8621 12.8846 34.6627 17.6613 34.6627 C 18.9349 34.6401 20.199 34.4375 21.4167 34.061 L 22.2024 40.6804 Z" />
                <path id="Shape" d="M 49.6057 20.2836 C 49.6057 35.5654 44.2319 41.7573 36.5954 41.7573 C 27.4505 41.7573 23.8679 32.0023 23.8679 20.8854 C 23.8679 9.76849 28.2361 0.298554 37.1297 0.298554 C 46.8559 0.23521 49.6057 11.0037 49.6057 20.2836 Z M 31.9915 20.9962 C 31.9915 30.197 33.7199 34.9003 36.894 34.9003 C 40.068 34.9003 41.4193 28.8826 41.4193 20.6478 C 41.4193 13.5533 40.3508 7.10804 36.8311 7.10804 C 33.7199 7.09221 31.9915 12.2706 31.9915 20.9962 Z" />
                <polygon id="Shape" points="54.571,0.726126 62.4275,0.726126 62.4275,34.5994 72.7666,34.5994 72.7666,41.2822 54.571,41.2822" />
                <polygon id="Shape" points="77.2448,0.726126 85.1012,0.726126 85.1012,34.5994 95.4403,34.5994 95.4403,41.2822 77.2448,41.2822" />
                <polygon id="Shape" points="116.951,23.4667 107.759,23.4667 107.759,34.4093 118.146,34.4093 118.146,41.2822 99.9342,41.2822 99.9342,0.726126 117.438,0.726126 117.438,7.58312 107.759,7.58312 107.759,16.9105 116.951,16.9105" />
                <path id="Shape" d="M 145.8 40.1737 C 143.11 41.1074 140.286 41.5941 137.441 41.6147 C 133.459 41.8416 129.563 40.3837 126.693 37.5924 C 123.221 34.2193 121.382 28.2016 121.492 21.2179 C 121.681 6.4746 130.04 0.346062 138.572 0.346062 C 140.821 0.276746 143.059 0.686873 145.14 1.5496 L 143.758 8.34325 C 142.323 7.67334 140.749 7.36363 139.169 7.4406 C 133.858 7.4406 129.616 11.1146 129.616 21.693 C 129.616 31.4322 133.371 34.9319 137.017 34.9319 C 137.548 34.9624 138.079 34.8981 138.588 34.7419 L 138.588 24.9711 L 135.005 24.9711 L 135.005 18.5258 L 145.816 18.5258 L 145.8 40.1737 Z" />
                <polygon id="Shape" points="168.663,23.4667 159.518,23.4667 159.518,34.4093 169.904,34.4093 169.904,41.2822 151.661,41.2822 151.661,0.726126 169.15,0.726126 169.15,7.58312 159.518,7.58312 159.518,16.9105 168.71,16.9105" />
            </g>
            <polygon id="Shape" fill="#007853" points="188.08,296.175 181,296.175 181,289 203,289 203,296.175 195.857,296.175 195.857,329 188.08,329" />
            <polygon id="Shape" fill="#007853" points="222.82,311.438 213.726,311.438 213.726,322.234 224,322.234 224,329 206,329 206,289 223.308,289 223.308,295.766 213.741,295.766 213.741,304.969 222.836,304.969" />
            <path id="Shape" fill="#007853" d="M 248.599 329.026 C 246.714 329.749 244.706 330.076 242.694 329.985 C 232.733 329.985 228 321.513 228 310.101 C 228 294.932 236.156 289.022 243.742 289.022 C 245.556 288.902 247.37 289.271 249 290.091 L 247.751 296.709 C 246.651 296.171 245.44 295.907 244.22 295.938 C 239.934 295.938 236.048 299.758 236.048 309.724 C 236.048 319.344 239.579 323.1 244.22 323.1 C 245.455 323.083 246.681 322.882 247.859 322.503 L 248.599 329.026 Z" />
            <polygon id="Shape" fill="#007853" points="260.883,289 260.883,305.016 269.117,305.016 269.117,289 277,289 277,329 269.117,329 269.117,312.266 260.883,312.266 260.883,329 253,329 253,289" />
            <path id="Shape" fill="#007853" d="M 284 329 L 284 289.047 L 291.195 289.047 L 297.447 304.654 C 298.646 307.775 300.645 312.894 301.764 316.327 L 301.892 316.327 C 301.652 312.114 301.109 305.184 301.109 297.833 L 301.109 289 L 308 289 L 308 328.953 L 300.805 328.953 L 294.617 313.783 C 293.043 309.84 291.682 305.818 290.54 301.735 L 290.428 301.735 C 290.604 305.777 290.907 311.942 290.907 319.948 L 290.907 328.953 L 284 329 Z" />
            <polygon id="Shape" fill="#007853" points="322,289 322,329 314,329 314,289" />
            <path id="Shape" fill="#007853" d="M 347.599 329.026 C 345.714 329.749 343.706 330.076 341.694 329.985 C 331.749 329.985 327 321.513 327 310.101 C 327 294.933 335.156 289.023 342.742 289.023 C 344.557 288.901 346.37 289.269 348 290.092 L 346.736 296.662 C 345.635 296.124 344.425 295.86 343.205 295.892 C 338.918 295.892 335.048 299.712 335.048 309.677 C 335.048 319.297 338.564 323.053 343.205 323.053 C 344.44 323.036 345.666 322.835 346.844 322.456 L 347.599 329.026 Z" />
            <path id="Shape" fill="#007853" d="M 358.353 319.859 L 356.597 329 L 349 329 L 357.746 289 L 367.147 289 L 375 329 L 367.387 329 L 365.647 319.859 L 358.353 319.859 Z M 364.881 313.813 L 363.556 305.438 C 363.141 303 362.599 299.031 362.247 296.359 L 362.072 296.359 C 361.641 299.031 361.05 303.188 360.635 305.5 L 359.135 313.813 L 364.881 313.813 Z" />
            <polygon id="Shape" fill="#007853" points="379,289 386.762,289 386.762,322.422 397,322.422 397,329 379,329" />
        </g>
    </g>
</svg>