<svg xmlns="http://www.w3.org/2000/svg" viewBox="0 0 520 185" width="520px" height="185px" version="1.1">
    <!-- Generator: Sketch 48.2 (47327) - http://www.bohemiancoding.com/sketch -->
    <title>UESP_Logo_Horz 308CVC</title>
    <desc>Created with Sketch.</desc>
    <defs>
        <polygon id="path-1" points="0.0762322,0.0552431 104.913,0.0552431 104.913,154.09 0.0762322,154.09" />
    </defs>
    <g id="Page-1" fill="none" fill-rule="evenodd" stroke="none" stroke-width="1">
        <g id="UESP_Logo_Horz-308CVC">
            <g id="Group-4" transform="translate(0 30.8333)">
                <mask id="mask-2" fill="white">
                    <use xmlns:xlink="http://www.w3.org/1999/xlink" xlink:href="#path-1" />
                </mask>
                <g id="Clip-2" />
                <path id="Fill-1" fill="#005d7b" mask="url(&quot;#mask-2&quot;)" d="M 40.9977 36.1457 L 41.2924 36.4424 L 51.6804 46.9476 L 51.6804 42.0798 L 45.0748 35.3928 L 45.0748 23.7095 C 46.4737 22.6407 49.1342 21.9109 52.1835 21.9109 C 56.6875 21.9109 60.3403 23.4924 60.3403 25.4388 C 60.3403 26.0722 59.9731 27.786 59.3188 29.8248 L 70.314 18.7081 L 52.3423 0.529306 L 34.3693 18.7081 L 40.9977 25.4092 L 40.9977 36.1457" />
                <polyline id="Fill-3" fill="#005d7b" mask="url(&quot;#mask-2&quot;)" points="104.913,3.5317 103.517,0.226111 52.2559,52.0865 1.26545,0.0552431 0,3.14757 9.85174,13.144 9.80727,60.8393 26.9189,78.4464 26.9189,132.01 50.2459,154.167 50.2459,78.115 54.6928,78.115 54.6928,154.039 77.7607,132.618 77.7607,78.1175 95.1568,60.531 95.106,13.4729 104.913,3.5317" />
            </g>
            <polyline id="Fill-5" fill="#005d7b" points="54.5455,0 50.9091,0 52.8758,14.5098 54.5455,0" />
            <polyline id="Fill-6" fill="#005d7b" points="65.0267,1.81373 63.6364,16.3235 69.0909,2.53225 65.0267,1.81373" />
            <polyline id="Fill-7" fill="#005d7b" points="40.4279,1.81373 36.3636,2.53469 41.8182,16.3235 40.4279,1.81373" />
            <path id="Fill-8" fill="#005d7b" d="M 7.54153 21.7647 C 7.00432 22.4099 6.17244 23.4128 5.45455 24.3442 L 16.3636 32.6471 L 7.54153 21.7647" />
            <path id="Fill-9" fill="#005d7b" d="M 17.7446 10.8824 C 16.7807 11.492 15.5902 12.255 14.5455 12.9592 L 25.4545 23.5784 L 17.7446 10.8824" />
            <path id="Fill-10" fill="#005d7b" d="M 28.7484 5.44118 C 27.8018 5.85719 26.5769 6.4047 25.4545 6.92819 L 32.7273 19.951 L 28.7484 5.44118" />
            <path id="Fill-11" fill="#005d7b" d="M 76.8373 5.44118 L 72.7273 19.951 L 80 6.96121 C 78.9895 6.45793 77.7438 5.86546 76.8373 5.44118" />
            <path id="Fill-12" fill="#005d7b" d="M 89.6231 12.6961 L 81.8182 25.3922 L 92.7273 14.8324 C 91.7024 14.1042 90.5407 13.3145 89.6231 12.6961" />
            <path id="Fill-13" fill="#005d7b" d="M 100 24.3473 C 99.3317 23.4899 98.5341 22.5102 97.909 21.7647 L 89.0909 32.6471 L 100 24.3473" />
            <path id="Fill-14" fill="#005d7b" d="M 153.636 99.7549 C 146.037 99.7549 140 94.7517 140 87.1235 L 140 63.4804 L 147.232 63.4804 L 147.232 86.8715 C 147.232 91.0133 149.732 93.4894 153.636 93.4894 C 157.539 93.4894 160.089 91.0133 160.089 86.8715 L 160.089 63.4804 L 167.273 63.4804 L 167.273 87.1235 C 167.273 94.7517 161.236 99.7549 153.636 99.7549" />
            <path id="Fill-15" fill="#005d7b" d="M 178.555 99.7549 C 173.686 99.7549 171.618 96.0436 171.618 92.3833 L 171.618 79.621 L 169.091 79.621 L 169.091 74.7249 L 171.618 74.7249 L 171.618 67.1078 L 177.592 67.1078 L 177.592 74.7249 L 181.818 74.7249 L 181.818 79.621 L 177.592 79.621 L 177.592 91.9871 C 177.592 93.4722 178.233 94.3119 179.658 94.3119 L 181.818 94.3119 L 181.818 99.7549 L 178.555 99.7549" />
            <path id="Fill-16" fill="#005d7b" d="M 202.511 88.2489 L 197.296 88.2489 C 194.916 88.2489 193.6 89.3733 193.6 91.2655 C 193.6 93.1074 194.816 94.3348 197.396 94.3348 C 199.219 94.3348 200.385 94.1816 201.547 93.0558 C 202.256 92.3912 202.511 91.317 202.511 89.6812 L 202.511 88.2489 Z M 202.663 99.5012 L 202.663 97.1969 C 200.889 98.9872 199.219 99.7549 196.183 99.7549 C 193.194 99.7549 191.018 98.9872 189.449 97.4029 C 188.031 95.9191 187.273 93.772 187.273 91.4187 C 187.273 87.1747 190.158 83.697 196.283 83.697 L 202.511 83.697 L 202.511 82.3677 C 202.511 79.4529 201.091 78.1739 197.6 78.1739 C 195.067 78.1739 193.905 78.7883 192.536 80.3738 L 188.335 76.2302 C 190.916 73.3682 193.448 72.549 197.851 72.549 C 205.243 72.549 209.091 75.7202 209.091 81.9581 L 209.091 99.5012 L 202.663 99.5012 Z" />
            <path id="Fill-17" fill="#005d7b" d="M 231.57 99.7549 L 231.57 83.5526 C 231.57 80.0368 229.333 78.8653 227.246 78.8653 C 225.162 78.8653 222.976 80.0881 222.976 83.5526 L 222.976 99.7549 L 216.364 99.7549 L 216.364 63.4804 L 222.976 63.4804 L 222.976 75.6562 C 224.755 73.8225 226.994 72.9051 229.333 72.9051 C 235.131 72.9051 238.182 76.9816 238.182 82.5851 L 238.182 99.7549 L 231.57 99.7549" />
            <polyline id="Fill-18" fill="#005d7b" points="256.364,99.7549 256.364,63.4804 280,63.4804 280,69.7973 263.37,69.7973 263.37,78.3058 277.531,78.3058 277.531,84.6228 263.37,84.6228 263.37,93.4367 280,93.4367 280,99.7549 256.364,99.7549" />
            <path id="Fill-19" fill="#005d7b" d="M 298.155 78.7369 C 294.263 78.7369 293.762 81.9701 293.762 86.2646 C 293.762 90.559 294.263 93.8419 298.155 93.8419 C 302.051 93.8419 302.598 90.559 302.598 86.2646 C 302.598 81.9701 302.051 78.7369 298.155 78.7369 Z M 302.749 99.4521 L 302.749 96.9759 C 300.953 98.994 299.055 99.7549 296.308 99.7549 C 293.762 99.7549 291.367 98.8451 289.917 97.3793 C 287.322 94.7517 287.273 90.2053 287.273 86.2646 C 287.273 82.3251 287.322 77.8271 289.917 75.2008 C 291.367 73.7362 293.713 72.8264 296.259 72.8264 C 298.905 72.8264 300.902 73.5326 302.598 75.4527 L 302.598 63.4804 L 309.091 63.4804 L 309.091 99.4521 L 302.749 99.4521 Z" />
            <path id="Fill-20" fill="#005d7b" d="M 329.963 99.4455 L 329.963 96.9661 C 328.251 98.8253 325.831 99.7549 323.414 99.7549 C 320.795 99.7549 318.678 98.876 317.215 97.3782 C 315.1 95.2108 314.545 92.6807 314.545 89.7398 L 314.545 72.549 L 321.097 72.549 L 321.097 88.8101 C 321.097 92.474 323.362 93.7131 325.43 93.7131 C 327.495 93.7131 329.812 92.474 329.812 88.8101 L 329.812 72.549 L 336.364 72.549 L 336.364 99.4455 L 329.963 99.4455" />
            <path id="Fill-21" fill="#005d7b" d="M 355.144 99.7549 C 350.008 99.7549 343.636 96.8946 343.636 86.1256 C 343.636 75.3554 350.008 72.549 355.144 72.549 C 358.7 72.549 361.365 73.6726 363.636 76.1215 L 359.291 80.6132 C 357.958 79.1336 356.822 78.5204 355.144 78.5204 C 353.613 78.5204 352.427 79.0821 351.49 80.2558 C 350.501 81.5324 350.057 83.3193 350.057 86.1256 C 350.057 88.9332 350.501 90.7703 351.49 92.0468 C 352.427 93.2205 353.613 93.781 355.144 93.781 C 356.822 93.781 357.958 93.1691 359.291 91.6881 L 363.636 96.1297 C 361.365 98.5799 358.7 99.7549 355.144 99.7549" />
            <path id="Fill-22" fill="#005d7b" d="M 382.512 88.2489 L 377.297 88.2489 C 374.916 88.2489 373.601 89.3733 373.601 91.2655 C 373.601 93.1074 374.816 94.3348 377.396 94.3348 C 379.22 94.3348 380.385 94.1816 381.548 93.0558 C 382.257 92.3912 382.512 91.317 382.512 89.6812 L 382.512 88.2489 Z M 382.664 99.5012 L 382.664 97.1969 C 380.89 98.9872 379.22 99.7549 376.184 99.7549 C 373.195 99.7549 371.019 98.9872 369.449 97.4029 C 368.033 95.9191 367.273 93.772 367.273 91.4187 C 367.273 87.1747 370.159 83.697 376.283 83.697 L 382.512 83.697 L 382.512 82.3677 C 382.512 79.4529 381.091 78.1739 377.6 78.1739 C 375.068 78.1739 373.905 78.7883 372.537 80.3738 L 368.336 76.2302 C 370.917 73.3682 373.449 72.549 377.852 72.549 C 385.243 72.549 389.091 75.7202 389.091 81.9581 L 389.091 99.5012 L 382.664 99.5012 Z" />
            <path id="Fill-23" fill="#005d7b" d="M 402.191 99.7549 C 397.323 99.7549 395.255 96.0436 395.255 92.3833 L 395.255 79.621 L 392.727 79.621 L 392.727 74.7249 L 395.255 74.7249 L 395.255 67.1078 L 401.228 67.1078 L 401.228 74.7249 L 405.455 74.7249 L 405.455 79.621 L 401.228 79.621 L 401.228 91.9871 C 401.228 93.4722 401.869 94.3119 403.294 94.3119 L 405.455 94.3119 L 405.455 99.7549 L 402.191 99.7549" />
            <path id="Fill-24" fill="#005d7b" d="M 412.837 99.7549 L 419.946 99.7549 L 419.946 73.3589 L 412.837 73.3589 L 412.837 99.7549 Z M 412.727 68.8509 L 420 68.8509 L 420 63.4804 L 412.727 63.4804 L 412.727 68.8509 Z" />
            <path id="Fill-25" fill="#005d7b" d="M 437.539 79.6941 C 436.796 78.9292 435.805 78.5204 434.521 78.5204 C 433.233 78.5204 432.294 78.9292 431.551 79.6941 C 430.215 81.0734 430.067 83.3694 430.067 86.1256 C 430.067 88.8818 430.215 91.2292 431.551 92.6073 C 432.294 93.3735 433.233 93.781 434.521 93.781 C 435.805 93.781 436.796 93.3735 437.539 92.6073 C 438.875 91.2292 439.023 88.8818 439.023 86.1256 C 439.023 83.3694 438.875 81.0734 437.539 79.6941 Z M 442.536 96.4858 C 440.953 98.2238 438.33 99.7549 434.521 99.7549 C 430.712 99.7549 428.139 98.2238 426.555 96.4858 C 424.23 93.9867 423.636 90.9747 423.636 86.1256 C 423.636 81.328 424.23 78.3159 426.555 75.8156 C 428.139 74.0801 430.712 72.549 434.521 72.549 C 438.33 72.549 440.953 74.0801 442.536 75.8156 C 444.86 78.3159 445.455 81.328 445.455 86.1256 C 445.455 90.9747 444.86 93.9867 442.536 96.4858 Z" />
            <path id="Fill-26" fill="#005d7b" d="M 467.993 99.7549 L 467.993 83.4925 C 467.993 79.8273 465.728 78.5883 463.66 78.5883 C 461.596 78.5883 459.278 79.8273 459.278 83.4925 L 459.278 99.7549 L 452.727 99.7549 L 452.727 72.8585 L 459.127 72.8585 L 459.127 75.3366 C 460.841 73.4786 463.259 72.549 465.676 72.549 C 468.296 72.549 470.413 73.4266 471.875 74.9231 C 473.99 77.0918 474.545 79.6206 474.545 82.5629 L 474.545 99.7549 L 467.993 99.7549" />
            <path id="Fill-27" fill="#005d7b" d="M 495.239 88.2489 L 490.024 88.2489 C 487.643 88.2489 486.328 89.3733 486.328 91.2655 C 486.328 93.1074 487.543 94.3348 490.124 94.3348 C 491.946 94.3348 493.112 94.1816 494.275 93.0558 C 494.985 92.3912 495.239 91.317 495.239 89.6812 L 495.239 88.2489 Z M 495.39 99.5012 L 495.39 97.1969 C 493.618 98.9872 491.946 99.7549 488.91 99.7549 C 485.923 99.7549 483.746 98.9872 482.177 97.4029 C 480.76 95.9191 480 93.772 480 91.4187 C 480 87.1747 482.887 83.697 489.011 83.697 L 495.239 83.697 L 495.239 82.3677 C 495.239 79.4529 493.819 78.1739 490.328 78.1739 C 487.795 78.1739 486.632 78.7883 485.265 80.3738 L 481.063 76.2302 C 483.644 73.3682 486.177 72.549 490.579 72.549 C 497.971 72.549 501.818 75.7202 501.818 81.9581 L 501.818 99.5012 L 495.39 99.5012 Z" />
            <path id="Fill-28" fill="#005d7b" d="M 516.429 99.7549 C 511.264 99.7549 509.091 95.9324 509.091 92.1625 L 509.091 63.4804 L 515.367 63.4804 L 515.367 91.7545 C 515.367 93.334 515.994 94.1488 517.588 94.1488 L 520 94.1488 L 520 99.7549 L 516.429 99.7549" />
            <path id="Fill-29" fill="#005d7b" d="M 149.898 148.725 C 144.275 148.725 140.008 147.575 136.364 144.014 L 141.05 139.504 C 143.393 141.762 146.567 142.511 150.001 142.511 C 154.269 142.511 156.56 140.958 156.56 138.105 C 156.56 136.85 156.193 135.798 155.413 135.097 C 154.686 134.446 153.851 134.094 152.136 133.845 L 147.658 133.243 C 144.483 132.79 142.143 131.839 140.476 130.285 C 138.706 128.583 137.821 126.279 137.821 123.271 C 137.821 116.907 142.714 112.451 150.73 112.451 C 155.83 112.451 159.524 113.654 162.699 116.607 L 158.119 120.967 C 155.779 118.813 152.967 118.511 150.52 118.511 C 146.67 118.511 144.795 120.564 144.795 123.02 C 144.795 123.921 145.107 124.875 145.888 125.578 C 146.619 126.229 147.814 126.778 149.324 126.978 L 153.697 127.58 C 157.079 128.033 159.212 128.935 160.773 130.336 C 162.753 132.139 163.636 134.748 163.636 137.903 C 163.636 144.818 157.651 148.725 149.898 148.725" />
            <path id="Fill-30" fill="#005d7b" d="M 180.693 137.22 L 175.478 137.22 C 173.097 137.22 171.783 138.345 171.783 140.237 C 171.783 142.079 172.998 143.306 175.578 143.306 C 177.401 143.306 178.566 143.153 179.729 142.029 C 180.439 141.364 180.693 140.287 180.693 138.651 L 180.693 137.22 Z M 180.845 148.472 L 180.845 146.169 C 179.071 147.96 177.401 148.725 174.365 148.725 C 171.376 148.725 169.2 147.96 167.631 146.376 C 166.213 144.891 165.455 142.742 165.455 140.39 C 165.455 136.146 168.34 132.669 174.464 132.669 L 180.693 132.669 L 180.693 131.339 C 180.693 128.423 179.274 127.145 175.782 127.145 C 173.249 127.145 172.086 127.758 170.719 129.344 L 166.518 125.202 C 169.098 122.339 171.63 121.52 176.034 121.52 C 183.424 121.52 187.273 124.69 187.273 130.928 L 187.273 148.472 L 180.845 148.472 Z" />
            <polyline id="Fill-31" fill="#005d7b" points="206.341,148.725 200.986,148.725 190.909,121.52 198.099,121.52 203.663,138.334 209.172,121.52 216.364,121.52 206.341,148.725" />
            <path id="Fill-32" fill="#005d7b" d="M 220.11 148.725 L 227.219 148.725 L 227.219 122.33 L 220.11 122.33 L 220.11 148.725 Z M 220 117.822 L 227.273 117.822 L 227.273 112.451 L 220 112.451 L 220 117.822 Z" />
            <path id="Fill-33" fill="#005d7b" d="M 247.994 148.725 L 247.994 132.465 C 247.994 128.797 245.729 127.558 243.661 127.558 C 241.596 127.558 239.279 128.797 239.279 132.465 L 239.279 148.725 L 232.727 148.725 L 232.727 121.829 L 239.128 121.829 L 239.128 124.307 C 240.84 122.448 243.26 121.52 245.677 121.52 C 248.296 121.52 250.413 122.397 251.876 123.894 C 253.991 126.063 254.545 128.592 254.545 131.535 L 254.545 148.725 L 247.994 148.725" />
            <path id="Fill-34" fill="#005d7b" d="M 272.701 127.38 C 268.803 127.38 268.398 130.687 268.398 134.146 C 268.398 137.604 268.803 140.96 272.701 140.96 C 276.602 140.96 277.054 137.604 277.054 134.146 C 277.054 130.687 276.602 127.38 272.701 127.38 Z M 272.044 157.794 C 267.995 157.794 265.21 156.99 262.476 154.388 L 266.577 150.277 C 268.044 151.681 269.513 152.283 271.74 152.283 C 275.69 152.283 277.054 149.527 277.054 146.871 L 277.054 144.214 C 275.334 146.119 273.362 146.821 270.778 146.821 C 268.196 146.821 265.97 145.969 264.5 144.514 C 262.02 142.06 261.818 138.703 261.818 134.146 C 261.818 129.586 262.02 126.278 264.5 123.824 C 265.97 122.371 268.246 121.52 270.828 121.52 C 273.613 121.52 275.436 122.27 277.258 124.274 L 277.258 121.82 L 283.636 121.82 L 283.636 146.972 C 283.636 153.234 279.131 157.794 272.044 157.794 Z" />
            <path id="Fill-35" fill="#005d7b" d="M 300.025 148.725 C 295.986 148.725 292.343 148.265 289.091 144.896 L 293.277 140.557 C 295.396 142.751 298.154 143.059 300.124 143.059 C 302.338 143.059 304.654 142.295 304.654 140.304 C 304.654 138.975 303.964 138.056 301.946 137.853 L 297.908 137.443 C 293.277 136.987 290.422 134.892 290.422 129.992 C 290.422 124.479 295.099 121.52 300.32 121.52 C 304.31 121.52 307.658 122.232 310.12 124.633 L 306.181 128.765 C 304.702 127.39 302.437 126.981 300.221 126.981 C 297.661 126.981 296.578 128.206 296.578 129.534 C 296.578 130.503 296.972 131.626 299.237 131.829 L 303.276 132.239 C 308.349 132.748 310.909 135.556 310.909 140.048 C 310.909 145.918 306.082 148.725 300.025 148.725" />
            <path id="Fill-36" fill="#005d7b" d="M 341.632 118.767 L 334.693 118.767 L 334.693 128.702 L 341.632 128.702 C 344.992 128.702 347.127 126.714 347.127 123.759 C 347.127 120.805 344.992 118.767 341.632 118.767 Z M 342.004 135.071 L 334.693 135.071 L 334.693 148.725 L 327.273 148.725 L 327.273 112.451 L 342.004 112.451 C 349.849 112.451 354.545 117.594 354.545 123.759 C 354.545 129.925 349.849 135.071 342.004 135.071 Z" />
            <path id="Fill-37" fill="#005d7b" d="M 365.52 148.725 C 360.355 148.725 358.182 144.903 358.182 141.133 L 358.182 112.451 L 364.458 112.451 L 364.458 140.727 C 364.458 142.307 365.086 143.12 366.679 143.12 L 369.091 143.12 L 369.091 148.725 L 365.52 148.725" />
            <path id="Fill-38" fill="#005d7b" d="M 387.965 137.22 L 382.751 137.22 C 380.37 137.22 379.055 138.345 379.055 140.237 C 379.055 142.079 380.27 143.306 382.851 143.306 C 384.673 143.306 385.838 143.153 387.002 142.029 C 387.711 141.364 387.965 140.287 387.965 138.651 L 387.965 137.22 Z M 388.118 148.472 L 388.118 146.169 C 386.345 147.96 384.673 148.725 381.638 148.725 C 378.65 148.725 376.473 147.96 374.904 146.376 C 373.487 144.891 372.727 142.742 372.727 140.39 C 372.727 136.146 375.614 132.669 381.738 132.669 L 387.965 132.669 L 387.965 131.339 C 387.965 128.423 386.546 127.145 383.055 127.145 C 380.523 127.145 379.359 127.758 377.992 129.344 L 373.791 125.202 C 376.371 122.339 378.903 121.52 383.306 121.52 C 390.697 121.52 394.545 124.69 394.545 130.928 L 394.545 148.472 L 388.118 148.472 Z" />
            <path id="Fill-39" fill="#005d7b" d="M 417.085 148.725 L 417.085 132.465 C 417.085 128.797 414.819 127.558 412.752 127.558 C 410.687 127.558 408.37 128.797 408.37 132.465 L 408.37 148.725 L 401.818 148.725 L 401.818 121.829 L 408.219 121.829 L 408.219 124.307 C 409.931 122.448 412.351 121.52 414.767 121.52 C 417.387 121.52 419.504 122.397 420.967 123.894 C 423.082 126.063 423.636 128.592 423.636 131.535 L 423.636 148.725 L 417.085 148.725" />
            <path id="Fill-40" fill="#005d7b" d="M 434.828 117.262 L 433.623 117.262 L 433.623 119.265 L 434.828 119.265 C 435.47 119.265 435.892 118.804 435.892 118.261 C 435.892 117.721 435.47 117.262 434.828 117.262 Z M 435.852 123.554 L 434.447 120.568 L 433.623 120.568 L 433.623 123.554 L 431.895 123.554 L 431.895 115.837 L 435.048 115.837 C 436.617 115.837 437.62 116.978 437.62 118.261 C 437.62 119.326 436.937 120.004 436.194 120.307 L 437.82 123.554 L 435.852 123.554 Z M 434.545 114.073 C 431.413 114.073 429 116.478 429 119.706 C 429 122.932 431.413 125.338 434.545 125.338 C 437.681 125.338 440.092 122.932 440.092 119.706 C 440.092 116.478 437.681 114.073 434.545 114.073 Z M 434.545 126.961 C 430.528 126.961 427.273 123.714 427.273 119.706 C 427.273 115.696 430.528 112.451 434.545 112.451 C 438.566 112.451 441.818 115.696 441.818 119.706 C 441.818 123.714 438.566 126.961 434.545 126.961 Z" />
        </g>
    </g>
</svg>