<?xml version="1.0" encoding="UTF-8"?>
<svg width="399px" height="283px" viewBox="0 0 399 283" version="1.1" xmlns="http://www.w3.org/2000/svg" xmlns:xlink="http://www.w3.org/1999/xlink">
    <!-- Generator: Sketch 48.2 (47327) - http://www.bohemiancoding.com/sketch -->
    <title>workers-compensation-fund</title>
    <desc>Created with Sketch.</desc>
    <defs>
        <polygon id="path-1" points="0.06 0.685 398.45 0.685 398.45 282.94 0.06 282.94"></polygon>
    </defs>
    <g id="Welcome" stroke="none" stroke-width="1" fill="none" fill-rule="evenodd">
        <g id="Workers-Compensation-Fund">
            <g id="Group-3">
                <mask id="mask-2" fill="white">
                    <use xlink:href="#path-1"></use>
                </mask>
                <g id="Clip-2"></g>
                <polygon id="Fill-1" fill="#AB3B31" mask="url(#mask-2)" points="0.06 282.94 398.45 282.94 398.45 0.685 0.06 0.685"></polygon>
            </g>
            <path d="M155.506,134.863 L176.076,87.009 C176.852,85.192 178.407,81.315 178.407,79.893 C178.407,77.69 176.852,77.433 172.713,76.786 C171.676,76.658 170.772,76.401 170.772,74.845 C170.772,73.165 172.584,73.165 174.003,73.165 C175.558,73.165 180.215,73.684 183.706,73.684 C188.235,73.684 191.342,73.165 192.507,73.165 C193.15,73.165 194.83,73.165 194.83,74.979 C194.83,76.658 193.283,76.786 189.915,77.176 C187.07,77.561 185.391,77.69 180.862,88.428 L153.18,153.62 C152.534,155.432 152.014,156.212 150.982,156.212 C149.817,156.212 149.041,155.56 148.005,152.844 L134.294,119.734 L118.643,152.454 C117.221,155.56 116.574,156.212 115.541,156.212 C114.242,156.212 113.472,154.913 112.563,152.973 L81.775,84.679 C78.929,78.208 77.379,77.561 74.791,77.176 C70.519,76.529 70.001,76.529 70.001,74.979 C70.001,73.165 71.946,73.165 72.85,73.165 C75.31,73.165 80.609,73.684 85.657,73.684 C91.475,73.684 98.201,73.165 99.238,73.165 C100.661,73.165 102.473,73.165 102.473,74.979 C102.473,76.658 100.789,76.919 98.591,76.919 C97.944,77.047 95.614,77.176 95.614,78.86 C95.614,80.406 96.65,82.613 96.912,83.127 L120.84,135.903 L130.93,116.371 C131.32,115.595 131.449,115.206 131.449,114.819 C131.449,114.301 131.192,113.526 130.802,112.75 L118.253,85.069 C115.541,79.118 114.375,77.561 112.173,77.176 C108.681,76.658 107.387,76.529 107.387,74.979 C107.387,73.165 109.071,73.165 110.104,73.165 C112.045,73.165 121.616,73.684 123.814,73.684 C125.626,73.684 134.422,73.165 136.363,73.165 C136.753,73.165 138.438,73.165 138.438,74.845 C138.438,76.786 135.069,76.919 133.775,76.919 C131.963,77.047 130.93,77.433 130.93,78.47 C130.93,79.118 131.578,81.443 132.225,82.999 L139.855,99.687 L147.486,83.645 C148.005,82.347 148.913,80.406 148.913,79.374 C148.913,77.823 147.486,77.047 144.641,76.529 C143.347,76.401 142.575,76.015 142.575,74.722 C142.575,73.295 143.609,73.165 144.769,73.165 C146.32,73.165 151.886,73.684 155.378,73.684 C158.351,73.684 161.329,73.165 162.494,73.165 C163.788,73.165 165.468,73.165 165.468,74.979 C165.468,76.401 163.917,76.919 160.815,77.176 C156.928,77.304 155.896,77.956 151.757,86.101 L143.09,103.05 C142.705,103.692 142.705,104.339 142.705,104.729 C142.705,105.248 143.09,106.024 143.737,107.575 L155.506,134.863" id="Fill-4" fill="#FFFFFE"></path>
            <path d="M260.19,89.92 C260.19,91.214 260.19,92.118 258.635,92.118 C257.731,92.118 256.955,91.856 255.533,89.787 C250.875,82.804 246.089,76.725 234.187,76.725 C212.975,76.725 203.146,97.418 203.146,113.978 C203.146,132.088 213.75,152.777 233.284,152.777 C245.181,152.777 250.875,145.537 256.308,135.576 C256.566,135.062 257.598,133.12 258.896,133.12 C260.837,133.12 260.837,134.287 260.837,135.19 L259.8,146.184 C259.667,147.996 259.415,149.158 256.698,150.713 C254.629,152.002 245.961,156.013 232.894,156.013 C200.169,156.013 185.807,130.923 185.807,114.497 C185.807,96.518 201.33,73.361 235.096,73.361 C241.047,73.361 243.245,73.746 252.037,75.168 C257.86,76.205 258.507,77.371 259.025,80.863 L260.19,89.92" id="Fill-5" fill="#FFFFFE"></path>
            <path d="M279.812,87.332 C279.812,82.028 279.812,78.537 273.342,78.147 C270.625,77.89 268.685,77.757 268.685,75.953 C268.685,74.141 270.369,74.141 271.272,74.141 C271.534,74.141 271.662,74.265 274.893,74.398 C278.257,74.526 284.598,74.654 297.4,74.654 L298.955,74.654 C312.408,74.654 319.135,74.526 322.498,74.398 C325.99,74.265 326.119,74.141 326.252,74.141 C328.321,74.141 328.449,74.783 328.449,76.467 L328.449,90.177 C328.449,90.567 328.449,92.636 327.022,92.636 C325.6,92.636 324.7,90.696 324.44,90.049 C321.337,82.933 319.267,78.665 300.249,78.665 C295.853,78.665 293.656,78.922 293.656,85.006 L293.656,102.208 C293.656,109.192 294.036,109.321 295.72,109.582 C297.665,109.839 301.671,109.839 303.611,109.839 C314.092,109.839 315.515,106.865 317.584,100.267 C317.841,99.235 318.359,98.202 319.654,98.202 C320.947,98.202 321.209,99.107 321.209,100.396 C321.209,102.208 320.819,111.004 320.819,112.941 C320.819,114.11 320.819,116.309 321.076,119.282 L321.594,125.362 C321.594,126.27 321.594,127.821 320.043,127.821 C318.749,127.821 318.097,126.66 317.969,125.752 C317.712,125.105 316.804,121.484 316.547,120.833 C314.738,113.853 306.457,113.853 303.226,113.853 C293.656,113.853 293.656,113.853 293.656,119.933 L293.656,141.917 C293.656,146.955 293.656,150.842 299.607,151.231 C303.355,151.355 305.168,151.488 305.168,153.424 C305.168,155.237 303.484,155.237 302.451,155.237 C298.05,155.237 291.196,154.723 286.8,154.723 C282.529,154.723 275.673,155.237 271.405,155.237 C270.369,155.237 268.685,155.237 268.685,153.3 C268.685,151.488 270.625,151.355 273.342,151.231 C279.812,150.713 279.812,147.345 279.812,142.04 L279.812,87.332" id="Fill-6" fill="#FFFFFE"></path>
            <path d="M53.183,173.121 L345.262,173.121 L345.258,56.256 L53.183,56.256 L53.183,173.121 Z M346.401,174.256 L346.401,173.121 L346.401,174.256 Z M50.916,175.39 L347.533,175.39 L347.533,53.983 L50.916,53.983 L50.916,175.39 Z" id="Fill-7" fill="#FFFFFE"></path>
            <path d="M51.189,204.129 C51.106,202.028 51.016,199.888 50.916,197.705 C51.346,197.772 51.76,197.828 52.157,197.878 C52.554,197.928 52.95,197.952 53.348,197.952 C53.744,197.952 54.141,197.928 54.538,197.878 C54.935,197.828 55.348,197.772 55.778,197.705 C55.679,199.888 55.588,202.028 55.505,204.129 C55.423,206.23 55.381,208.371 55.381,210.553 L55.381,219.087 C55.381,221.269 55.423,223.42 55.505,225.536 C55.588,227.652 55.679,229.736 55.778,231.787 C55.017,231.72 54.207,231.688 53.348,231.688 C52.487,231.688 51.677,231.72 50.916,231.787 C51.016,229.736 51.106,227.652 51.189,225.536 C51.271,223.42 51.313,221.269 51.313,219.087 L51.313,210.553 C51.313,208.371 51.271,206.23 51.189,204.129" id="Fill-8" fill="#FFFFFE"></path>
            <path d="M84.354,218.913 C80.054,214.299 75.754,209.71 71.455,205.145 C71.422,206.072 71.389,207.313 71.356,208.867 C71.323,210.422 71.307,212.538 71.307,215.217 C71.307,215.912 71.314,216.771 71.331,217.797 C71.347,218.822 71.364,219.897 71.381,221.021 C71.397,222.146 71.422,223.287 71.455,224.444 C71.488,225.603 71.521,226.677 71.555,227.67 C71.587,228.662 71.62,229.53 71.653,230.273 C71.686,231.018 71.72,231.523 71.753,231.787 C71.224,231.72 70.645,231.688 70.017,231.688 C69.355,231.688 68.743,231.72 68.181,231.787 C68.247,231.456 68.321,230.844 68.404,229.951 C68.486,229.059 68.561,227.991 68.627,226.752 C68.693,225.511 68.768,224.164 68.851,222.708 C68.933,221.253 68.999,219.798 69.049,218.343 C69.099,216.887 69.14,215.464 69.173,214.075 C69.205,212.686 69.223,211.447 69.223,210.355 C69.223,207.18 69.214,204.451 69.198,202.169 C69.181,199.888 69.14,198.184 69.074,197.06 L69.867,197.06 C71.884,199.242 74.043,201.583 76.342,204.08 C78.64,206.577 80.922,209.04 83.188,211.472 C85.453,213.902 87.603,216.201 89.637,218.366 C91.671,220.534 93.449,222.378 94.971,223.899 L94.971,217.151 C94.971,213.679 94.946,210.298 94.896,207.007 C94.846,203.716 94.739,200.615 94.573,197.705 C95.235,197.871 95.796,197.952 96.26,197.952 C96.657,197.952 97.186,197.871 97.848,197.705 C97.781,198.432 97.707,199.523 97.625,200.979 C97.542,202.434 97.459,203.988 97.377,205.642 C97.294,207.296 97.219,208.916 97.153,210.505 C97.086,212.091 97.054,213.365 97.054,214.324 C97.054,215.152 97.054,216.144 97.054,217.301 C97.054,218.425 97.062,219.599 97.079,220.824 C97.095,222.047 97.111,223.279 97.129,224.519 C97.145,225.76 97.161,226.917 97.178,227.991 C97.194,229.066 97.203,230.001 97.203,230.794 C97.203,231.523 97.203,232.067 97.203,232.432 L96.508,232.432 C92.704,228.033 88.653,223.526 84.354,218.913" id="Fill-9" fill="#FFFFFE"></path>
            <path d="M110.622,227.149 C111.068,227.761 111.614,228.314 112.259,228.81 C112.904,229.306 113.656,229.712 114.516,230.025 C115.376,230.34 116.335,230.497 117.394,230.497 C118.485,230.497 119.469,230.307 120.345,229.927 C121.221,229.547 121.966,229.033 122.578,228.388 C123.189,227.744 123.661,226.984 123.992,226.107 C124.322,225.23 124.488,224.296 124.488,223.304 C124.488,221.783 124.099,220.575 123.322,219.682 C122.545,218.789 121.577,218.045 120.42,217.449 C119.262,216.854 118.014,216.309 116.674,215.812 C115.335,215.317 114.086,214.696 112.929,213.951 C111.771,213.207 110.803,212.257 110.027,211.099 C109.249,209.942 108.861,208.388 108.861,206.436 C108.861,205.048 109.109,203.782 109.605,202.64 C110.101,201.5 110.82,200.515 111.763,199.688 C112.705,198.863 113.838,198.218 115.161,197.754 C116.484,197.292 117.972,197.06 119.626,197.06 C121.214,197.06 122.586,197.251 123.744,197.631 C124.901,198.011 125.976,198.598 126.968,199.391 C126.671,199.953 126.423,200.55 126.224,201.177 C126.026,201.806 125.827,202.599 125.629,203.559 L125.034,203.559 C124.868,203.096 124.645,202.591 124.364,202.046 C124.083,201.5 123.702,200.995 123.223,200.533 C122.743,200.069 122.172,199.682 121.512,199.367 C120.85,199.052 120.056,198.895 119.13,198.895 C118.204,198.895 117.352,199.044 116.575,199.341 C115.797,199.64 115.12,200.062 114.541,200.607 C113.962,201.152 113.516,201.806 113.202,202.567 C112.887,203.327 112.73,204.153 112.73,205.048 C112.73,206.602 113.119,207.825 113.896,208.718 C114.673,209.61 115.641,210.363 116.799,210.976 C117.956,211.588 119.205,212.134 120.544,212.612 C121.883,213.092 123.131,213.679 124.289,214.374 C125.447,215.068 126.414,215.961 127.191,217.053 C127.969,218.144 128.358,219.599 128.358,221.418 C128.358,222.94 128.085,224.379 127.539,225.734 C126.993,227.09 126.2,228.273 125.158,229.281 C124.116,230.291 122.842,231.067 121.338,231.614 C119.833,232.159 118.121,232.432 116.203,232.432 C114.152,232.432 112.49,232.159 111.217,231.614 C109.944,231.067 108.877,230.447 108.017,229.753 C108.315,228.992 108.521,228.306 108.638,227.694 C108.753,227.081 108.861,226.297 108.96,225.337 L109.555,225.337 C109.82,225.933 110.176,226.537 110.622,227.149" id="Fill-10" fill="#FFFFFE"></path>
            <path d="M164.722,202.964 C164.689,200.417 164.606,198.664 164.474,197.705 C164.838,197.772 165.185,197.828 165.516,197.878 C165.846,197.928 166.177,197.952 166.508,197.952 C166.938,197.952 167.434,197.871 167.996,197.705 C167.897,198.863 167.798,200.243 167.699,201.847 C167.6,203.452 167.516,205.171 167.45,207.007 C167.384,208.842 167.318,210.727 167.253,212.662 C167.185,214.596 167.135,216.474 167.103,218.293 C167.07,220.509 166.732,222.493 166.086,224.247 C165.441,225.999 164.523,227.487 163.333,228.712 C162.142,229.935 160.679,230.86 158.943,231.489 C157.206,232.117 155.213,232.432 152.965,232.432 C148.004,232.432 144.398,231.308 142.15,229.059 C139.9,226.81 138.776,223.254 138.776,218.393 C138.776,216.838 138.817,215.458 138.9,214.249 C138.982,213.042 139.024,211.811 139.024,210.553 C139.024,207.776 138.991,205.312 138.925,203.161 C138.858,201.012 138.792,199.194 138.727,197.705 C139.123,197.772 139.553,197.828 140.016,197.878 C140.479,197.928 140.909,197.952 141.306,197.952 C141.67,197.952 142.025,197.928 142.373,197.878 C142.72,197.828 143.075,197.772 143.44,197.705 C143.373,198.432 143.307,199.383 143.241,200.557 C143.174,201.731 143.109,203.063 143.042,204.551 C142.976,206.04 142.926,207.644 142.894,209.363 C142.861,211.083 142.844,212.868 142.844,214.721 C142.844,215.845 142.861,217.012 142.894,218.219 C142.926,219.426 143.042,220.6 143.241,221.741 C143.44,222.881 143.762,223.973 144.208,225.015 C144.655,226.057 145.291,226.966 146.118,227.744 C146.945,228.521 147.986,229.133 149.244,229.58 C150.501,230.025 152.055,230.248 153.907,230.248 C155.726,230.248 157.256,229.985 158.496,229.455 C159.736,228.926 160.753,228.232 161.547,227.371 C162.341,226.512 162.961,225.52 163.407,224.394 C163.854,223.271 164.177,222.097 164.374,220.872 C164.573,219.649 164.689,218.425 164.722,217.201 C164.754,215.979 164.772,214.853 164.772,213.828 C164.772,209.133 164.754,205.51 164.722,202.964" id="Fill-11" fill="#FFFFFE"></path>
            <path d="M186.575,213.58 C187.121,213.613 187.725,213.629 188.387,213.629 C189.411,213.629 190.478,213.514 191.586,213.283 C192.694,213.051 193.711,212.646 194.637,212.067 C195.563,211.488 196.331,210.711 196.944,209.735 C197.555,208.759 197.861,207.528 197.861,206.04 C197.861,204.749 197.622,203.682 197.143,202.839 C196.662,201.996 196.043,201.326 195.282,200.83 C194.521,200.333 193.695,199.994 192.802,199.813 C191.909,199.632 191.032,199.541 190.172,199.541 C189.014,199.541 188.056,199.565 187.295,199.615 C186.534,199.665 185.888,199.722 185.36,199.788 C185.294,201.607 185.227,203.41 185.161,205.195 C185.095,206.982 185.063,208.768 185.063,210.553 L185.063,213.381 C185.525,213.48 186.03,213.548 186.575,213.58 Z M180.87,204.129 C180.788,202.028 180.696,199.888 180.598,197.705 C181.556,197.772 182.499,197.828 183.426,197.878 C184.351,197.928 185.294,197.952 186.253,197.952 C187.213,197.952 188.155,197.911 189.081,197.828 C190.006,197.746 190.949,197.705 191.909,197.705 C193.298,197.705 194.62,197.837 195.878,198.102 C197.134,198.367 198.234,198.805 199.177,199.416 C200.119,200.029 200.863,200.83 201.409,201.822 C201.955,202.814 202.228,204.055 202.228,205.543 C202.228,207.13 201.872,208.495 201.161,209.636 C200.449,210.777 199.582,211.72 198.556,212.464 C197.53,213.207 196.431,213.787 195.258,214.2 C194.082,214.614 193.017,214.887 192.057,215.018 C192.455,215.514 193,216.209 193.695,217.102 C194.39,217.995 195.166,218.98 196.026,220.054 C196.886,221.13 197.779,222.254 198.705,223.427 C199.631,224.602 200.524,225.727 201.384,226.801 C202.244,227.876 203.054,228.859 203.815,229.753 C204.575,230.646 205.187,231.324 205.651,231.787 C205.155,231.72 204.659,231.688 204.163,231.688 C203.667,231.688 203.17,231.688 202.674,231.688 C202.21,231.688 201.732,231.688 201.236,231.688 C200.74,231.688 200.259,231.72 199.797,231.787 C199.301,231.093 198.547,230.051 197.539,228.662 C196.53,227.272 195.414,225.783 194.191,224.197 C192.967,222.609 191.718,221.03 190.446,219.458 C189.171,217.888 188.006,216.556 186.948,215.464 L185.063,215.464 L185.063,219.087 C185.063,221.269 185.104,223.42 185.186,225.536 C185.269,227.652 185.36,229.736 185.46,231.787 C184.698,231.72 183.888,231.688 183.029,231.688 C182.168,231.688 181.358,231.72 180.598,231.787 C180.696,229.736 180.788,227.652 180.87,225.536 C180.952,223.42 180.995,221.269 180.995,219.087 L180.995,210.553 C180.995,208.371 180.952,206.23 180.87,204.129 Z" id="Fill-12" fill="#FFFFFE"></path>
            <path d="M220.185,216.359 C221.045,216.359 221.938,216.375 222.865,216.408 C223.789,216.441 224.683,216.457 225.543,216.457 C226.469,216.457 227.395,216.45 228.322,216.432 C229.247,216.416 230.173,216.391 231.1,216.359 L225.593,203.757 L220.185,216.359 Z M242.162,231.787 C241.699,231.72 241.261,231.688 240.848,231.688 C240.434,231.688 239.996,231.688 239.533,231.688 C239.069,231.688 238.632,231.688 238.218,231.688 C237.805,231.688 237.367,231.72 236.904,231.787 C236.672,231.027 236.358,230.108 235.961,229.033 C235.565,227.958 235.125,226.834 234.647,225.66 C234.167,224.487 233.68,223.296 233.183,222.088 C232.687,220.881 232.223,219.732 231.795,218.64 C230.735,218.607 229.661,218.582 228.569,218.566 C227.478,218.549 226.387,218.54 225.295,218.54 C224.269,218.54 223.261,218.549 222.269,218.566 C221.277,218.582 220.268,218.607 219.243,218.64 C218.184,221.22 217.224,223.676 216.365,226.007 C215.505,228.338 214.86,230.266 214.431,231.787 C213.868,231.72 213.257,231.688 212.594,231.688 C211.932,231.688 211.321,231.72 210.759,231.787 C213.438,225.999 216.05,220.244 218.597,214.522 C221.145,208.801 223.708,202.98 226.288,197.06 L227.23,197.06 C228.023,198.979 228.884,201.054 229.81,203.285 C230.735,205.519 231.677,207.776 232.638,210.057 C233.596,212.34 234.556,214.605 235.515,216.854 C236.473,219.103 237.375,221.195 238.218,223.13 C239.062,225.065 239.823,226.793 240.501,228.314 C241.178,229.836 241.733,230.993 242.162,231.787 Z" id="Fill-13" fill="#FFFFFE"></path>
            <path d="M267.117,218.913 C262.817,214.299 258.517,209.71 254.218,205.145 C254.184,206.072 254.151,207.313 254.118,208.867 C254.086,210.422 254.069,212.538 254.069,215.217 C254.069,215.912 254.077,216.771 254.094,217.797 C254.111,218.822 254.127,219.897 254.143,221.021 C254.159,222.146 254.184,223.287 254.218,224.444 C254.251,225.603 254.284,226.677 254.317,227.67 C254.349,228.662 254.383,229.53 254.417,230.273 C254.449,231.018 254.482,231.523 254.515,231.787 C253.986,231.72 253.407,231.688 252.779,231.688 C252.117,231.688 251.506,231.72 250.944,231.787 C251.01,231.456 251.084,230.844 251.167,229.951 C251.249,229.059 251.324,227.991 251.39,226.752 C251.456,225.511 251.531,224.164 251.613,222.708 C251.696,221.253 251.762,219.798 251.812,218.343 C251.862,216.887 251.902,215.464 251.936,214.075 C251.968,212.686 251.986,211.447 251.986,210.355 C251.986,207.18 251.977,204.451 251.961,202.169 C251.943,199.888 251.902,198.184 251.837,197.06 L252.63,197.06 C254.648,199.242 256.805,201.583 259.104,204.08 C261.403,206.577 263.685,209.04 265.951,211.472 C268.216,213.902 270.366,216.201 272.4,218.366 C274.434,220.534 276.212,222.378 277.733,223.899 L277.733,217.151 C277.733,213.679 277.708,210.298 277.658,207.007 C277.61,203.716 277.501,200.615 277.336,197.705 C277.997,197.871 278.559,197.952 279.023,197.952 C279.42,197.952 279.948,197.871 280.61,197.705 C280.544,198.432 280.469,199.523 280.387,200.979 C280.304,202.434 280.222,203.988 280.139,205.642 C280.056,207.296 279.982,208.916 279.916,210.505 C279.85,212.091 279.817,213.365 279.817,214.324 C279.817,215.152 279.817,216.144 279.817,217.301 C279.817,218.425 279.825,219.599 279.842,220.824 C279.858,222.047 279.875,223.279 279.891,224.519 C279.907,225.76 279.923,226.917 279.941,227.991 C279.957,229.066 279.966,230.001 279.966,230.794 C279.966,231.523 279.966,232.067 279.966,232.432 L279.271,232.432 C275.467,228.033 271.416,223.526 267.117,218.913" id="Fill-14" fill="#FFFFFE"></path>
            <path d="M317.644,230.621 C317,230.935 316.222,231.216 315.313,231.464 C314.403,231.712 313.385,231.935 312.262,232.135 C311.137,232.332 309.962,232.432 308.739,232.432 C306.127,232.432 303.712,232.06 301.497,231.315 C299.281,230.572 297.371,229.439 295.767,227.917 C294.161,226.396 292.906,224.535 291.996,222.337 C291.086,220.137 290.632,217.632 290.632,214.82 C290.632,212.009 291.086,209.504 291.996,207.304 C292.906,205.105 294.179,203.244 295.817,201.722 C297.453,200.203 299.413,199.044 301.695,198.25 C303.977,197.457 306.491,197.06 309.235,197.06 C311.419,197.06 313.41,197.283 315.214,197.729 C317.016,198.176 318.612,198.714 320.001,199.341 C319.736,199.806 319.522,200.433 319.356,201.227 C319.191,202.021 319.058,202.683 318.96,203.211 L318.662,203.311 C318.331,202.914 317.868,202.467 317.273,201.971 C316.677,201.475 315.983,200.995 315.189,200.533 C314.395,200.069 313.503,199.682 312.51,199.367 C311.518,199.052 310.427,198.895 309.235,198.895 C307.284,198.895 305.474,199.21 303.803,199.838 C302.133,200.467 300.678,201.434 299.438,202.74 C298.198,204.047 297.23,205.701 296.535,207.701 C295.842,209.703 295.494,212.075 295.494,214.82 C295.494,217.566 295.842,219.938 296.535,221.939 C297.23,223.941 298.198,225.595 299.438,226.9 C300.678,228.207 302.133,229.174 303.803,229.802 C305.474,230.431 307.284,230.745 309.235,230.745 C310.427,230.745 311.525,230.596 312.535,230.298 C313.543,230.001 314.47,229.645 315.313,229.233 C316.156,228.818 316.917,228.372 317.595,227.892 C318.273,227.414 318.843,226.991 319.307,226.628 L319.505,226.825 L319.058,229.753 C318.761,230.018 318.29,230.307 317.644,230.621" id="Fill-15" fill="#FFFFFE"></path>
            <path d="M329.847,204.055 C329.765,201.938 329.674,199.821 329.575,197.705 C331.063,197.772 332.543,197.828 334.015,197.878 C335.487,197.928 336.967,197.952 338.455,197.952 C339.944,197.952 341.414,197.928 342.87,197.878 C344.325,197.828 345.797,197.772 347.286,197.705 C347.186,198.2 347.137,198.696 347.137,199.194 C347.137,199.688 347.186,200.186 347.286,200.68 C346.227,200.615 345.26,200.55 344.384,200.483 C343.507,200.417 342.58,200.35 341.605,200.284 C340.63,200.218 339.563,200.159 338.406,200.111 C337.247,200.062 335.859,200.036 334.238,200.036 C334.205,201.095 334.164,202.104 334.115,203.063 C334.065,204.022 334.04,205.113 334.04,206.337 C334.04,207.626 334.047,208.883 334.065,210.107 C334.081,211.332 334.09,212.257 334.09,212.886 C335.544,212.886 336.851,212.868 338.009,212.836 C339.166,212.803 340.224,212.762 341.183,212.712 C342.143,212.662 343.027,212.612 343.838,212.562 C344.648,212.512 345.417,212.456 346.144,212.389 C346.045,212.886 345.996,213.398 345.996,213.928 C345.996,214.423 346.045,214.92 346.144,215.416 C345.285,215.317 344.284,215.234 343.143,215.167 C342.003,215.102 340.861,215.061 339.72,215.043 C338.58,215.027 337.504,215.011 336.496,214.993 C335.487,214.978 334.685,214.97 334.09,214.97 C334.09,215.267 334.081,215.589 334.065,215.936 C334.047,216.284 334.04,216.722 334.04,217.251 L334.04,222.163 C334.04,224.047 334.047,225.603 334.065,226.825 C334.081,228.05 334.106,228.976 334.139,229.604 C335.23,229.604 336.387,229.604 337.612,229.604 C338.868,229.604 340.1,229.58 341.308,229.53 C342.515,229.48 343.656,229.414 344.731,229.33 C345.806,229.249 346.74,229.124 347.533,228.959 C347.467,229.191 347.426,229.447 347.41,229.727 C347.392,230.01 347.385,230.266 347.385,230.497 C347.385,231.027 347.435,231.456 347.533,231.787 C346.045,231.72 344.565,231.688 343.093,231.688 C341.622,231.688 340.125,231.688 338.604,231.688 C337.082,231.688 335.578,231.688 334.09,231.688 C332.601,231.688 331.095,231.72 329.575,231.787 C329.674,229.671 329.765,227.562 329.847,225.462 C329.93,223.361 329.972,221.22 329.972,219.037 L329.972,210.505 C329.972,208.321 329.93,206.172 329.847,204.055" id="Fill-16" fill="#FFFFFE"></path>
        </g>
    </g>
</svg>