<svg xmlns="http://www.w3.org/2000/svg" viewBox="0 0 520 147" width="520px" height="147px" version="1.1">
    <!-- Generator: Sketch 48.2 (47327) - http://www.bohemiancoding.com/sketch -->
    <title>Academy MC_logo_blue-orange</title>
    <desc>Created with Sketch.</desc>
    <defs>
        <polygon id="path-1" points="0.543507,0.631556 53.6221,0.631556 53.6221,21.6689 0.543507,21.6689" />
        <polygon id="path-3" points="1.70564,0.631556 191.32,0.631556 191.32,21.6689 1.70564,21.6689" />
        <polygon id="path-5" points="1.61121,0.631556 45.5335,0.631556 45.5335,21.6689 1.61121,21.6689" />
        <polygon id="path-7" points="0.690909,0.631556 35.9313,0.631556 35.9313,21.6689 0.690909,21.6689" />
    </defs>
    <g id="Page-1" fill="none" fill-rule="evenodd" stroke="none" stroke-width="1">
        <g id="Academy-MC_logo_blue-orange">
            <g id="Group-4" transform="translate(16.3636 125.222)">
                <mask id="mask-2" fill="white">
                    <use xmlns:xlink="http://www.w3.org/1999/xlink" xlink:href="#path-1" />
                </mask>
                <g id="Clip-2" />
                <polyline id="Fill-1" fill="#00497f" mask="url(&quot;#mask-2&quot;)" points="11.1896,17.5148 18.4812,1.14333 21.8377,1.14333 21.8377,21.2642 19.6442,21.2642 19.6442,3.871 19.5818,3.871 11.7721,21.2642 10.6091,21.2642 2.79935,3.871 2.73701,3.871 2.73701,21.2642 0.543507,21.2642 0.543507,1.14333 3.9,1.14333 11.1896,17.5148" />
                <path id="Fill-3" fill="#00497f" mask="url(&quot;#mask-2&quot;)" d="M 42.3643 2.50807 C 36.8104 2.50807 33.487 6.56963 33.487 11.201 C 33.487 15.8361 36.8104 19.9013 42.3643 19.9013 C 47.9201 19.9013 51.2416 15.8361 51.2416 11.201 C 51.2416 6.56963 47.9201 2.50807 42.3643 2.50807 Z M 42.3643 21.7778 C 35.926 21.7778 31.1084 17.3151 31.1084 11.201 C 31.1084 5.09419 35.926 0.631556 42.3643 0.631556 C 48.8045 0.631556 53.6221 5.09419 53.6221 11.201 C 53.6221 17.3151 48.8045 21.7778 42.3643 21.7778 Z" />
            </g>
            <path id="Fill-5" fill="#00497f" d="M 82.2117 134.047 L 86.1395 134.047 C 90.0946 134.047 91.4463 132.468 91.4463 130.554 C 91.4463 128.633 90.0946 127.08 86.1395 127.08 L 82.2117 127.08 L 82.2117 134.047 Z M 82.2117 145.185 L 80 145.185 L 80 125.222 L 86.6919 125.222 C 91.1094 125.222 93.8383 126.969 93.8383 130.554 C 93.8383 133.316 91.844 135.43 88.2826 135.712 L 94.5455 145.185 L 91.844 145.185 L 85.8926 135.907 L 82.2117 135.907 L 82.2117 145.185 Z" />
            <g id="Group-14" transform="translate(100 125.222)">
                <mask id="mask-4" fill="white">
                    <use xmlns:xlink="http://www.w3.org/1999/xlink" xlink:href="#path-3" />
                </mask>
                <g id="Clip-7" />
                <polyline id="Fill-6" fill="#00497f" mask="url(&quot;#mask-4&quot;)" points="11.0298,21.2642 8.85967,21.2642 8.85967,3.01622 1.70564,3.01622 1.70564,1.14333 18.1857,1.14333 18.1857,3.01622 11.0298,3.01622 11.0298,21.2642" />
                <path id="Fill-8" fill="#00497f" mask="url(&quot;#mask-4&quot;)" d="M 42.1167 4.83467 C 40.6693 3.38463 38.6437 2.50807 36.0207 2.50807 C 30.5241 2.50807 27.2343 6.56963 27.2343 11.201 C 27.2343 15.8361 30.5241 19.9013 36.0207 19.9013 C 38.2236 19.9013 40.334 19.3314 41.9375 18.4803 L 41.9375 11.7473 L 36.834 11.7473 L 36.834 9.86533 L 44.1076 9.86533 L 44.1076 19.7307 C 41.7235 21.0664 38.6168 21.7778 36.0207 21.7778 C 29.6511 21.7778 24.8772 17.3151 24.8772 11.201 C 24.8772 5.09419 29.6511 0.631556 36.0207 0.631556 C 39.4012 0.631556 41.8469 1.54259 43.7472 3.332 L 42.1167 4.83467" />
                <path id="Fill-9" fill="#00497f" mask="url(&quot;#mask-4&quot;)" d="M 57.4424 14.1029 L 66.7145 14.1029 L 62.0929 3.528 L 57.4424 14.1029 Z M 54.2759 21.2642 L 51.7396 21.2642 L 61.0387 1.14333 L 63.1509 1.14333 L 72.4443 21.2642 L 69.9099 21.2642 L 67.5548 15.9813 L 56.631 15.9813 L 54.2759 21.2642 Z" />
                <path id="Fill-10" fill="#00497f" mask="url(&quot;#mask-4&quot;)" d="M 95.9551 4.83467 C 94.5057 3.38463 92.4821 2.50807 89.8572 2.50807 C 84.3606 2.50807 81.0707 6.56963 81.0707 11.201 C 81.0707 15.8361 84.3606 19.9013 89.8572 19.9013 C 92.062 19.9013 94.1704 19.3314 95.7739 18.4803 L 95.7739 11.7473 L 90.6705 11.7473 L 90.6705 9.86533 L 97.944 9.86533 L 97.944 19.7307 C 95.56 21.0664 92.4532 21.7778 89.8572 21.7778 C 83.4856 21.7778 78.7156 17.3151 78.7156 11.201 C 78.7156 5.09419 83.4856 0.631556 89.8572 0.631556 C 93.2395 0.631556 95.6814 1.54259 97.5855 3.332 L 95.9551 4.83467" />
                <polyline id="Fill-11" fill="#00497f" mask="url(&quot;#mask-4&quot;)" points="110.647,19.3895 122.087,19.3895 122.087,21.2642 108.477,21.2642 108.477,1.14333 121.727,1.14333 121.727,3.01622 110.647,3.01622 110.647,9.86533 121,9.86533 121,11.7473 110.647,11.7473 110.647,19.3895" />
                <path id="Fill-12" fill="#00497f" mask="url(&quot;#mask-4&quot;)" d="M 162.016 18.081 C 160.598 20.1553 157.635 21.7778 154.105 21.7778 C 147.735 21.7778 142.967 17.3151 142.967 11.201 C 142.967 5.09419 147.735 0.631556 154.105 0.631556 C 156.761 0.631556 159.626 1.568 161.502 3.81293 L 159.599 5.15044 C 158.751 3.84378 156.369 2.50807 154.105 2.50807 C 148.614 2.50807 145.322 6.56963 145.322 11.201 C 145.322 15.8361 148.614 19.9013 154.105 19.9013 C 156.342 19.9013 158.636 19.2207 160.233 16.8869 L 162.016 18.081" />
                <path id="Fill-13" fill="#00497f" mask="url(&quot;#mask-4&quot;)" d="M 180.181 2.50807 C 174.688 2.50807 171.394 6.56963 171.394 11.201 C 171.394 15.8361 174.688 19.9013 180.181 19.9013 C 185.673 19.9013 188.961 15.8361 188.961 11.201 C 188.961 6.56963 185.673 2.50807 180.181 2.50807 Z M 180.181 21.7778 C 173.813 21.7778 169.041 17.3151 169.041 11.201 C 169.041 5.09419 173.813 0.631556 180.181 0.631556 C 186.548 0.631556 191.32 5.09419 191.32 11.201 C 191.32 17.3151 186.548 21.7778 180.181 21.7778 Z" />
            </g>
            <path id="Fill-15" fill="#00497f" d="M 302.21 134.047 L 306.135 134.047 C 310.097 134.047 311.445 132.468 311.445 130.554 C 311.445 128.633 310.097 127.08 306.135 127.08 L 302.21 127.08 L 302.21 134.047 Z M 302.21 145.185 L 300 145.185 L 300 125.222 L 306.688 125.222 C 311.108 125.222 313.84 126.969 313.84 130.554 C 313.84 133.316 311.843 135.43 308.289 135.712 L 314.545 145.185 L 311.843 145.185 L 305.892 135.907 L 302.21 135.907 L 302.21 145.185 Z" />
            <g id="Group-19" transform="translate(320 125.222)">
                <mask id="mask-6" fill="white">
                    <use xmlns:xlink="http://www.w3.org/1999/xlink" xlink:href="#path-5" />
                </mask>
                <g id="Clip-17" />
                <path id="Fill-16" fill="#00497f" mask="url(&quot;#mask-6&quot;)" d="M 3.82909 10.0377 L 7.40409 10.0377 C 11.3888 10.0377 12.7459 8.44615 12.7459 6.517 C 12.7459 4.58059 11.3888 3.01622 7.40409 3.01622 L 3.82909 3.01622 L 3.82909 10.0377 Z M 1.61121 1.14333 L 7.96348 1.14333 C 12.4032 1.14333 15.1509 2.9037 15.1509 6.517 C 15.1509 10.1249 12.4032 11.9124 7.96348 11.9124 L 3.82909 11.9124 L 3.82909 21.2642 L 1.61121 21.2642 L 1.61121 1.14333 Z" />
                <path id="Fill-18" fill="#00497f" mask="url(&quot;#mask-6&quot;)" d="M 34.1506 2.50807 C 28.5389 2.50807 25.1727 6.56963 25.1727 11.201 C 25.1727 15.8361 28.5389 19.9013 34.1506 19.9013 C 39.7642 19.9013 43.1285 15.8361 43.1285 11.201 C 43.1285 6.56963 39.7642 2.50807 34.1506 2.50807 Z M 34.1506 21.7778 C 27.6447 21.7778 22.7697 17.3151 22.7697 11.201 C 22.7697 5.09419 27.6447 0.631556 34.1506 0.631556 C 40.6585 0.631556 45.5335 5.09419 45.5335 11.201 C 45.5335 17.3151 40.6585 21.7778 34.1506 21.7778 Z" />
            </g>
            <path id="Fill-20" fill="#00497f" d="M 376.756 134.047 L 380.685 134.047 C 384.641 134.047 385.991 132.468 385.991 130.554 C 385.991 128.633 384.641 127.08 380.685 127.08 L 376.756 127.08 L 376.756 134.047 Z M 376.756 145.185 L 374.545 145.185 L 374.545 125.222 L 381.233 125.222 C 385.658 125.222 388.387 126.969 388.387 130.554 C 388.387 133.316 386.393 135.43 382.83 135.712 L 389.091 145.185 L 386.393 145.185 L 380.44 135.907 L 376.756 135.907 L 376.756 145.185 Z" />
            <path id="Fill-21" fill="#00497f" d="M 398.239 138.08 L 407.186 138.08 L 402.727 127.588 L 398.239 138.08 Z M 395.175 145.185 L 392.727 145.185 L 401.703 125.222 L 403.749 125.222 L 412.727 145.185 L 410.281 145.185 L 408.003 139.944 L 397.45 139.944 L 395.175 145.185 Z" />
            <polyline id="Fill-22" fill="#00497f" points="425.625,145.185 423.466,145.185 423.466,127.08 416.364,127.08 416.364,125.222 432.727,125.222 432.727,127.08 425.625,127.08 425.625,145.185" />
            <g id="Group-26" transform="translate(441.818 125.222)">
                <mask id="mask-8" fill="white">
                    <use xmlns:xlink="http://www.w3.org/1999/xlink" xlink:href="#path-7" />
                </mask>
                <g id="Clip-24" />
                <polygon id="Fill-23" fill="#00497f" mask="url(&quot;#mask-8&quot;)" points="0.690909,21.2642 2.96566,21.2642 2.96566,1.14333 0.690909,1.14333" />
                <path id="Fill-25" fill="#00497f" mask="url(&quot;#mask-8&quot;)" d="M 24.2566 2.50807 C 18.497 2.50807 15.0465 6.56963 15.0465 11.201 C 15.0465 15.8361 18.497 19.9013 24.2566 19.9013 C 30.0162 19.9013 33.4626 15.8361 33.4626 11.201 C 33.4626 6.56963 30.0162 2.50807 24.2566 2.50807 Z M 24.2566 21.7778 C 17.5798 21.7778 12.5838 17.3151 12.5838 11.201 C 12.5838 5.09419 17.5798 0.631556 24.2566 0.631556 C 30.9354 0.631556 35.9313 5.09419 35.9313 11.201 C 35.9313 17.3151 30.9354 21.7778 24.2566 21.7778 Z" />
            </g>
            <polyline id="Fill-27" fill="#00497f" points="497.933,142.137 497.989,142.137 497.989,125.222 500,125.222 500,145.185 497.488,145.185 485.699,128.096 485.648,128.096 485.648,145.185 483.636,145.185 483.636,125.222 486.147,125.222 497.933,142.137" />
            <polyline id="Fill-28" fill="#00497f" points="141.818,96.1852 85.3507,0 76.3636,15.3125 123.84,96.1852 141.818,96.1852" />
            <polyline id="Fill-29" fill="#e0562a" points="40,67.1481 58.1798,96.1852 76.3636,67.1481 40,67.1481" />
            <polyline id="Fill-30" fill="#e0562a" points="56.3665,30.7799 94.691,96.1852 112.727,96.1852 56.3665,0 0,96.1852 18.0016,96.1852 56.3665,30.7799" />
            <path id="Fill-31" fill="#e0562a" d="M 187.135 78.9277 L 178.247 57.2632 L 178.111 57.2632 L 169.089 78.9277 L 187.135 78.9277 Z M 175.552 49 L 181.412 49 L 201.818 96.1852 L 194.273 96.1852 L 189.495 84.5232 L 166.798 84.5232 L 162.087 96.1852 L 154.545 96.1852 L 175.552 49 Z" />
            <path id="Fill-32" fill="#e0562a" d="M 244.35 60.6779 C 241.588 57.127 237.031 55.1444 232.545 55.1444 C 221.568 55.1444 214.316 63.8201 214.316 74.815 C 214.316 84.9908 221.151 93.6665 232.545 93.6665 C 238.136 93.6665 242.416 91.2072 245.317 87.1816 L 250.909 91.3415 C 249.462 93.3241 243.59 99.8148 232.407 99.8148 C 216.869 99.8148 207.273 86.9735 207.273 74.815 C 207.273 59.7906 217.701 49 232.751 49 C 239.173 49 245.939 51.3873 249.875 56.5103 L 244.35 60.6779" />
            <path id="Fill-33" fill="#e0562a" d="M 290.773 78.9277 L 281.887 57.2632 L 281.749 57.2632 L 272.725 78.9277 L 290.773 78.9277 Z M 279.192 49 L 285.049 49 L 305.455 96.1852 L 297.911 96.1852 L 293.131 84.5232 L 270.44 84.5232 L 265.725 96.1852 L 258.182 96.1852 L 279.192 49 Z" />
            <path id="Fill-34" fill="#e0562a" d="M 321.03 90.1928 L 329.203 90.1928 C 340.149 90.1928 349.475 84.2574 349.475 72.5954 C 349.475 66.5917 346.303 54.9981 330.76 54.9981 L 321.03 54.9981 L 321.03 90.1928 Z M 314.545 49 L 331.233 49 C 351.434 49 356.364 63.8632 356.364 72.5954 C 356.364 84.658 347.244 96.1852 330.15 96.1852 L 314.545 96.1852 L 314.545 49 Z" />
            <polyline id="Fill-35" fill="#e0562a" points="372.727,49 402.465,49 402.465,54.9981 378.973,54.9981 378.973,69.0619 400.839,69.0619 400.839,75.06 378.973,75.06 378.973,90.1928 403.636,90.1928 403.636,96.1852 372.727,96.1852 372.727,49" />
            <polyline id="Fill-36" fill="#e0562a" points="416.364,49 426.226,49 441.748,84.7226 442.022,84.7226 457.409,49 467.273,49 467.273,96.1852 460.651,96.1852 460.651,57.3981 460.514,57.3981 444.026,96.1852 439.61,96.1852 423.121,57.3981 422.985,57.3981 422.985,96.1852 416.364,96.1852 416.364,49" />
            <polyline id="Fill-37" fill="#e0562a" points="494.869,76.0606 476.364,49 484.861,49 498.181,69.7284 511.922,49 520,49 501.495,76.0606 501.495,96.1852 494.869,96.1852 494.869,76.0606" />
        </g>
    </g>
</svg>