<svg xmlns="http://www.w3.org/2000/svg" viewBox="0 0 396 171" width="396px" height="171px" version="1.1">
    <!-- Generator: Sketch 48.2 (47327) - http://www.bohemiancoding.com/sketch -->
    <title>Bear River Mutual</title>
    <desc>Created with Sketch.</desc>
    <defs>
        <polygon id="path-1" points="0.0345852,0.154303 395.993,0.154303 395.993,171 0.0345852,171" />
    </defs>
    <g id="Page-1" fill="none" fill-rule="evenodd" stroke="none" stroke-width="1">
        <g id="Bear-River-Mutual">
            <g id="Group-4">
                <mask id="mask-2" fill="white">
                    <use xmlns:xlink="http://www.w3.org/1999/xlink" xlink:href="#path-1" />
                </mask>
                <g id="Clip-2" />
                <path id="Fill-1" fill="#152234" mask="url(&quot;#mask-2&quot;)" d="M 395.993 85.5771 C 395.993 132.755 307.347 171 197.997 171 C 88.6458 171 0 132.755 0 85.5771 C 0 38.3996 88.6458 0.154303 197.997 0.154303 C 307.347 0.154303 395.993 38.3996 395.993 85.5771" />
                <path id="Stroke-3" mask="url(&quot;#mask-2&quot;)" stroke="#a48a55" stroke-width="2.761" d="M 390.512 85.5771 C 390.512 130.589 304.32 167.079 197.997 167.079 C 91.6731 167.079 5.48117 130.589 5.48117 85.5771 C 5.48117 40.565 91.6731 4.07521 197.997 4.07521 C 304.32 4.07521 390.512 40.565 390.512 85.5771 Z" />
            </g>
            <polyline id="Fill-5" fill="#a38855" points="114,97 114,79 122.637,79 122.637,81.6917 117.224,81.6917 117.224,86.3307 121.386,86.3307 121.386,89.023 117.224,89.023 117.224,94.3083 123,94.3083 123,97 114,97" />
            <path id="Fill-6" fill="#a38855" d="M 131.754 83.8137 C 131.622 82.2278 130.759 81.7635 130.025 81.7635 C 128.978 81.7635 128.402 82.4308 128.402 83.5818 C 128.402 86.7325 135 88.2449 135 93.2634 C 135 96.3093 132.905 98 129.868 98 C 126.858 98 125.131 95.6438 125 92.8791 L 128.088 92.4436 C 128.22 94.3115 128.978 95.2336 130.025 95.2336 C 131.151 95.2336 131.911 94.6451 131.911 93.5447 C 131.911 89.8832 125.312 88.9093 125.312 83.6095 C 125.312 80.663 127.147 79 130.339 79 C 132.984 79 134.555 80.869 134.843 83.4806 L 131.754 83.8137" />
            <polyline id="Fill-7" fill="#a38855" points="138.969,81.6917 136,81.6917 136,79 145,79 145,81.6917 142.035,81.6917 142.035,97 138.969,97 138.969,81.6917" />
            <polygon id="Fill-8" fill="#a38855" points="147,97 150,97 150,94 147,94" />
            <path id="Fill-9" fill="#a38855" d="M 243.334 82.9339 L 241 82.9339 L 241 81.2865 C 242.31 80.5971 243.523 79.8607 244.501 79 L 246 79 L 246 97 L 243.334 97 L 243.334 82.9339" />
            <path id="Fill-10" fill="#a38855" d="M 255.984 83.2746 C 255.984 82.0724 255.445 81.5086 254.499 81.5086 C 253.555 81.5086 253.016 82.0724 253.016 83.2746 L 253.016 86.3481 C 253.016 87.5515 253.555 88.1141 254.348 88.1141 C 254.91 88.1141 255.598 87.578 255.984 87.2703 L 255.984 83.2746 Z M 253.147 92.7742 L 253.147 93.7228 C 253.147 94.9262 253.555 95.4887 254.499 95.4887 C 255.445 95.4887 255.984 94.9262 255.984 93.7228 L 255.984 89.3958 C 255.164 90.2138 254.652 90.6257 253.375 90.6257 C 251.534 90.6257 250 89.55 250 86.8354 L 250 84.6328 C 250 80.7401 251.332 79 254.499 79 C 257.671 79 259 80.5877 259 84.069 L 259 92.9295 C 259 96.4109 257.671 97.975 254.499 97.9997 C 251.994 98.0262 250.385 96.2602 250.385 93.9022 L 250.385 92.7742 L 253.147 92.7742 Z" />
            <path id="Fill-11" fill="#a38855" d="M 267.984 83.2747 C 267.984 82.0724 267.445 81.5087 266.501 81.5087 C 265.554 81.5087 265.019 82.0724 265.019 83.2747 L 265.019 93.723 C 265.019 94.9264 265.554 95.489 266.501 95.489 C 267.445 95.489 267.984 94.9264 267.984 93.723 L 267.984 83.2747 Z M 262 84.0691 C 262 80.5877 263.331 79 266.501 79 C 269.672 79 271 80.5877 271 84.0691 L 271 92.9297 C 271 96.4111 269.672 98 266.501 98 C 263.331 98 262 96.4111 262 92.9297 L 262 84.0691 Z" />
            <path id="Fill-12" fill="#a38855" d="M 278.983 83.2746 C 278.983 82.0724 278.444 81.5086 277.5 81.5086 C 276.553 81.5086 276.014 82.0724 276.014 83.2746 L 276.014 86.3481 C 276.014 87.5515 276.553 88.1141 277.347 88.1141 C 277.908 88.1141 278.6 87.578 278.983 87.2703 L 278.983 83.2746 Z M 276.142 92.7742 L 276.142 93.7228 C 276.142 94.9262 276.553 95.4887 277.5 95.4887 C 278.444 95.4887 278.983 94.9262 278.983 93.7228 L 278.983 89.3958 C 278.163 90.2138 277.653 90.6257 276.374 90.6257 C 274.532 90.6257 273 89.55 273 86.8354 L 273 84.6328 C 273 80.7401 274.326 79 277.5 79 C 280.668 79 282 80.5877 282 84.069 L 282 92.9295 C 282 96.4109 280.668 97.975 277.5 97.9997 C 274.992 98.0262 273.382 96.2602 273.382 93.9022 L 273.382 92.7742 L 276.142 92.7742 Z" />
            <path id="Fill-13" fill="#a38855" d="M 282.952 104 L 114.048 104 C 113.469 104 113 103.553 113 103 C 113 102.447 113.469 102 114.048 102 L 282.952 102 C 283.53 102 284 102.447 284 103 C 284 103.553 283.53 104 282.952 104" />
            <path id="Fill-14" fill="#fffffe" d="M 297.262 110.396 C 295.316 110.262 293.401 110.529 291.571 111.32 C 290.977 111.591 290.314 112.108 289.756 112.704 C 289.316 113.166 288.956 113.667 288.541 114.033 C 288.124 114.49 287.609 113.895 288.456 113.051 C 291.223 110.646 294.321 109.895 297.483 110.012 C 301.19 110.127 307.044 111.783 318.278 117.456 C 321.545 119.11 325.102 120.765 328.517 121.882 C 334.068 123.668 341.392 123.902 345.951 119.284 C 347.237 117.976 348.158 116.379 348.561 114.396 C 348.858 114.049 349.198 114.474 348.858 115.07 C 345.679 123.341 336.564 125.09 329.952 123.435 C 321.271 121.957 305.652 110.874 297.262 110.396" />
            <path id="Fill-15" fill="#fffffe" d="M 357.836 115.907 C 358.914 114.253 359.157 112.587 358.914 111.127 C 358.246 107.026 353.387 104.361 348.732 105.003 C 345.385 105.469 341.559 108.267 341.206 111.226 C 341.095 111.475 341.206 111.591 341.291 111.417 C 348.772 101.545 361.97 108.638 357.79 115.48 C 357.1 116.624 355.849 117.679 353.914 118.55 C 347.202 121.563 336.89 115.733 330.71 112.601 C 324.245 109.319 318.288 105.1 311.157 103.624 C 308.933 103.155 306.706 102.924 304.502 103.022 C 301.924 103.138 299.555 103.721 297.184 104.847 C 296.151 105.354 295.096 105.951 294.247 106.752 C 293.749 107.217 294.08 107.705 294.572 107.471 C 294.685 107.413 294.999 107.18 295.342 106.892 C 297.13 105.391 298.65 104.324 300.891 103.917 C 310.962 102.07 320.274 109.338 330.574 114.392 C 335.86 116.955 351.376 124.713 357.836 115.907" />
            <path id="Fill-16" fill="#fffffe" d="M 337.132 120.755 C 332.664 121.413 327.685 119.091 324.808 117.655 C 317.097 113.795 309.144 107.9 303.95 109.626 C 300.579 110.753 298.325 113.969 299.887 118.138 C 301.208 121.687 305.671 123.996 309.898 123.685 C 313.926 123.392 316.901 120.175 316.393 115.675 C 316.404 114.705 317.312 114.959 317.281 115.967 C 317.621 118.524 316.526 120.329 315.86 121.085 C 311.179 126.436 301.319 123.931 299.439 117.538 C 298.359 113.679 299.38 111.022 301.319 109.375 C 307.406 104.216 316.342 109.567 322.188 112.632 C 327.881 115.617 333.988 119.903 340.25 118.408 C 344.679 117.344 346.848 113.504 346.403 109.838 C 346.108 107.36 344.534 105.088 341.909 103.675 C 340.072 102.684 337.645 102.644 334.804 102.896 C 334.008 102.934 334.209 102.14 334.841 102.101 C 338.981 101.541 344.129 103.283 346.292 107.92 C 348.452 112.476 345.745 119.46 337.132 120.755" />
            <path id="Fill-17" fill="#fffffe" d="M 98.7358 110.396 C 100.676 110.262 102.591 110.529 104.423 111.32 C 105.015 111.591 105.675 112.108 106.238 112.704 C 106.685 113.166 107.044 113.667 107.46 114.033 C 107.876 114.49 108.393 113.895 107.538 113.051 C 104.778 110.646 101.682 109.895 98.5125 110.012 C 94.8029 110.127 88.9582 111.783 77.7243 117.456 C 74.4542 119.11 70.8942 120.765 67.4879 121.882 C 61.9327 123.668 54.6073 123.902 50.0503 119.284 C 48.7697 117.976 47.8492 116.379 47.4461 114.396 C 47.1451 114.049 46.7977 114.474 47.1451 115.07 C 50.3275 123.341 59.4422 125.09 66.0472 123.435 C 74.7245 121.957 90.3467 110.874 98.7358 110.396" />
            <path id="Fill-18" fill="#fffffe" d="M 38.1623 115.907 C 37.0839 114.253 36.8467 112.587 37.0839 111.127 C 37.7523 107.026 42.6093 104.361 47.2716 105.003 C 50.6131 105.469 54.4393 108.267 54.7914 111.226 C 54.9033 111.475 54.7914 111.591 54.7138 111.417 C 47.2245 101.545 34.0306 108.638 38.2106 115.48 C 38.9008 116.624 40.1504 117.679 42.0873 118.55 C 48.8025 121.563 59.1085 115.733 65.2886 112.601 C 71.7603 109.319 77.7199 105.1 84.8411 103.624 C 87.0726 103.155 89.3013 102.924 91.5041 103.022 C 94.0761 103.138 96.4506 103.721 98.8148 104.847 C 99.8548 105.354 100.904 105.951 101.756 106.752 C 102.249 107.217 101.922 107.705 101.422 107.471 C 101.315 107.413 101.001 107.18 100.661 106.892 C 98.8671 105.391 97.3505 104.324 95.1121 103.917 C 85.0381 102.07 75.7249 109.338 65.4304 114.392 C 60.1341 116.955 44.6226 124.713 38.1623 115.907" />
            <path id="Fill-19" fill="#fffffe" d="M 58.872 120.755 C 63.335 121.413 68.3222 119.091 71.1966 117.655 C 78.9087 113.795 86.856 107.9 92.0531 109.626 C 95.427 110.753 97.6726 113.969 96.1157 118.138 C 94.7976 121.687 90.3294 123.996 86.1103 123.685 C 82.0788 123.392 79.1072 120.175 79.6146 115.675 C 79.5962 114.705 78.6906 114.959 78.7188 115.967 C 78.3788 118.524 79.4714 120.329 80.1411 121.085 C 84.8273 126.436 94.6785 123.931 96.561 117.538 C 97.641 113.679 96.6203 111.022 94.6785 109.375 C 88.5999 104.216 79.6629 109.567 73.811 112.632 C 68.1248 115.617 62.0106 119.903 55.7536 118.408 C 51.3165 117.344 49.1555 113.504 49.5968 109.838 C 49.8902 107.36 51.4638 105.088 54.0891 103.675 C 55.9251 102.684 58.3617 102.644 61.193 102.896 C 61.9922 102.934 61.7897 102.14 61.1642 102.101 C 57.0183 101.541 51.8746 103.283 49.7113 107.92 C 47.5457 112.476 50.2487 119.46 58.872 120.755" />
            <path id="Fill-20" fill="#fffffe" d="M 64.6847 77.9046 C 64.8641 78.3761 65.6221 80.3528 66.7936 81.1343 C 68.242 82.1072 70.1573 81.9198 71.9018 81.2758 C 75.6077 79.9036 78.1125 76.9472 76.3316 71.7185 C 75.6442 69.7195 73.9168 66.456 69.9386 66.3638 C 68.2966 66.3357 67.7675 66.4755 61.235 68.8756 C 62.0563 71.0258 62.8787 73.1755 63.6994 75.3241 C 64.028 76.1852 64.356 77.0435 64.6847 77.9046 Z M 60.7595 67.6288 C 65.9769 65.6258 67.2903 65.1772 68.4185 63.7311 C 69.9426 61.7647 69.3816 59.2335 68.9704 58.0589 C 68.5421 56.8466 67.1963 54.0414 63.7387 53.6799 C 61.415 53.4473 59.0953 54.3182 57.6515 54.8716 C 56.2072 55.4234 56.2932 55.9362 56.9988 57.785 C 58.2518 61.0657 59.5065 64.347 60.7595 67.6288 Z M 69.7882 64.7549 C 70.2302 64.7108 70.671 64.6673 71.1118 64.6249 C 77.8192 64.0685 80.5826 67.2266 81.5377 70.1458 C 81.9717 71.459 82.5708 74.1129 80.8309 77.0349 C 78.8985 80.2606 75.0251 81.6431 73.4606 82.2217 C 72.2976 82.6308 66.461 84.5479 65.1335 85.0888 C 64.5104 85.33 62.0494 86.3619 61.0949 86.8042 C 60.2514 87.1795 59.4097 87.5593 58.5702 87.942 C 58.2603 88.0704 58.225 87.9856 58.1032 87.6877 C 57.647 86.5807 57.5951 86.4541 57.9756 86.245 C 60.7509 84.7977 61.419 84.1446 61.1524 82.5604 C 60.9366 81.3589 60.8899 80.9808 55.4509 67.2467 C 54.5191 64.893 53.9131 63.4996 52.9671 61.2508 C 51.5894 58.1861 50.2265 58.5276 47.6238 59.2535 C 46.6635 59.5016 46.5707 59.5411 46.3645 59.1785 C 45.9271 58.1156 45.8736 57.9873 46.2569 57.8274 C 46.5821 57.7089 46.9079 57.592 47.2319 57.4745 C 48.2252 57.1582 51.6538 55.8198 52.8088 55.3712 C 53.7206 54.9982 58.2085 53.1207 59.2753 52.7311 C 64.3617 50.8312 66.3488 50.8862 68.0591 51.1079 C 71.2741 51.5938 72.9964 53.5447 73.7567 55.8118 C 74.836 59.0455 73.5671 62.3308 70.0844 64.5515 C 69.9864 64.6191 69.8868 64.6868 69.7882 64.7549 Z" />
            <path id="Fill-21" fill="#fffffe" d="M 94.0511 56.9007 C 98.133 55.7988 99.1518 55.5405 100.163 54.4569 C 100.685 53.8893 101.778 52.1252 101.219 49.4162 C 101.113 49.0153 101.15 48.9574 101.545 48.8543 C 102.73 48.5496 102.879 48.513 102.995 48.9586 C 103.518 50.9655 103.98 52.9385 104.455 54.9563 C 104.98 56.9632 105.492 58.9248 106.11 60.9076 C 106.191 61.2192 106.154 61.2759 105.891 61.4379 C 104.649 61.7552 104.507 61.7948 104.377 61.3051 C 103.855 59.9179 103.058 58.4574 101.696 57.6247 C 100.275 56.7713 99.7328 56.8841 94.4479 58.2724 C 95.3202 61.2816 96.1931 64.2913 97.0654 67.3016 C 98.3513 71.549 99.7554 72.3858 106.685 70.5582 C 111.344 69.3532 113.042 67.6865 112.933 61.8371 C 112.953 61.4998 112.979 61.3996 113.359 61.3097 C 114.603 61.0158 114.744 60.9849 114.851 61.4334 C 114.902 61.6567 115.995 67.9305 116 68.9694 C 115.981 69.9219 115.747 69.9729 113.886 70.4185 C 111.406 70.9465 99.3163 74.0044 96.6084 74.8623 C 95.6811 75.1224 91.1196 76.6349 90.1123 76.958 C 89.7451 77.0725 89.704 76.9396 89.6339 76.7197 C 89.2701 75.5794 89.229 75.4465 89.6895 75.3045 C 92.8625 74.1315 93.5628 73.1195 92.5526 69.2827 C 91.6079 65.6688 89.8441 59.8475 88.5866 55.7014 C 85.8463 46.6688 85.6766 46.4523 80.7913 47.5686 C 80.4785 47.6167 80.3818 47.6464 80.2833 47.34 C 79.919 46.1986 79.8779 46.0663 80.3262 45.9277 C 82.8348 45.198 85.3852 44.4345 87.8927 43.7094 C 89.4914 43.218 97.4211 40.9941 99.2422 40.5525 C 101.174 40.0514 103.111 39.5663 105.049 39.0949 C 105.504 38.9832 106.021 38.9059 106.375 39.2473 C 106.812 39.71 108.266 44.1464 108.429 44.8183 C 108.527 45.222 108.438 45.2896 108.1 45.4179 C 107.006 45.682 106.907 45.7077 106.659 45.3389 C 104.654 42.3899 103.648 40.9431 94.9634 43.2576 C 93.3589 43.6951 92.2346 44.1018 90.5103 44.686 C 91.6907 48.7558 92.8712 52.8286 94.0511 56.9007" />
            <path id="Fill-22" fill="#fffffe" d="M 128.141 40.2054 C 127.138 44.5122 126.189 48.8207 125.295 53.1287 C 126.857 52.9977 129.957 52.4015 130.244 52.3505 C 131.867 52.045 133.523 51.6502 135.135 51.2748 C 132.853 47.5659 130.521 43.8765 128.141 40.2054 Z M 137.175 63.6632 C 137.165 63.3376 137.197 63.2386 137.614 63.1654 C 139.931 62.7649 140.807 62.2997 140.587 60.9379 C 140.506 60.4372 140.292 60.0075 140.079 59.5761 C 139.062 57.7405 137.337 54.9534 136.294 53.1739 C 134.336 53.4657 132.368 53.7284 130.421 54.0946 C 128.567 54.447 126.963 54.8069 124.849 55.3328 C 124.54 56.9904 124.232 58.6034 123.977 60.2078 C 123.795 61.2326 123.503 63.0807 123.664 63.8452 C 123.88 64.8825 124.52 65.3986 126.689 65.1869 C 127.446 65.1263 127.545 65.1532 127.617 65.5142 C 127.852 66.6872 127.824 66.7862 127.456 66.8606 C 125.886 67.1341 124.233 67.4825 122.619 67.7869 C 121.012 68.1348 119.362 68.5062 117.781 68.9668 C 117.325 69.0726 117.304 68.984 117.037 67.8178 C 116.955 67.4597 116.991 67.4036 117.346 67.2737 C 120.608 66.0092 120.598 66.0103 122.353 57.3543 C 123.859 49.6395 125.54 41.9253 127.394 34.2174 C 127.628 33.2379 127.621 33.1927 128.471 33.0347 C 129.125 32.9152 129.209 33.0885 129.647 33.802 C 134.607 41.4247 139.356 49.132 143.895 56.9172 C 145.33 59.3959 145.525 59.7861 145.993 60.3669 C 146.579 61.1187 146.873 61.4866 149.418 61.3567 C 149.743 61.3104 149.843 61.3441 149.899 61.7527 C 150.056 62.8919 150.069 62.9835 149.652 63.0412 C 148.255 63.1923 146.859 63.3519 145.472 63.5631 C 142.879 63.9579 140.347 64.4174 137.771 64.9123 C 137.401 64.9769 137.369 64.7956 137.338 64.6148 C 137.284 64.2978 137.229 63.9802 137.175 63.6632 Z" />
            <path id="Fill-23" fill="#fffffe" d="M 159.002 45.719 C 160.097 45.735 161.184 45.6659 162.264 45.5546 C 168.388 44.9387 170.885 41.5099 170.556 37.2922 C 170.399 35.3258 169.362 33.1516 167.768 31.9044 C 165.85 30.454 163.165 30.4232 160.666 30.6817 C 159.543 30.797 158.681 30.9335 157.367 31.1715 C 157.911 36.0205 158.457 40.87 159.002 45.719 Z M 151.114 61.8567 C 151.063 61.4937 151.15 61.4349 151.48 61.3898 C 155.368 60.6866 155.854 59.5809 155.389 55.8427 C 155.027 52.5572 154.368 47.275 153.106 37.1655 C 152.541 32.6128 150.876 32.1196 148.378 32.4033 C 147.303 32.502 147.204 32.5157 147.095 32.1139 C 146.937 30.9774 146.93 30.9323 147.442 30.8632 C 148.563 30.6989 154.039 30.1052 155.265 29.9756 C 157.476 29.692 159.689 29.4231 161.906 29.1742 C 165.283 28.8392 168.137 28.9197 170.536 30.0207 C 172.463 30.9255 175.62 33.0095 175.887 37.0884 C 176.023 39.1485 175.265 40.4859 174.995 40.9191 C 173.385 43.5168 171.029 44.4198 167.383 45.711 C 168.718 46.9599 175.052 52.9522 175.802 53.7416 C 180.511 58.5797 180.606 58.5849 183.464 58.4336 C 183.891 58.4108 183.946 58.5461 184 59.6454 C 183.923 60.0182 183.877 60.0199 183.309 60.0479 C 181.94 60.1181 180.567 60.1489 179.199 60.2334 C 178.16 60.2984 177.123 60.4109 176.086 60.4839 C 175.852 60.5005 175.752 60.4611 175.548 60.2448 C 174.58 59.283 167.009 51.1114 165.222 49.4577 C 162.565 46.9062 162.379 46.6899 159.156 47.0866 C 159.423 49.4577 159.752 53.2519 160.068 55.619 C 160.557 59.0763 161.954 60.0199 165.13 59.795 C 165.46 59.7625 165.511 59.803 165.594 60.1181 C 165.701 61.2151 165.716 61.3516 165.337 61.3881 C 163.016 61.4794 160.707 61.7272 158.396 61.9521 C 156.138 62.2163 153.945 62.6313 151.698 62.9818 C 151.324 63.032 151.271 62.9932 151.227 62.6753 C 151.189 62.4024 151.151 62.1296 151.114 61.8567 Z" />
            <path id="Fill-24" fill="#fffffe" d="M 207.051 43.4676 C 208.126 43.623 209.205 43.6859 210.281 43.7086 C 216.386 43.8436 219.267 40.6832 219.461 36.3764 C 219.548 34.3665 218.794 32.0377 217.377 30.5783 C 215.665 28.875 213.024 28.5107 210.534 28.4618 C 209.416 28.4391 208.548 28.4706 207.225 28.548 C 207.169 33.5216 207.109 38.4958 207.051 43.4676 Z M 197.311 58.8179 C 197.305 58.4455 197.399 58.3966 197.729 58.3908 C 201.639 58.1615 202.255 57.103 202.255 53.2636 C 202.299 49.8955 202.299 44.4685 202.297 34.0855 C 202.299 29.408 200.721 28.7028 198.231 28.6795 C 197.162 28.6451 197.06 28.6486 197.004 28.2267 C 196.989 27.0583 196.989 27.0111 197.5 27.0053 C 198.62 26.9791 204.081 27.0571 205.305 27.0798 C 207.515 27.0641 209.726 27.0682 211.939 27.0885 C 215.304 27.17 218.106 27.6047 220.334 29.017 C 222.12 30.1709 224.978 32.6714 224.738 36.8292 C 224.62 38.9316 223.708 40.1903 223.389 40.5959 C 221.483 43.0236 219.053 43.6457 215.301 44.5005 C 216.464 45.9286 221.967 52.7777 222.609 53.6692 C 226.656 59.1479 226.749 59.1648 229.588 59.3655 C 230.01 59.3975 230.046 59.5407 229.965 60.6603 C 229.844 61.0263 229.799 61.0234 229.236 60.9803 C 227.875 60.8826 226.521 60.7423 225.161 60.6591 C 224.127 60.5945 223.094 60.5817 222.063 60.527 C 221.829 60.5131 221.736 60.4613 221.562 60.2174 C 220.725 59.1252 214.271 49.917 212.714 48.0246 C 210.41 45.1139 210.255 44.8701 207.033 44.8718 C 207.005 47.3048 206.867 51.1844 206.884 53.6191 C 206.943 57.1775 208.202 58.3047 211.356 58.4711 C 211.686 58.4799 211.731 58.5281 211.773 58.8552 C 211.745 59.9777 211.742 60.1185 211.365 60.1086 C 209.067 59.9119 206.766 59.8776 204.462 59.8188 C 202.208 59.806 200.002 59.9538 197.75 60.0283 C 197.373 60.0341 197.327 59.9882 197.323 59.6611 C 197.318 59.3801 197.314 59.099 197.311 58.8179 Z" />
            <path id="Fill-25" fill="#fffffe" d="M 235.535 29.8206 C 234.493 29.6897 234.393 29.681 234.43 29.2179 C 234.513 28.1094 234.524 27.9704 234.926 28.0044 C 235.676 28.0471 242.06 28.8148 243.156 28.9451 C 245.006 29.1274 248.97 29.3944 249.668 29.4826 C 250.067 29.5305 250.05 29.6672 249.909 30.9118 C 249.823 31.2273 249.768 31.2671 249.219 31.2019 C 247.218 31.105 246.755 31.1979 246.171 31.5047 C 244.405 32.5238 244.297 33.6317 243.597 40.5498 C 242.406 52.3073 242.32 53.6517 242.27 55.0445 C 242.03 59.3073 243.478 59.7364 246.127 60.2854 C 246.489 60.3748 246.531 60.4261 246.542 60.7543 C 246.404 61.9522 246.393 62.0445 245.933 61.9874 C 245.014 61.868 240.435 61.2232 239.421 61.1321 C 237.068 60.9418 234.673 60.7699 232.32 60.6263 C 231.952 60.5963 231.963 60.4584 232.052 59.3021 C 232.121 58.982 232.129 58.8897 232.594 58.881 C 235.609 58.9895 236.874 58.4179 237.362 55.0642 C 237.575 53.6857 238.25 46.6742 238.444 44.5028 C 238.621 42.5194 239.427 33.5152 239.045 32.1766 C 238.599 30.4135 237.221 30.1003 235.535 29.8206" />
            <path id="Fill-26" fill="#fffffe" d="M 263.092 41.4855 C 264.697 47.5809 266.224 53.74 267.339 59.7512 C 268.647 57.9927 270.665 55.0897 271.968 53.3411 C 274.623 49.8055 277.099 46.2027 279.659 42.4387 C 280.495 41.2757 281.508 39.77 281.753 38.5356 C 282.084 36.8443 280.504 36.4298 279.426 36.1242 C 278.923 36.0268 278.884 35.9729 278.909 35.5497 C 279.117 34.4527 279.134 34.3611 279.633 34.4585 C 280.38 34.6469 283.687 35.3143 283.937 35.3699 C 285.539 35.6998 288.111 36.1555 289.646 36.5469 C 290.098 36.6472 290.067 36.784 289.831 37.8752 C 289.812 37.9668 289.784 38.1042 289.666 38.1726 C 289.604 38.2068 288.692 38.1013 288.692 38.1013 C 285.52 37.7842 283.249 40.8414 282.418 41.9529 C 277.015 49.4542 276.442 50.3012 272.888 55.0752 C 272.085 56.1554 268.181 61.5039 267.316 62.7267 C 266.291 64.2492 266.106 64.5008 265.427 65.4239 C 265.006 65.9665 264.944 66.0495 264.529 65.9781 C 263.833 65.861 263.818 65.6709 263.49 64.1524 C 262.106 56.3467 257.955 41.3626 256.97 38.4654 C 255.555 34.2759 254.836 32.1973 251.423 31.6802 C 251.019 31.6297 250.974 31.5787 251.01 31.254 C 251.148 30.0985 251.162 29.9582 251.569 30.0086 C 254.839 30.5484 258.18 30.9525 261.458 31.4355 C 263.172 31.69 264.891 31.9086 266.611 32.1388 C 267.066 32.213 267.038 32.3956 266.872 33.4543 C 266.814 33.8213 266.614 33.79 266.314 33.7413 C 264.742 33.5813 262.516 33.3355 262.115 36.1039 C 261.957 37.1644 262.196 38.0468 263.092 41.4855" />
            <path id="Fill-27" fill="#fffffe" d="M 297.64 53.213 C 301.677 54.2632 302.678 54.5406 304.081 54.1002 C 304.811 53.8654 306.623 52.8814 307.495 50.27 C 307.604 49.8728 307.667 49.8421 308.056 49.9475 C 309.223 50.2643 309.369 50.3064 309.248 50.7486 C 308.695 52.7355 308.107 54.6643 307.509 56.6387 C 306.959 58.625 306.421 60.5669 305.964 62.58 C 305.88 62.8888 305.817 62.9196 305.51 62.931 C 304.287 62.5965 304.149 62.5601 304.279 62.0746 C 304.524 60.6199 304.569 58.972 303.816 57.5845 C 303.027 56.1509 302.503 55.9828 297.296 54.5902 C 296.546 57.6125 295.794 60.637 295.044 63.6598 C 294.032 67.9555 294.807 69.3641 301.649 71.1863 C 306.24 72.433 308.532 71.829 311.353 66.7327 C 311.54 66.4518 311.61 66.376 311.985 66.4871 C 313.197 66.845 313.338 66.8888 313.206 67.3265 C 313.138 67.5458 310.948 73.4917 310.435 74.3903 C 309.942 75.2017 309.719 75.131 307.895 74.6006 C 305.493 73.8342 293.62 70.543 290.895 69.9589 C 289.976 69.7287 285.334 68.8011 284.319 68.5857 C 283.949 68.5048 283.98 68.3709 284.028 68.1481 C 284.287 66.9857 284.316 66.8507 284.778 66.9515 C 288.062 67.4951 289.164 66.9646 290.207 63.1583 C 291.199 59.58 292.586 53.6945 293.573 49.5019 C 295.729 40.3679 295.686 40.0973 290.974 38.6705 C 290.687 38.5583 290.585 38.536 290.655 38.2243 C 290.915 37.062 290.943 36.9269 291.394 37.0266 C 293.889 37.6249 296.442 38.2147 298.942 38.8169 C 300.546 39.1759 308.433 41.1446 310.218 41.6586 C 312.123 42.1748 314.023 42.7058 315.923 43.2506 C 316.368 43.3782 316.853 43.5651 316.985 44.0335 C 317.13 44.6472 316.165 49.1862 315.971 49.846 C 315.855 50.2421 315.742 50.2557 315.39 50.2027 C 314.319 49.8911 314.223 49.866 314.192 49.425 C 313.944 45.8985 313.795 44.1543 305.206 41.8927 C 303.619 41.4831 302.455 41.2819 300.69 40.9412 C 299.675 45.0306 298.658 49.1218 297.64 53.213" />
            <path id="Fill-28" fill="#fffffe" d="M 330.372 64.4389 C 331.36 64.9216 332.377 65.3231 333.407 65.6858 C 339.245 67.7491 342.999 65.7241 344.506 61.7679 C 345.207 59.9211 345.193 57.5089 344.275 55.6987 C 343.146 53.5635 340.712 52.3856 338.33 51.5494 C 337.26 51.1724 336.415 50.9279 335.117 50.5812 C 333.534 55.2006 331.955 59.82 330.372 64.4389 Z M 316.294 75.6701 C 316.404 75.3211 316.508 75.3046 316.826 75.4057 C 320.653 76.4258 321.572 75.6336 322.751 72.0532 C 323.827 68.9269 325.491 63.8677 328.677 54.1844 C 330.116 49.8226 328.814 48.6647 326.426 47.8593 C 325.41 47.488 325.314 47.4595 325.387 47.0488 C 325.731 45.9537 325.745 45.9103 326.238 46.0663 C 327.322 46.3942 332.548 48.1946 333.72 48.6025 C 335.852 49.2879 337.981 49.9928 340.104 50.7148 C 343.323 51.8596 345.889 53.1568 347.606 55.1835 C 348.975 56.8274 350.968 60.0731 349.462 63.8757 C 348.702 65.7972 347.434 66.6798 347.004 66.9557 C 344.415 68.6105 341.878 68.4163 338.004 68.0193 C 338.685 69.7198 341.892 77.8613 342.239 78.8992 C 344.466 85.2997 344.551 85.3477 347.232 86.4427 C 347.632 86.6072 347.623 86.7523 347.201 87.7713 C 346.97 88.0741 346.928 88.0558 346.396 87.8359 C 345.114 87.3081 343.844 86.7454 342.557 86.2319 C 341.58 85.8418 340.586 85.4996 339.608 85.1198 C 339.386 85.0324 339.313 84.9535 339.217 84.6708 C 338.744 83.3827 335.345 72.7415 334.427 70.4823 C 333.1 67.0373 333.024 66.7614 329.924 65.7424 C 329.149 67.9998 327.826 71.5745 327.097 73.8491 C 326.061 77.1873 326.925 78.6359 329.913 79.7926 C 330.228 79.9051 330.256 79.9645 330.195 80.2838 C 329.825 81.3212 329.777 81.452 329.417 81.3223 C 327.266 80.4107 325.06 79.6475 322.864 78.8638 C 320.699 78.1389 318.533 77.5786 316.345 76.9382 C 315.982 76.8246 315.951 76.7669 316.046 76.4595 C 316.128 76.1968 316.213 75.9346 316.294 75.6701 Z" />
            <path id="Fill-29" fill="#fffffe" d="M 119.421 127.715 C 119.388 129.664 119.354 131.951 122.641 132.052 C 122.911 132.084 122.944 132.084 122.944 132.32 L 122.944 133.564 C 122.911 133.799 122.877 133.833 122.673 133.833 C 121.285 133.833 119.861 133.799 118.472 133.799 C 117.082 133.799 115.727 133.833 114.339 133.833 C 114.034 133.833 114 133.765 114 133.53 L 114 132.421 C 114 132.118 114.034 132.084 114.339 132.052 C 114.746 132.017 115.118 131.951 115.456 131.849 C 117.287 131.311 117.388 129.731 117.524 126.874 L 118.134 112.386 C 117.321 112.017 116.811 111.782 115.355 111.782 C 115.084 111.782 115.051 111.714 115.017 111.411 L 115.017 110.335 C 115.017 110.1 115.084 110.1 115.355 110.066 L 118.405 110.066 C 119.793 110.066 121.217 110.032 122.606 110 C 123.792 110 124.13 110.437 124.639 111.545 C 127.248 117.831 127.958 119.58 130.703 126.705 C 133.244 120.42 134.158 118.236 135.954 114.034 L 137.107 111.479 C 137.445 110.839 137.785 110.168 138.936 110.168 L 142.018 110.201 C 143.578 110.201 145.068 110.134 146.559 110.1 C 146.694 110.1 147 110.1 147 110.403 L 147 111.479 C 146.965 111.579 146.965 111.68 146.897 111.748 C 146.864 111.814 146.864 111.814 146.084 111.814 C 144.12 111.814 143.543 112.151 143.511 114.369 L 143.511 128.69 C 143.543 130.438 143.578 130.976 143.95 131.413 C 144.187 131.682 144.594 132.052 146.626 132.151 C 146.897 132.151 146.965 132.186 146.965 132.455 L 146.965 133.496 C 146.965 133.765 146.897 133.833 146.66 133.833 C 144.729 133.765 142.798 133.731 140.867 133.731 C 139.071 133.731 137.309 133.799 135.513 133.833 C 135.311 133.833 135.311 133.731 135.276 133.564 L 135.276 132.521 C 135.276 132.151 135.446 132.118 135.717 132.084 C 138.191 131.983 138.597 131.311 138.632 129.362 L 138.632 112.555 C 137.072 116.117 136.801 116.755 134.362 122.672 C 132.736 126.673 131.211 130.201 129.72 133.697 C 129.585 133.966 129.517 133.966 129.247 134 C 128.434 134 128.365 134 128.195 133.697 C 126.061 128.084 125.452 126.573 123.385 121.361 C 122.369 118.874 121.251 116.151 120.031 114.034 L 119.421 127.715" />
            <path id="Fill-30" fill="#fffffe" d="M 150 110.376 C 150 110.137 150 110 150.333 110 C 151.099 110 154.894 110.103 155.726 110.103 C 157.557 110.103 159.389 110.035 161.254 110 C 161.353 110 161.486 110.035 161.486 110.24 L 161.486 111.54 C 161.453 111.779 161.387 111.779 161.02 111.779 C 158.356 111.779 158.256 112.667 158.256 115.164 L 158.256 122.79 L 158.324 125.561 C 158.423 126.964 158.523 128.262 159.29 129.63 C 159.822 130.589 161.42 132.572 164.583 132.572 C 166.314 132.572 168.012 131.99 169.276 130.794 C 171.141 129.015 171.407 126.62 171.441 123.988 L 171.441 114.72 C 171.441 112.326 171.174 111.813 168.211 111.677 C 167.978 111.677 167.944 111.642 167.944 111.47 L 167.944 110.24 C 167.944 110.035 167.944 110 168.145 110 C 168.711 110 171.474 110.07 172.107 110.07 C 173.639 110.07 175.203 110 176.734 110 C 176.968 110 176.968 110.035 177 110.205 L 177 111.438 C 176.968 111.711 176.935 111.744 176.668 111.744 C 174.138 111.846 173.537 112.224 173.537 114.276 L 173.537 124.091 C 173.506 126.347 173.506 129.699 170.808 132.298 C 170.075 133.017 167.746 135 162.985 135 C 160.854 135 158.157 134.522 156.094 132.811 C 153.53 130.657 153.397 127.955 153.363 125.526 L 153.363 114.925 C 153.363 112.463 153.063 111.779 150.2 111.779 C 150.034 111.779 150.034 111.744 150 111.54 L 150 110.376" />
            <path id="Fill-31" fill="#fffffe" d="M 204 116.18 C 204 116.214 204 116.52 203.727 116.52 L 202.668 116.52 C 202.463 116.486 202.395 116.452 202.361 116.147 C 201.952 111.938 199.868 111.734 194.612 111.632 L 194.612 129.384 C 194.612 132.032 195.02 132.099 197.649 132.338 C 197.82 132.338 197.854 132.371 197.889 132.541 L 197.889 133.763 C 197.889 133.933 197.889 134 197.718 134 L 197.581 134 C 195.635 133.933 193.724 133.898 191.777 133.898 C 189.935 133.898 188.125 134 186.281 134 C 186.146 134 186.146 133.933 186.111 133.763 L 186.111 132.541 C 186.146 132.338 186.179 132.304 186.419 132.269 C 189.081 132.099 189.354 131.76 189.423 129.453 L 189.423 111.667 C 184.267 111.734 182.083 111.835 181.639 116.147 C 181.605 116.452 181.571 116.486 181.332 116.486 L 180.342 116.486 C 180.069 116.486 180 116.452 180 116.18 C 180.034 115.197 180.034 114.212 180.034 113.227 L 180.034 110.648 C 180.034 110.309 180.24 110.003 180.58 110.003 C 184.438 110.038 188.296 110.105 192.154 110.105 C 195.704 110.105 199.528 110.038 203.385 110.003 C 203.863 109.969 203.898 110.241 203.931 110.546 L 203.931 112.516 L 204 116.18" />
            <path id="Fill-32" fill="#fffffe" d="M 206 110.376 C 206 110.137 206 110 206.333 110 C 207.099 110 210.892 110.103 211.725 110.103 C 213.556 110.103 215.39 110.035 217.254 110 C 217.352 110 217.487 110.035 217.487 110.24 L 217.487 111.54 C 217.453 111.779 217.386 111.779 217.018 111.779 C 214.355 111.779 214.257 112.667 214.257 115.164 L 214.257 122.79 L 214.324 125.561 C 214.422 126.964 214.523 128.262 215.289 129.63 C 215.821 130.589 217.42 132.572 220.582 132.572 C 222.315 132.572 224.011 131.99 225.276 130.794 C 227.14 129.015 227.407 126.62 227.44 123.988 L 227.44 114.72 C 227.44 112.326 227.174 111.813 224.21 111.677 C 223.977 111.677 223.944 111.642 223.944 111.47 L 223.944 110.24 C 223.944 110.035 223.944 110 224.146 110 C 224.712 110 227.474 110.07 228.108 110.07 C 229.638 110.07 231.203 110 232.734 110 C 232.969 110 232.969 110.035 233 110.205 L 233 111.438 C 232.969 111.711 232.936 111.744 232.669 111.744 C 230.138 111.846 229.537 112.224 229.537 114.276 L 229.537 124.091 C 229.507 126.347 229.507 129.699 226.809 132.298 C 226.075 133.017 223.745 135 218.984 135 C 216.853 135 214.156 134.522 212.092 132.811 C 209.53 130.657 209.395 127.955 209.361 125.526 L 209.361 114.925 C 209.361 112.463 209.062 111.779 206.199 111.779 C 206.034 111.779 206.034 111.744 206 111.54 L 206 110.376" />
            <path id="Fill-33" fill="#fffffe" d="M 243.867 116.001 L 240.621 123.956 C 241.603 124.022 242.144 124.055 243.801 124.055 C 245.39 124.055 246.03 123.99 246.808 123.923 L 243.867 116.001 Z M 247.519 125.747 C 246.236 125.714 244.948 125.647 243.664 125.647 C 242.449 125.647 241.299 125.714 239.878 125.779 C 239.539 126.608 238.187 129.79 238.187 130.852 C 238.187 131.846 238.662 132.276 240.826 132.344 C 241.196 132.377 241.23 132.409 241.23 132.773 L 241.23 133.669 C 241.23 133.968 241.196 133.968 240.96 134 C 239.573 134 238.187 133.968 236.8 133.968 C 235.314 133.968 233.859 134 232.373 134 C 232 134 232 133.867 232 132.674 C 232 132.344 232.034 132.31 232.407 132.31 C 235.146 132.31 235.718 130.951 237.241 127.238 L 244.171 110.366 C 244.308 110.067 244.373 110 244.815 110 L 246.03 110 C 246.403 110 246.438 110.067 246.537 110.332 L 253.672 128.399 C 254.552 130.586 254.922 131.117 255.497 131.613 C 256.175 132.243 256.445 132.276 257.695 132.476 C 258 132.508 258 132.642 258 133.602 C 258 133.934 257.897 133.968 257.661 134 C 255.634 134 253.57 133.968 251.542 133.968 C 249.752 133.968 248.129 133.968 246.537 134 C 246.236 134 246.236 133.901 246.236 133.703 L 246.236 132.674 C 246.236 132.443 246.267 132.409 246.571 132.377 C 248.194 132.377 249.344 132.377 249.344 131.15 C 249.344 130.719 249.21 130.321 249.142 130.089 L 247.519 125.747 Z" />
            <path id="Fill-34" fill="#fffffe" d="M 269.167 126.765 C 269.167 130.957 269.631 132.444 273.908 132.444 C 277.588 132.444 278.253 131.227 280.11 126.834 C 280.174 126.699 280.174 126.665 280.44 126.63 L 281.765 126.63 C 281.933 126.665 282 126.665 282 126.901 C 282 127.205 280.939 133.56 280.54 133.83 C 280.375 133.965 276.363 134 275.698 134 C 274.372 134 267.774 133.83 266.282 133.83 C 264.624 133.83 262.965 133.864 261.31 133.898 C 261.045 133.898 261.045 133.796 261.012 133.628 L 261.012 132.58 C 261.045 132.309 261.076 132.276 261.31 132.276 C 263.795 132.242 264.292 131.599 264.292 129.132 L 264.292 115.037 C 264.292 112.367 264.194 111.928 261.177 111.725 C 261.012 111.657 260.978 111.623 261.012 111.42 L 261.012 110.339 C 260.978 110.103 261.012 110 261.243 110 C 262.038 110 265.95 110.069 266.847 110.069 C 267.609 110.069 271.289 110 272.152 110 C 272.417 110 272.417 110.034 272.451 110.236 L 272.451 111.386 C 272.451 111.657 272.417 111.691 272.216 111.725 C 269.533 111.792 269.234 112.198 269.167 114.97 L 269.167 126.765" />
            <path id="Fill-35" fill="#a38855" d="M 195.957 88.6519 C 195.902 88.6479 195.849 88.6433 195.808 88.6433 C 195.117 88.6701 194.435 88.6838 193.754 88.7111 C 193.682 88.7156 193.611 88.756 193.537 88.7839 C 192.934 89.0599 192.321 89.3411 191.665 89.472 C 191.407 89.522 191.319 89.7121 191.239 89.9249 C 191.239 89.9432 190.776 90.6409 190.553 90.9715 C 190.17 91.5605 189.721 92.0858 189.093 92.4529 C 188.902 92.5752 188.798 92.7471 188.814 93.01 C 188.862 93.64 188.892 94.274 188.876 94.9125 C 188.862 95.6603 188.798 96.403 188.768 97.1547 C 188.747 97.6578 188.738 98.1694 188.717 98.6816 C 188.717 98.8671 188.669 99.0584 188.689 99.2479 C 188.713 99.4607 188.707 99.4425 188.908 99.5062 C 189.073 99.558 189.25 99.5614 189.429 99.5797 C 189.641 99.5927 189.823 99.6707 190.029 99.7208 C 190.344 99.7931 190.485 99.8614 190.771 100.154 C 190.805 100.189 190.843 100.227 190.882 100.267 C 190.912 100.313 190.941 100.348 190.978 100.426 C 191.091 100.656 191.117 100.856 191.211 101.06 C 191.304 101.273 191.384 101.603 191.348 101.605 C 191.312 101.607 191.23 101.611 191.158 101.608 C 191.084 101.604 190.822 101.603 190.695 101.609 C 190.58 101.614 190.076 101.635 189.765 101.64 C 188.902 101.644 188.033 101.649 187.162 101.635 C 186.631 101.626 186.116 101.643 185.577 101.611 C 185.542 101.607 185.042 101.589 185.001 101.58 C 185.001 101.558 184.957 101.397 184.921 101.344 C 184.716 101.042 184.306 100.653 184.158 100.394 C 184.009 100.135 183.582 99.5603 183.331 99.1073 C 183.154 98.804 183.004 98.4915 182.822 98.1876 C 182.612 97.8029 182.37 97.4404 182.154 97.0597 C 182.11 96.9874 181.641 95.9141 181.641 95.9141 C 181.428 95.1572 181.205 94.41 181.014 93.6576 C 180.931 93.3407 180.917 93.0009 180.85 92.6657 C 180.807 92.4165 180.726 92.1672 180.682 91.9185 C 180.655 91.8548 180.641 91.7779 180.618 91.6556 C 180.533 91.7369 180.457 91.787 180.41 91.8593 C 179.918 92.7021 179.464 93.5535 179.211 94.5005 C 179.059 95.0576 178.838 95.588 178.654 96.1309 C 178.64 96.1992 178.646 96.2806 178.654 96.358 C 178.704 96.7518 178.792 97.1547 178.798 97.5582 C 178.812 97.8752 178.757 98.1973 178.734 98.5183 C 178.704 98.8671 178.725 99.2211 179.008 99.4562 C 179.153 99.5831 179.333 99.6735 179.471 99.8141 C 179.529 99.8687 180.015 99.9774 180.114 100.059 C 180.215 100.131 180.636 100.181 180.701 100.322 C 180.871 100.743 180.947 101.002 180.911 101.464 L 180.914 101.693 C 180.819 101.77 180.778 101.779 180.627 101.833 C 180.588 101.847 180.496 101.857 180.457 101.866 C 178.985 102.065 177.52 101.993 176.047 101.957 C 175.805 101.952 175.561 101.894 175.323 101.88 C 175.1 101.862 174.877 101.857 174.653 101.866 C 174.594 101.875 173.988 101.848 173.937 101.771 C 173.917 101.739 173.926 101.694 173.917 101.64 C 173.917 101.64 173.911 101.454 173.884 101.341 C 173.88 101.341 173.831 101.105 173.819 101.037 C 173.799 100.902 173.812 100.766 173.812 100.625 C 173.799 100.231 173.686 99.887 173.41 99.5876 C 173.352 99.5062 173.332 99.3975 173.271 99.311 C 172.562 98.2377 172.194 97.0102 171.69 95.8504 C 171.445 95.275 171.254 94.6723 171.047 94.0839 C 170.945 93.7937 170.798 93.6451 170.632 93.2883 C 170.584 93.1864 170.549 93.1221 170.45 92.7955 C 170.312 92.3373 170.209 92.0135 170.181 91.5423 C 170.144 90.8674 170.16 90.1879 170.144 89.5084 C 170.121 89.0372 170.144 88.562 170.064 88.1039 C 169.958 87.5154 169.787 86.9355 169.601 86.3738 C 169.377 85.6715 169.189 84.9647 169.152 84.2312 C 169.14 84.3353 168.997 82.5318 169.011 81.5217 C 168.951 81.549 169.147 80.7381 169.241 80.2987 C 169.329 79.8594 169.53 78.9124 169.587 78.6546 C 169.653 78.3826 169.767 78.1248 169.863 77.8573 C 169.902 77.7258 170.082 77.3588 170.121 77.2956 C 170.312 77.0008 170.478 76.6884 170.687 76.4072 C 170.959 76.0362 171.27 75.6919 171.56 75.3339 C 171.574 75.3112 173.161 73.8799 173.61 73.5128 C 173.926 73.259 174.303 73.1008 174.649 72.8874 C 174.819 72.7793 174.969 72.6478 175.137 72.5254 C 175.936 71.9319 176.726 71.3292 177.534 70.7499 C 177.96 70.4369 178.43 70.17 178.89 69.8979 C 179.383 69.5855 180.703 69.3681 180.793 69.3408 C 181.32 69.1416 181.885 69.0733 182.446 69.001 C 183.008 68.9282 183.566 68.8019 184.132 68.7245 C 184.616 68.6658 185.107 68.634 185.592 68.6021 C 186.196 68.5708 186.804 68.5435 187.409 68.5253 C 187.847 68.5207 188.277 68.5435 188.717 68.5662 C 189.051 68.5754 189.369 68.6021 189.7 68.6385 C 190.184 68.7062 190.663 68.7836 191.131 68.8605 C 191.216 68.8741 191.304 68.8696 191.407 68.8741 C 192.178 68.9014 192.966 68.9282 193.747 68.9601 C 194.493 68.9874 195.237 69.0375 195.978 69.0284 C 196.775 69.0192 197.574 68.9601 198.371 68.8923 C 198.781 68.8605 199.2 68.7563 199.622 68.6932 C 199.757 68.6704 199.909 68.6385 200.045 68.6476 C 200.654 68.6704 201.233 68.4803 201.825 68.3984 C 201.947 68.3802 202.069 68.3534 202.201 68.3215 C 202.168 68.317 204.156 68 204.156 68 C 204.511 68.0228 204.858 68.0267 205.204 68.0495 C 205.448 68.0632 206.222 68.2806 206.323 68.3306 C 206.728 68.498 207.138 68.6567 207.553 68.8383 C 207.915 69.001 208.273 69.2002 208.654 69.359 C 209.439 69.6942 210.263 69.9252 211.102 70.1335 C 212.184 70.401 213.245 70.7539 214.337 71.035 C 214.936 71.1892 215.581 71.2706 216.207 71.3565 C 216.532 71.4066 216.864 71.402 217.197 71.4197 C 217.893 71.4698 218.441 71.1619 218.932 70.7271 C 218.998 70.6679 219.632 70.1791 220.003 69.9884 C 220.071 70.1244 220.118 70.2331 220.18 70.3464 C 220.231 70.4505 220.325 70.5547 220.362 70.6634 C 220.493 71.0077 220.631 71.3383 220.696 71.6872 C 220.781 72.0946 220.887 72.4799 221.098 72.8333 C 221.122 72.8834 221.166 72.9284 221.218 72.9511 C 221.442 73.078 221.663 73.2323 221.895 73.3227 C 222.338 73.5174 222.717 73.7894 223.086 74.0882 C 223.353 74.3101 223.659 74.478 223.948 74.6726 C 224.058 74.7586 224.187 74.8445 224.284 74.9356 C 224.373 75.0078 224.461 75.0488 224.567 75.0847 C 224.675 75.1165 224.797 75.2389 224.834 75.3521 C 224.942 75.7283 225.023 76.113 225.117 76.4937 C 225.124 76.5302 225.154 76.566 225.191 76.5842 C 225.953 77.1368 226.73 77.6849 227.501 78.2289 C 227.87 78.4822 228.244 78.7451 228.606 79.008 C 228.717 79.0803 228.785 79.1844 228.88 79.2704 C 229.039 79.4064 229.221 79.5287 229.38 79.6647 C 229.44 79.7194 229.461 79.8093 229.502 79.873 C 229.599 79.9908 229.698 80.0995 229.799 80.2173 C 229.912 80.1542 229.967 80.2173 229.986 80.3397 C 230.052 80.8109 229.887 81.1956 229.541 81.5217 C 229.525 81.5399 229.509 81.5581 229.502 81.549 C 229.256 81.5308 229.196 81.7397 229.085 81.8706 C 229 81.9662 228.908 82.0658 228.813 82.1653 C 228.387 82.6411 227.952 83.1163 227.551 83.5653 C 227.363 83.538 227.206 83.497 227.038 83.5016 C 226.757 83.5107 226.474 83.5517 226.193 83.5562 C 225.716 83.5653 225.246 83.538 224.769 83.5465 C 224.511 83.5517 224.263 83.5875 224.019 83.7281 C 223.664 83.9227 223.25 84.0314 222.899 84.2312 C 222.581 84.4167 222.262 84.3581 221.937 84.3803 C 221.605 84.4121 221.271 84.4622 220.949 84.4753 C 220.362 84.5117 219.784 84.5208 219.205 84.5436 C 218.821 84.5612 218.441 84.5931 218.043 84.6068 C 217.711 84.6159 217.357 84.6204 217.018 84.6068 C 216.47 84.5931 215.917 84.5664 215.35 84.5345 C 214.734 85.6761 213.978 86.7494 213.442 87.9456 C 213.259 88.3486 213.022 88.7247 212.785 89.1009 C 212.559 89.4674 212.41 89.8345 212.428 90.2693 C 212.458 90.9397 212.373 91.597 212.251 92.2491 C 212.221 92.3988 212.2 92.5525 212.2 92.7067 C 212.214 93.7982 212.225 94.8943 212.239 95.9864 C 212.251 96.0632 212.251 96.1491 212.286 96.2083 C 212.633 96.856 212.771 97.5764 212.979 98.2741 C 213.055 98.5274 213.123 98.7858 213.211 99.0396 C 213.252 99.1619 213.333 99.2615 213.391 99.3611 C 213.837 99.488 214.277 99.624 214.72 99.7555 C 214.777 99.7692 214.836 99.7879 214.889 99.7982 C 214.999 99.8209 215.039 99.846 215.111 99.9638 C 215.174 100.066 215.231 100.172 215.3 100.272 C 215.486 100.616 215.883 101.422 215.883 101.422 C 215.883 101.422 215.964 101.564 215.913 101.57 C 215.843 101.574 215.32 101.603 215.198 101.608 C 213.943 101.626 212.7 101.649 211.442 101.672 C 211.332 101.672 210.279 101.608 209.915 101.612 C 209.634 101.617 209.344 101.617 209.064 101.554 C 208.891 101.508 208.739 101.341 208.589 101.241 C 208.608 101.282 207.885 100.412 207.608 99.8596 C 207.316 99.2615 206.977 98.6907 206.609 98.1336 C 206.137 97.4085 205.793 96.6386 205.392 95.8777 C 205.284 95.6603 205.176 95.4429 205.045 95.2255 C 204.9 94.9808 204.821 94.7179 204.794 94.4328 C 204.722 93.9883 204.596 93.5535 204.543 93.1051 C 204.49 92.6071 204.469 92.104 204.439 91.6061 C 204.432 91.5469 204.439 91.4883 204.439 91.4291 L 204.372 91.4063 C 203.76 92.5616 203.131 93.7259 202.496 94.8994 C 202.458 94.9876 202.295 95.2841 202.076 95.4833 C 201.952 95.5965 201.881 95.7098 201.839 95.8686 C 201.708 96.2493 201.759 96.6204 201.775 97.0011 C 201.8 97.5537 201.816 98.1063 201.833 98.6589 C 201.839 98.9986 201.833 99.3429 201.833 99.7009 C 202.235 99.76 202.595 99.8141 202.965 99.8779 C 203.175 99.9092 203.394 99.9683 203.599 100.027 C 203.661 100.041 203.702 100.1 203.751 100.136 C 203.774 100.169 203.789 100.207 203.824 100.299 C 203.983 100.616 203.977 100.965 204.029 101.295 C 204.05 101.463 204.075 101.583 204.047 101.587 C 204.02 101.591 203.933 101.635 203.776 101.635 C 203.157 101.631 202.518 101.603 201.881 101.635 C 200.623 101.704 199.359 101.739 198.09 101.681 C 198.051 101.672 197.86 101.674 197.676 101.663 C 197.635 101.66 197.164 100.974 197.144 100.919 C 196.759 100.249 196.347 99.6013 196.096 98.8762 C 195.964 98.5052 195.856 98.1245 195.734 97.7437 C 195.709 97.6806 195.407 96.6659 195.366 96.2539 C 195.294 95.6421 195.243 95.0212 195.198 94.41 C 195.175 94.0025 195.202 93.5945 195.184 93.187 C 195.163 92.779 195.249 92.3988 195.359 92.009 C 195.447 91.6374 195.458 91.2481 195.522 90.8765 C 195.656 90.1833 195.792 89.4811 195.927 88.7879 C 195.935 88.7475 195.944 88.702 195.957 88.6519" />
            <polyline id="Fill-36" fill="#fffffe" points="359,56 359,56.5959 357.337,56.5959 357.337,61 356.663,61 356.663,56.5959 355,56.5959 355,56 359,56" />
            <path id="Fill-37" fill="#fffffe" d="M 359 56 L 360.009 56 L 361.51 60.2266 L 362.997 56 L 364 56 L 364 61 L 363.326 61 L 363.326 58.0491 C 363.326 57.9464 363.329 57.7785 363.333 57.5408 C 363.339 57.3055 363.341 57.0525 363.341 56.7826 L 361.852 61 L 361.155 61 L 359.653 56.7826 L 359.653 56.9352 C 359.653 57.0592 359.654 57.2447 359.66 57.4958 C 359.669 57.7463 359.674 57.9318 359.674 58.0491 L 359.674 61 L 359 61 L 359 56" />
        </g>
    </g>
</svg>