<svg xmlns="http://www.w3.org/2000/svg" viewBox="0 0 451 103" width="451px" height="103px" version="1.1">
    <!-- Generator: Sketch 48.2 (47327) - http://www.bohemiancoding.com/sketch -->
    <title>KG_Corp_wTag_201_4C</title>
    <desc>Created with Sketch.</desc>
    <defs />
    <g id="Page-1" fill="none" fill-rule="evenodd" stroke="none" stroke-width="1">
        <g id="KG_Corp_wTag_201_4C">
            <path id="Fill-1" fill="#9d1535" d="M 62.6354 50.994 C 62.6354 57.8932 57.0222 63.5946 50.0978 63.5946 C 43.1734 63.5946 37.5579 57.8932 37.5579 50.85 C 37.5579 43.8139 43.1734 38.1078 50.0978 38.1078 L 99.3196 38.1078 L 99.3196 20.9677 L 50.0978 20.9677 C 33.8559 20.9677 20.6852 34.3461 20.6852 50.85 C 20.6852 67.3587 33.8559 80.7395 50.0978 80.7395 C 66.2428 80.7395 79.4112 67.2171 79.5694 50.9916 L 62.6354 50.994 Z" />
            <path id="Fill-3" fill="#9d1535" d="M 49.8091 18.1715 L 99.3191 18.1715 L 99.3191 0.496142 L 49.8091 0.496142 C 22.4424 0.496142 0.2566 23.0423 0.2566 50.8505 C 0.2566 78.6634 22.4424 101.205 49.8091 101.205 C 77.1758 101.205 99.3664 78.6634 99.3664 50.9969 L 81.974 50.9969 C 81.974 68.8955 67.5724 83.5342 49.8091 83.5342 C 32.0482 83.5342 17.6514 68.8955 17.6514 50.8505 C 17.6514 32.8006 32.0482 18.1715 49.8091 18.1715" />
            <path id="Fill-5" fill="#636463" d="M 94.3972 96.034 L 94.8956 96.034 C 95.4697 96.034 95.9587 95.8227 95.9587 95.2706 C 95.9587 94.8841 95.6776 94.4952 94.8956 94.4952 C 94.6688 94.4952 94.5176 94.5096 94.3972 94.5336 L 94.3972 96.034 Z M 94.3972 98.4849 L 93.6979 98.4849 L 93.6979 94.0559 C 94.0641 93.9983 94.4113 93.9527 94.9334 93.9527 C 95.5949 93.9527 96.0249 94.0919 96.2848 94.2887 C 96.547 94.4832 96.684 94.7833 96.684 95.2082 C 96.684 95.7843 96.3037 96.142 95.8359 96.2836 L 95.8359 96.31 C 96.2163 96.3844 96.4761 96.7421 96.5635 97.3927 C 96.6675 98.084 96.7738 98.3409 96.8399 98.4849 L 96.1123 98.4849 C 96.0107 98.3409 95.9044 97.9376 95.817 97.3519 C 95.7107 96.7925 95.4319 96.5789 94.8791 96.5789 L 94.3972 96.5789 L 94.3972 98.4849 Z M 95.1224 92.822 C 93.4026 92.822 91.9969 94.3176 91.9969 96.1756 C 91.9969 98.0552 93.4026 99.5412 95.1366 99.5412 C 96.8754 99.5604 98.2669 98.0552 98.2669 96.1876 C 98.2669 94.3176 96.8754 92.822 95.1366 92.822 L 95.1224 92.822 Z M 95.1366 92.2075 C 97.277 92.2075 98.9756 93.9719 98.9756 96.1756 C 98.9756 98.4153 97.277 100.165 95.1224 100.165 C 92.9868 100.165 91.2504 98.4153 91.2504 96.1756 C 91.2504 93.9719 92.9868 92.2075 95.1224 92.2075 L 95.1366 92.2075 Z" />
            <path id="Fill-7" fill="#1a1919" d="M 299.942 30.9116 L 324.961 30.9116 L 324.961 63.6601 L 316.619 63.6601 L 315.371 56.0119 C 312.201 59.7376 307.618 65.2493 296.739 65.2493 C 282.285 65.2493 269.195 54.742 269.195 33.4538 C 269.195 16.8419 278.283 1.16614 298.496 1.25016 C 316.864 1.25016 324.12 13.3658 324.793 21.7558 L 312.281 21.7558 C 312.281 19.3841 308.019 11.755 299.106 11.755 C 290.204 11.755 281.954 18.0301 281.954 33.6194 C 281.954 50.1857 290.866 54.4828 299.359 54.4828 C 302.111 54.4828 311.28 53.3905 313.874 41.1524 L 299.942 41.1524 L 299.942 30.9116 Z" />
            <path id="Fill-9" fill="#1a1919" d="M 369.316 30.4968 C 369.316 19.3797 357.868 17.5625 351.624 17.4233 C 342.151 17.2096 333.889 19.7206 332.226 30.9601 L 343.551 30.9601 C 343.471 30.5784 344.856 26.8599 350.206 26.9415 C 353.207 26.9847 357.868 27.1936 357.868 32.1868 C 357.868 34.729 355.617 35.4923 353.788 35.7492 L 343.296 37.3552 C 335.892 38.4522 330.407 42.9437 330.407 51.749 C 330.407 61.008 337.227 64.8153 343.88 64.8153 C 351.794 64.8153 355.534 61.092 358.201 58.2953 C 358.454 60.8928 358.619 61.5673 359.285 63.6726 L 371.906 63.6726 L 371.906 61.9034 C 370.493 61.3945 369.316 60.211 369.316 54.8793 L 369.316 30.4968 Z M 357.868 47.512 C 357.868 52.9661 352.623 56.3461 347.461 56.3461 C 345.21 56.3461 342.054 55.081 342.054 50.9376 C 342.054 46.0332 345.63 44.9386 349.961 44.1776 C 354.79 43.4166 356.701 42.658 357.868 41.7266 L 357.868 47.512 Z" />
            <path id="Fill-11" fill="#1a1919" d="M 400.384 18.1972 C 393.294 18.1972 390.603 21.8005 388.186 26.3663 L 388.021 26.3663 L 388.021 18.5525 L 376.882 18.5525 L 376.882 63.6592 L 388.515 63.6592 L 388.515 40.1768 C 388.515 35.1764 390.185 28.5869 399.273 28.5869 C 400.362 28.5869 400.752 28.5581 401.874 28.5509 L 404.551 28.5389 L 404.551 63.6592 L 416.188 63.6592 L 416.188 28.5173 L 431.306 28.5173 L 431.306 63.6592 L 442.95 63.6592 L 442.95 28.5173 L 450.536 28.5173 L 450.536 18.1588 L 442.95 18.1588 L 442.95 16.7689 C 442.95 13.0288 443.035 11.7541 447.03 11.7541 L 450.288 11.7541 L 450.288 2.21183 C 449.284 2.13021 447.701 2.04379 444.283 2.04379 C 436.291 2.04379 431.306 5.59183 431.306 14.8988 L 431.306 18.1588 L 416.188 18.1588 L 416.188 16.7689 C 416.188 13.0288 416.274 11.7541 420.28 11.7541 L 423.529 11.7541 L 423.529 2.21183 C 422.527 2.13021 420.946 2.04379 417.53 2.04379 C 409.536 2.04379 404.551 5.59183 404.551 14.8988 L 404.551 18.1972 L 400.384 18.1972 Z" />
            <polygon id="Fill-13" fill="#1a1919" points="126.35,63.4835 113.491,63.4835 113.491,0.982257 126.35,0.982257 126.35,26.4043 149.835,0.982257 166.465,0.982257 141.347,26.5771 167.92,63.4835 151.378,63.4835 132.353,36.0642 126.35,42.332" />
            <path id="Fill-15" fill="#1a1919" d="M 194.035 50.2604 C 193.121 53.482 189.785 55.1792 186.532 55.1792 C 177.111 55.1792 176.447 47.5502 176.111 44.1534 L 206.597 44.1534 L 206.597 42.0409 C 206.597 21.432 194.454 17.1878 185.696 17.1878 C 166.227 17.1878 164.384 34.5967 164.384 40.0148 C 164.384 58.5808 174.016 64.6902 186.532 64.6902 C 194.12 64.6902 202.996 61.1158 206.093 50.2604 L 194.035 50.2604 Z M 176.447 36.4643 C 177.111 30.5133 180.028 26.9437 185.528 26.9437 C 189.282 26.9437 193.868 29.1522 194.534 36.4643 L 176.447 36.4643 Z" />
            <path id="Fill-17" fill="#1a1919" d="M 251.512 63.3193 L 239.903 63.3193 L 239.903 36.14 C 239.903 32.8608 239.735 27.3083 232.404 27.3083 C 227.292 27.3083 223.335 30.842 223.335 37.6572 L 223.335 63.3193 L 211.728 63.3193 L 211.728 18.5607 L 222.834 18.5607 L 222.834 25.131 L 223.002 25.131 C 224.573 22.452 227.868 17.4228 236.194 17.4228 C 244.793 17.4228 251.512 22.5336 251.512 32.3591 L 251.512 63.3193 Z" />
            <polygon id="Fill-19" fill="#9d1535" points="242.194,100.645 239.092,87.987 239.042,87.987 235.985,100.645 231.91,100.645 227.062,82.0408 231.088,82.0408 233.989,94.6966 234.034,94.6966 237.216,82.0408 240.993,82.0408 244.112,94.8598 244.169,94.8598 247.169,82.0408 251.119,82.0408 246.191,100.645" />
            <polygon id="Fill-21" fill="#9d1535" points="269.025,82.0408 269.025,85.4832 259.353,85.4832 259.353,89.4682 268.222,89.4682 268.222,92.6417 259.353,92.6417 259.353,97.2004 269.226,97.2004 269.226,100.645 255.325,100.645 255.325,82.0408" />
            <polygon id="Fill-23" fill="#9d1535" points="287.821,82.0408 287.821,89.1825 295.239,89.1825 295.239,82.0408 299.265,82.0408 299.265,100.645 295.239,100.645 295.239,92.6201 287.821,92.6201 287.821,100.645 283.8,100.645 283.8,82.0408" />
            <polygon id="Fill-25" fill="#9d1535" points="318.86,82.0408 318.86,85.4832 309.189,85.4832 309.189,89.4682 318.06,89.4682 318.06,92.6417 309.189,92.6417 309.189,97.2004 319.061,97.2004 319.061,100.645 305.165,100.645 305.165,82.0408" />
            <path id="Fill-27" fill="#9d1535" d="M 333.506 93.4507 L 331.2 86.6259 L 331.15 86.6259 L 328.762 93.4507 L 333.506 93.4507 Z M 333.274 82.0408 L 340.121 100.645 L 335.939 100.645 L 334.55 96.5018 L 327.711 96.5018 L 326.272 100.645 L 322.216 100.645 L 329.149 82.0408 L 333.274 82.0408 Z" />
            <path id="Fill-29" fill="#9d1535" d="M 352.505 90.4522 C 353.433 90.4522 354.125 90.2457 354.584 89.8256 C 355.049 89.4151 355.281 88.7333 355.281 87.7971 C 355.281 86.8921 355.049 86.2392 354.584 85.8263 C 354.125 85.4254 353.433 85.2141 352.505 85.2141 L 348.099 85.2141 L 348.099 90.4522 L 352.505 90.4522 Z M 353.948 82.0406 C 354.766 82.0406 355.505 82.1702 356.159 82.4391 C 356.821 82.7175 357.386 83.0872 357.86 83.5481 C 358.326 84.0186 358.683 84.5588 358.942 85.1757 C 359.181 85.7999 359.311 86.46 359.311 87.1706 C 359.311 88.2724 359.082 89.2111 358.623 90.0105 C 358.172 90.8146 357.433 91.4196 356.405 91.8325 L 356.405 91.8901 C 356.896 92.0317 357.319 92.2382 357.638 92.5238 C 357.962 92.8143 358.229 93.1456 358.437 93.5465 C 358.64 93.933 358.789 94.3603 358.879 94.8332 C 358.98 95.3037 359.037 95.767 359.07 96.2375 C 359.091 96.5352 359.112 96.8809 359.127 97.2842 C 359.143 97.6803 359.172 98.0908 359.212 98.5037 C 359.259 98.9262 359.325 99.315 359.422 99.6943 C 359.512 100.066 359.651 100.383 359.842 100.645 L 355.814 100.645 C 355.595 100.05 355.46 99.3463 355.411 98.5349 C 355.351 97.7091 355.281 96.9313 355.174 96.1871 C 355.037 95.2101 354.749 94.5067 354.314 94.0506 C 353.863 93.6041 353.138 93.376 352.127 93.376 L 348.099 93.376 L 348.099 100.645 L 344.08 100.645 L 344.08 82.0406 L 353.948 82.0406 Z" />
            <polygon id="Fill-31" fill="#9d1535" points="370.823,81.8533 375.331,81.8533 379.621,89.2015 383.88,81.8533 388.364,81.8533 381.57,93.3184 381.57,100.463 377.537,100.463 377.537,93.2056" />
            <path id="Fill-33" fill="#9d1535" d="M 394.095 93.6992 C 394.272 94.4385 394.565 95.0987 394.954 95.6892 C 395.347 96.2846 395.857 96.7551 396.488 97.1104 C 397.123 97.4632 397.886 97.6433 398.801 97.6433 C 399.708 97.6433 400.478 97.4632 401.104 97.1104 C 401.735 96.7551 402.247 96.2846 402.647 95.6892 C 403.036 95.0987 403.322 94.4385 403.504 93.6992 C 403.679 92.955 403.778 92.206 403.778 91.421 C 403.778 90.6 403.679 89.8126 403.504 89.0469 C 403.322 88.2811 403.036 87.5993 402.647 87.004 C 402.247 86.4038 401.735 85.9237 401.104 85.5684 C 400.478 85.2108 399.708 85.0403 398.801 85.0403 C 397.886 85.0403 397.123 85.2108 396.488 85.5684 C 395.857 85.9237 395.347 86.4038 394.954 87.004 C 394.565 87.5993 394.272 88.2811 394.095 89.0469 C 393.915 89.8126 393.823 90.6 393.823 91.421 C 393.823 92.206 393.915 92.955 394.095 93.6992 M 390.411 87.5465 C 390.83 86.3678 391.408 85.314 392.181 84.4402 C 392.956 83.5472 393.903 82.8606 395.016 82.3469 C 396.136 81.8476 397.397 81.6003 398.801 81.6003 C 400.218 81.6003 401.48 81.8476 402.597 82.3469 C 403.703 82.8606 404.645 83.5472 405.418 84.4402 C 406.186 85.314 406.771 86.3678 407.185 87.5465 C 407.594 88.7396 407.797 90.0263 407.797 91.421 C 407.797 92.7749 407.594 94.0376 407.185 95.2067 C 406.771 96.3806 406.186 97.4032 405.418 98.2674 C 404.645 99.1413 403.703 99.823 402.597 100.315 C 401.48 100.814 400.218 101.052 398.801 101.052 C 397.397 101.052 396.136 100.814 395.016 100.315 C 393.903 99.823 392.956 99.1413 392.181 98.2674 C 391.408 97.4032 390.83 96.3806 390.411 95.2067 C 390.008 94.0376 389.797 92.7749 389.797 91.421 C 389.797 90.0263 390.008 88.7396 390.411 87.5465" />
            <path id="Fill-35" fill="#9d1535" d="M 426.075 99.2224 C 424.698 100.449 422.78 101.054 420.335 101.054 C 417.861 101.054 415.94 100.459 414.577 99.2368 C 413.221 98.0149 412.543 96.1521 412.543 93.6075 L 412.543 82.0415 L 416.566 82.0415 L 416.566 93.6075 C 416.566 94.1068 416.611 94.6061 416.699 95.0886 C 416.784 95.5759 416.961 96.0056 417.233 96.3801 C 417.507 96.757 417.887 97.0643 418.378 97.2971 C 418.863 97.5252 419.515 97.6428 420.335 97.6428 C 421.773 97.6428 422.77 97.3235 423.309 96.6682 C 423.859 96.0152 424.129 94.9902 424.129 93.6075 L 424.129 82.0415 L 428.157 82.0415 L 428.157 93.6075 C 428.157 96.1377 427.467 97.9981 426.075 99.2224" />
            <path id="Fill-37" fill="#636463" d="M 443.201 97.1358 C 443.78 95.0113 443.952 93.002 443.952 90.9472 C 443.952 88.8659 443.683 86.9382 443.21 84.9577 C 442.79 83.1741 442.204 82.0506 441.502 80.5047 C 442.315 80.1806 443.952 79.158 443.952 79.158 C 445.027 80.9488 445.776 82.8044 446.359 84.7825 C 446.95 86.7654 447.248 88.7794 447.248 90.8247 C 447.248 91.7945 447.172 92.8244 447.035 93.8878 C 446.889 94.9609 446.671 96.0268 446.385 97.0806 C 446.104 98.1369 445.755 99.1667 445.339 100.158 C 444.923 101.145 444.557 101.959 443.997 102.787 C 443.997 102.787 442.405 101.824 441.63 101.476 C 442.315 99.9925 442.776 98.6866 443.201 97.1358" />
            <path id="Fill-39" fill="#636463" d="M 435.74 96.8429 C 436.295 94.8817 436.425 93.0428 436.425 90.9904 C 436.425 88.9115 436.215 86.9262 435.697 85.1378 C 435.57 84.6961 435.423 84.408 435.27 83.8703 C 436.191 83.4094 436.956 82.9004 437.887 82.4707 C 438.289 83.3902 438.478 83.8943 438.757 84.8569 C 439.347 86.835 439.645 88.8515 439.645 90.8967 C 439.645 91.869 439.569 92.894 439.43 93.9599 C 439.286 95.0329 439.064 96.094 438.794 97.1502 C 438.508 98.2065 438.435 98.5666 438.019 99.5508 C 437.211 99.1043 435.307 98.072 435.307 98.072 C 435.487 97.6759 435.57 97.4551 435.74 96.8429" />
            <path id="Fill-41" fill="#636463" d="M 213.831 101.475 C 213.059 101.826 211.467 102.788 211.467 102.788 C 210.902 101.958 210.54 101.144 210.12 100.157 C 209.704 99.1657 209.352 98.1359 209.076 97.0796 C 208.792 96.0258 208.577 94.9599 208.426 93.8893 C 208.287 92.8234 208.213 91.796 208.213 90.8238 C 208.213 88.7785 208.509 86.7644 209.102 84.7839 C 209.688 82.8059 210.432 80.9478 211.511 79.157 C 211.511 79.157 213.146 80.1796 213.961 80.5061 C 213.257 82.0497 212.671 83.1731 212.249 84.9568 C 211.778 86.9372 211.509 88.8649 211.509 90.9462 C 211.509 93.0035 211.682 95.0128 212.263 97.1349 C 212.688 98.6856 213.146 99.9939 213.831 101.475" />
            <path id="Fill-43" fill="#636463" d="M 220.153 98.0713 C 220.153 98.0713 218.251 99.106 217.443 99.5501 C 217.027 98.5658 216.954 98.2082 216.668 97.1495 C 216.397 96.0956 216.177 95.0322 216.028 93.9591 C 215.891 92.8957 215.818 91.8682 215.818 90.8984 C 215.818 88.8507 216.111 86.8343 216.701 84.8562 C 216.982 83.896 217.171 83.3894 217.571 82.47 C 218.506 82.9021 219.274 83.411 220.195 83.8696 C 220.037 84.4097 219.893 84.6978 219.765 85.1371 C 219.25 86.9255 219.035 88.9131 219.035 90.992 C 219.035 93.0421 219.168 94.881 219.723 96.8422 C 219.895 97.4544 219.98 97.6752 220.153 98.0713" />
        </g>
    </g>
</svg>